%TF.GenerationSoftware,KiCad,Pcbnew,9.0.3*%
%TF.CreationDate,2025-07-23T06:43:18-06:00*%
%TF.ProjectId,ARC-210-Master-Board,4152432d-3231-4302-9d4d-61737465722d,rev?*%
%TF.SameCoordinates,Original*%
%TF.FileFunction,Copper,L2,Bot*%
%TF.FilePolarity,Positive*%
%FSLAX46Y46*%
G04 Gerber Fmt 4.6, Leading zero omitted, Abs format (unit mm)*
G04 Created by KiCad (PCBNEW 9.0.3) date 2025-07-23 06:43:18*
%MOMM*%
%LPD*%
G01*
G04 APERTURE LIST*
G04 Aperture macros list*
%AMRoundRect*
0 Rectangle with rounded corners*
0 $1 Rounding radius*
0 $2 $3 $4 $5 $6 $7 $8 $9 X,Y pos of 4 corners*
0 Add a 4 corners polygon primitive as box body*
4,1,4,$2,$3,$4,$5,$6,$7,$8,$9,$2,$3,0*
0 Add four circle primitives for the rounded corners*
1,1,$1+$1,$2,$3*
1,1,$1+$1,$4,$5*
1,1,$1+$1,$6,$7*
1,1,$1+$1,$8,$9*
0 Add four rect primitives between the rounded corners*
20,1,$1+$1,$2,$3,$4,$5,0*
20,1,$1+$1,$4,$5,$6,$7,0*
20,1,$1+$1,$6,$7,$8,$9,0*
20,1,$1+$1,$8,$9,$2,$3,0*%
G04 Aperture macros list end*
%TA.AperFunction,Conductor*%
%ADD10C,0.200000*%
%TD*%
%TA.AperFunction,NonConductor*%
%ADD11C,0.200000*%
%TD*%
%ADD12C,0.300000*%
%TA.AperFunction,NonConductor*%
%ADD13C,0.300000*%
%TD*%
%TA.AperFunction,ComponentPad*%
%ADD14C,2.000000*%
%TD*%
%TA.AperFunction,ComponentPad*%
%ADD15RoundRect,0.250000X-0.550000X-0.550000X0.550000X-0.550000X0.550000X0.550000X-0.550000X0.550000X0*%
%TD*%
%TA.AperFunction,ComponentPad*%
%ADD16C,1.600000*%
%TD*%
%TA.AperFunction,ComponentPad*%
%ADD17R,1.700000X1.700000*%
%TD*%
%TA.AperFunction,ComponentPad*%
%ADD18C,1.700000*%
%TD*%
%TA.AperFunction,ComponentPad*%
%ADD19RoundRect,0.250000X0.550000X0.550000X-0.550000X0.550000X-0.550000X-0.550000X0.550000X-0.550000X0*%
%TD*%
%TA.AperFunction,ComponentPad*%
%ADD20RoundRect,0.250000X0.550000X-0.550000X0.550000X0.550000X-0.550000X0.550000X-0.550000X-0.550000X0*%
%TD*%
%TA.AperFunction,ViaPad*%
%ADD21C,0.600000*%
%TD*%
G04 APERTURE END LIST*
D10*
%TO.N,Net-(D3-K)*%
X94210000Y-98200000D02*
X87790000Y-98200000D01*
%TO.N,Net-(D13-A)*%
X210290000Y-92220000D02*
X205530000Y-87570000D01*
%TO.N,Net-(J2-Pin_4)*%
X208960000Y-128640000D02*
X202580000Y-128650000D01*
%TO.N,Net-(J2-Pin_1)*%
X84880000Y-46340000D02*
X86990000Y-46340000D01*
%TO.N,Net-(D8-K)*%
X154150000Y-35100000D02*
X147670000Y-35190000D01*
%TO.N,Net-(D1-A)*%
X212376292Y-54570000D02*
X214130000Y-54600000D01*
X159450000Y-37610000D02*
X160460000Y-36920000D01*
%TO.N,Net-(J2-Pin_3)*%
X94190000Y-93690000D02*
X87810000Y-93690000D01*
%TO.N,Net-(J2-Pin_1)*%
X161290000Y-39800000D02*
X161290000Y-30309474D01*
%TO.N,Net-(D13-K)*%
X193390000Y-102650000D02*
X186860000Y-102650000D01*
%TO.N,Net-(D9-K)*%
X174970000Y-35150000D02*
X168440000Y-35170000D01*
%TO.N,Net-(D7-K)*%
X129190000Y-39545000D02*
X135540000Y-39520000D01*
%TO.N,Net-(J2-Pin_1)*%
X81510000Y-128660000D02*
X75790000Y-128680000D01*
X161290000Y-30309474D02*
X82760000Y-30260000D01*
%TO.N,Net-(D13-A)*%
X205530000Y-87570000D02*
X205530000Y-72147637D01*
X209930000Y-138800000D02*
X214780000Y-138800000D01*
%TO.N,Net-(D2-K)*%
X88120000Y-121340000D02*
X87740000Y-115000000D01*
%TO.N,Net-(J2-Pin_1)*%
X82760000Y-30260000D02*
X82760000Y-55840000D01*
%TO.N,Net-(D1-A)*%
X101040000Y-37620000D02*
X101040000Y-36810000D01*
%TO.N,Net-(J2-Pin_4)*%
X199380000Y-108460000D02*
X199400000Y-121090000D01*
%TO.N,Net-(D10-A)*%
X177410000Y-31610000D02*
X175670000Y-31610000D01*
%TO.N,Net-(D3-K)*%
X94180000Y-103420000D02*
X94180000Y-98199914D01*
%TO.N,Net-(J2-Pin_1)*%
X183300000Y-60820000D02*
X183300000Y-43579896D01*
X75790000Y-128680000D02*
X75770000Y-55870000D01*
X174960000Y-39650000D02*
X168400000Y-39680000D01*
%TO.N,Net-(J2-Pin_4)*%
X154110000Y-39660000D02*
X147470000Y-39660000D01*
%TO.N,Net-(D7-K)*%
X124380000Y-39770000D02*
X128740000Y-39770000D01*
%TO.N,Net-(J2-Pin_4)*%
X87770000Y-74270000D02*
X94300000Y-74360000D01*
%TO.N,Net-(J2-Pin_1)*%
X193388006Y-98150009D02*
X186990000Y-98150009D01*
%TO.N,Net-(D16-K)*%
X202350000Y-138850000D02*
X202350000Y-133159289D01*
%TO.N,Net-(J2-Pin_1)*%
X168460000Y-39750000D02*
X168460000Y-43587380D01*
X86990000Y-46340000D02*
X82770000Y-46340000D01*
%TO.N,Net-(D5-K)*%
X94260000Y-60420000D02*
X87790000Y-60420000D01*
%TO.N,Net-(J2-Pin_4)*%
X199380000Y-121090524D02*
X199380000Y-123890017D01*
%TO.N,Net-(D10-A)*%
X179130000Y-31530000D02*
X177410000Y-31610000D01*
%TO.N,Net-(J2-Pin_1)*%
X190189003Y-98150009D02*
X190189003Y-69594489D01*
%TO.N,Net-(D14-K)*%
X202260000Y-92160000D02*
X202350000Y-98200000D01*
%TO.N,Net-(D13-A)*%
X205570000Y-72020000D02*
X213640000Y-62700000D01*
%TO.N,Net-(D15-K)*%
X202300000Y-113160000D02*
X202300000Y-118712602D01*
%TO.N,Net-(J2-Pin_4)*%
X199370000Y-108430000D02*
X199370000Y-105350000D01*
X199380000Y-123880000D02*
X199380000Y-128590000D01*
%TO.N,Net-(D14-K)*%
X209040000Y-98180000D02*
X202490000Y-98210000D01*
%TO.N,Net-(J2-Pin_1)*%
X190189003Y-69594489D02*
X183300000Y-60820000D01*
%TO.N,Net-(J2-Pin_3)*%
X193330000Y-83470000D02*
X196720000Y-86650000D01*
%TO.N,Net-(D4-K)*%
X94270000Y-78770000D02*
X87820000Y-78770000D01*
%TO.N,Net-(D11-K)*%
X186790000Y-72240000D02*
X186790000Y-79160585D01*
%TO.N,Net-(J2-Pin_2)*%
X180330000Y-39510000D02*
X180330000Y-36819833D01*
%TO.N,Net-(J2-Pin_4)*%
X199380000Y-128590000D02*
X201610000Y-128590000D01*
%TO.N,Net-(J2-Pin_1)*%
X183300000Y-43579896D02*
X168460000Y-43587380D01*
%TO.N,Net-(J2-Pin_4)*%
X199370000Y-105350000D02*
X199370000Y-83510000D01*
%TO.N,Net-(J2-Pin_1)*%
X168460000Y-39750000D02*
X161289826Y-39750000D01*
X94300000Y-55870000D02*
X87770000Y-55830000D01*
%TO.N,Net-(D16-K)*%
X208830000Y-133150000D02*
X202260000Y-133160000D01*
%TO.N,Net-(D10-A)*%
X201240000Y-72230000D02*
X194340000Y-72160000D01*
%TO.N,Net-(J2-Pin_4)*%
X202490000Y-83510000D02*
X199380000Y-83510000D01*
%TO.N,Net-(J2-Pin_2)*%
X209090000Y-102710000D02*
X202770000Y-102680000D01*
%TO.N,Net-(J2-Pin_1)*%
X75770000Y-55870000D02*
X88180000Y-55870000D01*
%TO.N,Net-(D10-A)*%
X177410000Y-31610000D02*
X177410000Y-42630000D01*
%TO.N,Net-(D6-K)*%
X102250000Y-35120000D02*
X108840000Y-35120000D01*
%TO.N,Net-(D10-K)*%
X186850000Y-35150000D02*
X180310000Y-35160000D01*
D11*
X203850000Y-28850000D02*
X206790000Y-40070000D01*
D10*
%TO.N,Net-(J2-Pin_3)*%
X128680000Y-35045000D02*
X135270000Y-35045000D01*
%TO.N,Net-(J2-Pin_2)*%
X186790000Y-39650000D02*
X180290000Y-39670000D01*
D12*
D13*
X91798346Y-42667971D02*
X91869774Y-42739400D01*
X91869774Y-42739400D02*
X92084060Y-42810828D01*
X92084060Y-42810828D02*
X92226917Y-42810828D01*
X92226917Y-42810828D02*
X92441203Y-42739400D01*
X92441203Y-42739400D02*
X92584060Y-42596542D01*
X92584060Y-42596542D02*
X92655489Y-42453685D01*
X92655489Y-42453685D02*
X92726917Y-42167971D01*
X92726917Y-42167971D02*
X92726917Y-41953685D01*
X92726917Y-41953685D02*
X92655489Y-41667971D01*
X92655489Y-41667971D02*
X92584060Y-41525114D01*
X92584060Y-41525114D02*
X92441203Y-41382257D01*
X92441203Y-41382257D02*
X92226917Y-41310828D01*
X92226917Y-41310828D02*
X92084060Y-41310828D01*
X92084060Y-41310828D02*
X91869774Y-41382257D01*
X91869774Y-41382257D02*
X91798346Y-41453685D01*
X90941203Y-42810828D02*
X91084060Y-42739400D01*
X91084060Y-42739400D02*
X91155489Y-42667971D01*
X91155489Y-42667971D02*
X91226917Y-42525114D01*
X91226917Y-42525114D02*
X91226917Y-42096542D01*
X91226917Y-42096542D02*
X91155489Y-41953685D01*
X91155489Y-41953685D02*
X91084060Y-41882257D01*
X91084060Y-41882257D02*
X90941203Y-41810828D01*
X90941203Y-41810828D02*
X90726917Y-41810828D01*
X90726917Y-41810828D02*
X90584060Y-41882257D01*
X90584060Y-41882257D02*
X90512632Y-41953685D01*
X90512632Y-41953685D02*
X90441203Y-42096542D01*
X90441203Y-42096542D02*
X90441203Y-42525114D01*
X90441203Y-42525114D02*
X90512632Y-42667971D01*
X90512632Y-42667971D02*
X90584060Y-42739400D01*
X90584060Y-42739400D02*
X90726917Y-42810828D01*
X90726917Y-42810828D02*
X90941203Y-42810828D01*
X89584060Y-42810828D02*
X89726917Y-42739400D01*
X89726917Y-42739400D02*
X89798346Y-42596542D01*
X89798346Y-42596542D02*
X89798346Y-41310828D01*
D12*
D13*
X214205012Y-156900949D02*
X213585965Y-156900949D01*
X214328822Y-157272377D02*
X213895489Y-155972377D01*
X213895489Y-155972377D02*
X213462155Y-157272377D01*
X213028822Y-156777139D02*
X212038346Y-156777139D01*
X210738345Y-157272377D02*
X211481202Y-157272377D01*
X211109774Y-157272377D02*
X211109774Y-155972377D01*
X211109774Y-155972377D02*
X211233583Y-156158092D01*
X211233583Y-156158092D02*
X211357393Y-156281901D01*
X211357393Y-156281901D02*
X211481202Y-156343806D01*
X209933584Y-155972377D02*
X209809774Y-155972377D01*
X209809774Y-155972377D02*
X209685965Y-156034282D01*
X209685965Y-156034282D02*
X209624060Y-156096187D01*
X209624060Y-156096187D02*
X209562155Y-156219996D01*
X209562155Y-156219996D02*
X209500250Y-156467615D01*
X209500250Y-156467615D02*
X209500250Y-156777139D01*
X209500250Y-156777139D02*
X209562155Y-157024758D01*
X209562155Y-157024758D02*
X209624060Y-157148568D01*
X209624060Y-157148568D02*
X209685965Y-157210473D01*
X209685965Y-157210473D02*
X209809774Y-157272377D01*
X209809774Y-157272377D02*
X209933584Y-157272377D01*
X209933584Y-157272377D02*
X210057393Y-157210473D01*
X210057393Y-157210473D02*
X210119298Y-157148568D01*
X210119298Y-157148568D02*
X210181203Y-157024758D01*
X210181203Y-157024758D02*
X210243107Y-156777139D01*
X210243107Y-156777139D02*
X210243107Y-156467615D01*
X210243107Y-156467615D02*
X210181203Y-156219996D01*
X210181203Y-156219996D02*
X210119298Y-156096187D01*
X210119298Y-156096187D02*
X210057393Y-156034282D01*
X210057393Y-156034282D02*
X209933584Y-155972377D01*
X208014536Y-156900949D02*
X207395489Y-156900949D01*
X208138346Y-157272377D02*
X207705013Y-155972377D01*
X207705013Y-155972377D02*
X207271679Y-157272377D01*
X206095489Y-157272377D02*
X206528822Y-156653330D01*
X206838346Y-157272377D02*
X206838346Y-155972377D01*
X206838346Y-155972377D02*
X206343108Y-155972377D01*
X206343108Y-155972377D02*
X206219298Y-156034282D01*
X206219298Y-156034282D02*
X206157393Y-156096187D01*
X206157393Y-156096187D02*
X206095489Y-156219996D01*
X206095489Y-156219996D02*
X206095489Y-156405711D01*
X206095489Y-156405711D02*
X206157393Y-156529520D01*
X206157393Y-156529520D02*
X206219298Y-156591425D01*
X206219298Y-156591425D02*
X206343108Y-156653330D01*
X206343108Y-156653330D02*
X206838346Y-156653330D01*
X204795489Y-157148568D02*
X204857393Y-157210473D01*
X204857393Y-157210473D02*
X205043108Y-157272377D01*
X205043108Y-157272377D02*
X205166917Y-157272377D01*
X205166917Y-157272377D02*
X205352631Y-157210473D01*
X205352631Y-157210473D02*
X205476441Y-157086663D01*
X205476441Y-157086663D02*
X205538346Y-156962853D01*
X205538346Y-156962853D02*
X205600250Y-156715234D01*
X205600250Y-156715234D02*
X205600250Y-156529520D01*
X205600250Y-156529520D02*
X205538346Y-156281901D01*
X205538346Y-156281901D02*
X205476441Y-156158092D01*
X205476441Y-156158092D02*
X205352631Y-156034282D01*
X205352631Y-156034282D02*
X205166917Y-155972377D01*
X205166917Y-155972377D02*
X205043108Y-155972377D01*
X205043108Y-155972377D02*
X204857393Y-156034282D01*
X204857393Y-156034282D02*
X204795489Y-156096187D01*
X204238346Y-156777139D02*
X203247870Y-156777139D01*
X202690726Y-156096187D02*
X202628822Y-156034282D01*
X202628822Y-156034282D02*
X202505012Y-155972377D01*
X202505012Y-155972377D02*
X202195488Y-155972377D01*
X202195488Y-155972377D02*
X202071679Y-156034282D01*
X202071679Y-156034282D02*
X202009774Y-156096187D01*
X202009774Y-156096187D02*
X201947869Y-156219996D01*
X201947869Y-156219996D02*
X201947869Y-156343806D01*
X201947869Y-156343806D02*
X202009774Y-156529520D01*
X202009774Y-156529520D02*
X202752631Y-157272377D01*
X202752631Y-157272377D02*
X201947869Y-157272377D01*
X200709774Y-157272377D02*
X201452631Y-157272377D01*
X201081203Y-157272377D02*
X201081203Y-155972377D01*
X201081203Y-155972377D02*
X201205012Y-156158092D01*
X201205012Y-156158092D02*
X201328822Y-156281901D01*
X201328822Y-156281901D02*
X201452631Y-156343806D01*
X199905013Y-155972377D02*
X199781203Y-155972377D01*
X199781203Y-155972377D02*
X199657394Y-156034282D01*
X199657394Y-156034282D02*
X199595489Y-156096187D01*
X199595489Y-156096187D02*
X199533584Y-156219996D01*
X199533584Y-156219996D02*
X199471679Y-156467615D01*
X199471679Y-156467615D02*
X199471679Y-156777139D01*
X199471679Y-156777139D02*
X199533584Y-157024758D01*
X199533584Y-157024758D02*
X199595489Y-157148568D01*
X199595489Y-157148568D02*
X199657394Y-157210473D01*
X199657394Y-157210473D02*
X199781203Y-157272377D01*
X199781203Y-157272377D02*
X199905013Y-157272377D01*
X199905013Y-157272377D02*
X200028822Y-157210473D01*
X200028822Y-157210473D02*
X200090727Y-157148568D01*
X200090727Y-157148568D02*
X200152632Y-157024758D01*
X200152632Y-157024758D02*
X200214536Y-156777139D01*
X200214536Y-156777139D02*
X200214536Y-156467615D01*
X200214536Y-156467615D02*
X200152632Y-156219996D01*
X200152632Y-156219996D02*
X200090727Y-156096187D01*
X200090727Y-156096187D02*
X200028822Y-156034282D01*
X200028822Y-156034282D02*
X199905013Y-155972377D01*
X198109775Y-155972377D02*
X197676442Y-157272377D01*
X197676442Y-157272377D02*
X197243108Y-155972377D01*
X196128822Y-157272377D02*
X196871679Y-157272377D01*
X196500251Y-157272377D02*
X196500251Y-155972377D01*
X196500251Y-155972377D02*
X196624060Y-156158092D01*
X196624060Y-156158092D02*
X196747870Y-156281901D01*
X196747870Y-156281901D02*
X196871679Y-156343806D01*
X195571680Y-157148568D02*
X195509775Y-157210473D01*
X195509775Y-157210473D02*
X195571680Y-157272377D01*
X195571680Y-157272377D02*
X195633584Y-157210473D01*
X195633584Y-157210473D02*
X195571680Y-157148568D01*
X195571680Y-157148568D02*
X195571680Y-157272377D01*
X194705013Y-155972377D02*
X194581203Y-155972377D01*
X194581203Y-155972377D02*
X194457394Y-156034282D01*
X194457394Y-156034282D02*
X194395489Y-156096187D01*
X194395489Y-156096187D02*
X194333584Y-156219996D01*
X194333584Y-156219996D02*
X194271679Y-156467615D01*
X194271679Y-156467615D02*
X194271679Y-156777139D01*
X194271679Y-156777139D02*
X194333584Y-157024758D01*
X194333584Y-157024758D02*
X194395489Y-157148568D01*
X194395489Y-157148568D02*
X194457394Y-157210473D01*
X194457394Y-157210473D02*
X194581203Y-157272377D01*
X194581203Y-157272377D02*
X194705013Y-157272377D01*
X194705013Y-157272377D02*
X194828822Y-157210473D01*
X194828822Y-157210473D02*
X194890727Y-157148568D01*
X194890727Y-157148568D02*
X194952632Y-157024758D01*
X194952632Y-157024758D02*
X195014536Y-156777139D01*
X195014536Y-156777139D02*
X195014536Y-156467615D01*
X195014536Y-156467615D02*
X194952632Y-156219996D01*
X194952632Y-156219996D02*
X194890727Y-156096187D01*
X194890727Y-156096187D02*
X194828822Y-156034282D01*
X194828822Y-156034282D02*
X194705013Y-155972377D01*
X213585965Y-159365304D02*
X213585965Y-158065304D01*
X213585965Y-159303400D02*
X213709774Y-159365304D01*
X213709774Y-159365304D02*
X213957393Y-159365304D01*
X213957393Y-159365304D02*
X214081203Y-159303400D01*
X214081203Y-159303400D02*
X214143108Y-159241495D01*
X214143108Y-159241495D02*
X214205012Y-159117685D01*
X214205012Y-159117685D02*
X214205012Y-158746257D01*
X214205012Y-158746257D02*
X214143108Y-158622447D01*
X214143108Y-158622447D02*
X214081203Y-158560542D01*
X214081203Y-158560542D02*
X213957393Y-158498638D01*
X213957393Y-158498638D02*
X213709774Y-158498638D01*
X213709774Y-158498638D02*
X213585965Y-158560542D01*
X212409775Y-158498638D02*
X212409775Y-159551019D01*
X212409775Y-159551019D02*
X212471680Y-159674828D01*
X212471680Y-159674828D02*
X212533584Y-159736733D01*
X212533584Y-159736733D02*
X212657394Y-159798638D01*
X212657394Y-159798638D02*
X212843108Y-159798638D01*
X212843108Y-159798638D02*
X212966918Y-159736733D01*
X212409775Y-159303400D02*
X212533584Y-159365304D01*
X212533584Y-159365304D02*
X212781203Y-159365304D01*
X212781203Y-159365304D02*
X212905013Y-159303400D01*
X212905013Y-159303400D02*
X212966918Y-159241495D01*
X212966918Y-159241495D02*
X213028822Y-159117685D01*
X213028822Y-159117685D02*
X213028822Y-158746257D01*
X213028822Y-158746257D02*
X212966918Y-158622447D01*
X212966918Y-158622447D02*
X212905013Y-158560542D01*
X212905013Y-158560542D02*
X212781203Y-158498638D01*
X212781203Y-158498638D02*
X212533584Y-158498638D01*
X212533584Y-158498638D02*
X212409775Y-158560542D01*
X211233585Y-159365304D02*
X211233585Y-158065304D01*
X211233585Y-159303400D02*
X211357394Y-159365304D01*
X211357394Y-159365304D02*
X211605013Y-159365304D01*
X211605013Y-159365304D02*
X211728823Y-159303400D01*
X211728823Y-159303400D02*
X211790728Y-159241495D01*
X211790728Y-159241495D02*
X211852632Y-159117685D01*
X211852632Y-159117685D02*
X211852632Y-158746257D01*
X211852632Y-158746257D02*
X211790728Y-158622447D01*
X211790728Y-158622447D02*
X211728823Y-158560542D01*
X211728823Y-158560542D02*
X211605013Y-158498638D01*
X211605013Y-158498638D02*
X211357394Y-158498638D01*
X211357394Y-158498638D02*
X211233585Y-158560542D01*
X210614538Y-159365304D02*
X210614538Y-158498638D01*
X210614538Y-158065304D02*
X210676442Y-158127209D01*
X210676442Y-158127209D02*
X210614538Y-158189114D01*
X210614538Y-158189114D02*
X210552633Y-158127209D01*
X210552633Y-158127209D02*
X210614538Y-158065304D01*
X210614538Y-158065304D02*
X210614538Y-158189114D01*
X209995490Y-159365304D02*
X209995490Y-158498638D01*
X209995490Y-158622447D02*
X209933585Y-158560542D01*
X209933585Y-158560542D02*
X209809775Y-158498638D01*
X209809775Y-158498638D02*
X209624061Y-158498638D01*
X209624061Y-158498638D02*
X209500252Y-158560542D01*
X209500252Y-158560542D02*
X209438347Y-158684352D01*
X209438347Y-158684352D02*
X209438347Y-159365304D01*
X209438347Y-158684352D02*
X209376442Y-158560542D01*
X209376442Y-158560542D02*
X209252633Y-158498638D01*
X209252633Y-158498638D02*
X209066918Y-158498638D01*
X209066918Y-158498638D02*
X208943109Y-158560542D01*
X208943109Y-158560542D02*
X208881204Y-158684352D01*
X208881204Y-158684352D02*
X208881204Y-159365304D01*
X208262157Y-159365304D02*
X208262157Y-158498638D01*
X208262157Y-158065304D02*
X208324061Y-158127209D01*
X208324061Y-158127209D02*
X208262157Y-158189114D01*
X208262157Y-158189114D02*
X208200252Y-158127209D01*
X208200252Y-158127209D02*
X208262157Y-158065304D01*
X208262157Y-158065304D02*
X208262157Y-158189114D01*
X207085966Y-159303400D02*
X207209775Y-159365304D01*
X207209775Y-159365304D02*
X207457394Y-159365304D01*
X207457394Y-159365304D02*
X207581204Y-159303400D01*
X207581204Y-159303400D02*
X207643109Y-159241495D01*
X207643109Y-159241495D02*
X207705013Y-159117685D01*
X207705013Y-159117685D02*
X207705013Y-158746257D01*
X207705013Y-158746257D02*
X207643109Y-158622447D01*
X207643109Y-158622447D02*
X207581204Y-158560542D01*
X207581204Y-158560542D02*
X207457394Y-158498638D01*
X207457394Y-158498638D02*
X207209775Y-158498638D01*
X207209775Y-158498638D02*
X207085966Y-158560542D01*
X206528823Y-159365304D02*
X206528823Y-158065304D01*
X206405013Y-158870066D02*
X206033585Y-159365304D01*
X206033585Y-158498638D02*
X206528823Y-158993876D01*
X204671680Y-158746257D02*
X204733585Y-158684352D01*
X204733585Y-158684352D02*
X204857394Y-158622447D01*
X204857394Y-158622447D02*
X204981204Y-158622447D01*
X204981204Y-158622447D02*
X205105013Y-158684352D01*
X205105013Y-158684352D02*
X205166918Y-158746257D01*
X205166918Y-158746257D02*
X205228823Y-158870066D01*
X205228823Y-158870066D02*
X205228823Y-158993876D01*
X205228823Y-158993876D02*
X205166918Y-159117685D01*
X205166918Y-159117685D02*
X205105013Y-159179590D01*
X205105013Y-159179590D02*
X204981204Y-159241495D01*
X204981204Y-159241495D02*
X204857394Y-159241495D01*
X204857394Y-159241495D02*
X204733585Y-159179590D01*
X204733585Y-159179590D02*
X204671680Y-159117685D01*
X204671680Y-158622447D02*
X204671680Y-159117685D01*
X204671680Y-159117685D02*
X204609775Y-159179590D01*
X204609775Y-159179590D02*
X204547870Y-159179590D01*
X204547870Y-159179590D02*
X204424061Y-159117685D01*
X204424061Y-159117685D02*
X204362156Y-158993876D01*
X204362156Y-158993876D02*
X204362156Y-158684352D01*
X204362156Y-158684352D02*
X204485966Y-158498638D01*
X204485966Y-158498638D02*
X204671680Y-158374828D01*
X204671680Y-158374828D02*
X204919299Y-158312923D01*
X204919299Y-158312923D02*
X205166918Y-158374828D01*
X205166918Y-158374828D02*
X205352632Y-158498638D01*
X205352632Y-158498638D02*
X205476442Y-158684352D01*
X205476442Y-158684352D02*
X205538346Y-158931971D01*
X205538346Y-158931971D02*
X205476442Y-159179590D01*
X205476442Y-159179590D02*
X205352632Y-159365304D01*
X205352632Y-159365304D02*
X205166918Y-159489114D01*
X205166918Y-159489114D02*
X204919299Y-159551019D01*
X204919299Y-159551019D02*
X204671680Y-159489114D01*
X204671680Y-159489114D02*
X204485966Y-159365304D01*
X203247870Y-158498638D02*
X203247870Y-159551019D01*
X203247870Y-159551019D02*
X203309775Y-159674828D01*
X203309775Y-159674828D02*
X203371679Y-159736733D01*
X203371679Y-159736733D02*
X203495489Y-159798638D01*
X203495489Y-159798638D02*
X203681203Y-159798638D01*
X203681203Y-159798638D02*
X203805013Y-159736733D01*
X203247870Y-159303400D02*
X203371679Y-159365304D01*
X203371679Y-159365304D02*
X203619298Y-159365304D01*
X203619298Y-159365304D02*
X203743108Y-159303400D01*
X203743108Y-159303400D02*
X203805013Y-159241495D01*
X203805013Y-159241495D02*
X203866917Y-159117685D01*
X203866917Y-159117685D02*
X203866917Y-158746257D01*
X203866917Y-158746257D02*
X203805013Y-158622447D01*
X203805013Y-158622447D02*
X203743108Y-158560542D01*
X203743108Y-158560542D02*
X203619298Y-158498638D01*
X203619298Y-158498638D02*
X203371679Y-158498638D01*
X203371679Y-158498638D02*
X203247870Y-158560542D01*
X202628823Y-159365304D02*
X202628823Y-158498638D01*
X202628823Y-158622447D02*
X202566918Y-158560542D01*
X202566918Y-158560542D02*
X202443108Y-158498638D01*
X202443108Y-158498638D02*
X202257394Y-158498638D01*
X202257394Y-158498638D02*
X202133585Y-158560542D01*
X202133585Y-158560542D02*
X202071680Y-158684352D01*
X202071680Y-158684352D02*
X202071680Y-159365304D01*
X202071680Y-158684352D02*
X202009775Y-158560542D01*
X202009775Y-158560542D02*
X201885966Y-158498638D01*
X201885966Y-158498638D02*
X201700251Y-158498638D01*
X201700251Y-158498638D02*
X201576442Y-158560542D01*
X201576442Y-158560542D02*
X201514537Y-158684352D01*
X201514537Y-158684352D02*
X201514537Y-159365304D01*
X200338347Y-159365304D02*
X200338347Y-158684352D01*
X200338347Y-158684352D02*
X200400252Y-158560542D01*
X200400252Y-158560542D02*
X200524061Y-158498638D01*
X200524061Y-158498638D02*
X200771680Y-158498638D01*
X200771680Y-158498638D02*
X200895490Y-158560542D01*
X200338347Y-159303400D02*
X200462156Y-159365304D01*
X200462156Y-159365304D02*
X200771680Y-159365304D01*
X200771680Y-159365304D02*
X200895490Y-159303400D01*
X200895490Y-159303400D02*
X200957394Y-159179590D01*
X200957394Y-159179590D02*
X200957394Y-159055780D01*
X200957394Y-159055780D02*
X200895490Y-158931971D01*
X200895490Y-158931971D02*
X200771680Y-158870066D01*
X200771680Y-158870066D02*
X200462156Y-158870066D01*
X200462156Y-158870066D02*
X200338347Y-158808161D01*
X199719300Y-159365304D02*
X199719300Y-158498638D01*
X199719300Y-158065304D02*
X199781204Y-158127209D01*
X199781204Y-158127209D02*
X199719300Y-158189114D01*
X199719300Y-158189114D02*
X199657395Y-158127209D01*
X199657395Y-158127209D02*
X199719300Y-158065304D01*
X199719300Y-158065304D02*
X199719300Y-158189114D01*
X198914537Y-159365304D02*
X199038347Y-159303400D01*
X199038347Y-159303400D02*
X199100252Y-159179590D01*
X199100252Y-159179590D02*
X199100252Y-158065304D01*
X198419300Y-159241495D02*
X198357395Y-159303400D01*
X198357395Y-159303400D02*
X198419300Y-159365304D01*
X198419300Y-159365304D02*
X198481204Y-159303400D01*
X198481204Y-159303400D02*
X198419300Y-159241495D01*
X198419300Y-159241495D02*
X198419300Y-159365304D01*
X197243109Y-159303400D02*
X197366918Y-159365304D01*
X197366918Y-159365304D02*
X197614537Y-159365304D01*
X197614537Y-159365304D02*
X197738347Y-159303400D01*
X197738347Y-159303400D02*
X197800252Y-159241495D01*
X197800252Y-159241495D02*
X197862156Y-159117685D01*
X197862156Y-159117685D02*
X197862156Y-158746257D01*
X197862156Y-158746257D02*
X197800252Y-158622447D01*
X197800252Y-158622447D02*
X197738347Y-158560542D01*
X197738347Y-158560542D02*
X197614537Y-158498638D01*
X197614537Y-158498638D02*
X197366918Y-158498638D01*
X197366918Y-158498638D02*
X197243109Y-158560542D01*
X196500251Y-159365304D02*
X196624061Y-159303400D01*
X196624061Y-159303400D02*
X196685966Y-159241495D01*
X196685966Y-159241495D02*
X196747870Y-159117685D01*
X196747870Y-159117685D02*
X196747870Y-158746257D01*
X196747870Y-158746257D02*
X196685966Y-158622447D01*
X196685966Y-158622447D02*
X196624061Y-158560542D01*
X196624061Y-158560542D02*
X196500251Y-158498638D01*
X196500251Y-158498638D02*
X196314537Y-158498638D01*
X196314537Y-158498638D02*
X196190728Y-158560542D01*
X196190728Y-158560542D02*
X196128823Y-158622447D01*
X196128823Y-158622447D02*
X196066918Y-158746257D01*
X196066918Y-158746257D02*
X196066918Y-159117685D01*
X196066918Y-159117685D02*
X196128823Y-159241495D01*
X196128823Y-159241495D02*
X196190728Y-159303400D01*
X196190728Y-159303400D02*
X196314537Y-159365304D01*
X196314537Y-159365304D02*
X196500251Y-159365304D01*
X195509776Y-159365304D02*
X195509776Y-158498638D01*
X195509776Y-158622447D02*
X195447871Y-158560542D01*
X195447871Y-158560542D02*
X195324061Y-158498638D01*
X195324061Y-158498638D02*
X195138347Y-158498638D01*
X195138347Y-158498638D02*
X195014538Y-158560542D01*
X195014538Y-158560542D02*
X194952633Y-158684352D01*
X194952633Y-158684352D02*
X194952633Y-159365304D01*
X194952633Y-158684352D02*
X194890728Y-158560542D01*
X194890728Y-158560542D02*
X194766919Y-158498638D01*
X194766919Y-158498638D02*
X194581204Y-158498638D01*
X194581204Y-158498638D02*
X194457395Y-158560542D01*
X194457395Y-158560542D02*
X194395490Y-158684352D01*
X194395490Y-158684352D02*
X194395490Y-159365304D01*
%TD*%
D14*
%TO.P,SW10,1,1*%
%TO.N,Net-(D10-K)*%
X180310000Y-35160000D03*
X186810000Y-35160000D03*
%TO.P,SW10,2,2*%
%TO.N,Net-(J2-Pin_2)*%
X180310000Y-39660000D03*
X186810000Y-39660000D03*
%TD*%
%TO.P,SW14,1,1*%
%TO.N,Net-(D14-K)*%
X202350000Y-98200000D03*
X208850000Y-98200000D03*
%TO.P,SW14,2,2*%
%TO.N,Net-(J2-Pin_2)*%
X202350000Y-102700000D03*
X208850000Y-102700000D03*
%TD*%
%TO.P,SW1,1,1*%
%TO.N,Net-(D1-K)*%
X87980000Y-133190000D03*
X81480000Y-133190000D03*
%TO.P,SW1,2,2*%
%TO.N,Net-(J2-Pin_1)*%
X87980000Y-128690000D03*
X81480000Y-128690000D03*
%TD*%
%TO.P,SW2,1,1*%
%TO.N,Net-(D2-K)*%
X87350000Y-114680000D03*
X80850000Y-114680000D03*
%TO.P,SW2,2,2*%
%TO.N,Net-(J2-Pin_2)*%
X87350000Y-110180000D03*
X80850000Y-110180000D03*
%TD*%
%TO.P,SW7,1,1*%
%TO.N,Net-(D7-K)*%
X135200000Y-39590000D03*
X128700000Y-39590000D03*
%TO.P,SW7,2,2*%
%TO.N,Net-(J2-Pin_3)*%
X135200000Y-35090000D03*
X128700000Y-35090000D03*
%TD*%
%TO.P,SW3,1,1*%
%TO.N,Net-(D3-K)*%
X94210000Y-98200000D03*
X87710000Y-98200000D03*
%TO.P,SW3,2,2*%
%TO.N,Net-(J2-Pin_3)*%
X94210000Y-93700000D03*
X87710000Y-93700000D03*
%TD*%
%TO.P,SW11,1,1*%
%TO.N,Net-(D11-K)*%
X186865000Y-78980000D03*
X193365000Y-78980000D03*
%TO.P,SW11,2,2*%
%TO.N,Net-(J2-Pin_3)*%
X186865000Y-83480000D03*
X193365000Y-83480000D03*
%TD*%
%TO.P,SW8,1,1*%
%TO.N,Net-(D8-K)*%
X147670000Y-35190000D03*
X154170000Y-35190000D03*
%TO.P,SW8,2,2*%
%TO.N,Net-(J2-Pin_4)*%
X147670000Y-39690000D03*
X154170000Y-39690000D03*
%TD*%
%TO.P,SW16,1,1*%
%TO.N,Net-(D16-K)*%
X208830000Y-133150000D03*
X202330000Y-133150000D03*
%TO.P,SW16,2,2*%
%TO.N,Net-(J2-Pin_4)*%
X208830000Y-128650000D03*
X202330000Y-128650000D03*
%TD*%
%TO.P,SW5,1,1*%
%TO.N,Net-(D5-K)*%
X94260000Y-60420000D03*
X87760000Y-60420000D03*
%TO.P,SW5,2,2*%
%TO.N,Net-(J2-Pin_1)*%
X94260000Y-55920000D03*
X87760000Y-55920000D03*
%TD*%
%TO.P,SW9,1,1*%
%TO.N,Net-(D9-K)*%
X168440000Y-35170000D03*
X174940000Y-35170000D03*
%TO.P,SW9,2,2*%
%TO.N,Net-(J2-Pin_1)*%
X168440000Y-39670000D03*
X174940000Y-39670000D03*
%TD*%
%TO.P,SW12,1,1*%
%TO.N,Net-(D12-K)*%
X202440000Y-78980000D03*
X208940000Y-78980000D03*
%TO.P,SW12,2,2*%
%TO.N,Net-(J2-Pin_4)*%
X202440000Y-83480000D03*
X208940000Y-83480000D03*
%TD*%
%TO.P,SW6,1,1*%
%TO.N,Net-(D6-K)*%
X102250000Y-35120000D03*
X108750000Y-35120000D03*
%TO.P,SW6,2,2*%
%TO.N,Net-(J2-Pin_2)*%
X102250000Y-39620000D03*
X108750000Y-39620000D03*
%TD*%
%TO.P,SW15,1,1*%
%TO.N,Net-(D15-K)*%
X202370000Y-118590000D03*
X208870000Y-118590000D03*
%TO.P,SW15,2,2*%
%TO.N,Net-(J2-Pin_3)*%
X202370000Y-123090000D03*
X208870000Y-123090000D03*
%TD*%
%TO.P,SW13,1,1*%
%TO.N,Net-(D13-K)*%
X193390000Y-102650000D03*
X186890000Y-102650000D03*
%TO.P,SW13,2,2*%
%TO.N,Net-(J2-Pin_1)*%
X193390000Y-98150000D03*
X186890000Y-98150000D03*
%TD*%
%TO.P,SW4,1,1*%
%TO.N,Net-(D4-K)*%
X94270000Y-78770000D03*
X87770000Y-78770000D03*
%TO.P,SW4,2,2*%
%TO.N,Net-(J2-Pin_4)*%
X94270000Y-74270000D03*
X87770000Y-74270000D03*
%TD*%
D15*
%TO.P,D11,1,K*%
%TO.N,Net-(D11-K)*%
X186790000Y-72240000D03*
D16*
%TO.P,D11,2,A*%
%TO.N,Net-(D10-A)*%
X194410000Y-72240000D03*
%TD*%
D15*
%TO.P,D16,1,K*%
%TO.N,Net-(D16-K)*%
X202350000Y-138850000D03*
D16*
%TO.P,D16,2,A*%
%TO.N,Net-(D13-A)*%
X209970000Y-138850000D03*
%TD*%
D15*
%TO.P,D9,1,K*%
%TO.N,Net-(D9-K)*%
X168140000Y-31570000D03*
D16*
%TO.P,D9,2,A*%
%TO.N,Net-(D10-A)*%
X175760000Y-31570000D03*
%TD*%
D17*
%TO.P,J2,1,Pin_1*%
%TO.N,Net-(J2-Pin_1)*%
X86990000Y-46340000D03*
D18*
%TO.P,J2,2,Pin_2*%
%TO.N,Net-(J2-Pin_2)*%
X89530000Y-46340000D03*
%TO.P,J2,3,Pin_3*%
%TO.N,Net-(J2-Pin_3)*%
X92070000Y-46340000D03*
%TO.P,J2,4,Pin_4*%
%TO.N,Net-(J2-Pin_4)*%
X94610000Y-46340000D03*
%TD*%
D15*
%TO.P,D15,1,K*%
%TO.N,Net-(D15-K)*%
X202300000Y-113160000D03*
D16*
%TO.P,D15,2,A*%
%TO.N,Net-(D13-A)*%
X209920000Y-113160000D03*
%TD*%
D19*
%TO.P,D3,1,K*%
%TO.N,Net-(D3-K)*%
X94180000Y-103420000D03*
D16*
%TO.P,D3,2,A*%
%TO.N,Net-(D1-A)*%
X86560000Y-103420000D03*
%TD*%
D17*
%TO.P,J1,1,Pin_1*%
%TO.N,Net-(D1-A)*%
X214150000Y-54570000D03*
D18*
%TO.P,J1,2,Pin_2*%
%TO.N,Net-(D5-A)*%
X214150000Y-57110000D03*
%TO.P,J1,3,Pin_3*%
%TO.N,Net-(D10-A)*%
X214150000Y-59650000D03*
%TO.P,J1,4,Pin_4*%
%TO.N,Net-(D13-A)*%
X214150000Y-62190000D03*
%TD*%
D19*
%TO.P,D10,1,K*%
%TO.N,Net-(D10-K)*%
X186750000Y-31560000D03*
D16*
%TO.P,D10,2,A*%
%TO.N,Net-(D10-A)*%
X179130000Y-31560000D03*
%TD*%
D15*
%TO.P,D4,1,K*%
%TO.N,Net-(D4-K)*%
X87730000Y-84470000D03*
D16*
%TO.P,D4,2,A*%
%TO.N,Net-(D1-A)*%
X95350000Y-84470000D03*
%TD*%
D19*
%TO.P,D1,1,K*%
%TO.N,Net-(D1-K)*%
X88120000Y-138170000D03*
D16*
%TO.P,D1,2,A*%
%TO.N,Net-(D1-A)*%
X80500000Y-138170000D03*
%TD*%
D15*
%TO.P,D6,1,K*%
%TO.N,Net-(D6-K)*%
X102180000Y-31590000D03*
D16*
%TO.P,D6,2,A*%
%TO.N,Net-(D5-A)*%
X109800000Y-31590000D03*
%TD*%
D15*
%TO.P,D5,1,K*%
%TO.N,Net-(D5-K)*%
X87700000Y-67880000D03*
D16*
%TO.P,D5,2,A*%
%TO.N,Net-(D5-A)*%
X95320000Y-67880000D03*
%TD*%
D20*
%TO.P,D7,1,K*%
%TO.N,Net-(D7-K)*%
X124380000Y-39770000D03*
D16*
%TO.P,D7,2,A*%
%TO.N,Net-(D5-A)*%
X124380000Y-32150000D03*
%TD*%
D15*
%TO.P,D13,1,K*%
%TO.N,Net-(D13-K)*%
X186790000Y-106820000D03*
D16*
%TO.P,D13,2,A*%
%TO.N,Net-(D13-A)*%
X194410000Y-106820000D03*
%TD*%
D19*
%TO.P,D12,1,K*%
%TO.N,Net-(D12-K)*%
X208890000Y-72260000D03*
D16*
%TO.P,D12,2,A*%
%TO.N,Net-(D10-A)*%
X201270000Y-72260000D03*
%TD*%
D19*
%TO.P,D2,1,K*%
%TO.N,Net-(D2-K)*%
X88120000Y-121340000D03*
D16*
%TO.P,D2,2,A*%
%TO.N,Net-(D1-A)*%
X80500000Y-121340000D03*
%TD*%
D15*
%TO.P,D14,1,K*%
%TO.N,Net-(D14-K)*%
X202300000Y-92150000D03*
D16*
%TO.P,D14,2,A*%
%TO.N,Net-(D13-A)*%
X209920000Y-92150000D03*
%TD*%
D19*
%TO.P,D8,1,K*%
%TO.N,Net-(D8-K)*%
X154160000Y-31560000D03*
D16*
%TO.P,D8,2,A*%
%TO.N,Net-(D5-A)*%
X146540000Y-31560000D03*
%TD*%
D21*
%TO.N,Net-(D1-A)*%
X85530000Y-39150000D03*
X160640000Y-36820000D03*
X77610000Y-103420000D03*
X194370000Y-37270000D03*
%TO.N,Net-(J2-Pin_4)*%
X85250000Y-51290000D03*
%TO.N,Net-(J2-Pin_2)*%
X215450000Y-102760000D03*
X89540000Y-39599478D03*
%TO.N,Net-(J2-Pin_3)*%
X196800000Y-122970000D03*
X187380000Y-42930000D03*
X95030000Y-49890000D03*
X194810000Y-29560000D03*
X159590000Y-34480000D03*
%TD*%
D10*
%TO.N,Net-(D1-A)*%
X95350000Y-84470000D02*
X95350000Y-86800000D01*
X82850000Y-88700000D02*
X82850000Y-103380000D01*
X93450000Y-88700000D02*
X82850000Y-88700000D01*
X94310000Y-87840000D02*
X93450000Y-88700000D01*
X95350000Y-86800000D02*
X94310000Y-87840000D01*
X85530000Y-39150000D02*
X85530000Y-34440000D01*
X95260000Y-31570000D02*
X95790000Y-31570000D01*
X88400000Y-31570000D02*
X95260000Y-31570000D01*
X85530000Y-34440000D02*
X87020000Y-32950000D01*
X194370000Y-37270000D02*
X195076292Y-37270000D01*
X82819259Y-103420000D02*
X77610000Y-103420000D01*
X195076292Y-37270000D02*
X212376292Y-54570000D01*
X101050000Y-36830000D02*
X101050000Y-36840000D01*
X101040000Y-37620000D02*
X159440000Y-37620000D01*
X82890000Y-103420000D02*
X82850000Y-103380000D01*
X95790000Y-31570000D02*
X99960000Y-35740000D01*
X87020000Y-32950000D02*
X88400000Y-31570000D01*
X86560000Y-103420000D02*
X82890000Y-103420000D01*
X99960000Y-35740000D02*
X101050000Y-36830000D01*
%TO.N,Net-(D5-A)*%
X123820000Y-31590000D02*
X124380000Y-32150000D01*
X109800000Y-31590000D02*
X123820000Y-31590000D01*
%TO.N,Net-(D8-K)*%
X154160000Y-31560000D02*
X154160000Y-35180000D01*
X154160000Y-35180000D02*
X154170000Y-35190000D01*
%TO.N,Net-(D10-A)*%
X194410000Y-72240000D02*
X194410000Y-71200000D01*
X183850000Y-42630000D02*
X177410000Y-42630000D01*
X184510000Y-61300000D02*
X184510000Y-44222914D01*
X183980000Y-42760000D02*
X183850000Y-42630000D01*
X194410000Y-71200000D02*
X184510000Y-61300000D01*
X184510000Y-44222914D02*
X183980000Y-43692914D01*
X183980000Y-43692914D02*
X183980000Y-42760000D01*
%TO.N,Net-(D12-K)*%
X208890000Y-78930000D02*
X208940000Y-78980000D01*
X208890000Y-72260000D02*
X208890000Y-78930000D01*
%TO.N,Net-(D13-A)*%
X209920000Y-113160000D02*
X214780000Y-118020000D01*
X214780000Y-118020000D02*
X214780000Y-138800000D01*
%TO.N,Net-(J2-Pin_4)*%
X190606980Y-93527088D02*
X194691000Y-97611108D01*
X193928892Y-99451000D02*
X186351108Y-99451000D01*
X182899000Y-95998892D02*
X182899000Y-43981098D01*
X194691000Y-98688892D02*
X193928892Y-99451000D01*
X158468297Y-43988297D02*
X154170000Y-39690000D01*
X186351108Y-99451000D02*
X182899000Y-95998892D01*
X190606980Y-71646980D02*
X190606980Y-93527088D01*
X182899000Y-43981098D02*
X168626183Y-43988297D01*
X194691000Y-97611108D02*
X194691000Y-98688892D01*
X147670000Y-39690000D02*
X144140000Y-43220000D01*
X97730000Y-43220000D02*
X94610000Y-46340000D01*
X168626183Y-43988297D02*
X158468297Y-43988297D01*
X94610000Y-46340000D02*
X89660000Y-51290000D01*
X202440000Y-83480000D02*
X190606980Y-71646980D01*
X89660000Y-51290000D02*
X85250000Y-51290000D01*
X144140000Y-43220000D02*
X97730000Y-43220000D01*
%TO.N,Net-(J2-Pin_2)*%
X215390000Y-102700000D02*
X215450000Y-102760000D01*
X208850000Y-102700000D02*
X215390000Y-102700000D01*
X108750000Y-39620000D02*
X102250000Y-39620000D01*
X208850000Y-102700000D02*
X208890000Y-102740000D01*
X89560522Y-39620000D02*
X89540000Y-39599478D01*
X102250000Y-39620000D02*
X89560522Y-39620000D01*
%TO.N,Net-(J2-Pin_3)*%
X135200000Y-35090000D02*
X136601000Y-36491000D01*
X194810000Y-29560000D02*
X194810000Y-35500000D01*
X97420000Y-52280000D02*
X95030000Y-49890000D01*
X94210000Y-93700000D02*
X97420000Y-90490000D01*
X136601000Y-36491000D02*
X157579000Y-36491000D01*
X157579000Y-36491000D02*
X159590000Y-34480000D01*
X97420000Y-90490000D02*
X97420000Y-88720000D01*
X196720000Y-122890000D02*
X196800000Y-122970000D01*
X194810000Y-35500000D02*
X187380000Y-42930000D01*
X196720000Y-86650000D02*
X196720000Y-122890000D01*
X97420000Y-88720000D02*
X97420000Y-52280000D01*
%TD*%
M02*
