%TF.GenerationSoftware,KiCad,Pcbnew,9.0.3*%
%TF.CreationDate,2025-07-23T06:43:18-06:00*%
%TF.ProjectId,ARC-210-Master-Board,4152432d-3231-4302-9d4d-61737465722d,rev?*%
%TF.SameCoordinates,Original*%
%TF.FileFunction,Legend,Top*%
%TF.FilePolarity,Positive*%
%FSLAX46Y46*%
G04 Gerber Fmt 4.6, Leading zero omitted, Abs format (unit mm)*
G04 Created by KiCad (PCBNEW 9.0.3) date 2025-07-23 06:43:18*
%MOMM*%
%LPD*%
G01*
G04 APERTURE LIST*
%ADD10C,0.150000*%
%ADD11C,0.120000*%
G04 APERTURE END LIST*
D10*
X181750476Y-33567200D02*
X181893333Y-33614819D01*
X181893333Y-33614819D02*
X182131428Y-33614819D01*
X182131428Y-33614819D02*
X182226666Y-33567200D01*
X182226666Y-33567200D02*
X182274285Y-33519580D01*
X182274285Y-33519580D02*
X182321904Y-33424342D01*
X182321904Y-33424342D02*
X182321904Y-33329104D01*
X182321904Y-33329104D02*
X182274285Y-33233866D01*
X182274285Y-33233866D02*
X182226666Y-33186247D01*
X182226666Y-33186247D02*
X182131428Y-33138628D01*
X182131428Y-33138628D02*
X181940952Y-33091009D01*
X181940952Y-33091009D02*
X181845714Y-33043390D01*
X181845714Y-33043390D02*
X181798095Y-32995771D01*
X181798095Y-32995771D02*
X181750476Y-32900533D01*
X181750476Y-32900533D02*
X181750476Y-32805295D01*
X181750476Y-32805295D02*
X181798095Y-32710057D01*
X181798095Y-32710057D02*
X181845714Y-32662438D01*
X181845714Y-32662438D02*
X181940952Y-32614819D01*
X181940952Y-32614819D02*
X182179047Y-32614819D01*
X182179047Y-32614819D02*
X182321904Y-32662438D01*
X182655238Y-32614819D02*
X182893333Y-33614819D01*
X182893333Y-33614819D02*
X183083809Y-32900533D01*
X183083809Y-32900533D02*
X183274285Y-33614819D01*
X183274285Y-33614819D02*
X183512381Y-32614819D01*
X184417142Y-33614819D02*
X183845714Y-33614819D01*
X184131428Y-33614819D02*
X184131428Y-32614819D01*
X184131428Y-32614819D02*
X184036190Y-32757676D01*
X184036190Y-32757676D02*
X183940952Y-32852914D01*
X183940952Y-32852914D02*
X183845714Y-32900533D01*
X185036190Y-32614819D02*
X185131428Y-32614819D01*
X185131428Y-32614819D02*
X185226666Y-32662438D01*
X185226666Y-32662438D02*
X185274285Y-32710057D01*
X185274285Y-32710057D02*
X185321904Y-32805295D01*
X185321904Y-32805295D02*
X185369523Y-32995771D01*
X185369523Y-32995771D02*
X185369523Y-33233866D01*
X185369523Y-33233866D02*
X185321904Y-33424342D01*
X185321904Y-33424342D02*
X185274285Y-33519580D01*
X185274285Y-33519580D02*
X185226666Y-33567200D01*
X185226666Y-33567200D02*
X185131428Y-33614819D01*
X185131428Y-33614819D02*
X185036190Y-33614819D01*
X185036190Y-33614819D02*
X184940952Y-33567200D01*
X184940952Y-33567200D02*
X184893333Y-33519580D01*
X184893333Y-33519580D02*
X184845714Y-33424342D01*
X184845714Y-33424342D02*
X184798095Y-33233866D01*
X184798095Y-33233866D02*
X184798095Y-32995771D01*
X184798095Y-32995771D02*
X184845714Y-32805295D01*
X184845714Y-32805295D02*
X184893333Y-32710057D01*
X184893333Y-32710057D02*
X184940952Y-32662438D01*
X184940952Y-32662438D02*
X185036190Y-32614819D01*
X203790476Y-96607200D02*
X203933333Y-96654819D01*
X203933333Y-96654819D02*
X204171428Y-96654819D01*
X204171428Y-96654819D02*
X204266666Y-96607200D01*
X204266666Y-96607200D02*
X204314285Y-96559580D01*
X204314285Y-96559580D02*
X204361904Y-96464342D01*
X204361904Y-96464342D02*
X204361904Y-96369104D01*
X204361904Y-96369104D02*
X204314285Y-96273866D01*
X204314285Y-96273866D02*
X204266666Y-96226247D01*
X204266666Y-96226247D02*
X204171428Y-96178628D01*
X204171428Y-96178628D02*
X203980952Y-96131009D01*
X203980952Y-96131009D02*
X203885714Y-96083390D01*
X203885714Y-96083390D02*
X203838095Y-96035771D01*
X203838095Y-96035771D02*
X203790476Y-95940533D01*
X203790476Y-95940533D02*
X203790476Y-95845295D01*
X203790476Y-95845295D02*
X203838095Y-95750057D01*
X203838095Y-95750057D02*
X203885714Y-95702438D01*
X203885714Y-95702438D02*
X203980952Y-95654819D01*
X203980952Y-95654819D02*
X204219047Y-95654819D01*
X204219047Y-95654819D02*
X204361904Y-95702438D01*
X204695238Y-95654819D02*
X204933333Y-96654819D01*
X204933333Y-96654819D02*
X205123809Y-95940533D01*
X205123809Y-95940533D02*
X205314285Y-96654819D01*
X205314285Y-96654819D02*
X205552381Y-95654819D01*
X206457142Y-96654819D02*
X205885714Y-96654819D01*
X206171428Y-96654819D02*
X206171428Y-95654819D01*
X206171428Y-95654819D02*
X206076190Y-95797676D01*
X206076190Y-95797676D02*
X205980952Y-95892914D01*
X205980952Y-95892914D02*
X205885714Y-95940533D01*
X207314285Y-95988152D02*
X207314285Y-96654819D01*
X207076190Y-95607200D02*
X206838095Y-96321485D01*
X206838095Y-96321485D02*
X207457142Y-96321485D01*
X83396667Y-135597200D02*
X83539524Y-135644819D01*
X83539524Y-135644819D02*
X83777619Y-135644819D01*
X83777619Y-135644819D02*
X83872857Y-135597200D01*
X83872857Y-135597200D02*
X83920476Y-135549580D01*
X83920476Y-135549580D02*
X83968095Y-135454342D01*
X83968095Y-135454342D02*
X83968095Y-135359104D01*
X83968095Y-135359104D02*
X83920476Y-135263866D01*
X83920476Y-135263866D02*
X83872857Y-135216247D01*
X83872857Y-135216247D02*
X83777619Y-135168628D01*
X83777619Y-135168628D02*
X83587143Y-135121009D01*
X83587143Y-135121009D02*
X83491905Y-135073390D01*
X83491905Y-135073390D02*
X83444286Y-135025771D01*
X83444286Y-135025771D02*
X83396667Y-134930533D01*
X83396667Y-134930533D02*
X83396667Y-134835295D01*
X83396667Y-134835295D02*
X83444286Y-134740057D01*
X83444286Y-134740057D02*
X83491905Y-134692438D01*
X83491905Y-134692438D02*
X83587143Y-134644819D01*
X83587143Y-134644819D02*
X83825238Y-134644819D01*
X83825238Y-134644819D02*
X83968095Y-134692438D01*
X84301429Y-134644819D02*
X84539524Y-135644819D01*
X84539524Y-135644819D02*
X84730000Y-134930533D01*
X84730000Y-134930533D02*
X84920476Y-135644819D01*
X84920476Y-135644819D02*
X85158572Y-134644819D01*
X86063333Y-135644819D02*
X85491905Y-135644819D01*
X85777619Y-135644819D02*
X85777619Y-134644819D01*
X85777619Y-134644819D02*
X85682381Y-134787676D01*
X85682381Y-134787676D02*
X85587143Y-134882914D01*
X85587143Y-134882914D02*
X85491905Y-134930533D01*
X82766667Y-117087200D02*
X82909524Y-117134819D01*
X82909524Y-117134819D02*
X83147619Y-117134819D01*
X83147619Y-117134819D02*
X83242857Y-117087200D01*
X83242857Y-117087200D02*
X83290476Y-117039580D01*
X83290476Y-117039580D02*
X83338095Y-116944342D01*
X83338095Y-116944342D02*
X83338095Y-116849104D01*
X83338095Y-116849104D02*
X83290476Y-116753866D01*
X83290476Y-116753866D02*
X83242857Y-116706247D01*
X83242857Y-116706247D02*
X83147619Y-116658628D01*
X83147619Y-116658628D02*
X82957143Y-116611009D01*
X82957143Y-116611009D02*
X82861905Y-116563390D01*
X82861905Y-116563390D02*
X82814286Y-116515771D01*
X82814286Y-116515771D02*
X82766667Y-116420533D01*
X82766667Y-116420533D02*
X82766667Y-116325295D01*
X82766667Y-116325295D02*
X82814286Y-116230057D01*
X82814286Y-116230057D02*
X82861905Y-116182438D01*
X82861905Y-116182438D02*
X82957143Y-116134819D01*
X82957143Y-116134819D02*
X83195238Y-116134819D01*
X83195238Y-116134819D02*
X83338095Y-116182438D01*
X83671429Y-116134819D02*
X83909524Y-117134819D01*
X83909524Y-117134819D02*
X84100000Y-116420533D01*
X84100000Y-116420533D02*
X84290476Y-117134819D01*
X84290476Y-117134819D02*
X84528572Y-116134819D01*
X84861905Y-116230057D02*
X84909524Y-116182438D01*
X84909524Y-116182438D02*
X85004762Y-116134819D01*
X85004762Y-116134819D02*
X85242857Y-116134819D01*
X85242857Y-116134819D02*
X85338095Y-116182438D01*
X85338095Y-116182438D02*
X85385714Y-116230057D01*
X85385714Y-116230057D02*
X85433333Y-116325295D01*
X85433333Y-116325295D02*
X85433333Y-116420533D01*
X85433333Y-116420533D02*
X85385714Y-116563390D01*
X85385714Y-116563390D02*
X84814286Y-117134819D01*
X84814286Y-117134819D02*
X85433333Y-117134819D01*
X130616667Y-41997200D02*
X130759524Y-42044819D01*
X130759524Y-42044819D02*
X130997619Y-42044819D01*
X130997619Y-42044819D02*
X131092857Y-41997200D01*
X131092857Y-41997200D02*
X131140476Y-41949580D01*
X131140476Y-41949580D02*
X131188095Y-41854342D01*
X131188095Y-41854342D02*
X131188095Y-41759104D01*
X131188095Y-41759104D02*
X131140476Y-41663866D01*
X131140476Y-41663866D02*
X131092857Y-41616247D01*
X131092857Y-41616247D02*
X130997619Y-41568628D01*
X130997619Y-41568628D02*
X130807143Y-41521009D01*
X130807143Y-41521009D02*
X130711905Y-41473390D01*
X130711905Y-41473390D02*
X130664286Y-41425771D01*
X130664286Y-41425771D02*
X130616667Y-41330533D01*
X130616667Y-41330533D02*
X130616667Y-41235295D01*
X130616667Y-41235295D02*
X130664286Y-41140057D01*
X130664286Y-41140057D02*
X130711905Y-41092438D01*
X130711905Y-41092438D02*
X130807143Y-41044819D01*
X130807143Y-41044819D02*
X131045238Y-41044819D01*
X131045238Y-41044819D02*
X131188095Y-41092438D01*
X131521429Y-41044819D02*
X131759524Y-42044819D01*
X131759524Y-42044819D02*
X131950000Y-41330533D01*
X131950000Y-41330533D02*
X132140476Y-42044819D01*
X132140476Y-42044819D02*
X132378572Y-41044819D01*
X132664286Y-41044819D02*
X133330952Y-41044819D01*
X133330952Y-41044819D02*
X132902381Y-42044819D01*
X89626667Y-100607200D02*
X89769524Y-100654819D01*
X89769524Y-100654819D02*
X90007619Y-100654819D01*
X90007619Y-100654819D02*
X90102857Y-100607200D01*
X90102857Y-100607200D02*
X90150476Y-100559580D01*
X90150476Y-100559580D02*
X90198095Y-100464342D01*
X90198095Y-100464342D02*
X90198095Y-100369104D01*
X90198095Y-100369104D02*
X90150476Y-100273866D01*
X90150476Y-100273866D02*
X90102857Y-100226247D01*
X90102857Y-100226247D02*
X90007619Y-100178628D01*
X90007619Y-100178628D02*
X89817143Y-100131009D01*
X89817143Y-100131009D02*
X89721905Y-100083390D01*
X89721905Y-100083390D02*
X89674286Y-100035771D01*
X89674286Y-100035771D02*
X89626667Y-99940533D01*
X89626667Y-99940533D02*
X89626667Y-99845295D01*
X89626667Y-99845295D02*
X89674286Y-99750057D01*
X89674286Y-99750057D02*
X89721905Y-99702438D01*
X89721905Y-99702438D02*
X89817143Y-99654819D01*
X89817143Y-99654819D02*
X90055238Y-99654819D01*
X90055238Y-99654819D02*
X90198095Y-99702438D01*
X90531429Y-99654819D02*
X90769524Y-100654819D01*
X90769524Y-100654819D02*
X90960000Y-99940533D01*
X90960000Y-99940533D02*
X91150476Y-100654819D01*
X91150476Y-100654819D02*
X91388572Y-99654819D01*
X91674286Y-99654819D02*
X92293333Y-99654819D01*
X92293333Y-99654819D02*
X91960000Y-100035771D01*
X91960000Y-100035771D02*
X92102857Y-100035771D01*
X92102857Y-100035771D02*
X92198095Y-100083390D01*
X92198095Y-100083390D02*
X92245714Y-100131009D01*
X92245714Y-100131009D02*
X92293333Y-100226247D01*
X92293333Y-100226247D02*
X92293333Y-100464342D01*
X92293333Y-100464342D02*
X92245714Y-100559580D01*
X92245714Y-100559580D02*
X92198095Y-100607200D01*
X92198095Y-100607200D02*
X92102857Y-100654819D01*
X92102857Y-100654819D02*
X91817143Y-100654819D01*
X91817143Y-100654819D02*
X91721905Y-100607200D01*
X91721905Y-100607200D02*
X91674286Y-100559580D01*
X188305476Y-77387200D02*
X188448333Y-77434819D01*
X188448333Y-77434819D02*
X188686428Y-77434819D01*
X188686428Y-77434819D02*
X188781666Y-77387200D01*
X188781666Y-77387200D02*
X188829285Y-77339580D01*
X188829285Y-77339580D02*
X188876904Y-77244342D01*
X188876904Y-77244342D02*
X188876904Y-77149104D01*
X188876904Y-77149104D02*
X188829285Y-77053866D01*
X188829285Y-77053866D02*
X188781666Y-77006247D01*
X188781666Y-77006247D02*
X188686428Y-76958628D01*
X188686428Y-76958628D02*
X188495952Y-76911009D01*
X188495952Y-76911009D02*
X188400714Y-76863390D01*
X188400714Y-76863390D02*
X188353095Y-76815771D01*
X188353095Y-76815771D02*
X188305476Y-76720533D01*
X188305476Y-76720533D02*
X188305476Y-76625295D01*
X188305476Y-76625295D02*
X188353095Y-76530057D01*
X188353095Y-76530057D02*
X188400714Y-76482438D01*
X188400714Y-76482438D02*
X188495952Y-76434819D01*
X188495952Y-76434819D02*
X188734047Y-76434819D01*
X188734047Y-76434819D02*
X188876904Y-76482438D01*
X189210238Y-76434819D02*
X189448333Y-77434819D01*
X189448333Y-77434819D02*
X189638809Y-76720533D01*
X189638809Y-76720533D02*
X189829285Y-77434819D01*
X189829285Y-77434819D02*
X190067381Y-76434819D01*
X190972142Y-77434819D02*
X190400714Y-77434819D01*
X190686428Y-77434819D02*
X190686428Y-76434819D01*
X190686428Y-76434819D02*
X190591190Y-76577676D01*
X190591190Y-76577676D02*
X190495952Y-76672914D01*
X190495952Y-76672914D02*
X190400714Y-76720533D01*
X191924523Y-77434819D02*
X191353095Y-77434819D01*
X191638809Y-77434819D02*
X191638809Y-76434819D01*
X191638809Y-76434819D02*
X191543571Y-76577676D01*
X191543571Y-76577676D02*
X191448333Y-76672914D01*
X191448333Y-76672914D02*
X191353095Y-76720533D01*
X149586667Y-33597200D02*
X149729524Y-33644819D01*
X149729524Y-33644819D02*
X149967619Y-33644819D01*
X149967619Y-33644819D02*
X150062857Y-33597200D01*
X150062857Y-33597200D02*
X150110476Y-33549580D01*
X150110476Y-33549580D02*
X150158095Y-33454342D01*
X150158095Y-33454342D02*
X150158095Y-33359104D01*
X150158095Y-33359104D02*
X150110476Y-33263866D01*
X150110476Y-33263866D02*
X150062857Y-33216247D01*
X150062857Y-33216247D02*
X149967619Y-33168628D01*
X149967619Y-33168628D02*
X149777143Y-33121009D01*
X149777143Y-33121009D02*
X149681905Y-33073390D01*
X149681905Y-33073390D02*
X149634286Y-33025771D01*
X149634286Y-33025771D02*
X149586667Y-32930533D01*
X149586667Y-32930533D02*
X149586667Y-32835295D01*
X149586667Y-32835295D02*
X149634286Y-32740057D01*
X149634286Y-32740057D02*
X149681905Y-32692438D01*
X149681905Y-32692438D02*
X149777143Y-32644819D01*
X149777143Y-32644819D02*
X150015238Y-32644819D01*
X150015238Y-32644819D02*
X150158095Y-32692438D01*
X150491429Y-32644819D02*
X150729524Y-33644819D01*
X150729524Y-33644819D02*
X150920000Y-32930533D01*
X150920000Y-32930533D02*
X151110476Y-33644819D01*
X151110476Y-33644819D02*
X151348572Y-32644819D01*
X151872381Y-33073390D02*
X151777143Y-33025771D01*
X151777143Y-33025771D02*
X151729524Y-32978152D01*
X151729524Y-32978152D02*
X151681905Y-32882914D01*
X151681905Y-32882914D02*
X151681905Y-32835295D01*
X151681905Y-32835295D02*
X151729524Y-32740057D01*
X151729524Y-32740057D02*
X151777143Y-32692438D01*
X151777143Y-32692438D02*
X151872381Y-32644819D01*
X151872381Y-32644819D02*
X152062857Y-32644819D01*
X152062857Y-32644819D02*
X152158095Y-32692438D01*
X152158095Y-32692438D02*
X152205714Y-32740057D01*
X152205714Y-32740057D02*
X152253333Y-32835295D01*
X152253333Y-32835295D02*
X152253333Y-32882914D01*
X152253333Y-32882914D02*
X152205714Y-32978152D01*
X152205714Y-32978152D02*
X152158095Y-33025771D01*
X152158095Y-33025771D02*
X152062857Y-33073390D01*
X152062857Y-33073390D02*
X151872381Y-33073390D01*
X151872381Y-33073390D02*
X151777143Y-33121009D01*
X151777143Y-33121009D02*
X151729524Y-33168628D01*
X151729524Y-33168628D02*
X151681905Y-33263866D01*
X151681905Y-33263866D02*
X151681905Y-33454342D01*
X151681905Y-33454342D02*
X151729524Y-33549580D01*
X151729524Y-33549580D02*
X151777143Y-33597200D01*
X151777143Y-33597200D02*
X151872381Y-33644819D01*
X151872381Y-33644819D02*
X152062857Y-33644819D01*
X152062857Y-33644819D02*
X152158095Y-33597200D01*
X152158095Y-33597200D02*
X152205714Y-33549580D01*
X152205714Y-33549580D02*
X152253333Y-33454342D01*
X152253333Y-33454342D02*
X152253333Y-33263866D01*
X152253333Y-33263866D02*
X152205714Y-33168628D01*
X152205714Y-33168628D02*
X152158095Y-33121009D01*
X152158095Y-33121009D02*
X152062857Y-33073390D01*
X203770476Y-135557200D02*
X203913333Y-135604819D01*
X203913333Y-135604819D02*
X204151428Y-135604819D01*
X204151428Y-135604819D02*
X204246666Y-135557200D01*
X204246666Y-135557200D02*
X204294285Y-135509580D01*
X204294285Y-135509580D02*
X204341904Y-135414342D01*
X204341904Y-135414342D02*
X204341904Y-135319104D01*
X204341904Y-135319104D02*
X204294285Y-135223866D01*
X204294285Y-135223866D02*
X204246666Y-135176247D01*
X204246666Y-135176247D02*
X204151428Y-135128628D01*
X204151428Y-135128628D02*
X203960952Y-135081009D01*
X203960952Y-135081009D02*
X203865714Y-135033390D01*
X203865714Y-135033390D02*
X203818095Y-134985771D01*
X203818095Y-134985771D02*
X203770476Y-134890533D01*
X203770476Y-134890533D02*
X203770476Y-134795295D01*
X203770476Y-134795295D02*
X203818095Y-134700057D01*
X203818095Y-134700057D02*
X203865714Y-134652438D01*
X203865714Y-134652438D02*
X203960952Y-134604819D01*
X203960952Y-134604819D02*
X204199047Y-134604819D01*
X204199047Y-134604819D02*
X204341904Y-134652438D01*
X204675238Y-134604819D02*
X204913333Y-135604819D01*
X204913333Y-135604819D02*
X205103809Y-134890533D01*
X205103809Y-134890533D02*
X205294285Y-135604819D01*
X205294285Y-135604819D02*
X205532381Y-134604819D01*
X206437142Y-135604819D02*
X205865714Y-135604819D01*
X206151428Y-135604819D02*
X206151428Y-134604819D01*
X206151428Y-134604819D02*
X206056190Y-134747676D01*
X206056190Y-134747676D02*
X205960952Y-134842914D01*
X205960952Y-134842914D02*
X205865714Y-134890533D01*
X207294285Y-134604819D02*
X207103809Y-134604819D01*
X207103809Y-134604819D02*
X207008571Y-134652438D01*
X207008571Y-134652438D02*
X206960952Y-134700057D01*
X206960952Y-134700057D02*
X206865714Y-134842914D01*
X206865714Y-134842914D02*
X206818095Y-135033390D01*
X206818095Y-135033390D02*
X206818095Y-135414342D01*
X206818095Y-135414342D02*
X206865714Y-135509580D01*
X206865714Y-135509580D02*
X206913333Y-135557200D01*
X206913333Y-135557200D02*
X207008571Y-135604819D01*
X207008571Y-135604819D02*
X207199047Y-135604819D01*
X207199047Y-135604819D02*
X207294285Y-135557200D01*
X207294285Y-135557200D02*
X207341904Y-135509580D01*
X207341904Y-135509580D02*
X207389523Y-135414342D01*
X207389523Y-135414342D02*
X207389523Y-135176247D01*
X207389523Y-135176247D02*
X207341904Y-135081009D01*
X207341904Y-135081009D02*
X207294285Y-135033390D01*
X207294285Y-135033390D02*
X207199047Y-134985771D01*
X207199047Y-134985771D02*
X207008571Y-134985771D01*
X207008571Y-134985771D02*
X206913333Y-135033390D01*
X206913333Y-135033390D02*
X206865714Y-135081009D01*
X206865714Y-135081009D02*
X206818095Y-135176247D01*
X89676667Y-62827200D02*
X89819524Y-62874819D01*
X89819524Y-62874819D02*
X90057619Y-62874819D01*
X90057619Y-62874819D02*
X90152857Y-62827200D01*
X90152857Y-62827200D02*
X90200476Y-62779580D01*
X90200476Y-62779580D02*
X90248095Y-62684342D01*
X90248095Y-62684342D02*
X90248095Y-62589104D01*
X90248095Y-62589104D02*
X90200476Y-62493866D01*
X90200476Y-62493866D02*
X90152857Y-62446247D01*
X90152857Y-62446247D02*
X90057619Y-62398628D01*
X90057619Y-62398628D02*
X89867143Y-62351009D01*
X89867143Y-62351009D02*
X89771905Y-62303390D01*
X89771905Y-62303390D02*
X89724286Y-62255771D01*
X89724286Y-62255771D02*
X89676667Y-62160533D01*
X89676667Y-62160533D02*
X89676667Y-62065295D01*
X89676667Y-62065295D02*
X89724286Y-61970057D01*
X89724286Y-61970057D02*
X89771905Y-61922438D01*
X89771905Y-61922438D02*
X89867143Y-61874819D01*
X89867143Y-61874819D02*
X90105238Y-61874819D01*
X90105238Y-61874819D02*
X90248095Y-61922438D01*
X90581429Y-61874819D02*
X90819524Y-62874819D01*
X90819524Y-62874819D02*
X91010000Y-62160533D01*
X91010000Y-62160533D02*
X91200476Y-62874819D01*
X91200476Y-62874819D02*
X91438572Y-61874819D01*
X92295714Y-61874819D02*
X91819524Y-61874819D01*
X91819524Y-61874819D02*
X91771905Y-62351009D01*
X91771905Y-62351009D02*
X91819524Y-62303390D01*
X91819524Y-62303390D02*
X91914762Y-62255771D01*
X91914762Y-62255771D02*
X92152857Y-62255771D01*
X92152857Y-62255771D02*
X92248095Y-62303390D01*
X92248095Y-62303390D02*
X92295714Y-62351009D01*
X92295714Y-62351009D02*
X92343333Y-62446247D01*
X92343333Y-62446247D02*
X92343333Y-62684342D01*
X92343333Y-62684342D02*
X92295714Y-62779580D01*
X92295714Y-62779580D02*
X92248095Y-62827200D01*
X92248095Y-62827200D02*
X92152857Y-62874819D01*
X92152857Y-62874819D02*
X91914762Y-62874819D01*
X91914762Y-62874819D02*
X91819524Y-62827200D01*
X91819524Y-62827200D02*
X91771905Y-62779580D01*
X170356667Y-33577200D02*
X170499524Y-33624819D01*
X170499524Y-33624819D02*
X170737619Y-33624819D01*
X170737619Y-33624819D02*
X170832857Y-33577200D01*
X170832857Y-33577200D02*
X170880476Y-33529580D01*
X170880476Y-33529580D02*
X170928095Y-33434342D01*
X170928095Y-33434342D02*
X170928095Y-33339104D01*
X170928095Y-33339104D02*
X170880476Y-33243866D01*
X170880476Y-33243866D02*
X170832857Y-33196247D01*
X170832857Y-33196247D02*
X170737619Y-33148628D01*
X170737619Y-33148628D02*
X170547143Y-33101009D01*
X170547143Y-33101009D02*
X170451905Y-33053390D01*
X170451905Y-33053390D02*
X170404286Y-33005771D01*
X170404286Y-33005771D02*
X170356667Y-32910533D01*
X170356667Y-32910533D02*
X170356667Y-32815295D01*
X170356667Y-32815295D02*
X170404286Y-32720057D01*
X170404286Y-32720057D02*
X170451905Y-32672438D01*
X170451905Y-32672438D02*
X170547143Y-32624819D01*
X170547143Y-32624819D02*
X170785238Y-32624819D01*
X170785238Y-32624819D02*
X170928095Y-32672438D01*
X171261429Y-32624819D02*
X171499524Y-33624819D01*
X171499524Y-33624819D02*
X171690000Y-32910533D01*
X171690000Y-32910533D02*
X171880476Y-33624819D01*
X171880476Y-33624819D02*
X172118572Y-32624819D01*
X172547143Y-33624819D02*
X172737619Y-33624819D01*
X172737619Y-33624819D02*
X172832857Y-33577200D01*
X172832857Y-33577200D02*
X172880476Y-33529580D01*
X172880476Y-33529580D02*
X172975714Y-33386723D01*
X172975714Y-33386723D02*
X173023333Y-33196247D01*
X173023333Y-33196247D02*
X173023333Y-32815295D01*
X173023333Y-32815295D02*
X172975714Y-32720057D01*
X172975714Y-32720057D02*
X172928095Y-32672438D01*
X172928095Y-32672438D02*
X172832857Y-32624819D01*
X172832857Y-32624819D02*
X172642381Y-32624819D01*
X172642381Y-32624819D02*
X172547143Y-32672438D01*
X172547143Y-32672438D02*
X172499524Y-32720057D01*
X172499524Y-32720057D02*
X172451905Y-32815295D01*
X172451905Y-32815295D02*
X172451905Y-33053390D01*
X172451905Y-33053390D02*
X172499524Y-33148628D01*
X172499524Y-33148628D02*
X172547143Y-33196247D01*
X172547143Y-33196247D02*
X172642381Y-33243866D01*
X172642381Y-33243866D02*
X172832857Y-33243866D01*
X172832857Y-33243866D02*
X172928095Y-33196247D01*
X172928095Y-33196247D02*
X172975714Y-33148628D01*
X172975714Y-33148628D02*
X173023333Y-33053390D01*
X203880476Y-77387200D02*
X204023333Y-77434819D01*
X204023333Y-77434819D02*
X204261428Y-77434819D01*
X204261428Y-77434819D02*
X204356666Y-77387200D01*
X204356666Y-77387200D02*
X204404285Y-77339580D01*
X204404285Y-77339580D02*
X204451904Y-77244342D01*
X204451904Y-77244342D02*
X204451904Y-77149104D01*
X204451904Y-77149104D02*
X204404285Y-77053866D01*
X204404285Y-77053866D02*
X204356666Y-77006247D01*
X204356666Y-77006247D02*
X204261428Y-76958628D01*
X204261428Y-76958628D02*
X204070952Y-76911009D01*
X204070952Y-76911009D02*
X203975714Y-76863390D01*
X203975714Y-76863390D02*
X203928095Y-76815771D01*
X203928095Y-76815771D02*
X203880476Y-76720533D01*
X203880476Y-76720533D02*
X203880476Y-76625295D01*
X203880476Y-76625295D02*
X203928095Y-76530057D01*
X203928095Y-76530057D02*
X203975714Y-76482438D01*
X203975714Y-76482438D02*
X204070952Y-76434819D01*
X204070952Y-76434819D02*
X204309047Y-76434819D01*
X204309047Y-76434819D02*
X204451904Y-76482438D01*
X204785238Y-76434819D02*
X205023333Y-77434819D01*
X205023333Y-77434819D02*
X205213809Y-76720533D01*
X205213809Y-76720533D02*
X205404285Y-77434819D01*
X205404285Y-77434819D02*
X205642381Y-76434819D01*
X206547142Y-77434819D02*
X205975714Y-77434819D01*
X206261428Y-77434819D02*
X206261428Y-76434819D01*
X206261428Y-76434819D02*
X206166190Y-76577676D01*
X206166190Y-76577676D02*
X206070952Y-76672914D01*
X206070952Y-76672914D02*
X205975714Y-76720533D01*
X206928095Y-76530057D02*
X206975714Y-76482438D01*
X206975714Y-76482438D02*
X207070952Y-76434819D01*
X207070952Y-76434819D02*
X207309047Y-76434819D01*
X207309047Y-76434819D02*
X207404285Y-76482438D01*
X207404285Y-76482438D02*
X207451904Y-76530057D01*
X207451904Y-76530057D02*
X207499523Y-76625295D01*
X207499523Y-76625295D02*
X207499523Y-76720533D01*
X207499523Y-76720533D02*
X207451904Y-76863390D01*
X207451904Y-76863390D02*
X206880476Y-77434819D01*
X206880476Y-77434819D02*
X207499523Y-77434819D01*
X104166667Y-33527200D02*
X104309524Y-33574819D01*
X104309524Y-33574819D02*
X104547619Y-33574819D01*
X104547619Y-33574819D02*
X104642857Y-33527200D01*
X104642857Y-33527200D02*
X104690476Y-33479580D01*
X104690476Y-33479580D02*
X104738095Y-33384342D01*
X104738095Y-33384342D02*
X104738095Y-33289104D01*
X104738095Y-33289104D02*
X104690476Y-33193866D01*
X104690476Y-33193866D02*
X104642857Y-33146247D01*
X104642857Y-33146247D02*
X104547619Y-33098628D01*
X104547619Y-33098628D02*
X104357143Y-33051009D01*
X104357143Y-33051009D02*
X104261905Y-33003390D01*
X104261905Y-33003390D02*
X104214286Y-32955771D01*
X104214286Y-32955771D02*
X104166667Y-32860533D01*
X104166667Y-32860533D02*
X104166667Y-32765295D01*
X104166667Y-32765295D02*
X104214286Y-32670057D01*
X104214286Y-32670057D02*
X104261905Y-32622438D01*
X104261905Y-32622438D02*
X104357143Y-32574819D01*
X104357143Y-32574819D02*
X104595238Y-32574819D01*
X104595238Y-32574819D02*
X104738095Y-32622438D01*
X105071429Y-32574819D02*
X105309524Y-33574819D01*
X105309524Y-33574819D02*
X105500000Y-32860533D01*
X105500000Y-32860533D02*
X105690476Y-33574819D01*
X105690476Y-33574819D02*
X105928572Y-32574819D01*
X106738095Y-32574819D02*
X106547619Y-32574819D01*
X106547619Y-32574819D02*
X106452381Y-32622438D01*
X106452381Y-32622438D02*
X106404762Y-32670057D01*
X106404762Y-32670057D02*
X106309524Y-32812914D01*
X106309524Y-32812914D02*
X106261905Y-33003390D01*
X106261905Y-33003390D02*
X106261905Y-33384342D01*
X106261905Y-33384342D02*
X106309524Y-33479580D01*
X106309524Y-33479580D02*
X106357143Y-33527200D01*
X106357143Y-33527200D02*
X106452381Y-33574819D01*
X106452381Y-33574819D02*
X106642857Y-33574819D01*
X106642857Y-33574819D02*
X106738095Y-33527200D01*
X106738095Y-33527200D02*
X106785714Y-33479580D01*
X106785714Y-33479580D02*
X106833333Y-33384342D01*
X106833333Y-33384342D02*
X106833333Y-33146247D01*
X106833333Y-33146247D02*
X106785714Y-33051009D01*
X106785714Y-33051009D02*
X106738095Y-33003390D01*
X106738095Y-33003390D02*
X106642857Y-32955771D01*
X106642857Y-32955771D02*
X106452381Y-32955771D01*
X106452381Y-32955771D02*
X106357143Y-33003390D01*
X106357143Y-33003390D02*
X106309524Y-33051009D01*
X106309524Y-33051009D02*
X106261905Y-33146247D01*
X203810476Y-116997200D02*
X203953333Y-117044819D01*
X203953333Y-117044819D02*
X204191428Y-117044819D01*
X204191428Y-117044819D02*
X204286666Y-116997200D01*
X204286666Y-116997200D02*
X204334285Y-116949580D01*
X204334285Y-116949580D02*
X204381904Y-116854342D01*
X204381904Y-116854342D02*
X204381904Y-116759104D01*
X204381904Y-116759104D02*
X204334285Y-116663866D01*
X204334285Y-116663866D02*
X204286666Y-116616247D01*
X204286666Y-116616247D02*
X204191428Y-116568628D01*
X204191428Y-116568628D02*
X204000952Y-116521009D01*
X204000952Y-116521009D02*
X203905714Y-116473390D01*
X203905714Y-116473390D02*
X203858095Y-116425771D01*
X203858095Y-116425771D02*
X203810476Y-116330533D01*
X203810476Y-116330533D02*
X203810476Y-116235295D01*
X203810476Y-116235295D02*
X203858095Y-116140057D01*
X203858095Y-116140057D02*
X203905714Y-116092438D01*
X203905714Y-116092438D02*
X204000952Y-116044819D01*
X204000952Y-116044819D02*
X204239047Y-116044819D01*
X204239047Y-116044819D02*
X204381904Y-116092438D01*
X204715238Y-116044819D02*
X204953333Y-117044819D01*
X204953333Y-117044819D02*
X205143809Y-116330533D01*
X205143809Y-116330533D02*
X205334285Y-117044819D01*
X205334285Y-117044819D02*
X205572381Y-116044819D01*
X206477142Y-117044819D02*
X205905714Y-117044819D01*
X206191428Y-117044819D02*
X206191428Y-116044819D01*
X206191428Y-116044819D02*
X206096190Y-116187676D01*
X206096190Y-116187676D02*
X206000952Y-116282914D01*
X206000952Y-116282914D02*
X205905714Y-116330533D01*
X207381904Y-116044819D02*
X206905714Y-116044819D01*
X206905714Y-116044819D02*
X206858095Y-116521009D01*
X206858095Y-116521009D02*
X206905714Y-116473390D01*
X206905714Y-116473390D02*
X207000952Y-116425771D01*
X207000952Y-116425771D02*
X207239047Y-116425771D01*
X207239047Y-116425771D02*
X207334285Y-116473390D01*
X207334285Y-116473390D02*
X207381904Y-116521009D01*
X207381904Y-116521009D02*
X207429523Y-116616247D01*
X207429523Y-116616247D02*
X207429523Y-116854342D01*
X207429523Y-116854342D02*
X207381904Y-116949580D01*
X207381904Y-116949580D02*
X207334285Y-116997200D01*
X207334285Y-116997200D02*
X207239047Y-117044819D01*
X207239047Y-117044819D02*
X207000952Y-117044819D01*
X207000952Y-117044819D02*
X206905714Y-116997200D01*
X206905714Y-116997200D02*
X206858095Y-116949580D01*
X188330476Y-105057200D02*
X188473333Y-105104819D01*
X188473333Y-105104819D02*
X188711428Y-105104819D01*
X188711428Y-105104819D02*
X188806666Y-105057200D01*
X188806666Y-105057200D02*
X188854285Y-105009580D01*
X188854285Y-105009580D02*
X188901904Y-104914342D01*
X188901904Y-104914342D02*
X188901904Y-104819104D01*
X188901904Y-104819104D02*
X188854285Y-104723866D01*
X188854285Y-104723866D02*
X188806666Y-104676247D01*
X188806666Y-104676247D02*
X188711428Y-104628628D01*
X188711428Y-104628628D02*
X188520952Y-104581009D01*
X188520952Y-104581009D02*
X188425714Y-104533390D01*
X188425714Y-104533390D02*
X188378095Y-104485771D01*
X188378095Y-104485771D02*
X188330476Y-104390533D01*
X188330476Y-104390533D02*
X188330476Y-104295295D01*
X188330476Y-104295295D02*
X188378095Y-104200057D01*
X188378095Y-104200057D02*
X188425714Y-104152438D01*
X188425714Y-104152438D02*
X188520952Y-104104819D01*
X188520952Y-104104819D02*
X188759047Y-104104819D01*
X188759047Y-104104819D02*
X188901904Y-104152438D01*
X189235238Y-104104819D02*
X189473333Y-105104819D01*
X189473333Y-105104819D02*
X189663809Y-104390533D01*
X189663809Y-104390533D02*
X189854285Y-105104819D01*
X189854285Y-105104819D02*
X190092381Y-104104819D01*
X190997142Y-105104819D02*
X190425714Y-105104819D01*
X190711428Y-105104819D02*
X190711428Y-104104819D01*
X190711428Y-104104819D02*
X190616190Y-104247676D01*
X190616190Y-104247676D02*
X190520952Y-104342914D01*
X190520952Y-104342914D02*
X190425714Y-104390533D01*
X191330476Y-104104819D02*
X191949523Y-104104819D01*
X191949523Y-104104819D02*
X191616190Y-104485771D01*
X191616190Y-104485771D02*
X191759047Y-104485771D01*
X191759047Y-104485771D02*
X191854285Y-104533390D01*
X191854285Y-104533390D02*
X191901904Y-104581009D01*
X191901904Y-104581009D02*
X191949523Y-104676247D01*
X191949523Y-104676247D02*
X191949523Y-104914342D01*
X191949523Y-104914342D02*
X191901904Y-105009580D01*
X191901904Y-105009580D02*
X191854285Y-105057200D01*
X191854285Y-105057200D02*
X191759047Y-105104819D01*
X191759047Y-105104819D02*
X191473333Y-105104819D01*
X191473333Y-105104819D02*
X191378095Y-105057200D01*
X191378095Y-105057200D02*
X191330476Y-105009580D01*
X89686667Y-81177200D02*
X89829524Y-81224819D01*
X89829524Y-81224819D02*
X90067619Y-81224819D01*
X90067619Y-81224819D02*
X90162857Y-81177200D01*
X90162857Y-81177200D02*
X90210476Y-81129580D01*
X90210476Y-81129580D02*
X90258095Y-81034342D01*
X90258095Y-81034342D02*
X90258095Y-80939104D01*
X90258095Y-80939104D02*
X90210476Y-80843866D01*
X90210476Y-80843866D02*
X90162857Y-80796247D01*
X90162857Y-80796247D02*
X90067619Y-80748628D01*
X90067619Y-80748628D02*
X89877143Y-80701009D01*
X89877143Y-80701009D02*
X89781905Y-80653390D01*
X89781905Y-80653390D02*
X89734286Y-80605771D01*
X89734286Y-80605771D02*
X89686667Y-80510533D01*
X89686667Y-80510533D02*
X89686667Y-80415295D01*
X89686667Y-80415295D02*
X89734286Y-80320057D01*
X89734286Y-80320057D02*
X89781905Y-80272438D01*
X89781905Y-80272438D02*
X89877143Y-80224819D01*
X89877143Y-80224819D02*
X90115238Y-80224819D01*
X90115238Y-80224819D02*
X90258095Y-80272438D01*
X90591429Y-80224819D02*
X90829524Y-81224819D01*
X90829524Y-81224819D02*
X91020000Y-80510533D01*
X91020000Y-80510533D02*
X91210476Y-81224819D01*
X91210476Y-81224819D02*
X91448572Y-80224819D01*
X92258095Y-80558152D02*
X92258095Y-81224819D01*
X92020000Y-80177200D02*
X91781905Y-80891485D01*
X91781905Y-80891485D02*
X92400952Y-80891485D01*
D11*
%TO.C,SW10*%
X180060000Y-36660000D02*
X180060000Y-38160000D01*
X181310000Y-40660000D02*
X185810000Y-40660000D01*
X185810000Y-34160000D02*
X181310000Y-34160000D01*
X187060000Y-38160000D02*
X187060000Y-36660000D01*
%TO.C,SW14*%
X202100000Y-99700000D02*
X202100000Y-101200000D01*
X203350000Y-103700000D02*
X207850000Y-103700000D01*
X207850000Y-97200000D02*
X203350000Y-97200000D01*
X209100000Y-101200000D02*
X209100000Y-99700000D01*
%TO.C,SW1*%
X81230000Y-130190000D02*
X81230000Y-131690000D01*
X82480000Y-134190000D02*
X86980000Y-134190000D01*
X86980000Y-127690000D02*
X82480000Y-127690000D01*
X88230000Y-131690000D02*
X88230000Y-130190000D01*
%TO.C,SW2*%
X80600000Y-111680000D02*
X80600000Y-113180000D01*
X81850000Y-115680000D02*
X86350000Y-115680000D01*
X86350000Y-109180000D02*
X81850000Y-109180000D01*
X87600000Y-113180000D02*
X87600000Y-111680000D01*
%TO.C,SW7*%
X128450000Y-36590000D02*
X128450000Y-38090000D01*
X129700000Y-40590000D02*
X134200000Y-40590000D01*
X134200000Y-34090000D02*
X129700000Y-34090000D01*
X135450000Y-38090000D02*
X135450000Y-36590000D01*
%TO.C,SW3*%
X87460000Y-95200000D02*
X87460000Y-96700000D01*
X88710000Y-99200000D02*
X93210000Y-99200000D01*
X93210000Y-92700000D02*
X88710000Y-92700000D01*
X94460000Y-96700000D02*
X94460000Y-95200000D01*
%TO.C,SW11*%
X186615000Y-80480000D02*
X186615000Y-81980000D01*
X187865000Y-84480000D02*
X192365000Y-84480000D01*
X192365000Y-77980000D02*
X187865000Y-77980000D01*
X193615000Y-81980000D02*
X193615000Y-80480000D01*
%TO.C,SW8*%
X147420000Y-36690000D02*
X147420000Y-38190000D01*
X148670000Y-40690000D02*
X153170000Y-40690000D01*
X153170000Y-34190000D02*
X148670000Y-34190000D01*
X154420000Y-38190000D02*
X154420000Y-36690000D01*
%TO.C,SW16*%
X202080000Y-130150000D02*
X202080000Y-131650000D01*
X203330000Y-134150000D02*
X207830000Y-134150000D01*
X207830000Y-127650000D02*
X203330000Y-127650000D01*
X209080000Y-131650000D02*
X209080000Y-130150000D01*
%TO.C,SW5*%
X87510000Y-57420000D02*
X87510000Y-58920000D01*
X88760000Y-61420000D02*
X93260000Y-61420000D01*
X93260000Y-54920000D02*
X88760000Y-54920000D01*
X94510000Y-58920000D02*
X94510000Y-57420000D01*
%TO.C,SW9*%
X168190000Y-36670000D02*
X168190000Y-38170000D01*
X169440000Y-40670000D02*
X173940000Y-40670000D01*
X173940000Y-34170000D02*
X169440000Y-34170000D01*
X175190000Y-38170000D02*
X175190000Y-36670000D01*
%TO.C,SW12*%
X202190000Y-80480000D02*
X202190000Y-81980000D01*
X203440000Y-84480000D02*
X207940000Y-84480000D01*
X207940000Y-77980000D02*
X203440000Y-77980000D01*
X209190000Y-81980000D02*
X209190000Y-80480000D01*
%TO.C,SW6*%
X102000000Y-36620000D02*
X102000000Y-38120000D01*
X103250000Y-40620000D02*
X107750000Y-40620000D01*
X107750000Y-34120000D02*
X103250000Y-34120000D01*
X109000000Y-38120000D02*
X109000000Y-36620000D01*
%TO.C,SW15*%
X202120000Y-120090000D02*
X202120000Y-121590000D01*
X203370000Y-124090000D02*
X207870000Y-124090000D01*
X207870000Y-117590000D02*
X203370000Y-117590000D01*
X209120000Y-121590000D02*
X209120000Y-120090000D01*
%TO.C,SW13*%
X186640000Y-99650000D02*
X186640000Y-101150000D01*
X187890000Y-103650000D02*
X192390000Y-103650000D01*
X192390000Y-97150000D02*
X187890000Y-97150000D01*
X193640000Y-101150000D02*
X193640000Y-99650000D01*
%TO.C,SW4*%
X87520000Y-75770000D02*
X87520000Y-77270000D01*
X88770000Y-79770000D02*
X93270000Y-79770000D01*
X93270000Y-73270000D02*
X88770000Y-73270000D01*
X94520000Y-77270000D02*
X94520000Y-75770000D01*
%TD*%
M02*
