%TF.GenerationSoftware,KiCad,Pcbnew,9.0.3*%
%TF.CreationDate,2025-07-23T06:43:18-06:00*%
%TF.ProjectId,ARC-210-Master-Board,4152432d-3231-4302-9d4d-61737465722d,rev?*%
%TF.SameCoordinates,Original*%
%TF.FileFunction,Legend,Bot*%
%TF.FilePolarity,Positive*%
%FSLAX46Y46*%
G04 Gerber Fmt 4.6, Leading zero omitted, Abs format (unit mm)*
G04 Created by KiCad (PCBNEW 9.0.3) date 2025-07-23 06:43:18*
%MOMM*%
%LPD*%
G01*
G04 APERTURE LIST*
%ADD10C,0.150000*%
%ADD11C,0.120000*%
G04 APERTURE END LIST*
D10*
X191814285Y-74814819D02*
X191814285Y-73814819D01*
X191814285Y-73814819D02*
X191576190Y-73814819D01*
X191576190Y-73814819D02*
X191433333Y-73862438D01*
X191433333Y-73862438D02*
X191338095Y-73957676D01*
X191338095Y-73957676D02*
X191290476Y-74052914D01*
X191290476Y-74052914D02*
X191242857Y-74243390D01*
X191242857Y-74243390D02*
X191242857Y-74386247D01*
X191242857Y-74386247D02*
X191290476Y-74576723D01*
X191290476Y-74576723D02*
X191338095Y-74671961D01*
X191338095Y-74671961D02*
X191433333Y-74767200D01*
X191433333Y-74767200D02*
X191576190Y-74814819D01*
X191576190Y-74814819D02*
X191814285Y-74814819D01*
X190290476Y-74814819D02*
X190861904Y-74814819D01*
X190576190Y-74814819D02*
X190576190Y-73814819D01*
X190576190Y-73814819D02*
X190671428Y-73957676D01*
X190671428Y-73957676D02*
X190766666Y-74052914D01*
X190766666Y-74052914D02*
X190861904Y-74100533D01*
X189338095Y-74814819D02*
X189909523Y-74814819D01*
X189623809Y-74814819D02*
X189623809Y-73814819D01*
X189623809Y-73814819D02*
X189719047Y-73957676D01*
X189719047Y-73957676D02*
X189814285Y-74052914D01*
X189814285Y-74052914D02*
X189909523Y-74100533D01*
X187051904Y-74494819D02*
X187051904Y-73494819D01*
X186480476Y-74494819D02*
X186909047Y-73923390D01*
X186480476Y-73494819D02*
X187051904Y-74066247D01*
X207374285Y-141424819D02*
X207374285Y-140424819D01*
X207374285Y-140424819D02*
X207136190Y-140424819D01*
X207136190Y-140424819D02*
X206993333Y-140472438D01*
X206993333Y-140472438D02*
X206898095Y-140567676D01*
X206898095Y-140567676D02*
X206850476Y-140662914D01*
X206850476Y-140662914D02*
X206802857Y-140853390D01*
X206802857Y-140853390D02*
X206802857Y-140996247D01*
X206802857Y-140996247D02*
X206850476Y-141186723D01*
X206850476Y-141186723D02*
X206898095Y-141281961D01*
X206898095Y-141281961D02*
X206993333Y-141377200D01*
X206993333Y-141377200D02*
X207136190Y-141424819D01*
X207136190Y-141424819D02*
X207374285Y-141424819D01*
X205850476Y-141424819D02*
X206421904Y-141424819D01*
X206136190Y-141424819D02*
X206136190Y-140424819D01*
X206136190Y-140424819D02*
X206231428Y-140567676D01*
X206231428Y-140567676D02*
X206326666Y-140662914D01*
X206326666Y-140662914D02*
X206421904Y-140710533D01*
X204993333Y-140424819D02*
X205183809Y-140424819D01*
X205183809Y-140424819D02*
X205279047Y-140472438D01*
X205279047Y-140472438D02*
X205326666Y-140520057D01*
X205326666Y-140520057D02*
X205421904Y-140662914D01*
X205421904Y-140662914D02*
X205469523Y-140853390D01*
X205469523Y-140853390D02*
X205469523Y-141234342D01*
X205469523Y-141234342D02*
X205421904Y-141329580D01*
X205421904Y-141329580D02*
X205374285Y-141377200D01*
X205374285Y-141377200D02*
X205279047Y-141424819D01*
X205279047Y-141424819D02*
X205088571Y-141424819D01*
X205088571Y-141424819D02*
X204993333Y-141377200D01*
X204993333Y-141377200D02*
X204945714Y-141329580D01*
X204945714Y-141329580D02*
X204898095Y-141234342D01*
X204898095Y-141234342D02*
X204898095Y-140996247D01*
X204898095Y-140996247D02*
X204945714Y-140901009D01*
X204945714Y-140901009D02*
X204993333Y-140853390D01*
X204993333Y-140853390D02*
X205088571Y-140805771D01*
X205088571Y-140805771D02*
X205279047Y-140805771D01*
X205279047Y-140805771D02*
X205374285Y-140853390D01*
X205374285Y-140853390D02*
X205421904Y-140901009D01*
X205421904Y-140901009D02*
X205469523Y-140996247D01*
X202611904Y-141104819D02*
X202611904Y-140104819D01*
X202040476Y-141104819D02*
X202469047Y-140533390D01*
X202040476Y-140104819D02*
X202611904Y-140676247D01*
X172688094Y-34144819D02*
X172688094Y-33144819D01*
X172688094Y-33144819D02*
X172449999Y-33144819D01*
X172449999Y-33144819D02*
X172307142Y-33192438D01*
X172307142Y-33192438D02*
X172211904Y-33287676D01*
X172211904Y-33287676D02*
X172164285Y-33382914D01*
X172164285Y-33382914D02*
X172116666Y-33573390D01*
X172116666Y-33573390D02*
X172116666Y-33716247D01*
X172116666Y-33716247D02*
X172164285Y-33906723D01*
X172164285Y-33906723D02*
X172211904Y-34001961D01*
X172211904Y-34001961D02*
X172307142Y-34097200D01*
X172307142Y-34097200D02*
X172449999Y-34144819D01*
X172449999Y-34144819D02*
X172688094Y-34144819D01*
X171640475Y-34144819D02*
X171449999Y-34144819D01*
X171449999Y-34144819D02*
X171354761Y-34097200D01*
X171354761Y-34097200D02*
X171307142Y-34049580D01*
X171307142Y-34049580D02*
X171211904Y-33906723D01*
X171211904Y-33906723D02*
X171164285Y-33716247D01*
X171164285Y-33716247D02*
X171164285Y-33335295D01*
X171164285Y-33335295D02*
X171211904Y-33240057D01*
X171211904Y-33240057D02*
X171259523Y-33192438D01*
X171259523Y-33192438D02*
X171354761Y-33144819D01*
X171354761Y-33144819D02*
X171545237Y-33144819D01*
X171545237Y-33144819D02*
X171640475Y-33192438D01*
X171640475Y-33192438D02*
X171688094Y-33240057D01*
X171688094Y-33240057D02*
X171735713Y-33335295D01*
X171735713Y-33335295D02*
X171735713Y-33573390D01*
X171735713Y-33573390D02*
X171688094Y-33668628D01*
X171688094Y-33668628D02*
X171640475Y-33716247D01*
X171640475Y-33716247D02*
X171545237Y-33763866D01*
X171545237Y-33763866D02*
X171354761Y-33763866D01*
X171354761Y-33763866D02*
X171259523Y-33716247D01*
X171259523Y-33716247D02*
X171211904Y-33668628D01*
X171211904Y-33668628D02*
X171164285Y-33573390D01*
X168401904Y-33824819D02*
X168401904Y-32824819D01*
X167830476Y-33824819D02*
X168259047Y-33253390D01*
X167830476Y-32824819D02*
X168401904Y-33396247D01*
X83574819Y-46006666D02*
X84289104Y-46006666D01*
X84289104Y-46006666D02*
X84431961Y-45959047D01*
X84431961Y-45959047D02*
X84527200Y-45863809D01*
X84527200Y-45863809D02*
X84574819Y-45720952D01*
X84574819Y-45720952D02*
X84574819Y-45625714D01*
X83670057Y-46435238D02*
X83622438Y-46482857D01*
X83622438Y-46482857D02*
X83574819Y-46578095D01*
X83574819Y-46578095D02*
X83574819Y-46816190D01*
X83574819Y-46816190D02*
X83622438Y-46911428D01*
X83622438Y-46911428D02*
X83670057Y-46959047D01*
X83670057Y-46959047D02*
X83765295Y-47006666D01*
X83765295Y-47006666D02*
X83860533Y-47006666D01*
X83860533Y-47006666D02*
X84003390Y-46959047D01*
X84003390Y-46959047D02*
X84574819Y-46387619D01*
X84574819Y-46387619D02*
X84574819Y-47006666D01*
X207324285Y-115734819D02*
X207324285Y-114734819D01*
X207324285Y-114734819D02*
X207086190Y-114734819D01*
X207086190Y-114734819D02*
X206943333Y-114782438D01*
X206943333Y-114782438D02*
X206848095Y-114877676D01*
X206848095Y-114877676D02*
X206800476Y-114972914D01*
X206800476Y-114972914D02*
X206752857Y-115163390D01*
X206752857Y-115163390D02*
X206752857Y-115306247D01*
X206752857Y-115306247D02*
X206800476Y-115496723D01*
X206800476Y-115496723D02*
X206848095Y-115591961D01*
X206848095Y-115591961D02*
X206943333Y-115687200D01*
X206943333Y-115687200D02*
X207086190Y-115734819D01*
X207086190Y-115734819D02*
X207324285Y-115734819D01*
X205800476Y-115734819D02*
X206371904Y-115734819D01*
X206086190Y-115734819D02*
X206086190Y-114734819D01*
X206086190Y-114734819D02*
X206181428Y-114877676D01*
X206181428Y-114877676D02*
X206276666Y-114972914D01*
X206276666Y-114972914D02*
X206371904Y-115020533D01*
X204895714Y-114734819D02*
X205371904Y-114734819D01*
X205371904Y-114734819D02*
X205419523Y-115211009D01*
X205419523Y-115211009D02*
X205371904Y-115163390D01*
X205371904Y-115163390D02*
X205276666Y-115115771D01*
X205276666Y-115115771D02*
X205038571Y-115115771D01*
X205038571Y-115115771D02*
X204943333Y-115163390D01*
X204943333Y-115163390D02*
X204895714Y-115211009D01*
X204895714Y-115211009D02*
X204848095Y-115306247D01*
X204848095Y-115306247D02*
X204848095Y-115544342D01*
X204848095Y-115544342D02*
X204895714Y-115639580D01*
X204895714Y-115639580D02*
X204943333Y-115687200D01*
X204943333Y-115687200D02*
X205038571Y-115734819D01*
X205038571Y-115734819D02*
X205276666Y-115734819D01*
X205276666Y-115734819D02*
X205371904Y-115687200D01*
X205371904Y-115687200D02*
X205419523Y-115639580D01*
X202561904Y-115414819D02*
X202561904Y-114414819D01*
X201990476Y-115414819D02*
X202419047Y-114843390D01*
X201990476Y-114414819D02*
X202561904Y-114986247D01*
X91108094Y-101754819D02*
X91108094Y-100754819D01*
X91108094Y-100754819D02*
X90869999Y-100754819D01*
X90869999Y-100754819D02*
X90727142Y-100802438D01*
X90727142Y-100802438D02*
X90631904Y-100897676D01*
X90631904Y-100897676D02*
X90584285Y-100992914D01*
X90584285Y-100992914D02*
X90536666Y-101183390D01*
X90536666Y-101183390D02*
X90536666Y-101326247D01*
X90536666Y-101326247D02*
X90584285Y-101516723D01*
X90584285Y-101516723D02*
X90631904Y-101611961D01*
X90631904Y-101611961D02*
X90727142Y-101707200D01*
X90727142Y-101707200D02*
X90869999Y-101754819D01*
X90869999Y-101754819D02*
X91108094Y-101754819D01*
X90203332Y-100754819D02*
X89584285Y-100754819D01*
X89584285Y-100754819D02*
X89917618Y-101135771D01*
X89917618Y-101135771D02*
X89774761Y-101135771D01*
X89774761Y-101135771D02*
X89679523Y-101183390D01*
X89679523Y-101183390D02*
X89631904Y-101231009D01*
X89631904Y-101231009D02*
X89584285Y-101326247D01*
X89584285Y-101326247D02*
X89584285Y-101564342D01*
X89584285Y-101564342D02*
X89631904Y-101659580D01*
X89631904Y-101659580D02*
X89679523Y-101707200D01*
X89679523Y-101707200D02*
X89774761Y-101754819D01*
X89774761Y-101754819D02*
X90060475Y-101754819D01*
X90060475Y-101754819D02*
X90155713Y-101707200D01*
X90155713Y-101707200D02*
X90203332Y-101659580D01*
X94441904Y-102074819D02*
X94441904Y-101074819D01*
X93870476Y-102074819D02*
X94299047Y-101503390D01*
X93870476Y-101074819D02*
X94441904Y-101646247D01*
X214483333Y-51644819D02*
X214483333Y-52359104D01*
X214483333Y-52359104D02*
X214530952Y-52501961D01*
X214530952Y-52501961D02*
X214626190Y-52597200D01*
X214626190Y-52597200D02*
X214769047Y-52644819D01*
X214769047Y-52644819D02*
X214864285Y-52644819D01*
X213483333Y-52644819D02*
X214054761Y-52644819D01*
X213769047Y-52644819D02*
X213769047Y-51644819D01*
X213769047Y-51644819D02*
X213864285Y-51787676D01*
X213864285Y-51787676D02*
X213959523Y-51882914D01*
X213959523Y-51882914D02*
X214054761Y-51930533D01*
X184154285Y-29894819D02*
X184154285Y-28894819D01*
X184154285Y-28894819D02*
X183916190Y-28894819D01*
X183916190Y-28894819D02*
X183773333Y-28942438D01*
X183773333Y-28942438D02*
X183678095Y-29037676D01*
X183678095Y-29037676D02*
X183630476Y-29132914D01*
X183630476Y-29132914D02*
X183582857Y-29323390D01*
X183582857Y-29323390D02*
X183582857Y-29466247D01*
X183582857Y-29466247D02*
X183630476Y-29656723D01*
X183630476Y-29656723D02*
X183678095Y-29751961D01*
X183678095Y-29751961D02*
X183773333Y-29847200D01*
X183773333Y-29847200D02*
X183916190Y-29894819D01*
X183916190Y-29894819D02*
X184154285Y-29894819D01*
X182630476Y-29894819D02*
X183201904Y-29894819D01*
X182916190Y-29894819D02*
X182916190Y-28894819D01*
X182916190Y-28894819D02*
X183011428Y-29037676D01*
X183011428Y-29037676D02*
X183106666Y-29132914D01*
X183106666Y-29132914D02*
X183201904Y-29180533D01*
X182011428Y-28894819D02*
X181916190Y-28894819D01*
X181916190Y-28894819D02*
X181820952Y-28942438D01*
X181820952Y-28942438D02*
X181773333Y-28990057D01*
X181773333Y-28990057D02*
X181725714Y-29085295D01*
X181725714Y-29085295D02*
X181678095Y-29275771D01*
X181678095Y-29275771D02*
X181678095Y-29513866D01*
X181678095Y-29513866D02*
X181725714Y-29704342D01*
X181725714Y-29704342D02*
X181773333Y-29799580D01*
X181773333Y-29799580D02*
X181820952Y-29847200D01*
X181820952Y-29847200D02*
X181916190Y-29894819D01*
X181916190Y-29894819D02*
X182011428Y-29894819D01*
X182011428Y-29894819D02*
X182106666Y-29847200D01*
X182106666Y-29847200D02*
X182154285Y-29799580D01*
X182154285Y-29799580D02*
X182201904Y-29704342D01*
X182201904Y-29704342D02*
X182249523Y-29513866D01*
X182249523Y-29513866D02*
X182249523Y-29275771D01*
X182249523Y-29275771D02*
X182201904Y-29085295D01*
X182201904Y-29085295D02*
X182154285Y-28990057D01*
X182154285Y-28990057D02*
X182106666Y-28942438D01*
X182106666Y-28942438D02*
X182011428Y-28894819D01*
X187011904Y-30214819D02*
X187011904Y-29214819D01*
X186440476Y-30214819D02*
X186869047Y-29643390D01*
X186440476Y-29214819D02*
X187011904Y-29786247D01*
X92278094Y-87044819D02*
X92278094Y-86044819D01*
X92278094Y-86044819D02*
X92039999Y-86044819D01*
X92039999Y-86044819D02*
X91897142Y-86092438D01*
X91897142Y-86092438D02*
X91801904Y-86187676D01*
X91801904Y-86187676D02*
X91754285Y-86282914D01*
X91754285Y-86282914D02*
X91706666Y-86473390D01*
X91706666Y-86473390D02*
X91706666Y-86616247D01*
X91706666Y-86616247D02*
X91754285Y-86806723D01*
X91754285Y-86806723D02*
X91801904Y-86901961D01*
X91801904Y-86901961D02*
X91897142Y-86997200D01*
X91897142Y-86997200D02*
X92039999Y-87044819D01*
X92039999Y-87044819D02*
X92278094Y-87044819D01*
X90849523Y-86378152D02*
X90849523Y-87044819D01*
X91087618Y-85997200D02*
X91325713Y-86711485D01*
X91325713Y-86711485D02*
X90706666Y-86711485D01*
X87991904Y-86724819D02*
X87991904Y-85724819D01*
X87420476Y-86724819D02*
X87849047Y-86153390D01*
X87420476Y-85724819D02*
X87991904Y-86296247D01*
X85048094Y-136504819D02*
X85048094Y-135504819D01*
X85048094Y-135504819D02*
X84809999Y-135504819D01*
X84809999Y-135504819D02*
X84667142Y-135552438D01*
X84667142Y-135552438D02*
X84571904Y-135647676D01*
X84571904Y-135647676D02*
X84524285Y-135742914D01*
X84524285Y-135742914D02*
X84476666Y-135933390D01*
X84476666Y-135933390D02*
X84476666Y-136076247D01*
X84476666Y-136076247D02*
X84524285Y-136266723D01*
X84524285Y-136266723D02*
X84571904Y-136361961D01*
X84571904Y-136361961D02*
X84667142Y-136457200D01*
X84667142Y-136457200D02*
X84809999Y-136504819D01*
X84809999Y-136504819D02*
X85048094Y-136504819D01*
X83524285Y-136504819D02*
X84095713Y-136504819D01*
X83809999Y-136504819D02*
X83809999Y-135504819D01*
X83809999Y-135504819D02*
X83905237Y-135647676D01*
X83905237Y-135647676D02*
X84000475Y-135742914D01*
X84000475Y-135742914D02*
X84095713Y-135790533D01*
X88381904Y-136824819D02*
X88381904Y-135824819D01*
X87810476Y-136824819D02*
X88239047Y-136253390D01*
X87810476Y-135824819D02*
X88381904Y-136396247D01*
X106728094Y-34164819D02*
X106728094Y-33164819D01*
X106728094Y-33164819D02*
X106489999Y-33164819D01*
X106489999Y-33164819D02*
X106347142Y-33212438D01*
X106347142Y-33212438D02*
X106251904Y-33307676D01*
X106251904Y-33307676D02*
X106204285Y-33402914D01*
X106204285Y-33402914D02*
X106156666Y-33593390D01*
X106156666Y-33593390D02*
X106156666Y-33736247D01*
X106156666Y-33736247D02*
X106204285Y-33926723D01*
X106204285Y-33926723D02*
X106251904Y-34021961D01*
X106251904Y-34021961D02*
X106347142Y-34117200D01*
X106347142Y-34117200D02*
X106489999Y-34164819D01*
X106489999Y-34164819D02*
X106728094Y-34164819D01*
X105299523Y-33164819D02*
X105489999Y-33164819D01*
X105489999Y-33164819D02*
X105585237Y-33212438D01*
X105585237Y-33212438D02*
X105632856Y-33260057D01*
X105632856Y-33260057D02*
X105728094Y-33402914D01*
X105728094Y-33402914D02*
X105775713Y-33593390D01*
X105775713Y-33593390D02*
X105775713Y-33974342D01*
X105775713Y-33974342D02*
X105728094Y-34069580D01*
X105728094Y-34069580D02*
X105680475Y-34117200D01*
X105680475Y-34117200D02*
X105585237Y-34164819D01*
X105585237Y-34164819D02*
X105394761Y-34164819D01*
X105394761Y-34164819D02*
X105299523Y-34117200D01*
X105299523Y-34117200D02*
X105251904Y-34069580D01*
X105251904Y-34069580D02*
X105204285Y-33974342D01*
X105204285Y-33974342D02*
X105204285Y-33736247D01*
X105204285Y-33736247D02*
X105251904Y-33641009D01*
X105251904Y-33641009D02*
X105299523Y-33593390D01*
X105299523Y-33593390D02*
X105394761Y-33545771D01*
X105394761Y-33545771D02*
X105585237Y-33545771D01*
X105585237Y-33545771D02*
X105680475Y-33593390D01*
X105680475Y-33593390D02*
X105728094Y-33641009D01*
X105728094Y-33641009D02*
X105775713Y-33736247D01*
X102441904Y-33844819D02*
X102441904Y-32844819D01*
X101870476Y-33844819D02*
X102299047Y-33273390D01*
X101870476Y-32844819D02*
X102441904Y-33416247D01*
X92248094Y-70454819D02*
X92248094Y-69454819D01*
X92248094Y-69454819D02*
X92009999Y-69454819D01*
X92009999Y-69454819D02*
X91867142Y-69502438D01*
X91867142Y-69502438D02*
X91771904Y-69597676D01*
X91771904Y-69597676D02*
X91724285Y-69692914D01*
X91724285Y-69692914D02*
X91676666Y-69883390D01*
X91676666Y-69883390D02*
X91676666Y-70026247D01*
X91676666Y-70026247D02*
X91724285Y-70216723D01*
X91724285Y-70216723D02*
X91771904Y-70311961D01*
X91771904Y-70311961D02*
X91867142Y-70407200D01*
X91867142Y-70407200D02*
X92009999Y-70454819D01*
X92009999Y-70454819D02*
X92248094Y-70454819D01*
X90771904Y-69454819D02*
X91248094Y-69454819D01*
X91248094Y-69454819D02*
X91295713Y-69931009D01*
X91295713Y-69931009D02*
X91248094Y-69883390D01*
X91248094Y-69883390D02*
X91152856Y-69835771D01*
X91152856Y-69835771D02*
X90914761Y-69835771D01*
X90914761Y-69835771D02*
X90819523Y-69883390D01*
X90819523Y-69883390D02*
X90771904Y-69931009D01*
X90771904Y-69931009D02*
X90724285Y-70026247D01*
X90724285Y-70026247D02*
X90724285Y-70264342D01*
X90724285Y-70264342D02*
X90771904Y-70359580D01*
X90771904Y-70359580D02*
X90819523Y-70407200D01*
X90819523Y-70407200D02*
X90914761Y-70454819D01*
X90914761Y-70454819D02*
X91152856Y-70454819D01*
X91152856Y-70454819D02*
X91248094Y-70407200D01*
X91248094Y-70407200D02*
X91295713Y-70359580D01*
X87961904Y-70134819D02*
X87961904Y-69134819D01*
X87390476Y-70134819D02*
X87819047Y-69563390D01*
X87390476Y-69134819D02*
X87961904Y-69706247D01*
X126954819Y-35221905D02*
X125954819Y-35221905D01*
X125954819Y-35221905D02*
X125954819Y-35460000D01*
X125954819Y-35460000D02*
X126002438Y-35602857D01*
X126002438Y-35602857D02*
X126097676Y-35698095D01*
X126097676Y-35698095D02*
X126192914Y-35745714D01*
X126192914Y-35745714D02*
X126383390Y-35793333D01*
X126383390Y-35793333D02*
X126526247Y-35793333D01*
X126526247Y-35793333D02*
X126716723Y-35745714D01*
X126716723Y-35745714D02*
X126811961Y-35698095D01*
X126811961Y-35698095D02*
X126907200Y-35602857D01*
X126907200Y-35602857D02*
X126954819Y-35460000D01*
X126954819Y-35460000D02*
X126954819Y-35221905D01*
X125954819Y-36126667D02*
X125954819Y-36793333D01*
X125954819Y-36793333D02*
X126954819Y-36364762D01*
X126634819Y-39508095D02*
X125634819Y-39508095D01*
X126634819Y-40079523D02*
X126063390Y-39650952D01*
X125634819Y-40079523D02*
X126206247Y-39508095D01*
X191814285Y-109394819D02*
X191814285Y-108394819D01*
X191814285Y-108394819D02*
X191576190Y-108394819D01*
X191576190Y-108394819D02*
X191433333Y-108442438D01*
X191433333Y-108442438D02*
X191338095Y-108537676D01*
X191338095Y-108537676D02*
X191290476Y-108632914D01*
X191290476Y-108632914D02*
X191242857Y-108823390D01*
X191242857Y-108823390D02*
X191242857Y-108966247D01*
X191242857Y-108966247D02*
X191290476Y-109156723D01*
X191290476Y-109156723D02*
X191338095Y-109251961D01*
X191338095Y-109251961D02*
X191433333Y-109347200D01*
X191433333Y-109347200D02*
X191576190Y-109394819D01*
X191576190Y-109394819D02*
X191814285Y-109394819D01*
X190290476Y-109394819D02*
X190861904Y-109394819D01*
X190576190Y-109394819D02*
X190576190Y-108394819D01*
X190576190Y-108394819D02*
X190671428Y-108537676D01*
X190671428Y-108537676D02*
X190766666Y-108632914D01*
X190766666Y-108632914D02*
X190861904Y-108680533D01*
X189957142Y-108394819D02*
X189338095Y-108394819D01*
X189338095Y-108394819D02*
X189671428Y-108775771D01*
X189671428Y-108775771D02*
X189528571Y-108775771D01*
X189528571Y-108775771D02*
X189433333Y-108823390D01*
X189433333Y-108823390D02*
X189385714Y-108871009D01*
X189385714Y-108871009D02*
X189338095Y-108966247D01*
X189338095Y-108966247D02*
X189338095Y-109204342D01*
X189338095Y-109204342D02*
X189385714Y-109299580D01*
X189385714Y-109299580D02*
X189433333Y-109347200D01*
X189433333Y-109347200D02*
X189528571Y-109394819D01*
X189528571Y-109394819D02*
X189814285Y-109394819D01*
X189814285Y-109394819D02*
X189909523Y-109347200D01*
X189909523Y-109347200D02*
X189957142Y-109299580D01*
X187051904Y-109074819D02*
X187051904Y-108074819D01*
X186480476Y-109074819D02*
X186909047Y-108503390D01*
X186480476Y-108074819D02*
X187051904Y-108646247D01*
X206294285Y-70594819D02*
X206294285Y-69594819D01*
X206294285Y-69594819D02*
X206056190Y-69594819D01*
X206056190Y-69594819D02*
X205913333Y-69642438D01*
X205913333Y-69642438D02*
X205818095Y-69737676D01*
X205818095Y-69737676D02*
X205770476Y-69832914D01*
X205770476Y-69832914D02*
X205722857Y-70023390D01*
X205722857Y-70023390D02*
X205722857Y-70166247D01*
X205722857Y-70166247D02*
X205770476Y-70356723D01*
X205770476Y-70356723D02*
X205818095Y-70451961D01*
X205818095Y-70451961D02*
X205913333Y-70547200D01*
X205913333Y-70547200D02*
X206056190Y-70594819D01*
X206056190Y-70594819D02*
X206294285Y-70594819D01*
X204770476Y-70594819D02*
X205341904Y-70594819D01*
X205056190Y-70594819D02*
X205056190Y-69594819D01*
X205056190Y-69594819D02*
X205151428Y-69737676D01*
X205151428Y-69737676D02*
X205246666Y-69832914D01*
X205246666Y-69832914D02*
X205341904Y-69880533D01*
X204389523Y-69690057D02*
X204341904Y-69642438D01*
X204341904Y-69642438D02*
X204246666Y-69594819D01*
X204246666Y-69594819D02*
X204008571Y-69594819D01*
X204008571Y-69594819D02*
X203913333Y-69642438D01*
X203913333Y-69642438D02*
X203865714Y-69690057D01*
X203865714Y-69690057D02*
X203818095Y-69785295D01*
X203818095Y-69785295D02*
X203818095Y-69880533D01*
X203818095Y-69880533D02*
X203865714Y-70023390D01*
X203865714Y-70023390D02*
X204437142Y-70594819D01*
X204437142Y-70594819D02*
X203818095Y-70594819D01*
X209151904Y-70914819D02*
X209151904Y-69914819D01*
X208580476Y-70914819D02*
X209009047Y-70343390D01*
X208580476Y-69914819D02*
X209151904Y-70486247D01*
X85048094Y-119674819D02*
X85048094Y-118674819D01*
X85048094Y-118674819D02*
X84809999Y-118674819D01*
X84809999Y-118674819D02*
X84667142Y-118722438D01*
X84667142Y-118722438D02*
X84571904Y-118817676D01*
X84571904Y-118817676D02*
X84524285Y-118912914D01*
X84524285Y-118912914D02*
X84476666Y-119103390D01*
X84476666Y-119103390D02*
X84476666Y-119246247D01*
X84476666Y-119246247D02*
X84524285Y-119436723D01*
X84524285Y-119436723D02*
X84571904Y-119531961D01*
X84571904Y-119531961D02*
X84667142Y-119627200D01*
X84667142Y-119627200D02*
X84809999Y-119674819D01*
X84809999Y-119674819D02*
X85048094Y-119674819D01*
X84095713Y-118770057D02*
X84048094Y-118722438D01*
X84048094Y-118722438D02*
X83952856Y-118674819D01*
X83952856Y-118674819D02*
X83714761Y-118674819D01*
X83714761Y-118674819D02*
X83619523Y-118722438D01*
X83619523Y-118722438D02*
X83571904Y-118770057D01*
X83571904Y-118770057D02*
X83524285Y-118865295D01*
X83524285Y-118865295D02*
X83524285Y-118960533D01*
X83524285Y-118960533D02*
X83571904Y-119103390D01*
X83571904Y-119103390D02*
X84143332Y-119674819D01*
X84143332Y-119674819D02*
X83524285Y-119674819D01*
X88381904Y-119994819D02*
X88381904Y-118994819D01*
X87810476Y-119994819D02*
X88239047Y-119423390D01*
X87810476Y-118994819D02*
X88381904Y-119566247D01*
X207324285Y-94724819D02*
X207324285Y-93724819D01*
X207324285Y-93724819D02*
X207086190Y-93724819D01*
X207086190Y-93724819D02*
X206943333Y-93772438D01*
X206943333Y-93772438D02*
X206848095Y-93867676D01*
X206848095Y-93867676D02*
X206800476Y-93962914D01*
X206800476Y-93962914D02*
X206752857Y-94153390D01*
X206752857Y-94153390D02*
X206752857Y-94296247D01*
X206752857Y-94296247D02*
X206800476Y-94486723D01*
X206800476Y-94486723D02*
X206848095Y-94581961D01*
X206848095Y-94581961D02*
X206943333Y-94677200D01*
X206943333Y-94677200D02*
X207086190Y-94724819D01*
X207086190Y-94724819D02*
X207324285Y-94724819D01*
X205800476Y-94724819D02*
X206371904Y-94724819D01*
X206086190Y-94724819D02*
X206086190Y-93724819D01*
X206086190Y-93724819D02*
X206181428Y-93867676D01*
X206181428Y-93867676D02*
X206276666Y-93962914D01*
X206276666Y-93962914D02*
X206371904Y-94010533D01*
X204943333Y-94058152D02*
X204943333Y-94724819D01*
X205181428Y-93677200D02*
X205419523Y-94391485D01*
X205419523Y-94391485D02*
X204800476Y-94391485D01*
X202561904Y-94404819D02*
X202561904Y-93404819D01*
X201990476Y-94404819D02*
X202419047Y-93833390D01*
X201990476Y-93404819D02*
X202561904Y-93976247D01*
X151088094Y-29894819D02*
X151088094Y-28894819D01*
X151088094Y-28894819D02*
X150849999Y-28894819D01*
X150849999Y-28894819D02*
X150707142Y-28942438D01*
X150707142Y-28942438D02*
X150611904Y-29037676D01*
X150611904Y-29037676D02*
X150564285Y-29132914D01*
X150564285Y-29132914D02*
X150516666Y-29323390D01*
X150516666Y-29323390D02*
X150516666Y-29466247D01*
X150516666Y-29466247D02*
X150564285Y-29656723D01*
X150564285Y-29656723D02*
X150611904Y-29751961D01*
X150611904Y-29751961D02*
X150707142Y-29847200D01*
X150707142Y-29847200D02*
X150849999Y-29894819D01*
X150849999Y-29894819D02*
X151088094Y-29894819D01*
X149945237Y-29323390D02*
X150040475Y-29275771D01*
X150040475Y-29275771D02*
X150088094Y-29228152D01*
X150088094Y-29228152D02*
X150135713Y-29132914D01*
X150135713Y-29132914D02*
X150135713Y-29085295D01*
X150135713Y-29085295D02*
X150088094Y-28990057D01*
X150088094Y-28990057D02*
X150040475Y-28942438D01*
X150040475Y-28942438D02*
X149945237Y-28894819D01*
X149945237Y-28894819D02*
X149754761Y-28894819D01*
X149754761Y-28894819D02*
X149659523Y-28942438D01*
X149659523Y-28942438D02*
X149611904Y-28990057D01*
X149611904Y-28990057D02*
X149564285Y-29085295D01*
X149564285Y-29085295D02*
X149564285Y-29132914D01*
X149564285Y-29132914D02*
X149611904Y-29228152D01*
X149611904Y-29228152D02*
X149659523Y-29275771D01*
X149659523Y-29275771D02*
X149754761Y-29323390D01*
X149754761Y-29323390D02*
X149945237Y-29323390D01*
X149945237Y-29323390D02*
X150040475Y-29371009D01*
X150040475Y-29371009D02*
X150088094Y-29418628D01*
X150088094Y-29418628D02*
X150135713Y-29513866D01*
X150135713Y-29513866D02*
X150135713Y-29704342D01*
X150135713Y-29704342D02*
X150088094Y-29799580D01*
X150088094Y-29799580D02*
X150040475Y-29847200D01*
X150040475Y-29847200D02*
X149945237Y-29894819D01*
X149945237Y-29894819D02*
X149754761Y-29894819D01*
X149754761Y-29894819D02*
X149659523Y-29847200D01*
X149659523Y-29847200D02*
X149611904Y-29799580D01*
X149611904Y-29799580D02*
X149564285Y-29704342D01*
X149564285Y-29704342D02*
X149564285Y-29513866D01*
X149564285Y-29513866D02*
X149611904Y-29418628D01*
X149611904Y-29418628D02*
X149659523Y-29371009D01*
X149659523Y-29371009D02*
X149754761Y-29323390D01*
X154421904Y-30214819D02*
X154421904Y-29214819D01*
X153850476Y-30214819D02*
X154279047Y-29643390D01*
X153850476Y-29214819D02*
X154421904Y-29786247D01*
D11*
%TO.C,D11*%
X187830000Y-72240000D02*
X188480000Y-72240000D01*
X189080000Y-73360000D02*
X189080000Y-71120000D01*
X189200000Y-73360000D02*
X189200000Y-71120000D01*
X189320000Y-73360000D02*
X189320000Y-71120000D01*
X193370000Y-72240000D02*
X192720000Y-72240000D01*
X188480000Y-73360000D02*
X192720000Y-73360000D01*
X192720000Y-71120000D01*
X188480000Y-71120000D01*
X188480000Y-73360000D01*
%TO.C,D16*%
X203390000Y-138850000D02*
X204040000Y-138850000D01*
X204640000Y-139970000D02*
X204640000Y-137730000D01*
X204760000Y-139970000D02*
X204760000Y-137730000D01*
X204880000Y-139970000D02*
X204880000Y-137730000D01*
X208930000Y-138850000D02*
X208280000Y-138850000D01*
X204040000Y-139970000D02*
X208280000Y-139970000D01*
X208280000Y-137730000D01*
X204040000Y-137730000D01*
X204040000Y-139970000D01*
%TO.C,D9*%
X169180000Y-31570000D02*
X169830000Y-31570000D01*
X170430000Y-32690000D02*
X170430000Y-30450000D01*
X170550000Y-32690000D02*
X170550000Y-30450000D01*
X170670000Y-32690000D02*
X170670000Y-30450000D01*
X174720000Y-31570000D02*
X174070000Y-31570000D01*
X169830000Y-32690000D02*
X174070000Y-32690000D01*
X174070000Y-30450000D01*
X169830000Y-30450000D01*
X169830000Y-32690000D01*
%TO.C,J2*%
X85610000Y-44960000D02*
X85610000Y-46340000D01*
X86990000Y-44960000D02*
X85610000Y-44960000D01*
X88260000Y-44960000D02*
X88260000Y-47720000D01*
X88260000Y-44960000D02*
X95990000Y-44960000D01*
X88260000Y-47720000D02*
X95990000Y-47720000D01*
X95990000Y-44960000D02*
X95990000Y-47720000D01*
%TO.C,D15*%
X203340000Y-113160000D02*
X203990000Y-113160000D01*
X204590000Y-114280000D02*
X204590000Y-112040000D01*
X204710000Y-114280000D02*
X204710000Y-112040000D01*
X204830000Y-114280000D02*
X204830000Y-112040000D01*
X208880000Y-113160000D02*
X208230000Y-113160000D01*
X203990000Y-114280000D02*
X208230000Y-114280000D01*
X208230000Y-112040000D01*
X203990000Y-112040000D01*
X203990000Y-114280000D01*
%TO.C,D3*%
X87600000Y-103420000D02*
X88250000Y-103420000D01*
X91650000Y-102300000D02*
X91650000Y-104540000D01*
X91770000Y-102300000D02*
X91770000Y-104540000D01*
X91890000Y-102300000D02*
X91890000Y-104540000D01*
X93140000Y-103420000D02*
X92490000Y-103420000D01*
X92490000Y-102300000D02*
X88250000Y-102300000D01*
X88250000Y-104540000D01*
X92490000Y-104540000D01*
X92490000Y-102300000D01*
%TO.C,J1*%
X212770000Y-55840000D02*
X212770000Y-63570000D01*
X215530000Y-53190000D02*
X214150000Y-53190000D01*
X215530000Y-54570000D02*
X215530000Y-53190000D01*
X215530000Y-55840000D02*
X212770000Y-55840000D01*
X215530000Y-55840000D02*
X215530000Y-63570000D01*
X215530000Y-63570000D02*
X212770000Y-63570000D01*
%TO.C,D10*%
X180170000Y-31560000D02*
X180820000Y-31560000D01*
X184220000Y-30440000D02*
X184220000Y-32680000D01*
X184340000Y-30440000D02*
X184340000Y-32680000D01*
X184460000Y-30440000D02*
X184460000Y-32680000D01*
X185710000Y-31560000D02*
X185060000Y-31560000D01*
X185060000Y-30440000D02*
X180820000Y-30440000D01*
X180820000Y-32680000D01*
X185060000Y-32680000D01*
X185060000Y-30440000D01*
%TO.C,D4*%
X88770000Y-84470000D02*
X89420000Y-84470000D01*
X90020000Y-85590000D02*
X90020000Y-83350000D01*
X90140000Y-85590000D02*
X90140000Y-83350000D01*
X90260000Y-85590000D02*
X90260000Y-83350000D01*
X94310000Y-84470000D02*
X93660000Y-84470000D01*
X89420000Y-85590000D02*
X93660000Y-85590000D01*
X93660000Y-83350000D01*
X89420000Y-83350000D01*
X89420000Y-85590000D01*
%TO.C,D1*%
X81540000Y-138170000D02*
X82190000Y-138170000D01*
X85590000Y-137050000D02*
X85590000Y-139290000D01*
X85710000Y-137050000D02*
X85710000Y-139290000D01*
X85830000Y-137050000D02*
X85830000Y-139290000D01*
X87080000Y-138170000D02*
X86430000Y-138170000D01*
X86430000Y-137050000D02*
X82190000Y-137050000D01*
X82190000Y-139290000D01*
X86430000Y-139290000D01*
X86430000Y-137050000D01*
%TO.C,D6*%
X103220000Y-31590000D02*
X103870000Y-31590000D01*
X104470000Y-32710000D02*
X104470000Y-30470000D01*
X104590000Y-32710000D02*
X104590000Y-30470000D01*
X104710000Y-32710000D02*
X104710000Y-30470000D01*
X108760000Y-31590000D02*
X108110000Y-31590000D01*
X103870000Y-32710000D02*
X108110000Y-32710000D01*
X108110000Y-30470000D01*
X103870000Y-30470000D01*
X103870000Y-32710000D01*
%TO.C,D5*%
X88740000Y-67880000D02*
X89390000Y-67880000D01*
X89990000Y-69000000D02*
X89990000Y-66760000D01*
X90110000Y-69000000D02*
X90110000Y-66760000D01*
X90230000Y-69000000D02*
X90230000Y-66760000D01*
X94280000Y-67880000D02*
X93630000Y-67880000D01*
X89390000Y-69000000D02*
X93630000Y-69000000D01*
X93630000Y-66760000D01*
X89390000Y-66760000D01*
X89390000Y-69000000D01*
%TO.C,D7*%
X124380000Y-33190000D02*
X124380000Y-33840000D01*
X124380000Y-38730000D02*
X124380000Y-38080000D01*
X125500000Y-37240000D02*
X123260000Y-37240000D01*
X125500000Y-37360000D02*
X123260000Y-37360000D01*
X125500000Y-37480000D02*
X123260000Y-37480000D01*
X125500000Y-38080000D02*
X123260000Y-38080000D01*
X123260000Y-33840000D01*
X125500000Y-33840000D01*
X125500000Y-38080000D01*
%TO.C,D13*%
X187830000Y-106820000D02*
X188480000Y-106820000D01*
X189080000Y-107940000D02*
X189080000Y-105700000D01*
X189200000Y-107940000D02*
X189200000Y-105700000D01*
X189320000Y-107940000D02*
X189320000Y-105700000D01*
X193370000Y-106820000D02*
X192720000Y-106820000D01*
X188480000Y-107940000D02*
X192720000Y-107940000D01*
X192720000Y-105700000D01*
X188480000Y-105700000D01*
X188480000Y-107940000D01*
%TO.C,D12*%
X202310000Y-72260000D02*
X202960000Y-72260000D01*
X206360000Y-71140000D02*
X206360000Y-73380000D01*
X206480000Y-71140000D02*
X206480000Y-73380000D01*
X206600000Y-71140000D02*
X206600000Y-73380000D01*
X207850000Y-72260000D02*
X207200000Y-72260000D01*
X207200000Y-71140000D02*
X202960000Y-71140000D01*
X202960000Y-73380000D01*
X207200000Y-73380000D01*
X207200000Y-71140000D01*
%TO.C,D2*%
X81540000Y-121340000D02*
X82190000Y-121340000D01*
X85590000Y-120220000D02*
X85590000Y-122460000D01*
X85710000Y-120220000D02*
X85710000Y-122460000D01*
X85830000Y-120220000D02*
X85830000Y-122460000D01*
X87080000Y-121340000D02*
X86430000Y-121340000D01*
X86430000Y-120220000D02*
X82190000Y-120220000D01*
X82190000Y-122460000D01*
X86430000Y-122460000D01*
X86430000Y-120220000D01*
%TO.C,D14*%
X203340000Y-92150000D02*
X203990000Y-92150000D01*
X204590000Y-93270000D02*
X204590000Y-91030000D01*
X204710000Y-93270000D02*
X204710000Y-91030000D01*
X204830000Y-93270000D02*
X204830000Y-91030000D01*
X208880000Y-92150000D02*
X208230000Y-92150000D01*
X203990000Y-93270000D02*
X208230000Y-93270000D01*
X208230000Y-91030000D01*
X203990000Y-91030000D01*
X203990000Y-93270000D01*
%TO.C,D8*%
X147580000Y-31560000D02*
X148230000Y-31560000D01*
X151630000Y-30440000D02*
X151630000Y-32680000D01*
X151750000Y-30440000D02*
X151750000Y-32680000D01*
X151870000Y-30440000D02*
X151870000Y-32680000D01*
X153120000Y-31560000D02*
X152470000Y-31560000D01*
X152470000Y-30440000D02*
X148230000Y-30440000D01*
X148230000Y-32680000D01*
X152470000Y-32680000D01*
X152470000Y-30440000D01*
%TD*%
M02*
