%TF.GenerationSoftware,KiCad,Pcbnew,9.0.3*%
%TF.CreationDate,2025-08-14T19:40:41-06:00*%
%TF.ProjectId,ARC-210-Master-Board,4152432d-3231-4302-9d4d-61737465722d,rev?*%
%TF.SameCoordinates,Original*%
%TF.FileFunction,Legend,Top*%
%TF.FilePolarity,Positive*%
%FSLAX46Y46*%
G04 Gerber Fmt 4.6, Leading zero omitted, Abs format (unit mm)*
G04 Created by KiCad (PCBNEW 9.0.3) date 2025-08-14 19:40:41*
%MOMM*%
%LPD*%
G01*
G04 APERTURE LIST*
%ADD10C,0.150000*%
%ADD11C,0.120000*%
G04 APERTURE END LIST*
D10*
X181330476Y-42307200D02*
X181473333Y-42354819D01*
X181473333Y-42354819D02*
X181711428Y-42354819D01*
X181711428Y-42354819D02*
X181806666Y-42307200D01*
X181806666Y-42307200D02*
X181854285Y-42259580D01*
X181854285Y-42259580D02*
X181901904Y-42164342D01*
X181901904Y-42164342D02*
X181901904Y-42069104D01*
X181901904Y-42069104D02*
X181854285Y-41973866D01*
X181854285Y-41973866D02*
X181806666Y-41926247D01*
X181806666Y-41926247D02*
X181711428Y-41878628D01*
X181711428Y-41878628D02*
X181520952Y-41831009D01*
X181520952Y-41831009D02*
X181425714Y-41783390D01*
X181425714Y-41783390D02*
X181378095Y-41735771D01*
X181378095Y-41735771D02*
X181330476Y-41640533D01*
X181330476Y-41640533D02*
X181330476Y-41545295D01*
X181330476Y-41545295D02*
X181378095Y-41450057D01*
X181378095Y-41450057D02*
X181425714Y-41402438D01*
X181425714Y-41402438D02*
X181520952Y-41354819D01*
X181520952Y-41354819D02*
X181759047Y-41354819D01*
X181759047Y-41354819D02*
X181901904Y-41402438D01*
X182235238Y-41354819D02*
X182473333Y-42354819D01*
X182473333Y-42354819D02*
X182663809Y-41640533D01*
X182663809Y-41640533D02*
X182854285Y-42354819D01*
X182854285Y-42354819D02*
X183092381Y-41354819D01*
X183997142Y-42354819D02*
X183425714Y-42354819D01*
X183711428Y-42354819D02*
X183711428Y-41354819D01*
X183711428Y-41354819D02*
X183616190Y-41497676D01*
X183616190Y-41497676D02*
X183520952Y-41592914D01*
X183520952Y-41592914D02*
X183425714Y-41640533D01*
X184616190Y-41354819D02*
X184711428Y-41354819D01*
X184711428Y-41354819D02*
X184806666Y-41402438D01*
X184806666Y-41402438D02*
X184854285Y-41450057D01*
X184854285Y-41450057D02*
X184901904Y-41545295D01*
X184901904Y-41545295D02*
X184949523Y-41735771D01*
X184949523Y-41735771D02*
X184949523Y-41973866D01*
X184949523Y-41973866D02*
X184901904Y-42164342D01*
X184901904Y-42164342D02*
X184854285Y-42259580D01*
X184854285Y-42259580D02*
X184806666Y-42307200D01*
X184806666Y-42307200D02*
X184711428Y-42354819D01*
X184711428Y-42354819D02*
X184616190Y-42354819D01*
X184616190Y-42354819D02*
X184520952Y-42307200D01*
X184520952Y-42307200D02*
X184473333Y-42259580D01*
X184473333Y-42259580D02*
X184425714Y-42164342D01*
X184425714Y-42164342D02*
X184378095Y-41973866D01*
X184378095Y-41973866D02*
X184378095Y-41735771D01*
X184378095Y-41735771D02*
X184425714Y-41545295D01*
X184425714Y-41545295D02*
X184473333Y-41450057D01*
X184473333Y-41450057D02*
X184520952Y-41402438D01*
X184520952Y-41402438D02*
X184616190Y-41354819D01*
X203920476Y-105197200D02*
X204063333Y-105244819D01*
X204063333Y-105244819D02*
X204301428Y-105244819D01*
X204301428Y-105244819D02*
X204396666Y-105197200D01*
X204396666Y-105197200D02*
X204444285Y-105149580D01*
X204444285Y-105149580D02*
X204491904Y-105054342D01*
X204491904Y-105054342D02*
X204491904Y-104959104D01*
X204491904Y-104959104D02*
X204444285Y-104863866D01*
X204444285Y-104863866D02*
X204396666Y-104816247D01*
X204396666Y-104816247D02*
X204301428Y-104768628D01*
X204301428Y-104768628D02*
X204110952Y-104721009D01*
X204110952Y-104721009D02*
X204015714Y-104673390D01*
X204015714Y-104673390D02*
X203968095Y-104625771D01*
X203968095Y-104625771D02*
X203920476Y-104530533D01*
X203920476Y-104530533D02*
X203920476Y-104435295D01*
X203920476Y-104435295D02*
X203968095Y-104340057D01*
X203968095Y-104340057D02*
X204015714Y-104292438D01*
X204015714Y-104292438D02*
X204110952Y-104244819D01*
X204110952Y-104244819D02*
X204349047Y-104244819D01*
X204349047Y-104244819D02*
X204491904Y-104292438D01*
X204825238Y-104244819D02*
X205063333Y-105244819D01*
X205063333Y-105244819D02*
X205253809Y-104530533D01*
X205253809Y-104530533D02*
X205444285Y-105244819D01*
X205444285Y-105244819D02*
X205682381Y-104244819D01*
X206587142Y-105244819D02*
X206015714Y-105244819D01*
X206301428Y-105244819D02*
X206301428Y-104244819D01*
X206301428Y-104244819D02*
X206206190Y-104387676D01*
X206206190Y-104387676D02*
X206110952Y-104482914D01*
X206110952Y-104482914D02*
X206015714Y-104530533D01*
X207444285Y-104578152D02*
X207444285Y-105244819D01*
X207206190Y-104197200D02*
X206968095Y-104911485D01*
X206968095Y-104911485D02*
X207587142Y-104911485D01*
X81956667Y-135547200D02*
X82099524Y-135594819D01*
X82099524Y-135594819D02*
X82337619Y-135594819D01*
X82337619Y-135594819D02*
X82432857Y-135547200D01*
X82432857Y-135547200D02*
X82480476Y-135499580D01*
X82480476Y-135499580D02*
X82528095Y-135404342D01*
X82528095Y-135404342D02*
X82528095Y-135309104D01*
X82528095Y-135309104D02*
X82480476Y-135213866D01*
X82480476Y-135213866D02*
X82432857Y-135166247D01*
X82432857Y-135166247D02*
X82337619Y-135118628D01*
X82337619Y-135118628D02*
X82147143Y-135071009D01*
X82147143Y-135071009D02*
X82051905Y-135023390D01*
X82051905Y-135023390D02*
X82004286Y-134975771D01*
X82004286Y-134975771D02*
X81956667Y-134880533D01*
X81956667Y-134880533D02*
X81956667Y-134785295D01*
X81956667Y-134785295D02*
X82004286Y-134690057D01*
X82004286Y-134690057D02*
X82051905Y-134642438D01*
X82051905Y-134642438D02*
X82147143Y-134594819D01*
X82147143Y-134594819D02*
X82385238Y-134594819D01*
X82385238Y-134594819D02*
X82528095Y-134642438D01*
X82861429Y-134594819D02*
X83099524Y-135594819D01*
X83099524Y-135594819D02*
X83290000Y-134880533D01*
X83290000Y-134880533D02*
X83480476Y-135594819D01*
X83480476Y-135594819D02*
X83718572Y-134594819D01*
X84623333Y-135594819D02*
X84051905Y-135594819D01*
X84337619Y-135594819D02*
X84337619Y-134594819D01*
X84337619Y-134594819D02*
X84242381Y-134737676D01*
X84242381Y-134737676D02*
X84147143Y-134832914D01*
X84147143Y-134832914D02*
X84051905Y-134880533D01*
X81956667Y-117067200D02*
X82099524Y-117114819D01*
X82099524Y-117114819D02*
X82337619Y-117114819D01*
X82337619Y-117114819D02*
X82432857Y-117067200D01*
X82432857Y-117067200D02*
X82480476Y-117019580D01*
X82480476Y-117019580D02*
X82528095Y-116924342D01*
X82528095Y-116924342D02*
X82528095Y-116829104D01*
X82528095Y-116829104D02*
X82480476Y-116733866D01*
X82480476Y-116733866D02*
X82432857Y-116686247D01*
X82432857Y-116686247D02*
X82337619Y-116638628D01*
X82337619Y-116638628D02*
X82147143Y-116591009D01*
X82147143Y-116591009D02*
X82051905Y-116543390D01*
X82051905Y-116543390D02*
X82004286Y-116495771D01*
X82004286Y-116495771D02*
X81956667Y-116400533D01*
X81956667Y-116400533D02*
X81956667Y-116305295D01*
X81956667Y-116305295D02*
X82004286Y-116210057D01*
X82004286Y-116210057D02*
X82051905Y-116162438D01*
X82051905Y-116162438D02*
X82147143Y-116114819D01*
X82147143Y-116114819D02*
X82385238Y-116114819D01*
X82385238Y-116114819D02*
X82528095Y-116162438D01*
X82861429Y-116114819D02*
X83099524Y-117114819D01*
X83099524Y-117114819D02*
X83290000Y-116400533D01*
X83290000Y-116400533D02*
X83480476Y-117114819D01*
X83480476Y-117114819D02*
X83718572Y-116114819D01*
X84051905Y-116210057D02*
X84099524Y-116162438D01*
X84099524Y-116162438D02*
X84194762Y-116114819D01*
X84194762Y-116114819D02*
X84432857Y-116114819D01*
X84432857Y-116114819D02*
X84528095Y-116162438D01*
X84528095Y-116162438D02*
X84575714Y-116210057D01*
X84575714Y-116210057D02*
X84623333Y-116305295D01*
X84623333Y-116305295D02*
X84623333Y-116400533D01*
X84623333Y-116400533D02*
X84575714Y-116543390D01*
X84575714Y-116543390D02*
X84004286Y-117114819D01*
X84004286Y-117114819D02*
X84623333Y-117114819D01*
X130626667Y-42257200D02*
X130769524Y-42304819D01*
X130769524Y-42304819D02*
X131007619Y-42304819D01*
X131007619Y-42304819D02*
X131102857Y-42257200D01*
X131102857Y-42257200D02*
X131150476Y-42209580D01*
X131150476Y-42209580D02*
X131198095Y-42114342D01*
X131198095Y-42114342D02*
X131198095Y-42019104D01*
X131198095Y-42019104D02*
X131150476Y-41923866D01*
X131150476Y-41923866D02*
X131102857Y-41876247D01*
X131102857Y-41876247D02*
X131007619Y-41828628D01*
X131007619Y-41828628D02*
X130817143Y-41781009D01*
X130817143Y-41781009D02*
X130721905Y-41733390D01*
X130721905Y-41733390D02*
X130674286Y-41685771D01*
X130674286Y-41685771D02*
X130626667Y-41590533D01*
X130626667Y-41590533D02*
X130626667Y-41495295D01*
X130626667Y-41495295D02*
X130674286Y-41400057D01*
X130674286Y-41400057D02*
X130721905Y-41352438D01*
X130721905Y-41352438D02*
X130817143Y-41304819D01*
X130817143Y-41304819D02*
X131055238Y-41304819D01*
X131055238Y-41304819D02*
X131198095Y-41352438D01*
X131531429Y-41304819D02*
X131769524Y-42304819D01*
X131769524Y-42304819D02*
X131960000Y-41590533D01*
X131960000Y-41590533D02*
X132150476Y-42304819D01*
X132150476Y-42304819D02*
X132388572Y-41304819D01*
X132674286Y-41304819D02*
X133340952Y-41304819D01*
X133340952Y-41304819D02*
X132912381Y-42304819D01*
X88386667Y-100587200D02*
X88529524Y-100634819D01*
X88529524Y-100634819D02*
X88767619Y-100634819D01*
X88767619Y-100634819D02*
X88862857Y-100587200D01*
X88862857Y-100587200D02*
X88910476Y-100539580D01*
X88910476Y-100539580D02*
X88958095Y-100444342D01*
X88958095Y-100444342D02*
X88958095Y-100349104D01*
X88958095Y-100349104D02*
X88910476Y-100253866D01*
X88910476Y-100253866D02*
X88862857Y-100206247D01*
X88862857Y-100206247D02*
X88767619Y-100158628D01*
X88767619Y-100158628D02*
X88577143Y-100111009D01*
X88577143Y-100111009D02*
X88481905Y-100063390D01*
X88481905Y-100063390D02*
X88434286Y-100015771D01*
X88434286Y-100015771D02*
X88386667Y-99920533D01*
X88386667Y-99920533D02*
X88386667Y-99825295D01*
X88386667Y-99825295D02*
X88434286Y-99730057D01*
X88434286Y-99730057D02*
X88481905Y-99682438D01*
X88481905Y-99682438D02*
X88577143Y-99634819D01*
X88577143Y-99634819D02*
X88815238Y-99634819D01*
X88815238Y-99634819D02*
X88958095Y-99682438D01*
X89291429Y-99634819D02*
X89529524Y-100634819D01*
X89529524Y-100634819D02*
X89720000Y-99920533D01*
X89720000Y-99920533D02*
X89910476Y-100634819D01*
X89910476Y-100634819D02*
X90148572Y-99634819D01*
X90434286Y-99634819D02*
X91053333Y-99634819D01*
X91053333Y-99634819D02*
X90720000Y-100015771D01*
X90720000Y-100015771D02*
X90862857Y-100015771D01*
X90862857Y-100015771D02*
X90958095Y-100063390D01*
X90958095Y-100063390D02*
X91005714Y-100111009D01*
X91005714Y-100111009D02*
X91053333Y-100206247D01*
X91053333Y-100206247D02*
X91053333Y-100444342D01*
X91053333Y-100444342D02*
X91005714Y-100539580D01*
X91005714Y-100539580D02*
X90958095Y-100587200D01*
X90958095Y-100587200D02*
X90862857Y-100634819D01*
X90862857Y-100634819D02*
X90577143Y-100634819D01*
X90577143Y-100634819D02*
X90481905Y-100587200D01*
X90481905Y-100587200D02*
X90434286Y-100539580D01*
X187680476Y-76357200D02*
X187823333Y-76404819D01*
X187823333Y-76404819D02*
X188061428Y-76404819D01*
X188061428Y-76404819D02*
X188156666Y-76357200D01*
X188156666Y-76357200D02*
X188204285Y-76309580D01*
X188204285Y-76309580D02*
X188251904Y-76214342D01*
X188251904Y-76214342D02*
X188251904Y-76119104D01*
X188251904Y-76119104D02*
X188204285Y-76023866D01*
X188204285Y-76023866D02*
X188156666Y-75976247D01*
X188156666Y-75976247D02*
X188061428Y-75928628D01*
X188061428Y-75928628D02*
X187870952Y-75881009D01*
X187870952Y-75881009D02*
X187775714Y-75833390D01*
X187775714Y-75833390D02*
X187728095Y-75785771D01*
X187728095Y-75785771D02*
X187680476Y-75690533D01*
X187680476Y-75690533D02*
X187680476Y-75595295D01*
X187680476Y-75595295D02*
X187728095Y-75500057D01*
X187728095Y-75500057D02*
X187775714Y-75452438D01*
X187775714Y-75452438D02*
X187870952Y-75404819D01*
X187870952Y-75404819D02*
X188109047Y-75404819D01*
X188109047Y-75404819D02*
X188251904Y-75452438D01*
X188585238Y-75404819D02*
X188823333Y-76404819D01*
X188823333Y-76404819D02*
X189013809Y-75690533D01*
X189013809Y-75690533D02*
X189204285Y-76404819D01*
X189204285Y-76404819D02*
X189442381Y-75404819D01*
X190347142Y-76404819D02*
X189775714Y-76404819D01*
X190061428Y-76404819D02*
X190061428Y-75404819D01*
X190061428Y-75404819D02*
X189966190Y-75547676D01*
X189966190Y-75547676D02*
X189870952Y-75642914D01*
X189870952Y-75642914D02*
X189775714Y-75690533D01*
X191299523Y-76404819D02*
X190728095Y-76404819D01*
X191013809Y-76404819D02*
X191013809Y-75404819D01*
X191013809Y-75404819D02*
X190918571Y-75547676D01*
X190918571Y-75547676D02*
X190823333Y-75642914D01*
X190823333Y-75642914D02*
X190728095Y-75690533D01*
X149986667Y-42327200D02*
X150129524Y-42374819D01*
X150129524Y-42374819D02*
X150367619Y-42374819D01*
X150367619Y-42374819D02*
X150462857Y-42327200D01*
X150462857Y-42327200D02*
X150510476Y-42279580D01*
X150510476Y-42279580D02*
X150558095Y-42184342D01*
X150558095Y-42184342D02*
X150558095Y-42089104D01*
X150558095Y-42089104D02*
X150510476Y-41993866D01*
X150510476Y-41993866D02*
X150462857Y-41946247D01*
X150462857Y-41946247D02*
X150367619Y-41898628D01*
X150367619Y-41898628D02*
X150177143Y-41851009D01*
X150177143Y-41851009D02*
X150081905Y-41803390D01*
X150081905Y-41803390D02*
X150034286Y-41755771D01*
X150034286Y-41755771D02*
X149986667Y-41660533D01*
X149986667Y-41660533D02*
X149986667Y-41565295D01*
X149986667Y-41565295D02*
X150034286Y-41470057D01*
X150034286Y-41470057D02*
X150081905Y-41422438D01*
X150081905Y-41422438D02*
X150177143Y-41374819D01*
X150177143Y-41374819D02*
X150415238Y-41374819D01*
X150415238Y-41374819D02*
X150558095Y-41422438D01*
X150891429Y-41374819D02*
X151129524Y-42374819D01*
X151129524Y-42374819D02*
X151320000Y-41660533D01*
X151320000Y-41660533D02*
X151510476Y-42374819D01*
X151510476Y-42374819D02*
X151748572Y-41374819D01*
X152272381Y-41803390D02*
X152177143Y-41755771D01*
X152177143Y-41755771D02*
X152129524Y-41708152D01*
X152129524Y-41708152D02*
X152081905Y-41612914D01*
X152081905Y-41612914D02*
X152081905Y-41565295D01*
X152081905Y-41565295D02*
X152129524Y-41470057D01*
X152129524Y-41470057D02*
X152177143Y-41422438D01*
X152177143Y-41422438D02*
X152272381Y-41374819D01*
X152272381Y-41374819D02*
X152462857Y-41374819D01*
X152462857Y-41374819D02*
X152558095Y-41422438D01*
X152558095Y-41422438D02*
X152605714Y-41470057D01*
X152605714Y-41470057D02*
X152653333Y-41565295D01*
X152653333Y-41565295D02*
X152653333Y-41612914D01*
X152653333Y-41612914D02*
X152605714Y-41708152D01*
X152605714Y-41708152D02*
X152558095Y-41755771D01*
X152558095Y-41755771D02*
X152462857Y-41803390D01*
X152462857Y-41803390D02*
X152272381Y-41803390D01*
X152272381Y-41803390D02*
X152177143Y-41851009D01*
X152177143Y-41851009D02*
X152129524Y-41898628D01*
X152129524Y-41898628D02*
X152081905Y-41993866D01*
X152081905Y-41993866D02*
X152081905Y-42184342D01*
X152081905Y-42184342D02*
X152129524Y-42279580D01*
X152129524Y-42279580D02*
X152177143Y-42327200D01*
X152177143Y-42327200D02*
X152272381Y-42374819D01*
X152272381Y-42374819D02*
X152462857Y-42374819D01*
X152462857Y-42374819D02*
X152558095Y-42327200D01*
X152558095Y-42327200D02*
X152605714Y-42279580D01*
X152605714Y-42279580D02*
X152653333Y-42184342D01*
X152653333Y-42184342D02*
X152653333Y-41993866D01*
X152653333Y-41993866D02*
X152605714Y-41898628D01*
X152605714Y-41898628D02*
X152558095Y-41851009D01*
X152558095Y-41851009D02*
X152462857Y-41803390D01*
X203770476Y-135557200D02*
X203913333Y-135604819D01*
X203913333Y-135604819D02*
X204151428Y-135604819D01*
X204151428Y-135604819D02*
X204246666Y-135557200D01*
X204246666Y-135557200D02*
X204294285Y-135509580D01*
X204294285Y-135509580D02*
X204341904Y-135414342D01*
X204341904Y-135414342D02*
X204341904Y-135319104D01*
X204341904Y-135319104D02*
X204294285Y-135223866D01*
X204294285Y-135223866D02*
X204246666Y-135176247D01*
X204246666Y-135176247D02*
X204151428Y-135128628D01*
X204151428Y-135128628D02*
X203960952Y-135081009D01*
X203960952Y-135081009D02*
X203865714Y-135033390D01*
X203865714Y-135033390D02*
X203818095Y-134985771D01*
X203818095Y-134985771D02*
X203770476Y-134890533D01*
X203770476Y-134890533D02*
X203770476Y-134795295D01*
X203770476Y-134795295D02*
X203818095Y-134700057D01*
X203818095Y-134700057D02*
X203865714Y-134652438D01*
X203865714Y-134652438D02*
X203960952Y-134604819D01*
X203960952Y-134604819D02*
X204199047Y-134604819D01*
X204199047Y-134604819D02*
X204341904Y-134652438D01*
X204675238Y-134604819D02*
X204913333Y-135604819D01*
X204913333Y-135604819D02*
X205103809Y-134890533D01*
X205103809Y-134890533D02*
X205294285Y-135604819D01*
X205294285Y-135604819D02*
X205532381Y-134604819D01*
X206437142Y-135604819D02*
X205865714Y-135604819D01*
X206151428Y-135604819D02*
X206151428Y-134604819D01*
X206151428Y-134604819D02*
X206056190Y-134747676D01*
X206056190Y-134747676D02*
X205960952Y-134842914D01*
X205960952Y-134842914D02*
X205865714Y-134890533D01*
X207294285Y-134604819D02*
X207103809Y-134604819D01*
X207103809Y-134604819D02*
X207008571Y-134652438D01*
X207008571Y-134652438D02*
X206960952Y-134700057D01*
X206960952Y-134700057D02*
X206865714Y-134842914D01*
X206865714Y-134842914D02*
X206818095Y-135033390D01*
X206818095Y-135033390D02*
X206818095Y-135414342D01*
X206818095Y-135414342D02*
X206865714Y-135509580D01*
X206865714Y-135509580D02*
X206913333Y-135557200D01*
X206913333Y-135557200D02*
X207008571Y-135604819D01*
X207008571Y-135604819D02*
X207199047Y-135604819D01*
X207199047Y-135604819D02*
X207294285Y-135557200D01*
X207294285Y-135557200D02*
X207341904Y-135509580D01*
X207341904Y-135509580D02*
X207389523Y-135414342D01*
X207389523Y-135414342D02*
X207389523Y-135176247D01*
X207389523Y-135176247D02*
X207341904Y-135081009D01*
X207341904Y-135081009D02*
X207294285Y-135033390D01*
X207294285Y-135033390D02*
X207199047Y-134985771D01*
X207199047Y-134985771D02*
X207008571Y-134985771D01*
X207008571Y-134985771D02*
X206913333Y-135033390D01*
X206913333Y-135033390D02*
X206865714Y-135081009D01*
X206865714Y-135081009D02*
X206818095Y-135176247D01*
X88376667Y-62807200D02*
X88519524Y-62854819D01*
X88519524Y-62854819D02*
X88757619Y-62854819D01*
X88757619Y-62854819D02*
X88852857Y-62807200D01*
X88852857Y-62807200D02*
X88900476Y-62759580D01*
X88900476Y-62759580D02*
X88948095Y-62664342D01*
X88948095Y-62664342D02*
X88948095Y-62569104D01*
X88948095Y-62569104D02*
X88900476Y-62473866D01*
X88900476Y-62473866D02*
X88852857Y-62426247D01*
X88852857Y-62426247D02*
X88757619Y-62378628D01*
X88757619Y-62378628D02*
X88567143Y-62331009D01*
X88567143Y-62331009D02*
X88471905Y-62283390D01*
X88471905Y-62283390D02*
X88424286Y-62235771D01*
X88424286Y-62235771D02*
X88376667Y-62140533D01*
X88376667Y-62140533D02*
X88376667Y-62045295D01*
X88376667Y-62045295D02*
X88424286Y-61950057D01*
X88424286Y-61950057D02*
X88471905Y-61902438D01*
X88471905Y-61902438D02*
X88567143Y-61854819D01*
X88567143Y-61854819D02*
X88805238Y-61854819D01*
X88805238Y-61854819D02*
X88948095Y-61902438D01*
X89281429Y-61854819D02*
X89519524Y-62854819D01*
X89519524Y-62854819D02*
X89710000Y-62140533D01*
X89710000Y-62140533D02*
X89900476Y-62854819D01*
X89900476Y-62854819D02*
X90138572Y-61854819D01*
X90995714Y-61854819D02*
X90519524Y-61854819D01*
X90519524Y-61854819D02*
X90471905Y-62331009D01*
X90471905Y-62331009D02*
X90519524Y-62283390D01*
X90519524Y-62283390D02*
X90614762Y-62235771D01*
X90614762Y-62235771D02*
X90852857Y-62235771D01*
X90852857Y-62235771D02*
X90948095Y-62283390D01*
X90948095Y-62283390D02*
X90995714Y-62331009D01*
X90995714Y-62331009D02*
X91043333Y-62426247D01*
X91043333Y-62426247D02*
X91043333Y-62664342D01*
X91043333Y-62664342D02*
X90995714Y-62759580D01*
X90995714Y-62759580D02*
X90948095Y-62807200D01*
X90948095Y-62807200D02*
X90852857Y-62854819D01*
X90852857Y-62854819D02*
X90614762Y-62854819D01*
X90614762Y-62854819D02*
X90519524Y-62807200D01*
X90519524Y-62807200D02*
X90471905Y-62759580D01*
X170346667Y-42397200D02*
X170489524Y-42444819D01*
X170489524Y-42444819D02*
X170727619Y-42444819D01*
X170727619Y-42444819D02*
X170822857Y-42397200D01*
X170822857Y-42397200D02*
X170870476Y-42349580D01*
X170870476Y-42349580D02*
X170918095Y-42254342D01*
X170918095Y-42254342D02*
X170918095Y-42159104D01*
X170918095Y-42159104D02*
X170870476Y-42063866D01*
X170870476Y-42063866D02*
X170822857Y-42016247D01*
X170822857Y-42016247D02*
X170727619Y-41968628D01*
X170727619Y-41968628D02*
X170537143Y-41921009D01*
X170537143Y-41921009D02*
X170441905Y-41873390D01*
X170441905Y-41873390D02*
X170394286Y-41825771D01*
X170394286Y-41825771D02*
X170346667Y-41730533D01*
X170346667Y-41730533D02*
X170346667Y-41635295D01*
X170346667Y-41635295D02*
X170394286Y-41540057D01*
X170394286Y-41540057D02*
X170441905Y-41492438D01*
X170441905Y-41492438D02*
X170537143Y-41444819D01*
X170537143Y-41444819D02*
X170775238Y-41444819D01*
X170775238Y-41444819D02*
X170918095Y-41492438D01*
X171251429Y-41444819D02*
X171489524Y-42444819D01*
X171489524Y-42444819D02*
X171680000Y-41730533D01*
X171680000Y-41730533D02*
X171870476Y-42444819D01*
X171870476Y-42444819D02*
X172108572Y-41444819D01*
X172537143Y-42444819D02*
X172727619Y-42444819D01*
X172727619Y-42444819D02*
X172822857Y-42397200D01*
X172822857Y-42397200D02*
X172870476Y-42349580D01*
X172870476Y-42349580D02*
X172965714Y-42206723D01*
X172965714Y-42206723D02*
X173013333Y-42016247D01*
X173013333Y-42016247D02*
X173013333Y-41635295D01*
X173013333Y-41635295D02*
X172965714Y-41540057D01*
X172965714Y-41540057D02*
X172918095Y-41492438D01*
X172918095Y-41492438D02*
X172822857Y-41444819D01*
X172822857Y-41444819D02*
X172632381Y-41444819D01*
X172632381Y-41444819D02*
X172537143Y-41492438D01*
X172537143Y-41492438D02*
X172489524Y-41540057D01*
X172489524Y-41540057D02*
X172441905Y-41635295D01*
X172441905Y-41635295D02*
X172441905Y-41873390D01*
X172441905Y-41873390D02*
X172489524Y-41968628D01*
X172489524Y-41968628D02*
X172537143Y-42016247D01*
X172537143Y-42016247D02*
X172632381Y-42063866D01*
X172632381Y-42063866D02*
X172822857Y-42063866D01*
X172822857Y-42063866D02*
X172918095Y-42016247D01*
X172918095Y-42016247D02*
X172965714Y-41968628D01*
X172965714Y-41968628D02*
X173013333Y-41873390D01*
X203870476Y-76297200D02*
X204013333Y-76344819D01*
X204013333Y-76344819D02*
X204251428Y-76344819D01*
X204251428Y-76344819D02*
X204346666Y-76297200D01*
X204346666Y-76297200D02*
X204394285Y-76249580D01*
X204394285Y-76249580D02*
X204441904Y-76154342D01*
X204441904Y-76154342D02*
X204441904Y-76059104D01*
X204441904Y-76059104D02*
X204394285Y-75963866D01*
X204394285Y-75963866D02*
X204346666Y-75916247D01*
X204346666Y-75916247D02*
X204251428Y-75868628D01*
X204251428Y-75868628D02*
X204060952Y-75821009D01*
X204060952Y-75821009D02*
X203965714Y-75773390D01*
X203965714Y-75773390D02*
X203918095Y-75725771D01*
X203918095Y-75725771D02*
X203870476Y-75630533D01*
X203870476Y-75630533D02*
X203870476Y-75535295D01*
X203870476Y-75535295D02*
X203918095Y-75440057D01*
X203918095Y-75440057D02*
X203965714Y-75392438D01*
X203965714Y-75392438D02*
X204060952Y-75344819D01*
X204060952Y-75344819D02*
X204299047Y-75344819D01*
X204299047Y-75344819D02*
X204441904Y-75392438D01*
X204775238Y-75344819D02*
X205013333Y-76344819D01*
X205013333Y-76344819D02*
X205203809Y-75630533D01*
X205203809Y-75630533D02*
X205394285Y-76344819D01*
X205394285Y-76344819D02*
X205632381Y-75344819D01*
X206537142Y-76344819D02*
X205965714Y-76344819D01*
X206251428Y-76344819D02*
X206251428Y-75344819D01*
X206251428Y-75344819D02*
X206156190Y-75487676D01*
X206156190Y-75487676D02*
X206060952Y-75582914D01*
X206060952Y-75582914D02*
X205965714Y-75630533D01*
X206918095Y-75440057D02*
X206965714Y-75392438D01*
X206965714Y-75392438D02*
X207060952Y-75344819D01*
X207060952Y-75344819D02*
X207299047Y-75344819D01*
X207299047Y-75344819D02*
X207394285Y-75392438D01*
X207394285Y-75392438D02*
X207441904Y-75440057D01*
X207441904Y-75440057D02*
X207489523Y-75535295D01*
X207489523Y-75535295D02*
X207489523Y-75630533D01*
X207489523Y-75630533D02*
X207441904Y-75773390D01*
X207441904Y-75773390D02*
X206870476Y-76344819D01*
X206870476Y-76344819D02*
X207489523Y-76344819D01*
X103396667Y-38347200D02*
X103539524Y-38394819D01*
X103539524Y-38394819D02*
X103777619Y-38394819D01*
X103777619Y-38394819D02*
X103872857Y-38347200D01*
X103872857Y-38347200D02*
X103920476Y-38299580D01*
X103920476Y-38299580D02*
X103968095Y-38204342D01*
X103968095Y-38204342D02*
X103968095Y-38109104D01*
X103968095Y-38109104D02*
X103920476Y-38013866D01*
X103920476Y-38013866D02*
X103872857Y-37966247D01*
X103872857Y-37966247D02*
X103777619Y-37918628D01*
X103777619Y-37918628D02*
X103587143Y-37871009D01*
X103587143Y-37871009D02*
X103491905Y-37823390D01*
X103491905Y-37823390D02*
X103444286Y-37775771D01*
X103444286Y-37775771D02*
X103396667Y-37680533D01*
X103396667Y-37680533D02*
X103396667Y-37585295D01*
X103396667Y-37585295D02*
X103444286Y-37490057D01*
X103444286Y-37490057D02*
X103491905Y-37442438D01*
X103491905Y-37442438D02*
X103587143Y-37394819D01*
X103587143Y-37394819D02*
X103825238Y-37394819D01*
X103825238Y-37394819D02*
X103968095Y-37442438D01*
X104301429Y-37394819D02*
X104539524Y-38394819D01*
X104539524Y-38394819D02*
X104730000Y-37680533D01*
X104730000Y-37680533D02*
X104920476Y-38394819D01*
X104920476Y-38394819D02*
X105158572Y-37394819D01*
X105968095Y-37394819D02*
X105777619Y-37394819D01*
X105777619Y-37394819D02*
X105682381Y-37442438D01*
X105682381Y-37442438D02*
X105634762Y-37490057D01*
X105634762Y-37490057D02*
X105539524Y-37632914D01*
X105539524Y-37632914D02*
X105491905Y-37823390D01*
X105491905Y-37823390D02*
X105491905Y-38204342D01*
X105491905Y-38204342D02*
X105539524Y-38299580D01*
X105539524Y-38299580D02*
X105587143Y-38347200D01*
X105587143Y-38347200D02*
X105682381Y-38394819D01*
X105682381Y-38394819D02*
X105872857Y-38394819D01*
X105872857Y-38394819D02*
X105968095Y-38347200D01*
X105968095Y-38347200D02*
X106015714Y-38299580D01*
X106015714Y-38299580D02*
X106063333Y-38204342D01*
X106063333Y-38204342D02*
X106063333Y-37966247D01*
X106063333Y-37966247D02*
X106015714Y-37871009D01*
X106015714Y-37871009D02*
X105968095Y-37823390D01*
X105968095Y-37823390D02*
X105872857Y-37775771D01*
X105872857Y-37775771D02*
X105682381Y-37775771D01*
X105682381Y-37775771D02*
X105587143Y-37823390D01*
X105587143Y-37823390D02*
X105539524Y-37871009D01*
X105539524Y-37871009D02*
X105491905Y-37966247D01*
X203810476Y-116997200D02*
X203953333Y-117044819D01*
X203953333Y-117044819D02*
X204191428Y-117044819D01*
X204191428Y-117044819D02*
X204286666Y-116997200D01*
X204286666Y-116997200D02*
X204334285Y-116949580D01*
X204334285Y-116949580D02*
X204381904Y-116854342D01*
X204381904Y-116854342D02*
X204381904Y-116759104D01*
X204381904Y-116759104D02*
X204334285Y-116663866D01*
X204334285Y-116663866D02*
X204286666Y-116616247D01*
X204286666Y-116616247D02*
X204191428Y-116568628D01*
X204191428Y-116568628D02*
X204000952Y-116521009D01*
X204000952Y-116521009D02*
X203905714Y-116473390D01*
X203905714Y-116473390D02*
X203858095Y-116425771D01*
X203858095Y-116425771D02*
X203810476Y-116330533D01*
X203810476Y-116330533D02*
X203810476Y-116235295D01*
X203810476Y-116235295D02*
X203858095Y-116140057D01*
X203858095Y-116140057D02*
X203905714Y-116092438D01*
X203905714Y-116092438D02*
X204000952Y-116044819D01*
X204000952Y-116044819D02*
X204239047Y-116044819D01*
X204239047Y-116044819D02*
X204381904Y-116092438D01*
X204715238Y-116044819D02*
X204953333Y-117044819D01*
X204953333Y-117044819D02*
X205143809Y-116330533D01*
X205143809Y-116330533D02*
X205334285Y-117044819D01*
X205334285Y-117044819D02*
X205572381Y-116044819D01*
X206477142Y-117044819D02*
X205905714Y-117044819D01*
X206191428Y-117044819D02*
X206191428Y-116044819D01*
X206191428Y-116044819D02*
X206096190Y-116187676D01*
X206096190Y-116187676D02*
X206000952Y-116282914D01*
X206000952Y-116282914D02*
X205905714Y-116330533D01*
X207381904Y-116044819D02*
X206905714Y-116044819D01*
X206905714Y-116044819D02*
X206858095Y-116521009D01*
X206858095Y-116521009D02*
X206905714Y-116473390D01*
X206905714Y-116473390D02*
X207000952Y-116425771D01*
X207000952Y-116425771D02*
X207239047Y-116425771D01*
X207239047Y-116425771D02*
X207334285Y-116473390D01*
X207334285Y-116473390D02*
X207381904Y-116521009D01*
X207381904Y-116521009D02*
X207429523Y-116616247D01*
X207429523Y-116616247D02*
X207429523Y-116854342D01*
X207429523Y-116854342D02*
X207381904Y-116949580D01*
X207381904Y-116949580D02*
X207334285Y-116997200D01*
X207334285Y-116997200D02*
X207239047Y-117044819D01*
X207239047Y-117044819D02*
X207000952Y-117044819D01*
X207000952Y-117044819D02*
X206905714Y-116997200D01*
X206905714Y-116997200D02*
X206858095Y-116949580D01*
X188330476Y-105057200D02*
X188473333Y-105104819D01*
X188473333Y-105104819D02*
X188711428Y-105104819D01*
X188711428Y-105104819D02*
X188806666Y-105057200D01*
X188806666Y-105057200D02*
X188854285Y-105009580D01*
X188854285Y-105009580D02*
X188901904Y-104914342D01*
X188901904Y-104914342D02*
X188901904Y-104819104D01*
X188901904Y-104819104D02*
X188854285Y-104723866D01*
X188854285Y-104723866D02*
X188806666Y-104676247D01*
X188806666Y-104676247D02*
X188711428Y-104628628D01*
X188711428Y-104628628D02*
X188520952Y-104581009D01*
X188520952Y-104581009D02*
X188425714Y-104533390D01*
X188425714Y-104533390D02*
X188378095Y-104485771D01*
X188378095Y-104485771D02*
X188330476Y-104390533D01*
X188330476Y-104390533D02*
X188330476Y-104295295D01*
X188330476Y-104295295D02*
X188378095Y-104200057D01*
X188378095Y-104200057D02*
X188425714Y-104152438D01*
X188425714Y-104152438D02*
X188520952Y-104104819D01*
X188520952Y-104104819D02*
X188759047Y-104104819D01*
X188759047Y-104104819D02*
X188901904Y-104152438D01*
X189235238Y-104104819D02*
X189473333Y-105104819D01*
X189473333Y-105104819D02*
X189663809Y-104390533D01*
X189663809Y-104390533D02*
X189854285Y-105104819D01*
X189854285Y-105104819D02*
X190092381Y-104104819D01*
X190997142Y-105104819D02*
X190425714Y-105104819D01*
X190711428Y-105104819D02*
X190711428Y-104104819D01*
X190711428Y-104104819D02*
X190616190Y-104247676D01*
X190616190Y-104247676D02*
X190520952Y-104342914D01*
X190520952Y-104342914D02*
X190425714Y-104390533D01*
X191330476Y-104104819D02*
X191949523Y-104104819D01*
X191949523Y-104104819D02*
X191616190Y-104485771D01*
X191616190Y-104485771D02*
X191759047Y-104485771D01*
X191759047Y-104485771D02*
X191854285Y-104533390D01*
X191854285Y-104533390D02*
X191901904Y-104581009D01*
X191901904Y-104581009D02*
X191949523Y-104676247D01*
X191949523Y-104676247D02*
X191949523Y-104914342D01*
X191949523Y-104914342D02*
X191901904Y-105009580D01*
X191901904Y-105009580D02*
X191854285Y-105057200D01*
X191854285Y-105057200D02*
X191759047Y-105104819D01*
X191759047Y-105104819D02*
X191473333Y-105104819D01*
X191473333Y-105104819D02*
X191378095Y-105057200D01*
X191378095Y-105057200D02*
X191330476Y-105009580D01*
X88416667Y-81157200D02*
X88559524Y-81204819D01*
X88559524Y-81204819D02*
X88797619Y-81204819D01*
X88797619Y-81204819D02*
X88892857Y-81157200D01*
X88892857Y-81157200D02*
X88940476Y-81109580D01*
X88940476Y-81109580D02*
X88988095Y-81014342D01*
X88988095Y-81014342D02*
X88988095Y-80919104D01*
X88988095Y-80919104D02*
X88940476Y-80823866D01*
X88940476Y-80823866D02*
X88892857Y-80776247D01*
X88892857Y-80776247D02*
X88797619Y-80728628D01*
X88797619Y-80728628D02*
X88607143Y-80681009D01*
X88607143Y-80681009D02*
X88511905Y-80633390D01*
X88511905Y-80633390D02*
X88464286Y-80585771D01*
X88464286Y-80585771D02*
X88416667Y-80490533D01*
X88416667Y-80490533D02*
X88416667Y-80395295D01*
X88416667Y-80395295D02*
X88464286Y-80300057D01*
X88464286Y-80300057D02*
X88511905Y-80252438D01*
X88511905Y-80252438D02*
X88607143Y-80204819D01*
X88607143Y-80204819D02*
X88845238Y-80204819D01*
X88845238Y-80204819D02*
X88988095Y-80252438D01*
X89321429Y-80204819D02*
X89559524Y-81204819D01*
X89559524Y-81204819D02*
X89750000Y-80490533D01*
X89750000Y-80490533D02*
X89940476Y-81204819D01*
X89940476Y-81204819D02*
X90178572Y-80204819D01*
X90988095Y-80538152D02*
X90988095Y-81204819D01*
X90750000Y-80157200D02*
X90511905Y-80871485D01*
X90511905Y-80871485D02*
X91130952Y-80871485D01*
D11*
%TO.C,SW10*%
X179660000Y-36630000D02*
X179660000Y-38130000D01*
X180910000Y-40630000D02*
X185410000Y-40630000D01*
X185410000Y-34130000D02*
X180910000Y-34130000D01*
X186660000Y-38130000D02*
X186660000Y-36630000D01*
%TO.C,SW14*%
X202100000Y-99700000D02*
X202100000Y-101200000D01*
X203350000Y-103700000D02*
X207850000Y-103700000D01*
X207850000Y-97200000D02*
X203350000Y-97200000D01*
X209100000Y-101200000D02*
X209100000Y-99700000D01*
%TO.C,SW1*%
X79790000Y-130140000D02*
X79790000Y-131640000D01*
X81040000Y-134140000D02*
X85540000Y-134140000D01*
X85540000Y-127640000D02*
X81040000Y-127640000D01*
X86790000Y-131640000D02*
X86790000Y-130140000D01*
%TO.C,SW2*%
X79790000Y-111660000D02*
X79790000Y-113160000D01*
X81040000Y-115660000D02*
X85540000Y-115660000D01*
X85540000Y-109160000D02*
X81040000Y-109160000D01*
X86790000Y-113160000D02*
X86790000Y-111660000D01*
%TO.C,SW7*%
X128450000Y-36590000D02*
X128450000Y-38090000D01*
X129700000Y-40590000D02*
X134200000Y-40590000D01*
X134200000Y-34090000D02*
X129700000Y-34090000D01*
X135450000Y-38090000D02*
X135450000Y-36590000D01*
%TO.C,SW3*%
X86220000Y-95180000D02*
X86220000Y-96680000D01*
X87470000Y-99180000D02*
X91970000Y-99180000D01*
X91970000Y-92680000D02*
X87470000Y-92680000D01*
X93220000Y-96680000D02*
X93220000Y-95180000D01*
%TO.C,SW11*%
X185990000Y-79450000D02*
X185990000Y-80950000D01*
X187240000Y-83450000D02*
X191740000Y-83450000D01*
X191740000Y-76950000D02*
X187240000Y-76950000D01*
X192990000Y-80950000D02*
X192990000Y-79450000D01*
%TO.C,SW8*%
X147810000Y-36680000D02*
X147810000Y-38180000D01*
X149060000Y-40680000D02*
X153560000Y-40680000D01*
X153560000Y-34180000D02*
X149060000Y-34180000D01*
X154810000Y-38180000D02*
X154810000Y-36680000D01*
%TO.C,SW16*%
X202080000Y-130150000D02*
X202080000Y-131650000D01*
X203330000Y-134150000D02*
X207830000Y-134150000D01*
X207830000Y-127650000D02*
X203330000Y-127650000D01*
X209080000Y-131650000D02*
X209080000Y-130150000D01*
%TO.C,SW5*%
X86210000Y-57400000D02*
X86210000Y-58900000D01*
X87460000Y-61400000D02*
X91960000Y-61400000D01*
X91960000Y-54900000D02*
X87460000Y-54900000D01*
X93210000Y-58900000D02*
X93210000Y-57400000D01*
%TO.C,SW9*%
X168190000Y-36670000D02*
X168190000Y-38170000D01*
X169440000Y-40670000D02*
X173940000Y-40670000D01*
X173940000Y-34170000D02*
X169440000Y-34170000D01*
X175190000Y-38170000D02*
X175190000Y-36670000D01*
%TO.C,SW12*%
X202180000Y-79390000D02*
X202180000Y-80890000D01*
X203430000Y-83390000D02*
X207930000Y-83390000D01*
X207930000Y-76890000D02*
X203430000Y-76890000D01*
X209180000Y-80890000D02*
X209180000Y-79390000D01*
%TO.C,SW6*%
X101470000Y-36620000D02*
X101470000Y-38120000D01*
X102720000Y-40620000D02*
X107220000Y-40620000D01*
X107220000Y-34120000D02*
X102720000Y-34120000D01*
X108470000Y-38120000D02*
X108470000Y-36620000D01*
%TO.C,SW15*%
X202120000Y-120090000D02*
X202120000Y-121590000D01*
X203370000Y-124090000D02*
X207870000Y-124090000D01*
X207870000Y-117590000D02*
X203370000Y-117590000D01*
X209120000Y-121590000D02*
X209120000Y-120090000D01*
%TO.C,SW13*%
X186640000Y-99650000D02*
X186640000Y-101150000D01*
X187890000Y-103650000D02*
X192390000Y-103650000D01*
X192390000Y-97150000D02*
X187890000Y-97150000D01*
X193640000Y-101150000D02*
X193640000Y-99650000D01*
%TO.C,SW4*%
X86250000Y-75750000D02*
X86250000Y-77250000D01*
X87500000Y-79750000D02*
X92000000Y-79750000D01*
X92000000Y-73250000D02*
X87500000Y-73250000D01*
X93250000Y-77250000D02*
X93250000Y-75750000D01*
%TD*%
M02*
