M48
; DRILL file {KiCad 9.0.3} date 2025-08-14T19:40:38-0600
; FORMAT={-:-/ absolute / metric / decimal}
; #@! TF.CreationDate,2025-08-14T19:40:38-06:00
; #@! TF.GenerationSoftware,Kicad,Pcbnew,9.0.3
; #@! TF.FileFunction,Plated,1,2,PTH
FMAT,2
METRIC
; #@! TA.AperFunction,Plated,PTH,ViaDrill
T1C0.300
; #@! TA.AperFunction,Plated,PTH,ComponentDrill
T2C0.800
; #@! TA.AperFunction,Plated,PTH,ComponentDrill
T3C1.000
; #@! TA.AperFunction,Plated,PTH,ComponentDrill
T4C1.100
%
G90
G05
T1
X77.597Y-66.548
X77.597Y-103.505
X82.423Y-51.181
X97.028Y-41.402
X97.409Y-70.104
X111.252Y-36.449
X115.443Y-39.878
X119.761Y-36.449
X171.831Y-37.938
X182.88Y-37.338
X190.754Y-41.529
X192.913Y-42.291
X192.913Y-45.466
X196.342Y-83.312
X198.12Y-70.993
X198.247Y-76.327
X198.882Y-107.95
T2
X80.5Y-121.34
X80.5Y-138.17
X86.56Y-103.42
X87.7Y-67.88
X87.73Y-84.47
X88.12Y-121.34
X88.12Y-138.17
X94.18Y-103.42
X95.32Y-67.88
X95.35Y-84.47
X102.18Y-31.59
X109.8Y-31.59
X124.38Y-32.15
X124.38Y-39.77
X146.54Y-31.56
X154.16Y-31.56
X168.14Y-31.57
X175.76Y-31.57
X179.13Y-31.56
X186.75Y-31.56
X186.79Y-72.24
X186.79Y-106.82
X194.41Y-72.24
X194.41Y-106.82
X201.27Y-72.26
X202.3Y-92.15
X202.3Y-113.16
X202.35Y-138.85
X208.89Y-72.26
X209.92Y-92.15
X209.92Y-113.16
X209.97Y-138.85
T3
X86.99Y-46.34
X89.53Y-46.34
X92.07Y-46.34
X94.61Y-46.34
X214.15Y-54.57
X214.15Y-57.11
X214.15Y-59.65
X214.15Y-62.19
T4
X80.04Y-110.16
X80.04Y-114.66
X80.04Y-128.64
X80.04Y-133.14
X86.46Y-55.9
X86.46Y-60.4
X86.47Y-93.68
X86.47Y-98.18
X86.5Y-74.25
X86.5Y-78.75
X86.54Y-110.16
X86.54Y-114.66
X86.54Y-128.64
X86.54Y-133.14
X92.96Y-55.9
X92.96Y-60.4
X92.97Y-93.68
X92.97Y-98.18
X93.0Y-74.25
X93.0Y-78.75
X101.72Y-35.12
X101.72Y-39.62
X108.22Y-35.12
X108.22Y-39.62
X128.7Y-35.09
X128.7Y-39.59
X135.2Y-35.09
X135.2Y-39.59
X148.06Y-35.18
X148.06Y-39.68
X154.56Y-35.18
X154.56Y-39.68
X168.44Y-35.17
X168.44Y-39.67
X174.94Y-35.17
X174.94Y-39.67
X179.91Y-35.13
X179.91Y-39.63
X186.24Y-77.95
X186.24Y-82.45
X186.41Y-35.13
X186.41Y-39.63
X186.89Y-98.15
X186.89Y-102.65
X192.74Y-77.95
X192.74Y-82.45
X193.39Y-98.15
X193.39Y-102.65
X202.33Y-128.65
X202.33Y-133.15
X202.35Y-98.2
X202.35Y-102.7
X202.37Y-118.59
X202.37Y-123.09
X202.43Y-77.89
X202.43Y-82.39
X208.83Y-128.65
X208.83Y-133.15
X208.85Y-98.2
X208.85Y-102.7
X208.87Y-118.59
X208.87Y-123.09
X208.93Y-77.89
X208.93Y-82.39
M30
