M48
; DRILL file {KiCad 9.0.3} date 2025-07-23T10:01:15-0600
; FORMAT={-:-/ absolute / metric / decimal}
; #@! TF.CreationDate,2025-07-23T10:01:15-06:00
; #@! TF.GenerationSoftware,Kicad,Pcbnew,9.0.3
; #@! TF.FileFunction,Plated,1,2,PTH
FMAT,2
METRIC
; #@! TA.AperFunction,Plated,PTH,ViaDrill
T1C0.300
; #@! TA.AperFunction,Plated,PTH,ComponentDrill
T2C0.800
; #@! TA.AperFunction,Plated,PTH,ComponentDrill
T3C1.000
; #@! TA.AperFunction,Plated,PTH,ComponentDrill
T4C1.100
%
G90
G05
T1
X77.61Y-103.42
X85.25Y-51.29
X85.53Y-39.15
X89.54Y-39.599
X95.03Y-49.89
X159.59Y-34.48
X160.64Y-36.82
X187.38Y-42.93
X194.37Y-37.27
X194.81Y-29.56
X196.8Y-122.97
X215.45Y-102.76
T2
X80.5Y-121.34
X80.5Y-138.17
X86.56Y-103.42
X87.7Y-67.88
X87.73Y-84.47
X88.12Y-121.34
X88.12Y-138.17
X94.18Y-103.42
X95.32Y-67.88
X95.35Y-84.47
X102.18Y-31.59
X109.8Y-31.59
X124.38Y-32.15
X124.38Y-39.77
X146.54Y-31.56
X154.16Y-31.56
X168.14Y-31.57
X175.76Y-31.57
X179.13Y-31.56
X186.75Y-31.56
X186.79Y-72.24
X186.79Y-106.82
X194.41Y-72.24
X194.41Y-106.82
X201.27Y-72.26
X202.3Y-92.15
X202.3Y-113.16
X202.35Y-138.85
X208.89Y-72.26
X209.92Y-92.15
X209.92Y-113.16
X209.97Y-138.85
T3
X86.99Y-46.34
X89.53Y-46.34
X92.07Y-46.34
X94.61Y-46.34
X214.15Y-54.57
X214.15Y-57.11
X214.15Y-59.65
X214.15Y-62.19
T4
X80.85Y-110.18
X80.85Y-114.68
X81.48Y-128.69
X81.48Y-133.19
X87.35Y-110.18
X87.35Y-114.68
X87.71Y-93.7
X87.71Y-98.2
X87.76Y-55.92
X87.76Y-60.42
X87.77Y-74.27
X87.77Y-78.77
X87.98Y-128.69
X87.98Y-133.19
X94.21Y-93.7
X94.21Y-98.2
X94.26Y-55.92
X94.26Y-60.42
X94.27Y-74.27
X94.27Y-78.77
X102.25Y-35.12
X102.25Y-39.62
X108.75Y-35.12
X108.75Y-39.62
X128.7Y-35.09
X128.7Y-39.59
X135.2Y-35.09
X135.2Y-39.59
X147.67Y-35.19
X147.67Y-39.69
X154.17Y-35.19
X154.17Y-39.69
X168.44Y-35.17
X168.44Y-39.67
X174.94Y-35.17
X174.94Y-39.67
X180.31Y-35.16
X180.31Y-39.66
X186.81Y-35.16
X186.81Y-39.66
X186.865Y-78.98
X186.865Y-83.48
X186.89Y-98.15
X186.89Y-102.65
X193.365Y-78.98
X193.365Y-83.48
X193.39Y-98.15
X193.39Y-102.65
X202.33Y-128.65
X202.33Y-133.15
X202.35Y-98.2
X202.35Y-102.7
X202.37Y-118.59
X202.37Y-123.09
X202.44Y-78.98
X202.44Y-83.48
X208.83Y-128.65
X208.83Y-133.15
X208.85Y-98.2
X208.85Y-102.7
X208.87Y-118.59
X208.87Y-123.09
X208.94Y-78.98
X208.94Y-83.48
M30
