%TF.GenerationSoftware,KiCad,Pcbnew,9.0.3*%
%TF.CreationDate,2025-07-25T01:46:42-06:00*%
%TF.ProjectId,ARC-210-Master-Board,4152432d-3231-4302-9d4d-61737465722d,rev?*%
%TF.SameCoordinates,Original*%
%TF.FileFunction,Drillmap*%
%TF.FilePolarity,Positive*%
%FSLAX45Y45*%
G04 Gerber Fmt 4.5, Leading zero omitted, Abs format (unit mm)*
G04 Created by KiCad (PCBNEW 9.0.3) date 2025-07-25 01:46:42*
%MOMM*%
%LPD*%
G01*
G04 APERTURE LIST*
%ADD10C,0.050000*%
%ADD11C,0.100000*%
%ADD12C,0.200000*%
%ADD13C,0.110000*%
G04 APERTURE END LIST*
D10*
X9901500Y-16067113D02*
X7295000Y-16044500D01*
X21756000Y-16054000D02*
X18181500Y-16057000D01*
X7295000Y-2787000D02*
X21756000Y-2786499D01*
X19678004Y-14047113D02*
X18181500Y-15048250D01*
X19678004Y-11057000D02*
X19678004Y-14047113D01*
X19194000Y-11057000D02*
X19678004Y-11057000D01*
X20145000Y-3634500D02*
G75*
G02*
X19745000Y-3634500I-200000J0D01*
G01*
X19745000Y-3634500D02*
G75*
G02*
X20145000Y-3634500I200000J0D01*
G01*
X8024000Y-4153000D02*
G75*
G02*
X7524000Y-4153000I-250000J0D01*
G01*
X7524000Y-4153000D02*
G75*
G02*
X8024000Y-4153000I250000J0D01*
G01*
X9166500Y-13187000D02*
X9166500Y-11057000D01*
X9166500Y-14064500D02*
X9902750Y-15065807D01*
X7295000Y-2787000D02*
X7295000Y-16044500D01*
X18181500Y-16057000D02*
X18181500Y-15048250D01*
D11*
X20571000Y-5787000D02*
G75*
G02*
X18771000Y-5787000I-900000J0D01*
G01*
X18771000Y-5787000D02*
G75*
G02*
X20571000Y-5787000I900000J0D01*
G01*
D10*
X21576000Y-14681000D02*
G75*
G02*
X21076000Y-14681000I-250000J0D01*
G01*
X21076000Y-14681000D02*
G75*
G02*
X21576000Y-14681000I250000J0D01*
G01*
X9906500Y-4479500D02*
X18186500Y-4487000D01*
X20146000Y-15243000D02*
G75*
G02*
X19746000Y-15243000I-200000J0D01*
G01*
X19746000Y-15243000D02*
G75*
G02*
X20146000Y-15243000I200000J0D01*
G01*
X21581000Y-4154000D02*
G75*
G02*
X21081000Y-4154000I-250000J0D01*
G01*
X21081000Y-4154000D02*
G75*
G02*
X21581000Y-4154000I250000J0D01*
G01*
X8008000Y-14678000D02*
G75*
G02*
X7508000Y-14678000I-250000J0D01*
G01*
X7508000Y-14678000D02*
G75*
G02*
X8008000Y-14678000I250000J0D01*
G01*
X9166500Y-13187000D02*
X9166500Y-14064500D01*
X9419000Y-15228000D02*
G75*
G02*
X9019000Y-15228000I-200000J0D01*
G01*
X9019000Y-15228000D02*
G75*
G02*
X9419000Y-15228000I200000J0D01*
G01*
X9901500Y-10667000D02*
X9906500Y-4479500D01*
X18181500Y-11062000D02*
X18181500Y-10667000D01*
X9907755Y-11057000D02*
X9901500Y-10667000D01*
X9907755Y-11057000D02*
X9166500Y-11057000D01*
X9416500Y-3627000D02*
G75*
G02*
X9016500Y-3627000I-200000J0D01*
G01*
X9016500Y-3627000D02*
G75*
G02*
X9416500Y-3627000I200000J0D01*
G01*
X21756000Y-2786499D02*
X21756000Y-16054000D01*
X9901500Y-16067113D02*
X9902750Y-15065807D01*
X18186500Y-4487000D02*
X18181500Y-10667000D01*
X19194000Y-11057000D02*
X18181500Y-11062000D01*
D12*
D11*
X7746000Y-10327000D02*
X7776000Y-10357000D01*
X7776000Y-10327000D02*
X7746000Y-10357000D01*
X8510000Y-5114000D02*
X8540000Y-5144000D01*
X8540000Y-5114000D02*
X8510000Y-5144000D01*
X8538000Y-3900000D02*
X8568000Y-3930000D01*
X8568000Y-3900000D02*
X8538000Y-3930000D01*
X8939000Y-3944948D02*
X8969000Y-3974948D01*
X8969000Y-3944948D02*
X8939000Y-3974948D01*
X9488000Y-4974000D02*
X9518000Y-5004000D01*
X9518000Y-4974000D02*
X9488000Y-5004000D01*
X15944000Y-3433000D02*
X15974000Y-3463000D01*
X15974000Y-3433000D02*
X15944000Y-3463000D01*
X16049000Y-3667000D02*
X16079000Y-3697000D01*
X16079000Y-3667000D02*
X16049000Y-3697000D01*
X18723000Y-4278000D02*
X18753000Y-4308000D01*
X18753000Y-4278000D02*
X18723000Y-4308000D01*
X19422000Y-3712000D02*
X19452000Y-3742000D01*
X19452000Y-3712000D02*
X19422000Y-3742000D01*
X19466000Y-2941000D02*
X19496000Y-2971000D01*
X19496000Y-2941000D02*
X19466000Y-2971000D01*
X19819000Y-12269000D02*
X19849000Y-12299000D01*
X19849000Y-12269000D02*
X19819000Y-12299000D01*
X21530000Y-10261000D02*
X21560000Y-10291000D01*
X21560000Y-10261000D02*
X21530000Y-10291000D01*
X8090000Y-12134000D02*
G75*
G02*
X8010000Y-12134000I-40000J0D01*
G01*
X8010000Y-12134000D02*
G75*
G02*
X8090000Y-12134000I40000J0D01*
G01*
X8090000Y-13817000D02*
G75*
G02*
X8010000Y-13817000I-40000J0D01*
G01*
X8010000Y-13817000D02*
G75*
G02*
X8090000Y-13817000I40000J0D01*
G01*
X8696000Y-10342000D02*
G75*
G02*
X8616000Y-10342000I-40000J0D01*
G01*
X8616000Y-10342000D02*
G75*
G02*
X8696000Y-10342000I40000J0D01*
G01*
X8810000Y-6788000D02*
G75*
G02*
X8730000Y-6788000I-40000J0D01*
G01*
X8730000Y-6788000D02*
G75*
G02*
X8810000Y-6788000I40000J0D01*
G01*
X8813000Y-8447000D02*
G75*
G02*
X8733000Y-8447000I-40000J0D01*
G01*
X8733000Y-8447000D02*
G75*
G02*
X8813000Y-8447000I40000J0D01*
G01*
X8852000Y-12134000D02*
G75*
G02*
X8772000Y-12134000I-40000J0D01*
G01*
X8772000Y-12134000D02*
G75*
G02*
X8852000Y-12134000I40000J0D01*
G01*
X8852000Y-13817000D02*
G75*
G02*
X8772000Y-13817000I-40000J0D01*
G01*
X8772000Y-13817000D02*
G75*
G02*
X8852000Y-13817000I40000J0D01*
G01*
X9458000Y-10342000D02*
G75*
G02*
X9378000Y-10342000I-40000J0D01*
G01*
X9378000Y-10342000D02*
G75*
G02*
X9458000Y-10342000I40000J0D01*
G01*
X9572000Y-6788000D02*
G75*
G02*
X9492000Y-6788000I-40000J0D01*
G01*
X9492000Y-6788000D02*
G75*
G02*
X9572000Y-6788000I40000J0D01*
G01*
X9575000Y-8447000D02*
G75*
G02*
X9495000Y-8447000I-40000J0D01*
G01*
X9495000Y-8447000D02*
G75*
G02*
X9575000Y-8447000I40000J0D01*
G01*
X10258000Y-3159000D02*
G75*
G02*
X10178000Y-3159000I-40000J0D01*
G01*
X10178000Y-3159000D02*
G75*
G02*
X10258000Y-3159000I40000J0D01*
G01*
X11020000Y-3159000D02*
G75*
G02*
X10940000Y-3159000I-40000J0D01*
G01*
X10940000Y-3159000D02*
G75*
G02*
X11020000Y-3159000I40000J0D01*
G01*
X12478000Y-3215000D02*
G75*
G02*
X12398000Y-3215000I-40000J0D01*
G01*
X12398000Y-3215000D02*
G75*
G02*
X12478000Y-3215000I40000J0D01*
G01*
X12478000Y-3977000D02*
G75*
G02*
X12398000Y-3977000I-40000J0D01*
G01*
X12398000Y-3977000D02*
G75*
G02*
X12478000Y-3977000I40000J0D01*
G01*
X14694000Y-3156000D02*
G75*
G02*
X14614000Y-3156000I-40000J0D01*
G01*
X14614000Y-3156000D02*
G75*
G02*
X14694000Y-3156000I40000J0D01*
G01*
X15456000Y-3156000D02*
G75*
G02*
X15376000Y-3156000I-40000J0D01*
G01*
X15376000Y-3156000D02*
G75*
G02*
X15456000Y-3156000I40000J0D01*
G01*
X16854000Y-3157000D02*
G75*
G02*
X16774000Y-3157000I-40000J0D01*
G01*
X16774000Y-3157000D02*
G75*
G02*
X16854000Y-3157000I40000J0D01*
G01*
X17616000Y-3157000D02*
G75*
G02*
X17536000Y-3157000I-40000J0D01*
G01*
X17536000Y-3157000D02*
G75*
G02*
X17616000Y-3157000I40000J0D01*
G01*
X17953000Y-3156000D02*
G75*
G02*
X17873000Y-3156000I-40000J0D01*
G01*
X17873000Y-3156000D02*
G75*
G02*
X17953000Y-3156000I40000J0D01*
G01*
X18715000Y-3156000D02*
G75*
G02*
X18635000Y-3156000I-40000J0D01*
G01*
X18635000Y-3156000D02*
G75*
G02*
X18715000Y-3156000I40000J0D01*
G01*
X18719000Y-7224000D02*
G75*
G02*
X18639000Y-7224000I-40000J0D01*
G01*
X18639000Y-7224000D02*
G75*
G02*
X18719000Y-7224000I40000J0D01*
G01*
X18719000Y-10682000D02*
G75*
G02*
X18639000Y-10682000I-40000J0D01*
G01*
X18639000Y-10682000D02*
G75*
G02*
X18719000Y-10682000I40000J0D01*
G01*
X19481000Y-7224000D02*
G75*
G02*
X19401000Y-7224000I-40000J0D01*
G01*
X19401000Y-7224000D02*
G75*
G02*
X19481000Y-7224000I40000J0D01*
G01*
X19481000Y-10682000D02*
G75*
G02*
X19401000Y-10682000I-40000J0D01*
G01*
X19401000Y-10682000D02*
G75*
G02*
X19481000Y-10682000I40000J0D01*
G01*
X20167000Y-7226000D02*
G75*
G02*
X20087000Y-7226000I-40000J0D01*
G01*
X20087000Y-7226000D02*
G75*
G02*
X20167000Y-7226000I40000J0D01*
G01*
X20270000Y-9215000D02*
G75*
G02*
X20190000Y-9215000I-40000J0D01*
G01*
X20190000Y-9215000D02*
G75*
G02*
X20270000Y-9215000I40000J0D01*
G01*
X20270000Y-11316000D02*
G75*
G02*
X20190000Y-11316000I-40000J0D01*
G01*
X20190000Y-11316000D02*
G75*
G02*
X20270000Y-11316000I40000J0D01*
G01*
X20275000Y-13885000D02*
G75*
G02*
X20195000Y-13885000I-40000J0D01*
G01*
X20195000Y-13885000D02*
G75*
G02*
X20275000Y-13885000I40000J0D01*
G01*
X20929000Y-7226000D02*
G75*
G02*
X20849000Y-7226000I-40000J0D01*
G01*
X20849000Y-7226000D02*
G75*
G02*
X20929000Y-7226000I40000J0D01*
G01*
X21032000Y-9215000D02*
G75*
G02*
X20952000Y-9215000I-40000J0D01*
G01*
X20952000Y-9215000D02*
G75*
G02*
X21032000Y-9215000I40000J0D01*
G01*
X21032000Y-11316000D02*
G75*
G02*
X20952000Y-11316000I-40000J0D01*
G01*
X20952000Y-11316000D02*
G75*
G02*
X21032000Y-11316000I40000J0D01*
G01*
X21037000Y-13885000D02*
G75*
G02*
X20957000Y-13885000I-40000J0D01*
G01*
X20957000Y-13885000D02*
G75*
G02*
X21037000Y-13885000I40000J0D01*
G01*
X8699000Y-4584000D02*
X8699000Y-4684000D01*
X8649000Y-4634000D02*
X8749000Y-4634000D01*
X8953000Y-4584000D02*
X8953000Y-4684000D01*
X8903000Y-4634000D02*
X9003000Y-4634000D01*
X9207000Y-4584000D02*
X9207000Y-4684000D01*
X9157000Y-4634000D02*
X9257000Y-4634000D01*
X9461000Y-4584000D02*
X9461000Y-4684000D01*
X9411000Y-4634000D02*
X9511000Y-4634000D01*
X21415000Y-5407000D02*
X21415000Y-5507000D01*
X21365000Y-5457000D02*
X21465000Y-5457000D01*
X21415000Y-5661000D02*
X21415000Y-5761000D01*
X21365000Y-5711000D02*
X21465000Y-5711000D01*
X21415000Y-5915000D02*
X21415000Y-6015000D01*
X21365000Y-5965000D02*
X21465000Y-5965000D01*
X21415000Y-6169000D02*
X21415000Y-6269000D01*
X21365000Y-6219000D02*
X21465000Y-6219000D01*
D13*
X8123891Y-11056891D02*
X8123891Y-10979109D01*
X8046109Y-10979109D01*
X8046109Y-11056891D01*
X8123891Y-11056891D01*
X8123891Y-11506891D02*
X8123891Y-11429109D01*
X8046109Y-11429109D01*
X8046109Y-11506891D01*
X8123891Y-11506891D01*
X8186891Y-12907891D02*
X8186891Y-12830109D01*
X8109109Y-12830109D01*
X8109109Y-12907891D01*
X8186891Y-12907891D01*
X8186891Y-13357891D02*
X8186891Y-13280109D01*
X8109109Y-13280109D01*
X8109109Y-13357891D01*
X8186891Y-13357891D01*
X8773891Y-11056891D02*
X8773891Y-10979109D01*
X8696109Y-10979109D01*
X8696109Y-11056891D01*
X8773891Y-11056891D01*
X8773891Y-11506891D02*
X8773891Y-11429109D01*
X8696109Y-11429109D01*
X8696109Y-11506891D01*
X8773891Y-11506891D01*
X8809891Y-9408891D02*
X8809891Y-9331109D01*
X8732109Y-9331109D01*
X8732109Y-9408891D01*
X8809891Y-9408891D01*
X8809891Y-9858891D02*
X8809891Y-9781109D01*
X8732109Y-9781109D01*
X8732109Y-9858891D01*
X8809891Y-9858891D01*
X8814891Y-5630891D02*
X8814891Y-5553109D01*
X8737109Y-5553109D01*
X8737109Y-5630891D01*
X8814891Y-5630891D01*
X8814891Y-6080891D02*
X8814891Y-6003109D01*
X8737109Y-6003109D01*
X8737109Y-6080891D01*
X8814891Y-6080891D01*
X8815891Y-7465891D02*
X8815891Y-7388109D01*
X8738109Y-7388109D01*
X8738109Y-7465891D01*
X8815891Y-7465891D01*
X8815891Y-7915891D02*
X8815891Y-7838109D01*
X8738109Y-7838109D01*
X8738109Y-7915891D01*
X8815891Y-7915891D01*
X8836891Y-12907891D02*
X8836891Y-12830109D01*
X8759109Y-12830109D01*
X8759109Y-12907891D01*
X8836891Y-12907891D01*
X8836891Y-13357891D02*
X8836891Y-13280109D01*
X8759109Y-13280109D01*
X8759109Y-13357891D01*
X8836891Y-13357891D01*
X9459891Y-9408891D02*
X9459891Y-9331109D01*
X9382109Y-9331109D01*
X9382109Y-9408891D01*
X9459891Y-9408891D01*
X9459891Y-9858891D02*
X9459891Y-9781109D01*
X9382109Y-9781109D01*
X9382109Y-9858891D01*
X9459891Y-9858891D01*
X9464891Y-5630891D02*
X9464891Y-5553109D01*
X9387109Y-5553109D01*
X9387109Y-5630891D01*
X9464891Y-5630891D01*
X9464891Y-6080891D02*
X9464891Y-6003109D01*
X9387109Y-6003109D01*
X9387109Y-6080891D01*
X9464891Y-6080891D01*
X9465891Y-7465891D02*
X9465891Y-7388109D01*
X9388109Y-7388109D01*
X9388109Y-7465891D01*
X9465891Y-7465891D01*
X9465891Y-7915891D02*
X9465891Y-7838109D01*
X9388109Y-7838109D01*
X9388109Y-7915891D01*
X9465891Y-7915891D01*
X10263891Y-3550891D02*
X10263891Y-3473109D01*
X10186109Y-3473109D01*
X10186109Y-3550891D01*
X10263891Y-3550891D01*
X10263891Y-4000891D02*
X10263891Y-3923109D01*
X10186109Y-3923109D01*
X10186109Y-4000891D01*
X10263891Y-4000891D01*
X10913891Y-3550891D02*
X10913891Y-3473109D01*
X10836109Y-3473109D01*
X10836109Y-3550891D01*
X10913891Y-3550891D01*
X10913891Y-4000891D02*
X10913891Y-3923109D01*
X10836109Y-3923109D01*
X10836109Y-4000891D01*
X10913891Y-4000891D01*
X12908891Y-3547891D02*
X12908891Y-3470109D01*
X12831109Y-3470109D01*
X12831109Y-3547891D01*
X12908891Y-3547891D01*
X12908891Y-3997891D02*
X12908891Y-3920109D01*
X12831109Y-3920109D01*
X12831109Y-3997891D01*
X12908891Y-3997891D01*
X13558891Y-3547891D02*
X13558891Y-3470109D01*
X13481109Y-3470109D01*
X13481109Y-3547891D01*
X13558891Y-3547891D01*
X13558891Y-3997891D02*
X13558891Y-3920109D01*
X13481109Y-3920109D01*
X13481109Y-3997891D01*
X13558891Y-3997891D01*
X14805891Y-3557891D02*
X14805891Y-3480109D01*
X14728109Y-3480109D01*
X14728109Y-3557891D01*
X14805891Y-3557891D01*
X14805891Y-4007891D02*
X14805891Y-3930109D01*
X14728109Y-3930109D01*
X14728109Y-4007891D01*
X14805891Y-4007891D01*
X15455891Y-3557891D02*
X15455891Y-3480109D01*
X15378109Y-3480109D01*
X15378109Y-3557891D01*
X15455891Y-3557891D01*
X15455891Y-4007891D02*
X15455891Y-3930109D01*
X15378109Y-3930109D01*
X15378109Y-4007891D01*
X15455891Y-4007891D01*
X16882891Y-3555891D02*
X16882891Y-3478109D01*
X16805109Y-3478109D01*
X16805109Y-3555891D01*
X16882891Y-3555891D01*
X16882891Y-4005891D02*
X16882891Y-3928109D01*
X16805109Y-3928109D01*
X16805109Y-4005891D01*
X16882891Y-4005891D01*
X17532891Y-3555891D02*
X17532891Y-3478109D01*
X17455109Y-3478109D01*
X17455109Y-3555891D01*
X17532891Y-3555891D01*
X17532891Y-4005891D02*
X17532891Y-3928109D01*
X17455109Y-3928109D01*
X17455109Y-4005891D01*
X17532891Y-4005891D01*
X18069891Y-3554891D02*
X18069891Y-3477109D01*
X17992109Y-3477109D01*
X17992109Y-3554891D01*
X18069891Y-3554891D01*
X18069891Y-4004891D02*
X18069891Y-3927109D01*
X17992109Y-3927109D01*
X17992109Y-4004891D01*
X18069891Y-4004891D01*
X18719891Y-3554891D02*
X18719891Y-3477109D01*
X18642109Y-3477109D01*
X18642109Y-3554891D01*
X18719891Y-3554891D01*
X18719891Y-4004891D02*
X18719891Y-3927109D01*
X18642109Y-3927109D01*
X18642109Y-4004891D01*
X18719891Y-4004891D01*
X18725391Y-7936891D02*
X18725391Y-7859109D01*
X18647609Y-7859109D01*
X18647609Y-7936891D01*
X18725391Y-7936891D01*
X18725391Y-8386891D02*
X18725391Y-8309109D01*
X18647609Y-8309109D01*
X18647609Y-8386891D01*
X18725391Y-8386891D01*
X18727891Y-9853891D02*
X18727891Y-9776109D01*
X18650109Y-9776109D01*
X18650109Y-9853891D01*
X18727891Y-9853891D01*
X18727891Y-10303891D02*
X18727891Y-10226109D01*
X18650109Y-10226109D01*
X18650109Y-10303891D01*
X18727891Y-10303891D01*
X19375391Y-7936891D02*
X19375391Y-7859109D01*
X19297609Y-7859109D01*
X19297609Y-7936891D01*
X19375391Y-7936891D01*
X19375391Y-8386891D02*
X19375391Y-8309109D01*
X19297609Y-8309109D01*
X19297609Y-8386891D01*
X19375391Y-8386891D01*
X19377891Y-9853891D02*
X19377891Y-9776109D01*
X19300109Y-9776109D01*
X19300109Y-9853891D01*
X19377891Y-9853891D01*
X19377891Y-10303891D02*
X19377891Y-10226109D01*
X19300109Y-10226109D01*
X19300109Y-10303891D01*
X19377891Y-10303891D01*
X20271891Y-12903891D02*
X20271891Y-12826109D01*
X20194109Y-12826109D01*
X20194109Y-12903891D01*
X20271891Y-12903891D01*
X20271891Y-13353891D02*
X20271891Y-13276109D01*
X20194109Y-13276109D01*
X20194109Y-13353891D01*
X20271891Y-13353891D01*
X20273891Y-9858891D02*
X20273891Y-9781109D01*
X20196109Y-9781109D01*
X20196109Y-9858891D01*
X20273891Y-9858891D01*
X20273891Y-10308891D02*
X20273891Y-10231109D01*
X20196109Y-10231109D01*
X20196109Y-10308891D01*
X20273891Y-10308891D01*
X20275891Y-11897891D02*
X20275891Y-11820109D01*
X20198109Y-11820109D01*
X20198109Y-11897891D01*
X20275891Y-11897891D01*
X20275891Y-12347891D02*
X20275891Y-12270109D01*
X20198109Y-12270109D01*
X20198109Y-12347891D01*
X20275891Y-12347891D01*
X20282891Y-7936891D02*
X20282891Y-7859109D01*
X20205109Y-7859109D01*
X20205109Y-7936891D01*
X20282891Y-7936891D01*
X20282891Y-8386891D02*
X20282891Y-8309109D01*
X20205109Y-8309109D01*
X20205109Y-8386891D01*
X20282891Y-8386891D01*
X20921891Y-12903891D02*
X20921891Y-12826109D01*
X20844109Y-12826109D01*
X20844109Y-12903891D01*
X20921891Y-12903891D01*
X20921891Y-13353891D02*
X20921891Y-13276109D01*
X20844109Y-13276109D01*
X20844109Y-13353891D01*
X20921891Y-13353891D01*
X20923891Y-9858891D02*
X20923891Y-9781109D01*
X20846109Y-9781109D01*
X20846109Y-9858891D01*
X20923891Y-9858891D01*
X20923891Y-10308891D02*
X20923891Y-10231109D01*
X20846109Y-10231109D01*
X20846109Y-10308891D01*
X20923891Y-10308891D01*
X20925891Y-11897891D02*
X20925891Y-11820109D01*
X20848109Y-11820109D01*
X20848109Y-11897891D01*
X20925891Y-11897891D01*
X20925891Y-12347891D02*
X20925891Y-12270109D01*
X20848109Y-12270109D01*
X20848109Y-12347891D01*
X20925891Y-12347891D01*
X20932891Y-7936891D02*
X20932891Y-7859109D01*
X20855109Y-7859109D01*
X20855109Y-7936891D01*
X20932891Y-7936891D01*
X20932891Y-8386891D02*
X20932891Y-8309109D01*
X20855109Y-8309109D01*
X20855109Y-8386891D01*
X20932891Y-8386891D01*
D12*
X7553277Y-16381097D02*
X7553277Y-16181097D01*
X7553277Y-16181097D02*
X7600896Y-16181097D01*
X7600896Y-16181097D02*
X7629467Y-16190621D01*
X7629467Y-16190621D02*
X7648515Y-16209669D01*
X7648515Y-16209669D02*
X7658039Y-16228716D01*
X7658039Y-16228716D02*
X7667562Y-16266811D01*
X7667562Y-16266811D02*
X7667562Y-16295383D01*
X7667562Y-16295383D02*
X7658039Y-16333478D01*
X7658039Y-16333478D02*
X7648515Y-16352526D01*
X7648515Y-16352526D02*
X7629467Y-16371573D01*
X7629467Y-16371573D02*
X7600896Y-16381097D01*
X7600896Y-16381097D02*
X7553277Y-16381097D01*
X7753277Y-16381097D02*
X7753277Y-16247764D01*
X7753277Y-16285859D02*
X7762801Y-16266811D01*
X7762801Y-16266811D02*
X7772324Y-16257288D01*
X7772324Y-16257288D02*
X7791372Y-16247764D01*
X7791372Y-16247764D02*
X7810420Y-16247764D01*
X7877086Y-16381097D02*
X7877086Y-16247764D01*
X7877086Y-16181097D02*
X7867562Y-16190621D01*
X7867562Y-16190621D02*
X7877086Y-16200145D01*
X7877086Y-16200145D02*
X7886610Y-16190621D01*
X7886610Y-16190621D02*
X7877086Y-16181097D01*
X7877086Y-16181097D02*
X7877086Y-16200145D01*
X8000896Y-16381097D02*
X7981848Y-16371573D01*
X7981848Y-16371573D02*
X7972324Y-16352526D01*
X7972324Y-16352526D02*
X7972324Y-16181097D01*
X8105658Y-16381097D02*
X8086610Y-16371573D01*
X8086610Y-16371573D02*
X8077086Y-16352526D01*
X8077086Y-16352526D02*
X8077086Y-16181097D01*
X8334229Y-16381097D02*
X8334229Y-16181097D01*
X8334229Y-16181097D02*
X8400896Y-16323954D01*
X8400896Y-16323954D02*
X8467563Y-16181097D01*
X8467563Y-16181097D02*
X8467563Y-16381097D01*
X8648515Y-16381097D02*
X8648515Y-16276335D01*
X8648515Y-16276335D02*
X8638991Y-16257288D01*
X8638991Y-16257288D02*
X8619944Y-16247764D01*
X8619944Y-16247764D02*
X8581848Y-16247764D01*
X8581848Y-16247764D02*
X8562801Y-16257288D01*
X8648515Y-16371573D02*
X8629467Y-16381097D01*
X8629467Y-16381097D02*
X8581848Y-16381097D01*
X8581848Y-16381097D02*
X8562801Y-16371573D01*
X8562801Y-16371573D02*
X8553277Y-16352526D01*
X8553277Y-16352526D02*
X8553277Y-16333478D01*
X8553277Y-16333478D02*
X8562801Y-16314430D01*
X8562801Y-16314430D02*
X8581848Y-16304907D01*
X8581848Y-16304907D02*
X8629467Y-16304907D01*
X8629467Y-16304907D02*
X8648515Y-16295383D01*
X8743753Y-16247764D02*
X8743753Y-16447764D01*
X8743753Y-16257288D02*
X8762801Y-16247764D01*
X8762801Y-16247764D02*
X8800896Y-16247764D01*
X8800896Y-16247764D02*
X8819944Y-16257288D01*
X8819944Y-16257288D02*
X8829467Y-16266811D01*
X8829467Y-16266811D02*
X8838991Y-16285859D01*
X8838991Y-16285859D02*
X8838991Y-16343002D01*
X8838991Y-16343002D02*
X8829467Y-16362049D01*
X8829467Y-16362049D02*
X8819944Y-16371573D01*
X8819944Y-16371573D02*
X8800896Y-16381097D01*
X8800896Y-16381097D02*
X8762801Y-16381097D01*
X8762801Y-16381097D02*
X8743753Y-16371573D01*
X8924705Y-16362049D02*
X8934229Y-16371573D01*
X8934229Y-16371573D02*
X8924705Y-16381097D01*
X8924705Y-16381097D02*
X8915182Y-16371573D01*
X8915182Y-16371573D02*
X8924705Y-16362049D01*
X8924705Y-16362049D02*
X8924705Y-16381097D01*
X8924705Y-16257288D02*
X8934229Y-16266811D01*
X8934229Y-16266811D02*
X8924705Y-16276335D01*
X8924705Y-16276335D02*
X8915182Y-16266811D01*
X8915182Y-16266811D02*
X8924705Y-16257288D01*
X8924705Y-16257288D02*
X8924705Y-16276335D01*
D11*
X7262500Y-16694613D02*
X7292500Y-16724613D01*
X7292500Y-16694613D02*
X7262500Y-16724613D01*
D12*
X7591372Y-16601097D02*
X7610420Y-16601097D01*
X7610420Y-16601097D02*
X7629467Y-16610621D01*
X7629467Y-16610621D02*
X7638991Y-16620145D01*
X7638991Y-16620145D02*
X7648515Y-16639192D01*
X7648515Y-16639192D02*
X7658039Y-16677288D01*
X7658039Y-16677288D02*
X7658039Y-16724907D01*
X7658039Y-16724907D02*
X7648515Y-16763002D01*
X7648515Y-16763002D02*
X7638991Y-16782050D01*
X7638991Y-16782050D02*
X7629467Y-16791573D01*
X7629467Y-16791573D02*
X7610420Y-16801097D01*
X7610420Y-16801097D02*
X7591372Y-16801097D01*
X7591372Y-16801097D02*
X7572324Y-16791573D01*
X7572324Y-16791573D02*
X7562801Y-16782050D01*
X7562801Y-16782050D02*
X7553277Y-16763002D01*
X7553277Y-16763002D02*
X7543753Y-16724907D01*
X7543753Y-16724907D02*
X7543753Y-16677288D01*
X7543753Y-16677288D02*
X7553277Y-16639192D01*
X7553277Y-16639192D02*
X7562801Y-16620145D01*
X7562801Y-16620145D02*
X7572324Y-16610621D01*
X7572324Y-16610621D02*
X7591372Y-16601097D01*
X7743753Y-16782050D02*
X7753277Y-16791573D01*
X7753277Y-16791573D02*
X7743753Y-16801097D01*
X7743753Y-16801097D02*
X7734229Y-16791573D01*
X7734229Y-16791573D02*
X7743753Y-16782050D01*
X7743753Y-16782050D02*
X7743753Y-16801097D01*
X7819943Y-16601097D02*
X7943753Y-16601097D01*
X7943753Y-16601097D02*
X7877086Y-16677288D01*
X7877086Y-16677288D02*
X7905658Y-16677288D01*
X7905658Y-16677288D02*
X7924705Y-16686811D01*
X7924705Y-16686811D02*
X7934229Y-16696335D01*
X7934229Y-16696335D02*
X7943753Y-16715383D01*
X7943753Y-16715383D02*
X7943753Y-16763002D01*
X7943753Y-16763002D02*
X7934229Y-16782050D01*
X7934229Y-16782050D02*
X7924705Y-16791573D01*
X7924705Y-16791573D02*
X7905658Y-16801097D01*
X7905658Y-16801097D02*
X7848515Y-16801097D01*
X7848515Y-16801097D02*
X7829467Y-16791573D01*
X7829467Y-16791573D02*
X7819943Y-16782050D01*
X8067562Y-16601097D02*
X8086610Y-16601097D01*
X8086610Y-16601097D02*
X8105658Y-16610621D01*
X8105658Y-16610621D02*
X8115182Y-16620145D01*
X8115182Y-16620145D02*
X8124705Y-16639192D01*
X8124705Y-16639192D02*
X8134229Y-16677288D01*
X8134229Y-16677288D02*
X8134229Y-16724907D01*
X8134229Y-16724907D02*
X8124705Y-16763002D01*
X8124705Y-16763002D02*
X8115182Y-16782050D01*
X8115182Y-16782050D02*
X8105658Y-16791573D01*
X8105658Y-16791573D02*
X8086610Y-16801097D01*
X8086610Y-16801097D02*
X8067562Y-16801097D01*
X8067562Y-16801097D02*
X8048515Y-16791573D01*
X8048515Y-16791573D02*
X8038991Y-16782050D01*
X8038991Y-16782050D02*
X8029467Y-16763002D01*
X8029467Y-16763002D02*
X8019943Y-16724907D01*
X8019943Y-16724907D02*
X8019943Y-16677288D01*
X8019943Y-16677288D02*
X8029467Y-16639192D01*
X8029467Y-16639192D02*
X8038991Y-16620145D01*
X8038991Y-16620145D02*
X8048515Y-16610621D01*
X8048515Y-16610621D02*
X8067562Y-16601097D01*
X8258039Y-16601097D02*
X8277086Y-16601097D01*
X8277086Y-16601097D02*
X8296134Y-16610621D01*
X8296134Y-16610621D02*
X8305658Y-16620145D01*
X8305658Y-16620145D02*
X8315182Y-16639192D01*
X8315182Y-16639192D02*
X8324705Y-16677288D01*
X8324705Y-16677288D02*
X8324705Y-16724907D01*
X8324705Y-16724907D02*
X8315182Y-16763002D01*
X8315182Y-16763002D02*
X8305658Y-16782050D01*
X8305658Y-16782050D02*
X8296134Y-16791573D01*
X8296134Y-16791573D02*
X8277086Y-16801097D01*
X8277086Y-16801097D02*
X8258039Y-16801097D01*
X8258039Y-16801097D02*
X8238991Y-16791573D01*
X8238991Y-16791573D02*
X8229467Y-16782050D01*
X8229467Y-16782050D02*
X8219943Y-16763002D01*
X8219943Y-16763002D02*
X8210420Y-16724907D01*
X8210420Y-16724907D02*
X8210420Y-16677288D01*
X8210420Y-16677288D02*
X8219943Y-16639192D01*
X8219943Y-16639192D02*
X8229467Y-16620145D01*
X8229467Y-16620145D02*
X8238991Y-16610621D01*
X8238991Y-16610621D02*
X8258039Y-16601097D01*
X8410420Y-16801097D02*
X8410420Y-16667764D01*
X8410420Y-16686811D02*
X8419944Y-16677288D01*
X8419944Y-16677288D02*
X8438991Y-16667764D01*
X8438991Y-16667764D02*
X8467563Y-16667764D01*
X8467563Y-16667764D02*
X8486610Y-16677288D01*
X8486610Y-16677288D02*
X8496134Y-16696335D01*
X8496134Y-16696335D02*
X8496134Y-16801097D01*
X8496134Y-16696335D02*
X8505658Y-16677288D01*
X8505658Y-16677288D02*
X8524705Y-16667764D01*
X8524705Y-16667764D02*
X8553277Y-16667764D01*
X8553277Y-16667764D02*
X8572325Y-16677288D01*
X8572325Y-16677288D02*
X8581848Y-16696335D01*
X8581848Y-16696335D02*
X8581848Y-16801097D01*
X8677086Y-16801097D02*
X8677086Y-16667764D01*
X8677086Y-16686811D02*
X8686610Y-16677288D01*
X8686610Y-16677288D02*
X8705658Y-16667764D01*
X8705658Y-16667764D02*
X8734229Y-16667764D01*
X8734229Y-16667764D02*
X8753277Y-16677288D01*
X8753277Y-16677288D02*
X8762801Y-16696335D01*
X8762801Y-16696335D02*
X8762801Y-16801097D01*
X8762801Y-16696335D02*
X8772325Y-16677288D01*
X8772325Y-16677288D02*
X8791372Y-16667764D01*
X8791372Y-16667764D02*
X8819944Y-16667764D01*
X8819944Y-16667764D02*
X8838991Y-16677288D01*
X8838991Y-16677288D02*
X8848515Y-16696335D01*
X8848515Y-16696335D02*
X8848515Y-16801097D01*
X9238991Y-16591573D02*
X9067563Y-16848716D01*
X9496134Y-16601097D02*
X9515182Y-16601097D01*
X9515182Y-16601097D02*
X9534229Y-16610621D01*
X9534229Y-16610621D02*
X9543753Y-16620145D01*
X9543753Y-16620145D02*
X9553277Y-16639192D01*
X9553277Y-16639192D02*
X9562801Y-16677288D01*
X9562801Y-16677288D02*
X9562801Y-16724907D01*
X9562801Y-16724907D02*
X9553277Y-16763002D01*
X9553277Y-16763002D02*
X9543753Y-16782050D01*
X9543753Y-16782050D02*
X9534229Y-16791573D01*
X9534229Y-16791573D02*
X9515182Y-16801097D01*
X9515182Y-16801097D02*
X9496134Y-16801097D01*
X9496134Y-16801097D02*
X9477087Y-16791573D01*
X9477087Y-16791573D02*
X9467563Y-16782050D01*
X9467563Y-16782050D02*
X9458039Y-16763002D01*
X9458039Y-16763002D02*
X9448515Y-16724907D01*
X9448515Y-16724907D02*
X9448515Y-16677288D01*
X9448515Y-16677288D02*
X9458039Y-16639192D01*
X9458039Y-16639192D02*
X9467563Y-16620145D01*
X9467563Y-16620145D02*
X9477087Y-16610621D01*
X9477087Y-16610621D02*
X9496134Y-16601097D01*
X9648515Y-16782050D02*
X9658039Y-16791573D01*
X9658039Y-16791573D02*
X9648515Y-16801097D01*
X9648515Y-16801097D02*
X9638991Y-16791573D01*
X9638991Y-16791573D02*
X9648515Y-16782050D01*
X9648515Y-16782050D02*
X9648515Y-16801097D01*
X9781848Y-16601097D02*
X9800896Y-16601097D01*
X9800896Y-16601097D02*
X9819944Y-16610621D01*
X9819944Y-16610621D02*
X9829468Y-16620145D01*
X9829468Y-16620145D02*
X9838991Y-16639192D01*
X9838991Y-16639192D02*
X9848515Y-16677288D01*
X9848515Y-16677288D02*
X9848515Y-16724907D01*
X9848515Y-16724907D02*
X9838991Y-16763002D01*
X9838991Y-16763002D02*
X9829468Y-16782050D01*
X9829468Y-16782050D02*
X9819944Y-16791573D01*
X9819944Y-16791573D02*
X9800896Y-16801097D01*
X9800896Y-16801097D02*
X9781848Y-16801097D01*
X9781848Y-16801097D02*
X9762801Y-16791573D01*
X9762801Y-16791573D02*
X9753277Y-16782050D01*
X9753277Y-16782050D02*
X9743753Y-16763002D01*
X9743753Y-16763002D02*
X9734229Y-16724907D01*
X9734229Y-16724907D02*
X9734229Y-16677288D01*
X9734229Y-16677288D02*
X9743753Y-16639192D01*
X9743753Y-16639192D02*
X9753277Y-16620145D01*
X9753277Y-16620145D02*
X9762801Y-16610621D01*
X9762801Y-16610621D02*
X9781848Y-16601097D01*
X10038991Y-16801097D02*
X9924706Y-16801097D01*
X9981848Y-16801097D02*
X9981848Y-16601097D01*
X9981848Y-16601097D02*
X9962801Y-16629669D01*
X9962801Y-16629669D02*
X9943753Y-16648716D01*
X9943753Y-16648716D02*
X9924706Y-16658240D01*
X10229468Y-16801097D02*
X10115182Y-16801097D01*
X10172325Y-16801097D02*
X10172325Y-16601097D01*
X10172325Y-16601097D02*
X10153277Y-16629669D01*
X10153277Y-16629669D02*
X10134229Y-16648716D01*
X10134229Y-16648716D02*
X10115182Y-16658240D01*
X10343753Y-16686811D02*
X10324706Y-16677288D01*
X10324706Y-16677288D02*
X10315182Y-16667764D01*
X10315182Y-16667764D02*
X10305658Y-16648716D01*
X10305658Y-16648716D02*
X10305658Y-16639192D01*
X10305658Y-16639192D02*
X10315182Y-16620145D01*
X10315182Y-16620145D02*
X10324706Y-16610621D01*
X10324706Y-16610621D02*
X10343753Y-16601097D01*
X10343753Y-16601097D02*
X10381849Y-16601097D01*
X10381849Y-16601097D02*
X10400896Y-16610621D01*
X10400896Y-16610621D02*
X10410420Y-16620145D01*
X10410420Y-16620145D02*
X10419944Y-16639192D01*
X10419944Y-16639192D02*
X10419944Y-16648716D01*
X10419944Y-16648716D02*
X10410420Y-16667764D01*
X10410420Y-16667764D02*
X10400896Y-16677288D01*
X10400896Y-16677288D02*
X10381849Y-16686811D01*
X10381849Y-16686811D02*
X10343753Y-16686811D01*
X10343753Y-16686811D02*
X10324706Y-16696335D01*
X10324706Y-16696335D02*
X10315182Y-16705859D01*
X10315182Y-16705859D02*
X10305658Y-16724907D01*
X10305658Y-16724907D02*
X10305658Y-16763002D01*
X10305658Y-16763002D02*
X10315182Y-16782050D01*
X10315182Y-16782050D02*
X10324706Y-16791573D01*
X10324706Y-16791573D02*
X10343753Y-16801097D01*
X10343753Y-16801097D02*
X10381849Y-16801097D01*
X10381849Y-16801097D02*
X10400896Y-16791573D01*
X10400896Y-16791573D02*
X10410420Y-16782050D01*
X10410420Y-16782050D02*
X10419944Y-16763002D01*
X10419944Y-16763002D02*
X10419944Y-16724907D01*
X10419944Y-16724907D02*
X10410420Y-16705859D01*
X10410420Y-16705859D02*
X10400896Y-16696335D01*
X10400896Y-16696335D02*
X10381849Y-16686811D01*
X10496134Y-16601097D02*
X10496134Y-16639192D01*
X10572325Y-16601097D02*
X10572325Y-16639192D01*
X10867563Y-16877288D02*
X10858039Y-16867764D01*
X10858039Y-16867764D02*
X10838991Y-16839192D01*
X10838991Y-16839192D02*
X10829468Y-16820145D01*
X10829468Y-16820145D02*
X10819944Y-16791573D01*
X10819944Y-16791573D02*
X10810420Y-16743954D01*
X10810420Y-16743954D02*
X10810420Y-16705859D01*
X10810420Y-16705859D02*
X10819944Y-16658240D01*
X10819944Y-16658240D02*
X10829468Y-16629669D01*
X10829468Y-16629669D02*
X10838991Y-16610621D01*
X10838991Y-16610621D02*
X10858039Y-16582049D01*
X10858039Y-16582049D02*
X10867563Y-16572526D01*
X11048515Y-16801097D02*
X10934230Y-16801097D01*
X10991372Y-16801097D02*
X10991372Y-16601097D01*
X10991372Y-16601097D02*
X10972325Y-16629669D01*
X10972325Y-16629669D02*
X10953277Y-16648716D01*
X10953277Y-16648716D02*
X10934230Y-16658240D01*
X11124706Y-16620145D02*
X11134230Y-16610621D01*
X11134230Y-16610621D02*
X11153277Y-16601097D01*
X11153277Y-16601097D02*
X11200896Y-16601097D01*
X11200896Y-16601097D02*
X11219944Y-16610621D01*
X11219944Y-16610621D02*
X11229468Y-16620145D01*
X11229468Y-16620145D02*
X11238991Y-16639192D01*
X11238991Y-16639192D02*
X11238991Y-16658240D01*
X11238991Y-16658240D02*
X11229468Y-16686811D01*
X11229468Y-16686811D02*
X11115182Y-16801097D01*
X11115182Y-16801097D02*
X11238991Y-16801097D01*
X11477087Y-16801097D02*
X11477087Y-16601097D01*
X11562801Y-16801097D02*
X11562801Y-16696335D01*
X11562801Y-16696335D02*
X11553277Y-16677288D01*
X11553277Y-16677288D02*
X11534230Y-16667764D01*
X11534230Y-16667764D02*
X11505658Y-16667764D01*
X11505658Y-16667764D02*
X11486610Y-16677288D01*
X11486610Y-16677288D02*
X11477087Y-16686811D01*
X11686610Y-16801097D02*
X11667563Y-16791573D01*
X11667563Y-16791573D02*
X11658039Y-16782050D01*
X11658039Y-16782050D02*
X11648515Y-16763002D01*
X11648515Y-16763002D02*
X11648515Y-16705859D01*
X11648515Y-16705859D02*
X11658039Y-16686811D01*
X11658039Y-16686811D02*
X11667563Y-16677288D01*
X11667563Y-16677288D02*
X11686610Y-16667764D01*
X11686610Y-16667764D02*
X11715182Y-16667764D01*
X11715182Y-16667764D02*
X11734230Y-16677288D01*
X11734230Y-16677288D02*
X11743753Y-16686811D01*
X11743753Y-16686811D02*
X11753277Y-16705859D01*
X11753277Y-16705859D02*
X11753277Y-16763002D01*
X11753277Y-16763002D02*
X11743753Y-16782050D01*
X11743753Y-16782050D02*
X11734230Y-16791573D01*
X11734230Y-16791573D02*
X11715182Y-16801097D01*
X11715182Y-16801097D02*
X11686610Y-16801097D01*
X11867563Y-16801097D02*
X11848515Y-16791573D01*
X11848515Y-16791573D02*
X11838991Y-16772526D01*
X11838991Y-16772526D02*
X11838991Y-16601097D01*
X12019944Y-16791573D02*
X12000896Y-16801097D01*
X12000896Y-16801097D02*
X11962801Y-16801097D01*
X11962801Y-16801097D02*
X11943753Y-16791573D01*
X11943753Y-16791573D02*
X11934230Y-16772526D01*
X11934230Y-16772526D02*
X11934230Y-16696335D01*
X11934230Y-16696335D02*
X11943753Y-16677288D01*
X11943753Y-16677288D02*
X11962801Y-16667764D01*
X11962801Y-16667764D02*
X12000896Y-16667764D01*
X12000896Y-16667764D02*
X12019944Y-16677288D01*
X12019944Y-16677288D02*
X12029468Y-16696335D01*
X12029468Y-16696335D02*
X12029468Y-16715383D01*
X12029468Y-16715383D02*
X11934230Y-16734430D01*
X12105658Y-16791573D02*
X12124706Y-16801097D01*
X12124706Y-16801097D02*
X12162801Y-16801097D01*
X12162801Y-16801097D02*
X12181849Y-16791573D01*
X12181849Y-16791573D02*
X12191372Y-16772526D01*
X12191372Y-16772526D02*
X12191372Y-16763002D01*
X12191372Y-16763002D02*
X12181849Y-16743954D01*
X12181849Y-16743954D02*
X12162801Y-16734430D01*
X12162801Y-16734430D02*
X12134230Y-16734430D01*
X12134230Y-16734430D02*
X12115182Y-16724907D01*
X12115182Y-16724907D02*
X12105658Y-16705859D01*
X12105658Y-16705859D02*
X12105658Y-16696335D01*
X12105658Y-16696335D02*
X12115182Y-16677288D01*
X12115182Y-16677288D02*
X12134230Y-16667764D01*
X12134230Y-16667764D02*
X12162801Y-16667764D01*
X12162801Y-16667764D02*
X12181849Y-16677288D01*
X12258039Y-16877288D02*
X12267563Y-16867764D01*
X12267563Y-16867764D02*
X12286611Y-16839192D01*
X12286611Y-16839192D02*
X12296134Y-16820145D01*
X12296134Y-16820145D02*
X12305658Y-16791573D01*
X12305658Y-16791573D02*
X12315182Y-16743954D01*
X12315182Y-16743954D02*
X12315182Y-16705859D01*
X12315182Y-16705859D02*
X12305658Y-16658240D01*
X12305658Y-16658240D02*
X12296134Y-16629669D01*
X12296134Y-16629669D02*
X12286611Y-16610621D01*
X12286611Y-16610621D02*
X12267563Y-16582049D01*
X12267563Y-16582049D02*
X12258039Y-16572526D01*
D11*
X7292500Y-16973613D02*
G75*
G02*
X7212500Y-16973613I-40000J0D01*
G01*
X7212500Y-16973613D02*
G75*
G02*
X7292500Y-16973613I40000J0D01*
G01*
D12*
X7591372Y-16865097D02*
X7610420Y-16865097D01*
X7610420Y-16865097D02*
X7629467Y-16874621D01*
X7629467Y-16874621D02*
X7638991Y-16884145D01*
X7638991Y-16884145D02*
X7648515Y-16903192D01*
X7648515Y-16903192D02*
X7658039Y-16941288D01*
X7658039Y-16941288D02*
X7658039Y-16988907D01*
X7658039Y-16988907D02*
X7648515Y-17027002D01*
X7648515Y-17027002D02*
X7638991Y-17046050D01*
X7638991Y-17046050D02*
X7629467Y-17055573D01*
X7629467Y-17055573D02*
X7610420Y-17065097D01*
X7610420Y-17065097D02*
X7591372Y-17065097D01*
X7591372Y-17065097D02*
X7572324Y-17055573D01*
X7572324Y-17055573D02*
X7562801Y-17046050D01*
X7562801Y-17046050D02*
X7553277Y-17027002D01*
X7553277Y-17027002D02*
X7543753Y-16988907D01*
X7543753Y-16988907D02*
X7543753Y-16941288D01*
X7543753Y-16941288D02*
X7553277Y-16903192D01*
X7553277Y-16903192D02*
X7562801Y-16884145D01*
X7562801Y-16884145D02*
X7572324Y-16874621D01*
X7572324Y-16874621D02*
X7591372Y-16865097D01*
X7743753Y-17046050D02*
X7753277Y-17055573D01*
X7753277Y-17055573D02*
X7743753Y-17065097D01*
X7743753Y-17065097D02*
X7734229Y-17055573D01*
X7734229Y-17055573D02*
X7743753Y-17046050D01*
X7743753Y-17046050D02*
X7743753Y-17065097D01*
X7867562Y-16950811D02*
X7848515Y-16941288D01*
X7848515Y-16941288D02*
X7838991Y-16931764D01*
X7838991Y-16931764D02*
X7829467Y-16912716D01*
X7829467Y-16912716D02*
X7829467Y-16903192D01*
X7829467Y-16903192D02*
X7838991Y-16884145D01*
X7838991Y-16884145D02*
X7848515Y-16874621D01*
X7848515Y-16874621D02*
X7867562Y-16865097D01*
X7867562Y-16865097D02*
X7905658Y-16865097D01*
X7905658Y-16865097D02*
X7924705Y-16874621D01*
X7924705Y-16874621D02*
X7934229Y-16884145D01*
X7934229Y-16884145D02*
X7943753Y-16903192D01*
X7943753Y-16903192D02*
X7943753Y-16912716D01*
X7943753Y-16912716D02*
X7934229Y-16931764D01*
X7934229Y-16931764D02*
X7924705Y-16941288D01*
X7924705Y-16941288D02*
X7905658Y-16950811D01*
X7905658Y-16950811D02*
X7867562Y-16950811D01*
X7867562Y-16950811D02*
X7848515Y-16960335D01*
X7848515Y-16960335D02*
X7838991Y-16969859D01*
X7838991Y-16969859D02*
X7829467Y-16988907D01*
X7829467Y-16988907D02*
X7829467Y-17027002D01*
X7829467Y-17027002D02*
X7838991Y-17046050D01*
X7838991Y-17046050D02*
X7848515Y-17055573D01*
X7848515Y-17055573D02*
X7867562Y-17065097D01*
X7867562Y-17065097D02*
X7905658Y-17065097D01*
X7905658Y-17065097D02*
X7924705Y-17055573D01*
X7924705Y-17055573D02*
X7934229Y-17046050D01*
X7934229Y-17046050D02*
X7943753Y-17027002D01*
X7943753Y-17027002D02*
X7943753Y-16988907D01*
X7943753Y-16988907D02*
X7934229Y-16969859D01*
X7934229Y-16969859D02*
X7924705Y-16960335D01*
X7924705Y-16960335D02*
X7905658Y-16950811D01*
X8067562Y-16865097D02*
X8086610Y-16865097D01*
X8086610Y-16865097D02*
X8105658Y-16874621D01*
X8105658Y-16874621D02*
X8115182Y-16884145D01*
X8115182Y-16884145D02*
X8124705Y-16903192D01*
X8124705Y-16903192D02*
X8134229Y-16941288D01*
X8134229Y-16941288D02*
X8134229Y-16988907D01*
X8134229Y-16988907D02*
X8124705Y-17027002D01*
X8124705Y-17027002D02*
X8115182Y-17046050D01*
X8115182Y-17046050D02*
X8105658Y-17055573D01*
X8105658Y-17055573D02*
X8086610Y-17065097D01*
X8086610Y-17065097D02*
X8067562Y-17065097D01*
X8067562Y-17065097D02*
X8048515Y-17055573D01*
X8048515Y-17055573D02*
X8038991Y-17046050D01*
X8038991Y-17046050D02*
X8029467Y-17027002D01*
X8029467Y-17027002D02*
X8019943Y-16988907D01*
X8019943Y-16988907D02*
X8019943Y-16941288D01*
X8019943Y-16941288D02*
X8029467Y-16903192D01*
X8029467Y-16903192D02*
X8038991Y-16884145D01*
X8038991Y-16884145D02*
X8048515Y-16874621D01*
X8048515Y-16874621D02*
X8067562Y-16865097D01*
X8258039Y-16865097D02*
X8277086Y-16865097D01*
X8277086Y-16865097D02*
X8296134Y-16874621D01*
X8296134Y-16874621D02*
X8305658Y-16884145D01*
X8305658Y-16884145D02*
X8315182Y-16903192D01*
X8315182Y-16903192D02*
X8324705Y-16941288D01*
X8324705Y-16941288D02*
X8324705Y-16988907D01*
X8324705Y-16988907D02*
X8315182Y-17027002D01*
X8315182Y-17027002D02*
X8305658Y-17046050D01*
X8305658Y-17046050D02*
X8296134Y-17055573D01*
X8296134Y-17055573D02*
X8277086Y-17065097D01*
X8277086Y-17065097D02*
X8258039Y-17065097D01*
X8258039Y-17065097D02*
X8238991Y-17055573D01*
X8238991Y-17055573D02*
X8229467Y-17046050D01*
X8229467Y-17046050D02*
X8219943Y-17027002D01*
X8219943Y-17027002D02*
X8210420Y-16988907D01*
X8210420Y-16988907D02*
X8210420Y-16941288D01*
X8210420Y-16941288D02*
X8219943Y-16903192D01*
X8219943Y-16903192D02*
X8229467Y-16884145D01*
X8229467Y-16884145D02*
X8238991Y-16874621D01*
X8238991Y-16874621D02*
X8258039Y-16865097D01*
X8410420Y-17065097D02*
X8410420Y-16931764D01*
X8410420Y-16950811D02*
X8419944Y-16941288D01*
X8419944Y-16941288D02*
X8438991Y-16931764D01*
X8438991Y-16931764D02*
X8467563Y-16931764D01*
X8467563Y-16931764D02*
X8486610Y-16941288D01*
X8486610Y-16941288D02*
X8496134Y-16960335D01*
X8496134Y-16960335D02*
X8496134Y-17065097D01*
X8496134Y-16960335D02*
X8505658Y-16941288D01*
X8505658Y-16941288D02*
X8524705Y-16931764D01*
X8524705Y-16931764D02*
X8553277Y-16931764D01*
X8553277Y-16931764D02*
X8572325Y-16941288D01*
X8572325Y-16941288D02*
X8581848Y-16960335D01*
X8581848Y-16960335D02*
X8581848Y-17065097D01*
X8677086Y-17065097D02*
X8677086Y-16931764D01*
X8677086Y-16950811D02*
X8686610Y-16941288D01*
X8686610Y-16941288D02*
X8705658Y-16931764D01*
X8705658Y-16931764D02*
X8734229Y-16931764D01*
X8734229Y-16931764D02*
X8753277Y-16941288D01*
X8753277Y-16941288D02*
X8762801Y-16960335D01*
X8762801Y-16960335D02*
X8762801Y-17065097D01*
X8762801Y-16960335D02*
X8772325Y-16941288D01*
X8772325Y-16941288D02*
X8791372Y-16931764D01*
X8791372Y-16931764D02*
X8819944Y-16931764D01*
X8819944Y-16931764D02*
X8838991Y-16941288D01*
X8838991Y-16941288D02*
X8848515Y-16960335D01*
X8848515Y-16960335D02*
X8848515Y-17065097D01*
X9238991Y-16855573D02*
X9067563Y-17112716D01*
X9496134Y-16865097D02*
X9515182Y-16865097D01*
X9515182Y-16865097D02*
X9534229Y-16874621D01*
X9534229Y-16874621D02*
X9543753Y-16884145D01*
X9543753Y-16884145D02*
X9553277Y-16903192D01*
X9553277Y-16903192D02*
X9562801Y-16941288D01*
X9562801Y-16941288D02*
X9562801Y-16988907D01*
X9562801Y-16988907D02*
X9553277Y-17027002D01*
X9553277Y-17027002D02*
X9543753Y-17046050D01*
X9543753Y-17046050D02*
X9534229Y-17055573D01*
X9534229Y-17055573D02*
X9515182Y-17065097D01*
X9515182Y-17065097D02*
X9496134Y-17065097D01*
X9496134Y-17065097D02*
X9477087Y-17055573D01*
X9477087Y-17055573D02*
X9467563Y-17046050D01*
X9467563Y-17046050D02*
X9458039Y-17027002D01*
X9458039Y-17027002D02*
X9448515Y-16988907D01*
X9448515Y-16988907D02*
X9448515Y-16941288D01*
X9448515Y-16941288D02*
X9458039Y-16903192D01*
X9458039Y-16903192D02*
X9467563Y-16884145D01*
X9467563Y-16884145D02*
X9477087Y-16874621D01*
X9477087Y-16874621D02*
X9496134Y-16865097D01*
X9648515Y-17046050D02*
X9658039Y-17055573D01*
X9658039Y-17055573D02*
X9648515Y-17065097D01*
X9648515Y-17065097D02*
X9638991Y-17055573D01*
X9638991Y-17055573D02*
X9648515Y-17046050D01*
X9648515Y-17046050D02*
X9648515Y-17065097D01*
X9781848Y-16865097D02*
X9800896Y-16865097D01*
X9800896Y-16865097D02*
X9819944Y-16874621D01*
X9819944Y-16874621D02*
X9829468Y-16884145D01*
X9829468Y-16884145D02*
X9838991Y-16903192D01*
X9838991Y-16903192D02*
X9848515Y-16941288D01*
X9848515Y-16941288D02*
X9848515Y-16988907D01*
X9848515Y-16988907D02*
X9838991Y-17027002D01*
X9838991Y-17027002D02*
X9829468Y-17046050D01*
X9829468Y-17046050D02*
X9819944Y-17055573D01*
X9819944Y-17055573D02*
X9800896Y-17065097D01*
X9800896Y-17065097D02*
X9781848Y-17065097D01*
X9781848Y-17065097D02*
X9762801Y-17055573D01*
X9762801Y-17055573D02*
X9753277Y-17046050D01*
X9753277Y-17046050D02*
X9743753Y-17027002D01*
X9743753Y-17027002D02*
X9734229Y-16988907D01*
X9734229Y-16988907D02*
X9734229Y-16941288D01*
X9734229Y-16941288D02*
X9743753Y-16903192D01*
X9743753Y-16903192D02*
X9753277Y-16884145D01*
X9753277Y-16884145D02*
X9762801Y-16874621D01*
X9762801Y-16874621D02*
X9781848Y-16865097D01*
X9915182Y-16865097D02*
X10038991Y-16865097D01*
X10038991Y-16865097D02*
X9972325Y-16941288D01*
X9972325Y-16941288D02*
X10000896Y-16941288D01*
X10000896Y-16941288D02*
X10019944Y-16950811D01*
X10019944Y-16950811D02*
X10029468Y-16960335D01*
X10029468Y-16960335D02*
X10038991Y-16979383D01*
X10038991Y-16979383D02*
X10038991Y-17027002D01*
X10038991Y-17027002D02*
X10029468Y-17046050D01*
X10029468Y-17046050D02*
X10019944Y-17055573D01*
X10019944Y-17055573D02*
X10000896Y-17065097D01*
X10000896Y-17065097D02*
X9943753Y-17065097D01*
X9943753Y-17065097D02*
X9924706Y-17055573D01*
X9924706Y-17055573D02*
X9915182Y-17046050D01*
X10229468Y-17065097D02*
X10115182Y-17065097D01*
X10172325Y-17065097D02*
X10172325Y-16865097D01*
X10172325Y-16865097D02*
X10153277Y-16893669D01*
X10153277Y-16893669D02*
X10134229Y-16912716D01*
X10134229Y-16912716D02*
X10115182Y-16922240D01*
X10410420Y-16865097D02*
X10315182Y-16865097D01*
X10315182Y-16865097D02*
X10305658Y-16960335D01*
X10305658Y-16960335D02*
X10315182Y-16950811D01*
X10315182Y-16950811D02*
X10334229Y-16941288D01*
X10334229Y-16941288D02*
X10381849Y-16941288D01*
X10381849Y-16941288D02*
X10400896Y-16950811D01*
X10400896Y-16950811D02*
X10410420Y-16960335D01*
X10410420Y-16960335D02*
X10419944Y-16979383D01*
X10419944Y-16979383D02*
X10419944Y-17027002D01*
X10419944Y-17027002D02*
X10410420Y-17046050D01*
X10410420Y-17046050D02*
X10400896Y-17055573D01*
X10400896Y-17055573D02*
X10381849Y-17065097D01*
X10381849Y-17065097D02*
X10334229Y-17065097D01*
X10334229Y-17065097D02*
X10315182Y-17055573D01*
X10315182Y-17055573D02*
X10305658Y-17046050D01*
X10496134Y-16865097D02*
X10496134Y-16903192D01*
X10572325Y-16865097D02*
X10572325Y-16903192D01*
X10867563Y-17141288D02*
X10858039Y-17131764D01*
X10858039Y-17131764D02*
X10838991Y-17103192D01*
X10838991Y-17103192D02*
X10829468Y-17084145D01*
X10829468Y-17084145D02*
X10819944Y-17055573D01*
X10819944Y-17055573D02*
X10810420Y-17007954D01*
X10810420Y-17007954D02*
X10810420Y-16969859D01*
X10810420Y-16969859D02*
X10819944Y-16922240D01*
X10819944Y-16922240D02*
X10829468Y-16893669D01*
X10829468Y-16893669D02*
X10838991Y-16874621D01*
X10838991Y-16874621D02*
X10858039Y-16846050D01*
X10858039Y-16846050D02*
X10867563Y-16836526D01*
X10924706Y-16865097D02*
X11048515Y-16865097D01*
X11048515Y-16865097D02*
X10981849Y-16941288D01*
X10981849Y-16941288D02*
X11010420Y-16941288D01*
X11010420Y-16941288D02*
X11029468Y-16950811D01*
X11029468Y-16950811D02*
X11038991Y-16960335D01*
X11038991Y-16960335D02*
X11048515Y-16979383D01*
X11048515Y-16979383D02*
X11048515Y-17027002D01*
X11048515Y-17027002D02*
X11038991Y-17046050D01*
X11038991Y-17046050D02*
X11029468Y-17055573D01*
X11029468Y-17055573D02*
X11010420Y-17065097D01*
X11010420Y-17065097D02*
X10953277Y-17065097D01*
X10953277Y-17065097D02*
X10934230Y-17055573D01*
X10934230Y-17055573D02*
X10924706Y-17046050D01*
X11124706Y-16884145D02*
X11134230Y-16874621D01*
X11134230Y-16874621D02*
X11153277Y-16865097D01*
X11153277Y-16865097D02*
X11200896Y-16865097D01*
X11200896Y-16865097D02*
X11219944Y-16874621D01*
X11219944Y-16874621D02*
X11229468Y-16884145D01*
X11229468Y-16884145D02*
X11238991Y-16903192D01*
X11238991Y-16903192D02*
X11238991Y-16922240D01*
X11238991Y-16922240D02*
X11229468Y-16950811D01*
X11229468Y-16950811D02*
X11115182Y-17065097D01*
X11115182Y-17065097D02*
X11238991Y-17065097D01*
X11477087Y-17065097D02*
X11477087Y-16865097D01*
X11562801Y-17065097D02*
X11562801Y-16960335D01*
X11562801Y-16960335D02*
X11553277Y-16941288D01*
X11553277Y-16941288D02*
X11534230Y-16931764D01*
X11534230Y-16931764D02*
X11505658Y-16931764D01*
X11505658Y-16931764D02*
X11486610Y-16941288D01*
X11486610Y-16941288D02*
X11477087Y-16950811D01*
X11686610Y-17065097D02*
X11667563Y-17055573D01*
X11667563Y-17055573D02*
X11658039Y-17046050D01*
X11658039Y-17046050D02*
X11648515Y-17027002D01*
X11648515Y-17027002D02*
X11648515Y-16969859D01*
X11648515Y-16969859D02*
X11658039Y-16950811D01*
X11658039Y-16950811D02*
X11667563Y-16941288D01*
X11667563Y-16941288D02*
X11686610Y-16931764D01*
X11686610Y-16931764D02*
X11715182Y-16931764D01*
X11715182Y-16931764D02*
X11734230Y-16941288D01*
X11734230Y-16941288D02*
X11743753Y-16950811D01*
X11743753Y-16950811D02*
X11753277Y-16969859D01*
X11753277Y-16969859D02*
X11753277Y-17027002D01*
X11753277Y-17027002D02*
X11743753Y-17046050D01*
X11743753Y-17046050D02*
X11734230Y-17055573D01*
X11734230Y-17055573D02*
X11715182Y-17065097D01*
X11715182Y-17065097D02*
X11686610Y-17065097D01*
X11867563Y-17065097D02*
X11848515Y-17055573D01*
X11848515Y-17055573D02*
X11838991Y-17036526D01*
X11838991Y-17036526D02*
X11838991Y-16865097D01*
X12019944Y-17055573D02*
X12000896Y-17065097D01*
X12000896Y-17065097D02*
X11962801Y-17065097D01*
X11962801Y-17065097D02*
X11943753Y-17055573D01*
X11943753Y-17055573D02*
X11934230Y-17036526D01*
X11934230Y-17036526D02*
X11934230Y-16960335D01*
X11934230Y-16960335D02*
X11943753Y-16941288D01*
X11943753Y-16941288D02*
X11962801Y-16931764D01*
X11962801Y-16931764D02*
X12000896Y-16931764D01*
X12000896Y-16931764D02*
X12019944Y-16941288D01*
X12019944Y-16941288D02*
X12029468Y-16960335D01*
X12029468Y-16960335D02*
X12029468Y-16979383D01*
X12029468Y-16979383D02*
X11934230Y-16998431D01*
X12105658Y-17055573D02*
X12124706Y-17065097D01*
X12124706Y-17065097D02*
X12162801Y-17065097D01*
X12162801Y-17065097D02*
X12181849Y-17055573D01*
X12181849Y-17055573D02*
X12191372Y-17036526D01*
X12191372Y-17036526D02*
X12191372Y-17027002D01*
X12191372Y-17027002D02*
X12181849Y-17007954D01*
X12181849Y-17007954D02*
X12162801Y-16998431D01*
X12162801Y-16998431D02*
X12134230Y-16998431D01*
X12134230Y-16998431D02*
X12115182Y-16988907D01*
X12115182Y-16988907D02*
X12105658Y-16969859D01*
X12105658Y-16969859D02*
X12105658Y-16960335D01*
X12105658Y-16960335D02*
X12115182Y-16941288D01*
X12115182Y-16941288D02*
X12134230Y-16931764D01*
X12134230Y-16931764D02*
X12162801Y-16931764D01*
X12162801Y-16931764D02*
X12181849Y-16941288D01*
X12258039Y-17141288D02*
X12267563Y-17131764D01*
X12267563Y-17131764D02*
X12286611Y-17103192D01*
X12286611Y-17103192D02*
X12296134Y-17084145D01*
X12296134Y-17084145D02*
X12305658Y-17055573D01*
X12305658Y-17055573D02*
X12315182Y-17007954D01*
X12315182Y-17007954D02*
X12315182Y-16969859D01*
X12315182Y-16969859D02*
X12305658Y-16922240D01*
X12305658Y-16922240D02*
X12296134Y-16893669D01*
X12296134Y-16893669D02*
X12286611Y-16874621D01*
X12286611Y-16874621D02*
X12267563Y-16846050D01*
X12267563Y-16846050D02*
X12258039Y-16836526D01*
D11*
X7242500Y-17187613D02*
X7242500Y-17287613D01*
X7192500Y-17237613D02*
X7292500Y-17237613D01*
D12*
X7658039Y-17329097D02*
X7543753Y-17329097D01*
X7600896Y-17329097D02*
X7600896Y-17129097D01*
X7600896Y-17129097D02*
X7581848Y-17157669D01*
X7581848Y-17157669D02*
X7562801Y-17176716D01*
X7562801Y-17176716D02*
X7543753Y-17186240D01*
X7743753Y-17310050D02*
X7753277Y-17319573D01*
X7753277Y-17319573D02*
X7743753Y-17329097D01*
X7743753Y-17329097D02*
X7734229Y-17319573D01*
X7734229Y-17319573D02*
X7743753Y-17310050D01*
X7743753Y-17310050D02*
X7743753Y-17329097D01*
X7877086Y-17129097D02*
X7896134Y-17129097D01*
X7896134Y-17129097D02*
X7915182Y-17138621D01*
X7915182Y-17138621D02*
X7924705Y-17148145D01*
X7924705Y-17148145D02*
X7934229Y-17167192D01*
X7934229Y-17167192D02*
X7943753Y-17205288D01*
X7943753Y-17205288D02*
X7943753Y-17252907D01*
X7943753Y-17252907D02*
X7934229Y-17291002D01*
X7934229Y-17291002D02*
X7924705Y-17310050D01*
X7924705Y-17310050D02*
X7915182Y-17319573D01*
X7915182Y-17319573D02*
X7896134Y-17329097D01*
X7896134Y-17329097D02*
X7877086Y-17329097D01*
X7877086Y-17329097D02*
X7858039Y-17319573D01*
X7858039Y-17319573D02*
X7848515Y-17310050D01*
X7848515Y-17310050D02*
X7838991Y-17291002D01*
X7838991Y-17291002D02*
X7829467Y-17252907D01*
X7829467Y-17252907D02*
X7829467Y-17205288D01*
X7829467Y-17205288D02*
X7838991Y-17167192D01*
X7838991Y-17167192D02*
X7848515Y-17148145D01*
X7848515Y-17148145D02*
X7858039Y-17138621D01*
X7858039Y-17138621D02*
X7877086Y-17129097D01*
X8067562Y-17129097D02*
X8086610Y-17129097D01*
X8086610Y-17129097D02*
X8105658Y-17138621D01*
X8105658Y-17138621D02*
X8115182Y-17148145D01*
X8115182Y-17148145D02*
X8124705Y-17167192D01*
X8124705Y-17167192D02*
X8134229Y-17205288D01*
X8134229Y-17205288D02*
X8134229Y-17252907D01*
X8134229Y-17252907D02*
X8124705Y-17291002D01*
X8124705Y-17291002D02*
X8115182Y-17310050D01*
X8115182Y-17310050D02*
X8105658Y-17319573D01*
X8105658Y-17319573D02*
X8086610Y-17329097D01*
X8086610Y-17329097D02*
X8067562Y-17329097D01*
X8067562Y-17329097D02*
X8048515Y-17319573D01*
X8048515Y-17319573D02*
X8038991Y-17310050D01*
X8038991Y-17310050D02*
X8029467Y-17291002D01*
X8029467Y-17291002D02*
X8019943Y-17252907D01*
X8019943Y-17252907D02*
X8019943Y-17205288D01*
X8019943Y-17205288D02*
X8029467Y-17167192D01*
X8029467Y-17167192D02*
X8038991Y-17148145D01*
X8038991Y-17148145D02*
X8048515Y-17138621D01*
X8048515Y-17138621D02*
X8067562Y-17129097D01*
X8258039Y-17129097D02*
X8277086Y-17129097D01*
X8277086Y-17129097D02*
X8296134Y-17138621D01*
X8296134Y-17138621D02*
X8305658Y-17148145D01*
X8305658Y-17148145D02*
X8315182Y-17167192D01*
X8315182Y-17167192D02*
X8324705Y-17205288D01*
X8324705Y-17205288D02*
X8324705Y-17252907D01*
X8324705Y-17252907D02*
X8315182Y-17291002D01*
X8315182Y-17291002D02*
X8305658Y-17310050D01*
X8305658Y-17310050D02*
X8296134Y-17319573D01*
X8296134Y-17319573D02*
X8277086Y-17329097D01*
X8277086Y-17329097D02*
X8258039Y-17329097D01*
X8258039Y-17329097D02*
X8238991Y-17319573D01*
X8238991Y-17319573D02*
X8229467Y-17310050D01*
X8229467Y-17310050D02*
X8219943Y-17291002D01*
X8219943Y-17291002D02*
X8210420Y-17252907D01*
X8210420Y-17252907D02*
X8210420Y-17205288D01*
X8210420Y-17205288D02*
X8219943Y-17167192D01*
X8219943Y-17167192D02*
X8229467Y-17148145D01*
X8229467Y-17148145D02*
X8238991Y-17138621D01*
X8238991Y-17138621D02*
X8258039Y-17129097D01*
X8410420Y-17329097D02*
X8410420Y-17195764D01*
X8410420Y-17214811D02*
X8419944Y-17205288D01*
X8419944Y-17205288D02*
X8438991Y-17195764D01*
X8438991Y-17195764D02*
X8467563Y-17195764D01*
X8467563Y-17195764D02*
X8486610Y-17205288D01*
X8486610Y-17205288D02*
X8496134Y-17224335D01*
X8496134Y-17224335D02*
X8496134Y-17329097D01*
X8496134Y-17224335D02*
X8505658Y-17205288D01*
X8505658Y-17205288D02*
X8524705Y-17195764D01*
X8524705Y-17195764D02*
X8553277Y-17195764D01*
X8553277Y-17195764D02*
X8572325Y-17205288D01*
X8572325Y-17205288D02*
X8581848Y-17224335D01*
X8581848Y-17224335D02*
X8581848Y-17329097D01*
X8677086Y-17329097D02*
X8677086Y-17195764D01*
X8677086Y-17214811D02*
X8686610Y-17205288D01*
X8686610Y-17205288D02*
X8705658Y-17195764D01*
X8705658Y-17195764D02*
X8734229Y-17195764D01*
X8734229Y-17195764D02*
X8753277Y-17205288D01*
X8753277Y-17205288D02*
X8762801Y-17224335D01*
X8762801Y-17224335D02*
X8762801Y-17329097D01*
X8762801Y-17224335D02*
X8772325Y-17205288D01*
X8772325Y-17205288D02*
X8791372Y-17195764D01*
X8791372Y-17195764D02*
X8819944Y-17195764D01*
X8819944Y-17195764D02*
X8838991Y-17205288D01*
X8838991Y-17205288D02*
X8848515Y-17224335D01*
X8848515Y-17224335D02*
X8848515Y-17329097D01*
X9238991Y-17119573D02*
X9067563Y-17376716D01*
X9496134Y-17129097D02*
X9515182Y-17129097D01*
X9515182Y-17129097D02*
X9534229Y-17138621D01*
X9534229Y-17138621D02*
X9543753Y-17148145D01*
X9543753Y-17148145D02*
X9553277Y-17167192D01*
X9553277Y-17167192D02*
X9562801Y-17205288D01*
X9562801Y-17205288D02*
X9562801Y-17252907D01*
X9562801Y-17252907D02*
X9553277Y-17291002D01*
X9553277Y-17291002D02*
X9543753Y-17310050D01*
X9543753Y-17310050D02*
X9534229Y-17319573D01*
X9534229Y-17319573D02*
X9515182Y-17329097D01*
X9515182Y-17329097D02*
X9496134Y-17329097D01*
X9496134Y-17329097D02*
X9477087Y-17319573D01*
X9477087Y-17319573D02*
X9467563Y-17310050D01*
X9467563Y-17310050D02*
X9458039Y-17291002D01*
X9458039Y-17291002D02*
X9448515Y-17252907D01*
X9448515Y-17252907D02*
X9448515Y-17205288D01*
X9448515Y-17205288D02*
X9458039Y-17167192D01*
X9458039Y-17167192D02*
X9467563Y-17148145D01*
X9467563Y-17148145D02*
X9477087Y-17138621D01*
X9477087Y-17138621D02*
X9496134Y-17129097D01*
X9648515Y-17310050D02*
X9658039Y-17319573D01*
X9658039Y-17319573D02*
X9648515Y-17329097D01*
X9648515Y-17329097D02*
X9638991Y-17319573D01*
X9638991Y-17319573D02*
X9648515Y-17310050D01*
X9648515Y-17310050D02*
X9648515Y-17329097D01*
X9781848Y-17129097D02*
X9800896Y-17129097D01*
X9800896Y-17129097D02*
X9819944Y-17138621D01*
X9819944Y-17138621D02*
X9829468Y-17148145D01*
X9829468Y-17148145D02*
X9838991Y-17167192D01*
X9838991Y-17167192D02*
X9848515Y-17205288D01*
X9848515Y-17205288D02*
X9848515Y-17252907D01*
X9848515Y-17252907D02*
X9838991Y-17291002D01*
X9838991Y-17291002D02*
X9829468Y-17310050D01*
X9829468Y-17310050D02*
X9819944Y-17319573D01*
X9819944Y-17319573D02*
X9800896Y-17329097D01*
X9800896Y-17329097D02*
X9781848Y-17329097D01*
X9781848Y-17329097D02*
X9762801Y-17319573D01*
X9762801Y-17319573D02*
X9753277Y-17310050D01*
X9753277Y-17310050D02*
X9743753Y-17291002D01*
X9743753Y-17291002D02*
X9734229Y-17252907D01*
X9734229Y-17252907D02*
X9734229Y-17205288D01*
X9734229Y-17205288D02*
X9743753Y-17167192D01*
X9743753Y-17167192D02*
X9753277Y-17148145D01*
X9753277Y-17148145D02*
X9762801Y-17138621D01*
X9762801Y-17138621D02*
X9781848Y-17129097D01*
X9915182Y-17129097D02*
X10038991Y-17129097D01*
X10038991Y-17129097D02*
X9972325Y-17205288D01*
X9972325Y-17205288D02*
X10000896Y-17205288D01*
X10000896Y-17205288D02*
X10019944Y-17214811D01*
X10019944Y-17214811D02*
X10029468Y-17224335D01*
X10029468Y-17224335D02*
X10038991Y-17243383D01*
X10038991Y-17243383D02*
X10038991Y-17291002D01*
X10038991Y-17291002D02*
X10029468Y-17310050D01*
X10029468Y-17310050D02*
X10019944Y-17319573D01*
X10019944Y-17319573D02*
X10000896Y-17329097D01*
X10000896Y-17329097D02*
X9943753Y-17329097D01*
X9943753Y-17329097D02*
X9924706Y-17319573D01*
X9924706Y-17319573D02*
X9915182Y-17310050D01*
X10134229Y-17329097D02*
X10172325Y-17329097D01*
X10172325Y-17329097D02*
X10191372Y-17319573D01*
X10191372Y-17319573D02*
X10200896Y-17310050D01*
X10200896Y-17310050D02*
X10219944Y-17281478D01*
X10219944Y-17281478D02*
X10229468Y-17243383D01*
X10229468Y-17243383D02*
X10229468Y-17167192D01*
X10229468Y-17167192D02*
X10219944Y-17148145D01*
X10219944Y-17148145D02*
X10210420Y-17138621D01*
X10210420Y-17138621D02*
X10191372Y-17129097D01*
X10191372Y-17129097D02*
X10153277Y-17129097D01*
X10153277Y-17129097D02*
X10134229Y-17138621D01*
X10134229Y-17138621D02*
X10124706Y-17148145D01*
X10124706Y-17148145D02*
X10115182Y-17167192D01*
X10115182Y-17167192D02*
X10115182Y-17214811D01*
X10115182Y-17214811D02*
X10124706Y-17233859D01*
X10124706Y-17233859D02*
X10134229Y-17243383D01*
X10134229Y-17243383D02*
X10153277Y-17252907D01*
X10153277Y-17252907D02*
X10191372Y-17252907D01*
X10191372Y-17252907D02*
X10210420Y-17243383D01*
X10210420Y-17243383D02*
X10219944Y-17233859D01*
X10219944Y-17233859D02*
X10229468Y-17214811D01*
X10400896Y-17195764D02*
X10400896Y-17329097D01*
X10353277Y-17119573D02*
X10305658Y-17262431D01*
X10305658Y-17262431D02*
X10429468Y-17262431D01*
X10496134Y-17129097D02*
X10496134Y-17167192D01*
X10572325Y-17129097D02*
X10572325Y-17167192D01*
X10867563Y-17405288D02*
X10858039Y-17395764D01*
X10858039Y-17395764D02*
X10838991Y-17367192D01*
X10838991Y-17367192D02*
X10829468Y-17348145D01*
X10829468Y-17348145D02*
X10819944Y-17319573D01*
X10819944Y-17319573D02*
X10810420Y-17271954D01*
X10810420Y-17271954D02*
X10810420Y-17233859D01*
X10810420Y-17233859D02*
X10819944Y-17186240D01*
X10819944Y-17186240D02*
X10829468Y-17157669D01*
X10829468Y-17157669D02*
X10838991Y-17138621D01*
X10838991Y-17138621D02*
X10858039Y-17110050D01*
X10858039Y-17110050D02*
X10867563Y-17100526D01*
X10972325Y-17214811D02*
X10953277Y-17205288D01*
X10953277Y-17205288D02*
X10943753Y-17195764D01*
X10943753Y-17195764D02*
X10934230Y-17176716D01*
X10934230Y-17176716D02*
X10934230Y-17167192D01*
X10934230Y-17167192D02*
X10943753Y-17148145D01*
X10943753Y-17148145D02*
X10953277Y-17138621D01*
X10953277Y-17138621D02*
X10972325Y-17129097D01*
X10972325Y-17129097D02*
X11010420Y-17129097D01*
X11010420Y-17129097D02*
X11029468Y-17138621D01*
X11029468Y-17138621D02*
X11038991Y-17148145D01*
X11038991Y-17148145D02*
X11048515Y-17167192D01*
X11048515Y-17167192D02*
X11048515Y-17176716D01*
X11048515Y-17176716D02*
X11038991Y-17195764D01*
X11038991Y-17195764D02*
X11029468Y-17205288D01*
X11029468Y-17205288D02*
X11010420Y-17214811D01*
X11010420Y-17214811D02*
X10972325Y-17214811D01*
X10972325Y-17214811D02*
X10953277Y-17224335D01*
X10953277Y-17224335D02*
X10943753Y-17233859D01*
X10943753Y-17233859D02*
X10934230Y-17252907D01*
X10934230Y-17252907D02*
X10934230Y-17291002D01*
X10934230Y-17291002D02*
X10943753Y-17310050D01*
X10943753Y-17310050D02*
X10953277Y-17319573D01*
X10953277Y-17319573D02*
X10972325Y-17329097D01*
X10972325Y-17329097D02*
X11010420Y-17329097D01*
X11010420Y-17329097D02*
X11029468Y-17319573D01*
X11029468Y-17319573D02*
X11038991Y-17310050D01*
X11038991Y-17310050D02*
X11048515Y-17291002D01*
X11048515Y-17291002D02*
X11048515Y-17252907D01*
X11048515Y-17252907D02*
X11038991Y-17233859D01*
X11038991Y-17233859D02*
X11029468Y-17224335D01*
X11029468Y-17224335D02*
X11010420Y-17214811D01*
X11286610Y-17329097D02*
X11286610Y-17129097D01*
X11372325Y-17329097D02*
X11372325Y-17224335D01*
X11372325Y-17224335D02*
X11362801Y-17205288D01*
X11362801Y-17205288D02*
X11343753Y-17195764D01*
X11343753Y-17195764D02*
X11315182Y-17195764D01*
X11315182Y-17195764D02*
X11296134Y-17205288D01*
X11296134Y-17205288D02*
X11286610Y-17214811D01*
X11496134Y-17329097D02*
X11477087Y-17319573D01*
X11477087Y-17319573D02*
X11467563Y-17310050D01*
X11467563Y-17310050D02*
X11458039Y-17291002D01*
X11458039Y-17291002D02*
X11458039Y-17233859D01*
X11458039Y-17233859D02*
X11467563Y-17214811D01*
X11467563Y-17214811D02*
X11477087Y-17205288D01*
X11477087Y-17205288D02*
X11496134Y-17195764D01*
X11496134Y-17195764D02*
X11524706Y-17195764D01*
X11524706Y-17195764D02*
X11543753Y-17205288D01*
X11543753Y-17205288D02*
X11553277Y-17214811D01*
X11553277Y-17214811D02*
X11562801Y-17233859D01*
X11562801Y-17233859D02*
X11562801Y-17291002D01*
X11562801Y-17291002D02*
X11553277Y-17310050D01*
X11553277Y-17310050D02*
X11543753Y-17319573D01*
X11543753Y-17319573D02*
X11524706Y-17329097D01*
X11524706Y-17329097D02*
X11496134Y-17329097D01*
X11677087Y-17329097D02*
X11658039Y-17319573D01*
X11658039Y-17319573D02*
X11648515Y-17300526D01*
X11648515Y-17300526D02*
X11648515Y-17129097D01*
X11829468Y-17319573D02*
X11810420Y-17329097D01*
X11810420Y-17329097D02*
X11772325Y-17329097D01*
X11772325Y-17329097D02*
X11753277Y-17319573D01*
X11753277Y-17319573D02*
X11743753Y-17300526D01*
X11743753Y-17300526D02*
X11743753Y-17224335D01*
X11743753Y-17224335D02*
X11753277Y-17205288D01*
X11753277Y-17205288D02*
X11772325Y-17195764D01*
X11772325Y-17195764D02*
X11810420Y-17195764D01*
X11810420Y-17195764D02*
X11829468Y-17205288D01*
X11829468Y-17205288D02*
X11838991Y-17224335D01*
X11838991Y-17224335D02*
X11838991Y-17243383D01*
X11838991Y-17243383D02*
X11743753Y-17262431D01*
X11915182Y-17319573D02*
X11934230Y-17329097D01*
X11934230Y-17329097D02*
X11972325Y-17329097D01*
X11972325Y-17329097D02*
X11991372Y-17319573D01*
X11991372Y-17319573D02*
X12000896Y-17300526D01*
X12000896Y-17300526D02*
X12000896Y-17291002D01*
X12000896Y-17291002D02*
X11991372Y-17271954D01*
X11991372Y-17271954D02*
X11972325Y-17262431D01*
X11972325Y-17262431D02*
X11943753Y-17262431D01*
X11943753Y-17262431D02*
X11924706Y-17252907D01*
X11924706Y-17252907D02*
X11915182Y-17233859D01*
X11915182Y-17233859D02*
X11915182Y-17224335D01*
X11915182Y-17224335D02*
X11924706Y-17205288D01*
X11924706Y-17205288D02*
X11943753Y-17195764D01*
X11943753Y-17195764D02*
X11972325Y-17195764D01*
X11972325Y-17195764D02*
X11991372Y-17205288D01*
X12067563Y-17405288D02*
X12077087Y-17395764D01*
X12077087Y-17395764D02*
X12096134Y-17367192D01*
X12096134Y-17367192D02*
X12105658Y-17348145D01*
X12105658Y-17348145D02*
X12115182Y-17319573D01*
X12115182Y-17319573D02*
X12124706Y-17271954D01*
X12124706Y-17271954D02*
X12124706Y-17233859D01*
X12124706Y-17233859D02*
X12115182Y-17186240D01*
X12115182Y-17186240D02*
X12105658Y-17157669D01*
X12105658Y-17157669D02*
X12096134Y-17138621D01*
X12096134Y-17138621D02*
X12077087Y-17110050D01*
X12077087Y-17110050D02*
X12067563Y-17100526D01*
D13*
X7276391Y-17540505D02*
X7276391Y-17462722D01*
X7198609Y-17462722D01*
X7198609Y-17540505D01*
X7276391Y-17540505D01*
D12*
X7658039Y-17593097D02*
X7543753Y-17593097D01*
X7600896Y-17593097D02*
X7600896Y-17393097D01*
X7600896Y-17393097D02*
X7581848Y-17421669D01*
X7581848Y-17421669D02*
X7562801Y-17440716D01*
X7562801Y-17440716D02*
X7543753Y-17450240D01*
X7743753Y-17574050D02*
X7753277Y-17583573D01*
X7753277Y-17583573D02*
X7743753Y-17593097D01*
X7743753Y-17593097D02*
X7734229Y-17583573D01*
X7734229Y-17583573D02*
X7743753Y-17574050D01*
X7743753Y-17574050D02*
X7743753Y-17593097D01*
X7943753Y-17593097D02*
X7829467Y-17593097D01*
X7886610Y-17593097D02*
X7886610Y-17393097D01*
X7886610Y-17393097D02*
X7867562Y-17421669D01*
X7867562Y-17421669D02*
X7848515Y-17440716D01*
X7848515Y-17440716D02*
X7829467Y-17450240D01*
X8067562Y-17393097D02*
X8086610Y-17393097D01*
X8086610Y-17393097D02*
X8105658Y-17402621D01*
X8105658Y-17402621D02*
X8115182Y-17412145D01*
X8115182Y-17412145D02*
X8124705Y-17431192D01*
X8124705Y-17431192D02*
X8134229Y-17469288D01*
X8134229Y-17469288D02*
X8134229Y-17516907D01*
X8134229Y-17516907D02*
X8124705Y-17555002D01*
X8124705Y-17555002D02*
X8115182Y-17574050D01*
X8115182Y-17574050D02*
X8105658Y-17583573D01*
X8105658Y-17583573D02*
X8086610Y-17593097D01*
X8086610Y-17593097D02*
X8067562Y-17593097D01*
X8067562Y-17593097D02*
X8048515Y-17583573D01*
X8048515Y-17583573D02*
X8038991Y-17574050D01*
X8038991Y-17574050D02*
X8029467Y-17555002D01*
X8029467Y-17555002D02*
X8019943Y-17516907D01*
X8019943Y-17516907D02*
X8019943Y-17469288D01*
X8019943Y-17469288D02*
X8029467Y-17431192D01*
X8029467Y-17431192D02*
X8038991Y-17412145D01*
X8038991Y-17412145D02*
X8048515Y-17402621D01*
X8048515Y-17402621D02*
X8067562Y-17393097D01*
X8258039Y-17393097D02*
X8277086Y-17393097D01*
X8277086Y-17393097D02*
X8296134Y-17402621D01*
X8296134Y-17402621D02*
X8305658Y-17412145D01*
X8305658Y-17412145D02*
X8315182Y-17431192D01*
X8315182Y-17431192D02*
X8324705Y-17469288D01*
X8324705Y-17469288D02*
X8324705Y-17516907D01*
X8324705Y-17516907D02*
X8315182Y-17555002D01*
X8315182Y-17555002D02*
X8305658Y-17574050D01*
X8305658Y-17574050D02*
X8296134Y-17583573D01*
X8296134Y-17583573D02*
X8277086Y-17593097D01*
X8277086Y-17593097D02*
X8258039Y-17593097D01*
X8258039Y-17593097D02*
X8238991Y-17583573D01*
X8238991Y-17583573D02*
X8229467Y-17574050D01*
X8229467Y-17574050D02*
X8219943Y-17555002D01*
X8219943Y-17555002D02*
X8210420Y-17516907D01*
X8210420Y-17516907D02*
X8210420Y-17469288D01*
X8210420Y-17469288D02*
X8219943Y-17431192D01*
X8219943Y-17431192D02*
X8229467Y-17412145D01*
X8229467Y-17412145D02*
X8238991Y-17402621D01*
X8238991Y-17402621D02*
X8258039Y-17393097D01*
X8410420Y-17593097D02*
X8410420Y-17459764D01*
X8410420Y-17478811D02*
X8419944Y-17469288D01*
X8419944Y-17469288D02*
X8438991Y-17459764D01*
X8438991Y-17459764D02*
X8467563Y-17459764D01*
X8467563Y-17459764D02*
X8486610Y-17469288D01*
X8486610Y-17469288D02*
X8496134Y-17488335D01*
X8496134Y-17488335D02*
X8496134Y-17593097D01*
X8496134Y-17488335D02*
X8505658Y-17469288D01*
X8505658Y-17469288D02*
X8524705Y-17459764D01*
X8524705Y-17459764D02*
X8553277Y-17459764D01*
X8553277Y-17459764D02*
X8572325Y-17469288D01*
X8572325Y-17469288D02*
X8581848Y-17488335D01*
X8581848Y-17488335D02*
X8581848Y-17593097D01*
X8677086Y-17593097D02*
X8677086Y-17459764D01*
X8677086Y-17478811D02*
X8686610Y-17469288D01*
X8686610Y-17469288D02*
X8705658Y-17459764D01*
X8705658Y-17459764D02*
X8734229Y-17459764D01*
X8734229Y-17459764D02*
X8753277Y-17469288D01*
X8753277Y-17469288D02*
X8762801Y-17488335D01*
X8762801Y-17488335D02*
X8762801Y-17593097D01*
X8762801Y-17488335D02*
X8772325Y-17469288D01*
X8772325Y-17469288D02*
X8791372Y-17459764D01*
X8791372Y-17459764D02*
X8819944Y-17459764D01*
X8819944Y-17459764D02*
X8838991Y-17469288D01*
X8838991Y-17469288D02*
X8848515Y-17488335D01*
X8848515Y-17488335D02*
X8848515Y-17593097D01*
X9238991Y-17383573D02*
X9067563Y-17640716D01*
X9496134Y-17393097D02*
X9515182Y-17393097D01*
X9515182Y-17393097D02*
X9534229Y-17402621D01*
X9534229Y-17402621D02*
X9543753Y-17412145D01*
X9543753Y-17412145D02*
X9553277Y-17431192D01*
X9553277Y-17431192D02*
X9562801Y-17469288D01*
X9562801Y-17469288D02*
X9562801Y-17516907D01*
X9562801Y-17516907D02*
X9553277Y-17555002D01*
X9553277Y-17555002D02*
X9543753Y-17574050D01*
X9543753Y-17574050D02*
X9534229Y-17583573D01*
X9534229Y-17583573D02*
X9515182Y-17593097D01*
X9515182Y-17593097D02*
X9496134Y-17593097D01*
X9496134Y-17593097D02*
X9477087Y-17583573D01*
X9477087Y-17583573D02*
X9467563Y-17574050D01*
X9467563Y-17574050D02*
X9458039Y-17555002D01*
X9458039Y-17555002D02*
X9448515Y-17516907D01*
X9448515Y-17516907D02*
X9448515Y-17469288D01*
X9448515Y-17469288D02*
X9458039Y-17431192D01*
X9458039Y-17431192D02*
X9467563Y-17412145D01*
X9467563Y-17412145D02*
X9477087Y-17402621D01*
X9477087Y-17402621D02*
X9496134Y-17393097D01*
X9648515Y-17574050D02*
X9658039Y-17583573D01*
X9658039Y-17583573D02*
X9648515Y-17593097D01*
X9648515Y-17593097D02*
X9638991Y-17583573D01*
X9638991Y-17583573D02*
X9648515Y-17574050D01*
X9648515Y-17574050D02*
X9648515Y-17593097D01*
X9781848Y-17393097D02*
X9800896Y-17393097D01*
X9800896Y-17393097D02*
X9819944Y-17402621D01*
X9819944Y-17402621D02*
X9829468Y-17412145D01*
X9829468Y-17412145D02*
X9838991Y-17431192D01*
X9838991Y-17431192D02*
X9848515Y-17469288D01*
X9848515Y-17469288D02*
X9848515Y-17516907D01*
X9848515Y-17516907D02*
X9838991Y-17555002D01*
X9838991Y-17555002D02*
X9829468Y-17574050D01*
X9829468Y-17574050D02*
X9819944Y-17583573D01*
X9819944Y-17583573D02*
X9800896Y-17593097D01*
X9800896Y-17593097D02*
X9781848Y-17593097D01*
X9781848Y-17593097D02*
X9762801Y-17583573D01*
X9762801Y-17583573D02*
X9753277Y-17574050D01*
X9753277Y-17574050D02*
X9743753Y-17555002D01*
X9743753Y-17555002D02*
X9734229Y-17516907D01*
X9734229Y-17516907D02*
X9734229Y-17469288D01*
X9734229Y-17469288D02*
X9743753Y-17431192D01*
X9743753Y-17431192D02*
X9753277Y-17412145D01*
X9753277Y-17412145D02*
X9762801Y-17402621D01*
X9762801Y-17402621D02*
X9781848Y-17393097D01*
X10019944Y-17459764D02*
X10019944Y-17593097D01*
X9972325Y-17383573D02*
X9924706Y-17526431D01*
X9924706Y-17526431D02*
X10048515Y-17526431D01*
X10105658Y-17393097D02*
X10229468Y-17393097D01*
X10229468Y-17393097D02*
X10162801Y-17469288D01*
X10162801Y-17469288D02*
X10191372Y-17469288D01*
X10191372Y-17469288D02*
X10210420Y-17478811D01*
X10210420Y-17478811D02*
X10219944Y-17488335D01*
X10219944Y-17488335D02*
X10229468Y-17507383D01*
X10229468Y-17507383D02*
X10229468Y-17555002D01*
X10229468Y-17555002D02*
X10219944Y-17574050D01*
X10219944Y-17574050D02*
X10210420Y-17583573D01*
X10210420Y-17583573D02*
X10191372Y-17593097D01*
X10191372Y-17593097D02*
X10134229Y-17593097D01*
X10134229Y-17593097D02*
X10115182Y-17583573D01*
X10115182Y-17583573D02*
X10105658Y-17574050D01*
X10296134Y-17393097D02*
X10419944Y-17393097D01*
X10419944Y-17393097D02*
X10353277Y-17469288D01*
X10353277Y-17469288D02*
X10381849Y-17469288D01*
X10381849Y-17469288D02*
X10400896Y-17478811D01*
X10400896Y-17478811D02*
X10410420Y-17488335D01*
X10410420Y-17488335D02*
X10419944Y-17507383D01*
X10419944Y-17507383D02*
X10419944Y-17555002D01*
X10419944Y-17555002D02*
X10410420Y-17574050D01*
X10410420Y-17574050D02*
X10400896Y-17583573D01*
X10400896Y-17583573D02*
X10381849Y-17593097D01*
X10381849Y-17593097D02*
X10324706Y-17593097D01*
X10324706Y-17593097D02*
X10305658Y-17583573D01*
X10305658Y-17583573D02*
X10296134Y-17574050D01*
X10496134Y-17393097D02*
X10496134Y-17431192D01*
X10572325Y-17393097D02*
X10572325Y-17431192D01*
X10867563Y-17669288D02*
X10858039Y-17659764D01*
X10858039Y-17659764D02*
X10838991Y-17631192D01*
X10838991Y-17631192D02*
X10829468Y-17612145D01*
X10829468Y-17612145D02*
X10819944Y-17583573D01*
X10819944Y-17583573D02*
X10810420Y-17535954D01*
X10810420Y-17535954D02*
X10810420Y-17497859D01*
X10810420Y-17497859D02*
X10819944Y-17450240D01*
X10819944Y-17450240D02*
X10829468Y-17421669D01*
X10829468Y-17421669D02*
X10838991Y-17402621D01*
X10838991Y-17402621D02*
X10858039Y-17374050D01*
X10858039Y-17374050D02*
X10867563Y-17364526D01*
X11029468Y-17393097D02*
X10991372Y-17393097D01*
X10991372Y-17393097D02*
X10972325Y-17402621D01*
X10972325Y-17402621D02*
X10962801Y-17412145D01*
X10962801Y-17412145D02*
X10943753Y-17440716D01*
X10943753Y-17440716D02*
X10934230Y-17478811D01*
X10934230Y-17478811D02*
X10934230Y-17555002D01*
X10934230Y-17555002D02*
X10943753Y-17574050D01*
X10943753Y-17574050D02*
X10953277Y-17583573D01*
X10953277Y-17583573D02*
X10972325Y-17593097D01*
X10972325Y-17593097D02*
X11010420Y-17593097D01*
X11010420Y-17593097D02*
X11029468Y-17583573D01*
X11029468Y-17583573D02*
X11038991Y-17574050D01*
X11038991Y-17574050D02*
X11048515Y-17555002D01*
X11048515Y-17555002D02*
X11048515Y-17507383D01*
X11048515Y-17507383D02*
X11038991Y-17488335D01*
X11038991Y-17488335D02*
X11029468Y-17478811D01*
X11029468Y-17478811D02*
X11010420Y-17469288D01*
X11010420Y-17469288D02*
X10972325Y-17469288D01*
X10972325Y-17469288D02*
X10953277Y-17478811D01*
X10953277Y-17478811D02*
X10943753Y-17488335D01*
X10943753Y-17488335D02*
X10934230Y-17507383D01*
X11219944Y-17459764D02*
X11219944Y-17593097D01*
X11172325Y-17383573D02*
X11124706Y-17526431D01*
X11124706Y-17526431D02*
X11248515Y-17526431D01*
X11477087Y-17593097D02*
X11477087Y-17393097D01*
X11562801Y-17593097D02*
X11562801Y-17488335D01*
X11562801Y-17488335D02*
X11553277Y-17469288D01*
X11553277Y-17469288D02*
X11534230Y-17459764D01*
X11534230Y-17459764D02*
X11505658Y-17459764D01*
X11505658Y-17459764D02*
X11486610Y-17469288D01*
X11486610Y-17469288D02*
X11477087Y-17478811D01*
X11686610Y-17593097D02*
X11667563Y-17583573D01*
X11667563Y-17583573D02*
X11658039Y-17574050D01*
X11658039Y-17574050D02*
X11648515Y-17555002D01*
X11648515Y-17555002D02*
X11648515Y-17497859D01*
X11648515Y-17497859D02*
X11658039Y-17478811D01*
X11658039Y-17478811D02*
X11667563Y-17469288D01*
X11667563Y-17469288D02*
X11686610Y-17459764D01*
X11686610Y-17459764D02*
X11715182Y-17459764D01*
X11715182Y-17459764D02*
X11734230Y-17469288D01*
X11734230Y-17469288D02*
X11743753Y-17478811D01*
X11743753Y-17478811D02*
X11753277Y-17497859D01*
X11753277Y-17497859D02*
X11753277Y-17555002D01*
X11753277Y-17555002D02*
X11743753Y-17574050D01*
X11743753Y-17574050D02*
X11734230Y-17583573D01*
X11734230Y-17583573D02*
X11715182Y-17593097D01*
X11715182Y-17593097D02*
X11686610Y-17593097D01*
X11867563Y-17593097D02*
X11848515Y-17583573D01*
X11848515Y-17583573D02*
X11838991Y-17564526D01*
X11838991Y-17564526D02*
X11838991Y-17393097D01*
X12019944Y-17583573D02*
X12000896Y-17593097D01*
X12000896Y-17593097D02*
X11962801Y-17593097D01*
X11962801Y-17593097D02*
X11943753Y-17583573D01*
X11943753Y-17583573D02*
X11934230Y-17564526D01*
X11934230Y-17564526D02*
X11934230Y-17488335D01*
X11934230Y-17488335D02*
X11943753Y-17469288D01*
X11943753Y-17469288D02*
X11962801Y-17459764D01*
X11962801Y-17459764D02*
X12000896Y-17459764D01*
X12000896Y-17459764D02*
X12019944Y-17469288D01*
X12019944Y-17469288D02*
X12029468Y-17488335D01*
X12029468Y-17488335D02*
X12029468Y-17507383D01*
X12029468Y-17507383D02*
X11934230Y-17526431D01*
X12105658Y-17583573D02*
X12124706Y-17593097D01*
X12124706Y-17593097D02*
X12162801Y-17593097D01*
X12162801Y-17593097D02*
X12181849Y-17583573D01*
X12181849Y-17583573D02*
X12191372Y-17564526D01*
X12191372Y-17564526D02*
X12191372Y-17555002D01*
X12191372Y-17555002D02*
X12181849Y-17535954D01*
X12181849Y-17535954D02*
X12162801Y-17526431D01*
X12162801Y-17526431D02*
X12134230Y-17526431D01*
X12134230Y-17526431D02*
X12115182Y-17516907D01*
X12115182Y-17516907D02*
X12105658Y-17497859D01*
X12105658Y-17497859D02*
X12105658Y-17488335D01*
X12105658Y-17488335D02*
X12115182Y-17469288D01*
X12115182Y-17469288D02*
X12134230Y-17459764D01*
X12134230Y-17459764D02*
X12162801Y-17459764D01*
X12162801Y-17459764D02*
X12181849Y-17469288D01*
X12258039Y-17669288D02*
X12267563Y-17659764D01*
X12267563Y-17659764D02*
X12286611Y-17631192D01*
X12286611Y-17631192D02*
X12296134Y-17612145D01*
X12296134Y-17612145D02*
X12305658Y-17583573D01*
X12305658Y-17583573D02*
X12315182Y-17535954D01*
X12315182Y-17535954D02*
X12315182Y-17497859D01*
X12315182Y-17497859D02*
X12305658Y-17450240D01*
X12305658Y-17450240D02*
X12296134Y-17421669D01*
X12296134Y-17421669D02*
X12286611Y-17402621D01*
X12286611Y-17402621D02*
X12267563Y-17374050D01*
X12267563Y-17374050D02*
X12258039Y-17364526D01*
M02*
