G04 #@! TF.GenerationSoftware,KiCad,Pcbnew,9.0.4*
G04 #@! TF.CreationDate,2025-09-25T22:40:15-06:00*
G04 #@! TF.ProjectId,Teensy_Controler,5465656e-7379-45f4-936f-6e74726f6c65,rev?*
G04 #@! TF.SameCoordinates,Original*
G04 #@! TF.FileFunction,Copper,L1,Top*
G04 #@! TF.FilePolarity,Positive*
%FSLAX46Y46*%
G04 Gerber Fmt 4.6, Leading zero omitted, Abs format (unit mm)*
G04 Created by KiCad (PCBNEW 9.0.4) date 2025-09-25 22:40:15*
%MOMM*%
%LPD*%
G01*
G04 APERTURE LIST*
G04 #@! TA.AperFunction,Conductor*
%ADD10C,0.200000*%
G04 #@! TD*
G04 #@! TA.AperFunction,ComponentPad*
%ADD11R,1.700000X1.700000*%
G04 #@! TD*
G04 #@! TA.AperFunction,ComponentPad*
%ADD12C,1.700000*%
G04 #@! TD*
G04 #@! TA.AperFunction,ComponentPad*
%ADD13C,1.600000*%
G04 #@! TD*
G04 #@! TA.AperFunction,ComponentPad*
%ADD14C,1.400000*%
G04 #@! TD*
G04 #@! TA.AperFunction,ComponentPad*
%ADD15R,1.600000X1.600000*%
G04 #@! TD*
G04 #@! TA.AperFunction,ComponentPad*
%ADD16R,1.300000X1.300000*%
G04 #@! TD*
G04 #@! TA.AperFunction,ComponentPad*
%ADD17C,1.300000*%
G04 #@! TD*
G04 #@! TA.AperFunction,ViaPad*
%ADD18C,0.600000*%
G04 #@! TD*
G04 APERTURE END LIST*
D10*
X126072882Y-79984600D02*
X135191517Y-79984600D01*
X107340400Y-108458000D02*
X116636800Y-108458000D01*
X107315000Y-116078000D02*
X116636800Y-116078000D01*
X107264200Y-72821800D02*
X116738400Y-72821800D01*
X125958600Y-64719200D02*
X135051800Y-64719200D01*
X125958600Y-82499200D02*
X135001000Y-82499200D01*
X107264200Y-75412600D02*
X116865400Y-75412600D01*
X129565400Y-113055400D02*
X134950200Y-118008400D01*
X125958600Y-72339200D02*
X135001000Y-72339200D01*
X107315000Y-113512600D02*
X116611400Y-113512600D01*
X107315000Y-110972600D02*
X116586000Y-110972600D01*
X125958600Y-67259200D02*
X134899400Y-67259200D01*
X107314983Y-100838000D02*
X116611417Y-100838000D01*
X125907800Y-74930000D02*
X135102600Y-74930000D01*
X122326400Y-68224400D02*
X122326400Y-89027000D01*
X107315000Y-105918000D02*
X116484400Y-105918000D01*
X107264200Y-77927200D02*
X116738400Y-77927200D01*
X125983929Y-69799200D02*
X135026471Y-69799200D01*
X107416600Y-70281800D02*
X116586000Y-70281800D01*
X107289600Y-103403400D02*
X116611400Y-103403400D01*
X107314724Y-67792600D02*
X116662476Y-67792600D01*
X107264200Y-62687200D02*
X116763800Y-62687200D01*
X108026200Y-91846400D02*
X114223800Y-91846400D01*
X108153200Y-127025400D02*
X114325400Y-127025400D01*
X125933200Y-77444600D02*
X135102600Y-77444600D01*
X107313890Y-65227200D02*
X116612510Y-65227200D01*
D11*
X123418600Y-127000000D03*
D12*
X125958600Y-127000000D03*
X128498600Y-127000000D03*
D13*
X116636800Y-91846400D03*
X114136800Y-91846400D03*
D11*
X126009400Y-116357400D03*
D12*
X123469400Y-116357400D03*
D11*
X159766000Y-122174000D03*
D12*
X159766000Y-119634000D03*
X159766000Y-117094000D03*
D14*
X103047800Y-127025400D03*
X108127800Y-127025400D03*
D11*
X125933200Y-89027000D03*
D12*
X125933200Y-91567000D03*
X125933200Y-94107000D03*
X125933200Y-96647000D03*
X125933200Y-99187000D03*
X125933200Y-101727000D03*
X125933200Y-104267000D03*
X125933200Y-106807000D03*
D11*
X159791400Y-67767200D03*
D12*
X159791400Y-65227200D03*
X159791400Y-62687200D03*
D11*
X107315000Y-100812600D03*
D12*
X107315000Y-103352600D03*
X107315000Y-105892600D03*
X107315000Y-108432600D03*
X107315000Y-110972600D03*
X107315000Y-113512600D03*
X107315000Y-116052600D03*
X107315000Y-118592600D03*
X107315000Y-121132600D03*
D11*
X159791400Y-95021400D03*
D12*
X159791400Y-92481400D03*
X159791400Y-89941400D03*
D13*
X116636800Y-126949200D03*
X114136800Y-126949200D03*
D11*
X159791400Y-81407000D03*
D12*
X159791400Y-78867000D03*
X159791400Y-76327000D03*
D14*
X102997000Y-91871800D03*
X108077000Y-91871800D03*
D11*
X125958600Y-64719200D03*
D12*
X125958600Y-67259200D03*
X125958600Y-69799200D03*
X125958600Y-72339200D03*
X125958600Y-74879200D03*
X125958600Y-77419200D03*
X125958600Y-79959200D03*
X125958600Y-82499200D03*
D15*
X116763800Y-62661800D03*
D13*
X116763800Y-65201800D03*
X116763800Y-67741800D03*
X116763800Y-70281800D03*
X116763800Y-72821800D03*
X116763800Y-75361800D03*
X116763800Y-77901800D03*
X116763800Y-80441800D03*
D15*
X116611400Y-100838000D03*
D13*
X116611400Y-103378000D03*
X116611400Y-105918000D03*
X116611400Y-108458000D03*
X116611400Y-110998000D03*
X116611400Y-113538000D03*
X116611400Y-116078000D03*
X116611400Y-118618000D03*
D11*
X107264200Y-62661800D03*
D12*
X107264200Y-65201800D03*
X107264200Y-67741800D03*
X107264200Y-70281800D03*
X107264200Y-72821800D03*
X107264200Y-75361800D03*
X107264200Y-77901800D03*
X107264200Y-80441800D03*
X107264200Y-82981800D03*
D15*
X135001000Y-62153800D03*
D13*
X135001000Y-64693800D03*
X135001000Y-67233800D03*
X135001000Y-69773800D03*
X135001000Y-72313800D03*
X135001000Y-74853800D03*
X135001000Y-77393800D03*
X135001000Y-79933800D03*
X135001000Y-82473800D03*
X135001000Y-85013800D03*
X135001000Y-87553800D03*
X135001000Y-90093800D03*
X135001000Y-92633800D03*
X135001000Y-95173800D03*
X135001000Y-97713800D03*
X135001000Y-100253800D03*
X135001000Y-102793800D03*
X135001000Y-105333800D03*
X135001000Y-107873800D03*
X135001000Y-110413800D03*
X135001000Y-112953800D03*
X135001000Y-115493800D03*
X135001000Y-118033800D03*
X135001000Y-120573800D03*
X150241000Y-120573800D03*
X150241000Y-118033800D03*
X150241000Y-115493800D03*
X150241000Y-112953800D03*
X150241000Y-110413800D03*
X150241000Y-107873800D03*
X150241000Y-105333800D03*
X150241000Y-102793800D03*
X150241000Y-100253800D03*
X150241000Y-97713800D03*
X150241000Y-95173800D03*
X150241000Y-92633800D03*
X150241000Y-90093800D03*
X150241000Y-87553800D03*
X150241000Y-85013800D03*
X150241000Y-82473800D03*
X150241000Y-79933800D03*
X150241000Y-77393800D03*
X150241000Y-74853800D03*
X150241000Y-72313800D03*
X150241000Y-69773800D03*
X150241000Y-67233800D03*
X150241000Y-64693800D03*
X150241000Y-62153800D03*
X147701000Y-64693800D03*
X137541000Y-107873800D03*
X140081000Y-107873800D03*
X142621000Y-107873800D03*
X145161000Y-107873800D03*
X147701000Y-107873800D03*
D15*
X138051800Y-68453000D03*
D13*
X138051800Y-70993000D03*
X138051800Y-73533000D03*
X138051800Y-76073000D03*
X138051800Y-78613000D03*
D16*
X147802600Y-75123800D03*
D17*
X145802600Y-75123800D03*
X143802600Y-75123800D03*
X143802600Y-77123800D03*
X145802600Y-77123800D03*
X147802600Y-77123800D03*
X143891000Y-62883800D03*
X141351000Y-62883800D03*
D11*
X159766000Y-108585000D03*
D12*
X159766000Y-106045000D03*
X159766000Y-103505000D03*
D18*
X146392900Y-121881900D03*
X120218200Y-97927800D03*
X143129000Y-121920000D03*
X131165600Y-108737400D03*
X129336800Y-108788200D03*
X131292600Y-90093800D03*
X128549400Y-111683800D03*
D10*
X120218200Y-97927800D02*
X120218200Y-121920000D01*
X120218200Y-121920000D02*
X143129000Y-121920000D01*
X146392900Y-121881900D02*
X150241000Y-118033800D01*
X125933200Y-91567000D02*
X123469400Y-94030800D01*
X149431000Y-64693800D02*
X150241000Y-64693800D01*
X138051800Y-78613000D02*
X144313400Y-78613000D01*
X144313400Y-78613000D02*
X145802600Y-77123800D01*
X138051800Y-76073000D02*
X149431000Y-64693800D01*
X123469400Y-94030800D02*
X123469400Y-116357400D01*
X117337200Y-123748800D02*
X144576800Y-123748800D01*
X144576800Y-123748800D02*
X144576800Y-121158000D01*
X114136800Y-126949200D02*
X117337200Y-123748800D01*
X144576800Y-121158000D02*
X150241000Y-115493800D01*
X135001000Y-102793800D02*
X131165600Y-106629200D01*
X131165600Y-106629200D02*
X131165600Y-108737400D01*
X129336800Y-105918000D02*
X129336800Y-108788200D01*
X135001000Y-100253800D02*
X129336800Y-105918000D01*
X116763800Y-62661800D02*
X122326400Y-68224400D01*
X116611400Y-98348800D02*
X116611400Y-100838000D01*
X122364500Y-89027000D02*
X122542300Y-89027000D01*
X125933200Y-89027000D02*
X116611400Y-98348800D01*
X122605800Y-89027000D02*
X125933200Y-89027000D01*
X103047800Y-127025400D02*
X103047800Y-125399800D01*
X103047800Y-125399800D02*
X107315000Y-121132600D01*
X125933200Y-99187000D02*
X133146800Y-91973400D01*
X133146800Y-91973400D02*
X133146800Y-87553800D01*
X133146800Y-87553800D02*
X135001000Y-87553800D01*
X135001000Y-92659200D02*
X135001000Y-92633800D01*
X125933200Y-101727000D02*
X135001000Y-92659200D01*
X125933200Y-94107000D02*
X129946400Y-90093800D01*
X129946400Y-90093800D02*
X131292600Y-90093800D01*
X125933200Y-96647000D02*
X132745800Y-89834400D01*
X132791200Y-85013800D02*
X135001000Y-85013800D01*
X132745800Y-85070000D02*
X132740400Y-85064600D01*
X132745800Y-89834400D02*
X132745800Y-85070000D01*
X132740400Y-85064600D02*
X132791200Y-85013800D01*
X127533400Y-113055400D02*
X129565400Y-113055400D01*
X127533400Y-108407200D02*
X127533400Y-113055400D01*
X125933200Y-106807000D02*
X127533400Y-108407200D01*
X155956000Y-106502200D02*
X153238200Y-103784400D01*
X153238200Y-103784400D02*
X153238200Y-92633800D01*
X153238200Y-92633800D02*
X150241000Y-92633800D01*
X159766000Y-122174000D02*
X155956000Y-118364000D01*
X155956000Y-118364000D02*
X155956000Y-106502200D01*
X159766000Y-117094000D02*
X157022800Y-114350800D01*
X157022800Y-114350800D02*
X157022800Y-106527600D01*
X154101800Y-90093800D02*
X150241000Y-90093800D01*
X154101800Y-103606600D02*
X154101800Y-90093800D01*
X157022800Y-106527600D02*
X154101800Y-103606600D01*
X155803600Y-101066600D02*
X154914600Y-100177600D01*
X154914600Y-88442800D02*
X154025600Y-87553800D01*
X154914600Y-100177600D02*
X154914600Y-88442800D01*
X153974800Y-87553800D02*
X150241000Y-87553800D01*
X155803600Y-104622600D02*
X155803600Y-101066600D01*
X159766000Y-108585000D02*
X155803600Y-104622600D01*
X152831800Y-85013800D02*
X150241000Y-85013800D01*
X156006800Y-88188800D02*
X152831800Y-85013800D01*
X156006800Y-99745800D02*
X156006800Y-88188800D01*
X159766000Y-103505000D02*
X156006800Y-99745800D01*
X152654000Y-83845400D02*
X152654000Y-82473800D01*
X156972000Y-92202000D02*
X156972000Y-88163400D01*
X152654000Y-82473800D02*
X150241000Y-82473800D01*
X156972000Y-88163400D02*
X152654000Y-83845400D01*
X159791400Y-95021400D02*
X156972000Y-92202000D01*
X151561800Y-79933800D02*
X150241000Y-79933800D01*
X159791400Y-89941400D02*
X153924000Y-84074000D01*
X153924000Y-84074000D02*
X153924000Y-82296000D01*
X153924000Y-82296000D02*
X151561800Y-79933800D01*
X158318200Y-74853800D02*
X150241000Y-74853800D01*
X159791400Y-76327000D02*
X158318200Y-74853800D01*
X154254200Y-81407000D02*
X150241000Y-77393800D01*
X159791400Y-81407000D02*
X154254200Y-81407000D01*
X155244800Y-72313800D02*
X150241000Y-72313800D01*
X159791400Y-67767200D02*
X155244800Y-72313800D01*
X159791400Y-62687200D02*
X152704800Y-69773800D01*
X152704800Y-69773800D02*
X150241000Y-69773800D01*
X102997000Y-87249000D02*
X102997000Y-91871800D01*
X107264200Y-82981800D02*
X102997000Y-87249000D01*
X128549400Y-111683800D02*
X129819400Y-110413800D01*
X129819400Y-110413800D02*
X135001000Y-110413800D01*
M02*
