M48
; DRILL file {KiCad 9.0.4} date 2025-09-25T22:35:42-0600
; FORMAT={-:-/ absolute / metric / decimal}
; #@! TF.CreationDate,2025-09-25T22:35:42-06:00
; #@! TF.GenerationSoftware,Kicad,Pcbnew,9.0.4
; #@! TF.FileFunction,Plated,1,2,PTH
FMAT,2
METRIC
; #@! TA.AperFunction,Plated,PTH,ViaDrill
T1C0.300
; #@! TA.AperFunction,Plated,PTH,ComponentDrill
T2C0.700
; #@! TA.AperFunction,Plated,PTH,ComponentDrill
T3C0.800
; #@! TA.AperFunction,Plated,PTH,ComponentDrill
T4C1.000
; #@! TA.AperFunction,Plated,PTH,ComponentDrill
T5C1.100
%
G90
G05
T1
X120.218Y-97.928
X128.549Y-111.684
X129.337Y-108.788
X131.166Y-108.737
X131.293Y-90.094
X143.129Y-121.92
X146.393Y-121.882
T2
X102.997Y-91.872
X103.048Y-127.025
X108.077Y-91.872
X108.128Y-127.025
T3
X114.137Y-91.846
X114.137Y-126.949
X116.611Y-100.838
X116.611Y-103.378
X116.611Y-105.918
X116.611Y-108.458
X116.611Y-110.998
X116.611Y-113.538
X116.611Y-116.078
X116.611Y-118.618
X116.637Y-91.846
X116.637Y-126.949
X116.764Y-62.662
X116.764Y-65.202
X116.764Y-67.742
X116.764Y-70.282
X116.764Y-72.822
X116.764Y-75.362
X116.764Y-77.902
X116.764Y-80.442
X141.351Y-62.884
X143.803Y-75.124
X143.803Y-77.124
X143.891Y-62.884
X145.803Y-75.124
X145.803Y-77.124
X147.803Y-75.124
X147.803Y-77.124
T4
X107.264Y-62.662
X107.264Y-65.202
X107.264Y-67.742
X107.264Y-70.282
X107.264Y-72.822
X107.264Y-75.362
X107.264Y-77.902
X107.264Y-80.442
X107.264Y-82.982
X107.315Y-100.813
X107.315Y-103.353
X107.315Y-105.893
X107.315Y-108.433
X107.315Y-110.973
X107.315Y-113.513
X107.315Y-116.053
X107.315Y-118.593
X107.315Y-121.133
X123.419Y-127.0
X123.469Y-116.357
X125.933Y-89.027
X125.933Y-91.567
X125.933Y-94.107
X125.933Y-96.647
X125.933Y-99.187
X125.933Y-101.727
X125.933Y-104.267
X125.933Y-106.807
X125.959Y-64.719
X125.959Y-67.259
X125.959Y-69.799
X125.959Y-72.339
X125.959Y-74.879
X125.959Y-77.419
X125.959Y-79.959
X125.959Y-82.499
X125.959Y-127.0
X126.009Y-116.357
X128.499Y-127.0
X159.766Y-103.505
X159.766Y-106.045
X159.766Y-108.585
X159.766Y-117.094
X159.766Y-119.634
X159.766Y-122.174
X159.791Y-62.687
X159.791Y-65.227
X159.791Y-67.767
X159.791Y-76.327
X159.791Y-78.867
X159.791Y-81.407
X159.791Y-89.941
X159.791Y-92.481
X159.791Y-95.021
T5
X135.001Y-62.154
X135.001Y-64.694
X135.001Y-67.234
X135.001Y-69.774
X135.001Y-72.314
X135.001Y-74.854
X135.001Y-77.394
X135.001Y-79.934
X135.001Y-82.474
X135.001Y-85.014
X135.001Y-87.554
X135.001Y-90.094
X135.001Y-92.634
X135.001Y-95.174
X135.001Y-97.714
X135.001Y-100.254
X135.001Y-102.794
X135.001Y-105.334
X135.001Y-107.874
X135.001Y-110.414
X135.001Y-112.954
X135.001Y-115.494
X135.001Y-118.034
X135.001Y-120.574
X137.541Y-107.874
X138.052Y-68.453
X138.052Y-70.993
X138.052Y-73.533
X138.052Y-76.073
X138.052Y-78.613
X140.081Y-107.874
X142.621Y-107.874
X145.161Y-107.874
X147.701Y-64.694
X147.701Y-107.874
X150.241Y-62.154
X150.241Y-64.694
X150.241Y-67.234
X150.241Y-69.774
X150.241Y-72.314
X150.241Y-74.854
X150.241Y-77.394
X150.241Y-79.934
X150.241Y-82.474
X150.241Y-85.014
X150.241Y-87.554
X150.241Y-90.094
X150.241Y-92.634
X150.241Y-95.174
X150.241Y-97.714
X150.241Y-100.254
X150.241Y-102.794
X150.241Y-105.334
X150.241Y-107.874
X150.241Y-110.414
X150.241Y-112.954
X150.241Y-115.494
X150.241Y-118.034
X150.241Y-120.574
M30
