%TF.GenerationSoftware,KiCad,Pcbnew,9.0.4*%
%TF.CreationDate,2025-09-25T22:35:42-06:00*%
%TF.ProjectId,Teensy_Controler,5465656e-7379-45f4-936f-6e74726f6c65,rev?*%
%TF.SameCoordinates,Original*%
%TF.FileFunction,Drillmap*%
%TF.FilePolarity,Positive*%
%FSLAX45Y45*%
G04 Gerber Fmt 4.5, Leading zero omitted, Abs format (unit mm)*
G04 Created by KiCad (PCBNEW 9.0.4) date 2025-09-25 22:35:42*
%MOMM*%
%LPD*%
G01*
G04 APERTURE LIST*
%ADD10C,0.050000*%
%ADD11C,0.200000*%
G04 APERTURE END LIST*
D10*
X15197900Y-4434840D02*
G75*
G02*
X14697900Y-4434840I-250000J0D01*
G01*
X14697900Y-4434840D02*
G75*
G02*
X15197900Y-4434840I250000J0D01*
G01*
X9255100Y-4437380D02*
G75*
G02*
X8855100Y-4437380I-200000J0D01*
G01*
X8855100Y-4437380D02*
G75*
G02*
X9255100Y-4437380I200000J0D01*
G01*
X17708220Y-12806680D02*
G75*
G02*
X17308220Y-12806680I-200000J0D01*
G01*
X17308220Y-12806680D02*
G75*
G02*
X17708220Y-12806680I200000J0D01*
G01*
X9255100Y-12806680D02*
G75*
G02*
X8855100Y-12806680I-200000J0D01*
G01*
X8855100Y-12806680D02*
G75*
G02*
X9255100Y-12806680I200000J0D01*
G01*
X8554720Y-3937000D02*
X18008600Y-3937000D01*
X18008600Y-13307060D01*
X8554720Y-13307060D01*
X8554720Y-3937000D01*
X13846620Y-4437380D02*
G75*
G02*
X13346620Y-4437380I-250000J0D01*
G01*
X13346620Y-4437380D02*
G75*
G02*
X13846620Y-4437380I250000J0D01*
G01*
X17708220Y-4434840D02*
G75*
G02*
X17308220Y-4434840I-200000J0D01*
G01*
X17308220Y-4434840D02*
G75*
G02*
X17708220Y-4434840I200000J0D01*
G01*
D11*
X8812997Y-13621044D02*
X8812997Y-13421044D01*
X8812997Y-13421044D02*
X8860616Y-13421044D01*
X8860616Y-13421044D02*
X8889187Y-13430568D01*
X8889187Y-13430568D02*
X8908235Y-13449615D01*
X8908235Y-13449615D02*
X8917759Y-13468663D01*
X8917759Y-13468663D02*
X8927283Y-13506758D01*
X8927283Y-13506758D02*
X8927283Y-13535329D01*
X8927283Y-13535329D02*
X8917759Y-13573425D01*
X8917759Y-13573425D02*
X8908235Y-13592472D01*
X8908235Y-13592472D02*
X8889187Y-13611520D01*
X8889187Y-13611520D02*
X8860616Y-13621044D01*
X8860616Y-13621044D02*
X8812997Y-13621044D01*
X9012997Y-13621044D02*
X9012997Y-13487710D01*
X9012997Y-13525806D02*
X9022521Y-13506758D01*
X9022521Y-13506758D02*
X9032044Y-13497234D01*
X9032044Y-13497234D02*
X9051092Y-13487710D01*
X9051092Y-13487710D02*
X9070140Y-13487710D01*
X9136806Y-13621044D02*
X9136806Y-13487710D01*
X9136806Y-13421044D02*
X9127283Y-13430568D01*
X9127283Y-13430568D02*
X9136806Y-13440091D01*
X9136806Y-13440091D02*
X9146330Y-13430568D01*
X9146330Y-13430568D02*
X9136806Y-13421044D01*
X9136806Y-13421044D02*
X9136806Y-13440091D01*
X9260616Y-13621044D02*
X9241568Y-13611520D01*
X9241568Y-13611520D02*
X9232044Y-13592472D01*
X9232044Y-13592472D02*
X9232044Y-13421044D01*
X9365378Y-13621044D02*
X9346330Y-13611520D01*
X9346330Y-13611520D02*
X9336806Y-13592472D01*
X9336806Y-13592472D02*
X9336806Y-13421044D01*
X9593949Y-13621044D02*
X9593949Y-13421044D01*
X9593949Y-13421044D02*
X9660616Y-13563901D01*
X9660616Y-13563901D02*
X9727283Y-13421044D01*
X9727283Y-13421044D02*
X9727283Y-13621044D01*
X9908235Y-13621044D02*
X9908235Y-13516282D01*
X9908235Y-13516282D02*
X9898711Y-13497234D01*
X9898711Y-13497234D02*
X9879664Y-13487710D01*
X9879664Y-13487710D02*
X9841568Y-13487710D01*
X9841568Y-13487710D02*
X9822521Y-13497234D01*
X9908235Y-13611520D02*
X9889187Y-13621044D01*
X9889187Y-13621044D02*
X9841568Y-13621044D01*
X9841568Y-13621044D02*
X9822521Y-13611520D01*
X9822521Y-13611520D02*
X9812997Y-13592472D01*
X9812997Y-13592472D02*
X9812997Y-13573425D01*
X9812997Y-13573425D02*
X9822521Y-13554377D01*
X9822521Y-13554377D02*
X9841568Y-13544853D01*
X9841568Y-13544853D02*
X9889187Y-13544853D01*
X9889187Y-13544853D02*
X9908235Y-13535329D01*
X10003473Y-13487710D02*
X10003473Y-13687710D01*
X10003473Y-13497234D02*
X10022521Y-13487710D01*
X10022521Y-13487710D02*
X10060616Y-13487710D01*
X10060616Y-13487710D02*
X10079664Y-13497234D01*
X10079664Y-13497234D02*
X10089187Y-13506758D01*
X10089187Y-13506758D02*
X10098711Y-13525806D01*
X10098711Y-13525806D02*
X10098711Y-13582948D01*
X10098711Y-13582948D02*
X10089187Y-13601996D01*
X10089187Y-13601996D02*
X10079664Y-13611520D01*
X10079664Y-13611520D02*
X10060616Y-13621044D01*
X10060616Y-13621044D02*
X10022521Y-13621044D01*
X10022521Y-13621044D02*
X10003473Y-13611520D01*
X10184425Y-13601996D02*
X10193949Y-13611520D01*
X10193949Y-13611520D02*
X10184425Y-13621044D01*
X10184425Y-13621044D02*
X10174902Y-13611520D01*
X10174902Y-13611520D02*
X10184425Y-13601996D01*
X10184425Y-13601996D02*
X10184425Y-13621044D01*
X10184425Y-13497234D02*
X10193949Y-13506758D01*
X10193949Y-13506758D02*
X10184425Y-13516282D01*
X10184425Y-13516282D02*
X10174902Y-13506758D01*
X10174902Y-13506758D02*
X10184425Y-13497234D01*
X10184425Y-13497234D02*
X10184425Y-13516282D01*
M02*
