G04 #@! TF.GenerationSoftware,KiCad,Pcbnew,9.0.4*
G04 #@! TF.CreationDate,2025-09-25T22:40:15-06:00*
G04 #@! TF.ProjectId,Teensy_Controler,5465656e-7379-45f4-936f-6e74726f6c65,rev?*
G04 #@! TF.SameCoordinates,Original*
G04 #@! TF.FileFunction,Legend,Top*
G04 #@! TF.FilePolarity,Positive*
%FSLAX46Y46*%
G04 Gerber Fmt 4.6, Leading zero omitted, Abs format (unit mm)*
G04 Created by KiCad (PCBNEW 9.0.4) date 2025-09-25 22:40:15*
%MOMM*%
%LPD*%
G01*
G04 APERTURE LIST*
%ADD10C,0.150000*%
%ADD11C,0.120000*%
%ADD12C,0.100000*%
G04 APERTURE END LIST*
D10*
X121398180Y-130023809D02*
X121445800Y-130071428D01*
X121445800Y-130071428D02*
X121493419Y-130214285D01*
X121493419Y-130214285D02*
X121493419Y-130309523D01*
X121493419Y-130309523D02*
X121445800Y-130452380D01*
X121445800Y-130452380D02*
X121350561Y-130547618D01*
X121350561Y-130547618D02*
X121255323Y-130595237D01*
X121255323Y-130595237D02*
X121064847Y-130642856D01*
X121064847Y-130642856D02*
X120921990Y-130642856D01*
X120921990Y-130642856D02*
X120731514Y-130595237D01*
X120731514Y-130595237D02*
X120636276Y-130547618D01*
X120636276Y-130547618D02*
X120541038Y-130452380D01*
X120541038Y-130452380D02*
X120493419Y-130309523D01*
X120493419Y-130309523D02*
X120493419Y-130214285D01*
X120493419Y-130214285D02*
X120541038Y-130071428D01*
X120541038Y-130071428D02*
X120588657Y-130023809D01*
X121493419Y-129595237D02*
X120493419Y-129595237D01*
X120969609Y-129595237D02*
X120969609Y-129023809D01*
X121493419Y-129023809D02*
X120493419Y-129023809D01*
X121207704Y-128595237D02*
X121207704Y-128119047D01*
X121493419Y-128690475D02*
X120493419Y-128357142D01*
X120493419Y-128357142D02*
X121493419Y-128023809D01*
X121493419Y-127690475D02*
X120493419Y-127690475D01*
X120493419Y-127690475D02*
X121493419Y-127119047D01*
X121493419Y-127119047D02*
X120493419Y-127119047D01*
X121493419Y-126642856D02*
X120493419Y-126642856D01*
X120493419Y-126642856D02*
X121493419Y-126071428D01*
X121493419Y-126071428D02*
X120493419Y-126071428D01*
X120969609Y-125595237D02*
X120969609Y-125261904D01*
X121493419Y-125119047D02*
X121493419Y-125595237D01*
X121493419Y-125595237D02*
X120493419Y-125595237D01*
X120493419Y-125595237D02*
X120493419Y-125119047D01*
X121493419Y-124214285D02*
X121493419Y-124690475D01*
X121493419Y-124690475D02*
X120493419Y-124690475D01*
X121493419Y-123357142D02*
X121493419Y-123928570D01*
X121493419Y-123642856D02*
X120493419Y-123642856D01*
X120493419Y-123642856D02*
X120636276Y-123738094D01*
X120636276Y-123738094D02*
X120731514Y-123833332D01*
X120731514Y-123833332D02*
X120779133Y-123928570D01*
X115220133Y-94705980D02*
X115172514Y-94753600D01*
X115172514Y-94753600D02*
X115029657Y-94801219D01*
X115029657Y-94801219D02*
X114934419Y-94801219D01*
X114934419Y-94801219D02*
X114791562Y-94753600D01*
X114791562Y-94753600D02*
X114696324Y-94658361D01*
X114696324Y-94658361D02*
X114648705Y-94563123D01*
X114648705Y-94563123D02*
X114601086Y-94372647D01*
X114601086Y-94372647D02*
X114601086Y-94229790D01*
X114601086Y-94229790D02*
X114648705Y-94039314D01*
X114648705Y-94039314D02*
X114696324Y-93944076D01*
X114696324Y-93944076D02*
X114791562Y-93848838D01*
X114791562Y-93848838D02*
X114934419Y-93801219D01*
X114934419Y-93801219D02*
X115029657Y-93801219D01*
X115029657Y-93801219D02*
X115172514Y-93848838D01*
X115172514Y-93848838D02*
X115220133Y-93896457D01*
X116172514Y-94801219D02*
X115601086Y-94801219D01*
X115886800Y-94801219D02*
X115886800Y-93801219D01*
X115886800Y-93801219D02*
X115791562Y-93944076D01*
X115791562Y-93944076D02*
X115696324Y-94039314D01*
X115696324Y-94039314D02*
X115601086Y-94086933D01*
X128796600Y-118047875D02*
X128844219Y-117905018D01*
X128844219Y-117905018D02*
X128844219Y-117666923D01*
X128844219Y-117666923D02*
X128796600Y-117571685D01*
X128796600Y-117571685D02*
X128748980Y-117524066D01*
X128748980Y-117524066D02*
X128653742Y-117476447D01*
X128653742Y-117476447D02*
X128558504Y-117476447D01*
X128558504Y-117476447D02*
X128463266Y-117524066D01*
X128463266Y-117524066D02*
X128415647Y-117571685D01*
X128415647Y-117571685D02*
X128368028Y-117666923D01*
X128368028Y-117666923D02*
X128320409Y-117857399D01*
X128320409Y-117857399D02*
X128272790Y-117952637D01*
X128272790Y-117952637D02*
X128225171Y-118000256D01*
X128225171Y-118000256D02*
X128129933Y-118047875D01*
X128129933Y-118047875D02*
X128034695Y-118047875D01*
X128034695Y-118047875D02*
X127939457Y-118000256D01*
X127939457Y-118000256D02*
X127891838Y-117952637D01*
X127891838Y-117952637D02*
X127844219Y-117857399D01*
X127844219Y-117857399D02*
X127844219Y-117619304D01*
X127844219Y-117619304D02*
X127891838Y-117476447D01*
X128939457Y-116381209D02*
X128891838Y-116476447D01*
X128891838Y-116476447D02*
X128796600Y-116571685D01*
X128796600Y-116571685D02*
X128653742Y-116714542D01*
X128653742Y-116714542D02*
X128606123Y-116809780D01*
X128606123Y-116809780D02*
X128606123Y-116905018D01*
X128844219Y-116857399D02*
X128796600Y-116952637D01*
X128796600Y-116952637D02*
X128701361Y-117047875D01*
X128701361Y-117047875D02*
X128510885Y-117095494D01*
X128510885Y-117095494D02*
X128177552Y-117095494D01*
X128177552Y-117095494D02*
X127987076Y-117047875D01*
X127987076Y-117047875D02*
X127891838Y-116952637D01*
X127891838Y-116952637D02*
X127844219Y-116857399D01*
X127844219Y-116857399D02*
X127844219Y-116666923D01*
X127844219Y-116666923D02*
X127891838Y-116571685D01*
X127891838Y-116571685D02*
X127987076Y-116476447D01*
X127987076Y-116476447D02*
X128177552Y-116428828D01*
X128177552Y-116428828D02*
X128510885Y-116428828D01*
X128510885Y-116428828D02*
X128701361Y-116476447D01*
X128701361Y-116476447D02*
X128796600Y-116571685D01*
X128796600Y-116571685D02*
X128844219Y-116666923D01*
X128844219Y-116666923D02*
X128844219Y-116857399D01*
X128844219Y-115524066D02*
X128844219Y-116000256D01*
X128844219Y-116000256D02*
X127844219Y-116000256D01*
X128844219Y-114666923D02*
X128844219Y-115238351D01*
X128844219Y-114952637D02*
X127844219Y-114952637D01*
X127844219Y-114952637D02*
X127987076Y-115047875D01*
X127987076Y-115047875D02*
X128082314Y-115143113D01*
X128082314Y-115143113D02*
X128129933Y-115238351D01*
X105421133Y-125560219D02*
X105087800Y-125084028D01*
X104849705Y-125560219D02*
X104849705Y-124560219D01*
X104849705Y-124560219D02*
X105230657Y-124560219D01*
X105230657Y-124560219D02*
X105325895Y-124607838D01*
X105325895Y-124607838D02*
X105373514Y-124655457D01*
X105373514Y-124655457D02*
X105421133Y-124750695D01*
X105421133Y-124750695D02*
X105421133Y-124893552D01*
X105421133Y-124893552D02*
X105373514Y-124988790D01*
X105373514Y-124988790D02*
X105325895Y-125036409D01*
X105325895Y-125036409D02*
X105230657Y-125084028D01*
X105230657Y-125084028D02*
X104849705Y-125084028D01*
X105802086Y-124655457D02*
X105849705Y-124607838D01*
X105849705Y-124607838D02*
X105944943Y-124560219D01*
X105944943Y-124560219D02*
X106183038Y-124560219D01*
X106183038Y-124560219D02*
X106278276Y-124607838D01*
X106278276Y-124607838D02*
X106325895Y-124655457D01*
X106325895Y-124655457D02*
X106373514Y-124750695D01*
X106373514Y-124750695D02*
X106373514Y-124845933D01*
X106373514Y-124845933D02*
X106325895Y-124988790D01*
X106325895Y-124988790D02*
X105754467Y-125560219D01*
X105754467Y-125560219D02*
X106373514Y-125560219D01*
X103219761Y-98363609D02*
X102886428Y-98363609D01*
X102886428Y-98887419D02*
X102886428Y-97887419D01*
X102886428Y-97887419D02*
X103362618Y-97887419D01*
X104314999Y-98887419D02*
X103981666Y-98411228D01*
X103743571Y-98887419D02*
X103743571Y-97887419D01*
X103743571Y-97887419D02*
X104124523Y-97887419D01*
X104124523Y-97887419D02*
X104219761Y-97935038D01*
X104219761Y-97935038D02*
X104267380Y-97982657D01*
X104267380Y-97982657D02*
X104314999Y-98077895D01*
X104314999Y-98077895D02*
X104314999Y-98220752D01*
X104314999Y-98220752D02*
X104267380Y-98315990D01*
X104267380Y-98315990D02*
X104219761Y-98363609D01*
X104219761Y-98363609D02*
X104124523Y-98411228D01*
X104124523Y-98411228D02*
X103743571Y-98411228D01*
X104743571Y-98363609D02*
X105076904Y-98363609D01*
X105219761Y-98887419D02*
X104743571Y-98887419D01*
X104743571Y-98887419D02*
X104743571Y-97887419D01*
X104743571Y-97887419D02*
X105219761Y-97887419D01*
X106314999Y-98982657D02*
X106219761Y-98935038D01*
X106219761Y-98935038D02*
X106124523Y-98839800D01*
X106124523Y-98839800D02*
X105981666Y-98696942D01*
X105981666Y-98696942D02*
X105886428Y-98649323D01*
X105886428Y-98649323D02*
X105791190Y-98649323D01*
X105838809Y-98887419D02*
X105743571Y-98839800D01*
X105743571Y-98839800D02*
X105648333Y-98744561D01*
X105648333Y-98744561D02*
X105600714Y-98554085D01*
X105600714Y-98554085D02*
X105600714Y-98220752D01*
X105600714Y-98220752D02*
X105648333Y-98030276D01*
X105648333Y-98030276D02*
X105743571Y-97935038D01*
X105743571Y-97935038D02*
X105838809Y-97887419D01*
X105838809Y-97887419D02*
X106029285Y-97887419D01*
X106029285Y-97887419D02*
X106124523Y-97935038D01*
X106124523Y-97935038D02*
X106219761Y-98030276D01*
X106219761Y-98030276D02*
X106267380Y-98220752D01*
X106267380Y-98220752D02*
X106267380Y-98554085D01*
X106267380Y-98554085D02*
X106219761Y-98744561D01*
X106219761Y-98744561D02*
X106124523Y-98839800D01*
X106124523Y-98839800D02*
X106029285Y-98887419D01*
X106029285Y-98887419D02*
X105838809Y-98887419D01*
X106457857Y-98982657D02*
X107219761Y-98982657D01*
X107457857Y-98887419D02*
X107457857Y-97887419D01*
X107457857Y-97887419D02*
X107791190Y-98601704D01*
X107791190Y-98601704D02*
X108124523Y-97887419D01*
X108124523Y-97887419D02*
X108124523Y-98887419D01*
X108743571Y-98887419D02*
X108648333Y-98839800D01*
X108648333Y-98839800D02*
X108600714Y-98792180D01*
X108600714Y-98792180D02*
X108553095Y-98696942D01*
X108553095Y-98696942D02*
X108553095Y-98411228D01*
X108553095Y-98411228D02*
X108600714Y-98315990D01*
X108600714Y-98315990D02*
X108648333Y-98268371D01*
X108648333Y-98268371D02*
X108743571Y-98220752D01*
X108743571Y-98220752D02*
X108886428Y-98220752D01*
X108886428Y-98220752D02*
X108981666Y-98268371D01*
X108981666Y-98268371D02*
X109029285Y-98315990D01*
X109029285Y-98315990D02*
X109076904Y-98411228D01*
X109076904Y-98411228D02*
X109076904Y-98696942D01*
X109076904Y-98696942D02*
X109029285Y-98792180D01*
X109029285Y-98792180D02*
X108981666Y-98839800D01*
X108981666Y-98839800D02*
X108886428Y-98887419D01*
X108886428Y-98887419D02*
X108743571Y-98887419D01*
X109934047Y-98887419D02*
X109934047Y-97887419D01*
X109934047Y-98839800D02*
X109838809Y-98887419D01*
X109838809Y-98887419D02*
X109648333Y-98887419D01*
X109648333Y-98887419D02*
X109553095Y-98839800D01*
X109553095Y-98839800D02*
X109505476Y-98792180D01*
X109505476Y-98792180D02*
X109457857Y-98696942D01*
X109457857Y-98696942D02*
X109457857Y-98411228D01*
X109457857Y-98411228D02*
X109505476Y-98315990D01*
X109505476Y-98315990D02*
X109553095Y-98268371D01*
X109553095Y-98268371D02*
X109648333Y-98220752D01*
X109648333Y-98220752D02*
X109838809Y-98220752D01*
X109838809Y-98220752D02*
X109934047Y-98268371D01*
X110791190Y-98839800D02*
X110695952Y-98887419D01*
X110695952Y-98887419D02*
X110505476Y-98887419D01*
X110505476Y-98887419D02*
X110410238Y-98839800D01*
X110410238Y-98839800D02*
X110362619Y-98744561D01*
X110362619Y-98744561D02*
X110362619Y-98363609D01*
X110362619Y-98363609D02*
X110410238Y-98268371D01*
X110410238Y-98268371D02*
X110505476Y-98220752D01*
X110505476Y-98220752D02*
X110695952Y-98220752D01*
X110695952Y-98220752D02*
X110791190Y-98268371D01*
X110791190Y-98268371D02*
X110838809Y-98363609D01*
X110838809Y-98363609D02*
X110838809Y-98458847D01*
X110838809Y-98458847D02*
X110362619Y-98554085D01*
X111791190Y-98887419D02*
X111219762Y-98887419D01*
X111505476Y-98887419D02*
X111505476Y-97887419D01*
X111505476Y-97887419D02*
X111410238Y-98030276D01*
X111410238Y-98030276D02*
X111315000Y-98125514D01*
X111315000Y-98125514D02*
X111219762Y-98173133D01*
X159458066Y-96856219D02*
X159458066Y-97570504D01*
X159458066Y-97570504D02*
X159410447Y-97713361D01*
X159410447Y-97713361D02*
X159315209Y-97808600D01*
X159315209Y-97808600D02*
X159172352Y-97856219D01*
X159172352Y-97856219D02*
X159077114Y-97856219D01*
X160362828Y-96856219D02*
X160172352Y-96856219D01*
X160172352Y-96856219D02*
X160077114Y-96903838D01*
X160077114Y-96903838D02*
X160029495Y-96951457D01*
X160029495Y-96951457D02*
X159934257Y-97094314D01*
X159934257Y-97094314D02*
X159886638Y-97284790D01*
X159886638Y-97284790D02*
X159886638Y-97665742D01*
X159886638Y-97665742D02*
X159934257Y-97760980D01*
X159934257Y-97760980D02*
X159981876Y-97808600D01*
X159981876Y-97808600D02*
X160077114Y-97856219D01*
X160077114Y-97856219D02*
X160267590Y-97856219D01*
X160267590Y-97856219D02*
X160362828Y-97808600D01*
X160362828Y-97808600D02*
X160410447Y-97760980D01*
X160410447Y-97760980D02*
X160458066Y-97665742D01*
X160458066Y-97665742D02*
X160458066Y-97427647D01*
X160458066Y-97427647D02*
X160410447Y-97332409D01*
X160410447Y-97332409D02*
X160362828Y-97284790D01*
X160362828Y-97284790D02*
X160267590Y-97237171D01*
X160267590Y-97237171D02*
X160077114Y-97237171D01*
X160077114Y-97237171D02*
X159981876Y-97284790D01*
X159981876Y-97284790D02*
X159934257Y-97332409D01*
X159934257Y-97332409D02*
X159886638Y-97427647D01*
X115220133Y-129808780D02*
X115172514Y-129856400D01*
X115172514Y-129856400D02*
X115029657Y-129904019D01*
X115029657Y-129904019D02*
X114934419Y-129904019D01*
X114934419Y-129904019D02*
X114791562Y-129856400D01*
X114791562Y-129856400D02*
X114696324Y-129761161D01*
X114696324Y-129761161D02*
X114648705Y-129665923D01*
X114648705Y-129665923D02*
X114601086Y-129475447D01*
X114601086Y-129475447D02*
X114601086Y-129332590D01*
X114601086Y-129332590D02*
X114648705Y-129142114D01*
X114648705Y-129142114D02*
X114696324Y-129046876D01*
X114696324Y-129046876D02*
X114791562Y-128951638D01*
X114791562Y-128951638D02*
X114934419Y-128904019D01*
X114934419Y-128904019D02*
X115029657Y-128904019D01*
X115029657Y-128904019D02*
X115172514Y-128951638D01*
X115172514Y-128951638D02*
X115220133Y-128999257D01*
X115601086Y-128999257D02*
X115648705Y-128951638D01*
X115648705Y-128951638D02*
X115743943Y-128904019D01*
X115743943Y-128904019D02*
X115982038Y-128904019D01*
X115982038Y-128904019D02*
X116077276Y-128951638D01*
X116077276Y-128951638D02*
X116124895Y-128999257D01*
X116124895Y-128999257D02*
X116172514Y-129094495D01*
X116172514Y-129094495D02*
X116172514Y-129189733D01*
X116172514Y-129189733D02*
X116124895Y-129332590D01*
X116124895Y-129332590D02*
X115553467Y-129904019D01*
X115553467Y-129904019D02*
X116172514Y-129904019D01*
X105370333Y-90406619D02*
X105037000Y-89930428D01*
X104798905Y-90406619D02*
X104798905Y-89406619D01*
X104798905Y-89406619D02*
X105179857Y-89406619D01*
X105179857Y-89406619D02*
X105275095Y-89454238D01*
X105275095Y-89454238D02*
X105322714Y-89501857D01*
X105322714Y-89501857D02*
X105370333Y-89597095D01*
X105370333Y-89597095D02*
X105370333Y-89739952D01*
X105370333Y-89739952D02*
X105322714Y-89835190D01*
X105322714Y-89835190D02*
X105275095Y-89882809D01*
X105275095Y-89882809D02*
X105179857Y-89930428D01*
X105179857Y-89930428D02*
X104798905Y-89930428D01*
X106322714Y-90406619D02*
X105751286Y-90406619D01*
X106037000Y-90406619D02*
X106037000Y-89406619D01*
X106037000Y-89406619D02*
X105941762Y-89549476D01*
X105941762Y-89549476D02*
X105846524Y-89644714D01*
X105846524Y-89644714D02*
X105751286Y-89692333D01*
X119528619Y-73512276D02*
X119052428Y-73845609D01*
X119528619Y-74083704D02*
X118528619Y-74083704D01*
X118528619Y-74083704D02*
X118528619Y-73702752D01*
X118528619Y-73702752D02*
X118576238Y-73607514D01*
X118576238Y-73607514D02*
X118623857Y-73559895D01*
X118623857Y-73559895D02*
X118719095Y-73512276D01*
X118719095Y-73512276D02*
X118861952Y-73512276D01*
X118861952Y-73512276D02*
X118957190Y-73559895D01*
X118957190Y-73559895D02*
X119004809Y-73607514D01*
X119004809Y-73607514D02*
X119052428Y-73702752D01*
X119052428Y-73702752D02*
X119052428Y-74083704D01*
X119528619Y-73083704D02*
X118528619Y-73083704D01*
X118528619Y-73083704D02*
X119528619Y-72512276D01*
X119528619Y-72512276D02*
X118528619Y-72512276D01*
X119528619Y-71512276D02*
X119528619Y-72083704D01*
X119528619Y-71797990D02*
X118528619Y-71797990D01*
X118528619Y-71797990D02*
X118671476Y-71893228D01*
X118671476Y-71893228D02*
X118766714Y-71988466D01*
X118766714Y-71988466D02*
X118814333Y-72083704D01*
X119376219Y-111688476D02*
X118900028Y-112021809D01*
X119376219Y-112259904D02*
X118376219Y-112259904D01*
X118376219Y-112259904D02*
X118376219Y-111878952D01*
X118376219Y-111878952D02*
X118423838Y-111783714D01*
X118423838Y-111783714D02*
X118471457Y-111736095D01*
X118471457Y-111736095D02*
X118566695Y-111688476D01*
X118566695Y-111688476D02*
X118709552Y-111688476D01*
X118709552Y-111688476D02*
X118804790Y-111736095D01*
X118804790Y-111736095D02*
X118852409Y-111783714D01*
X118852409Y-111783714D02*
X118900028Y-111878952D01*
X118900028Y-111878952D02*
X118900028Y-112259904D01*
X119376219Y-111259904D02*
X118376219Y-111259904D01*
X118376219Y-111259904D02*
X119376219Y-110688476D01*
X119376219Y-110688476D02*
X118376219Y-110688476D01*
X118471457Y-110259904D02*
X118423838Y-110212285D01*
X118423838Y-110212285D02*
X118376219Y-110117047D01*
X118376219Y-110117047D02*
X118376219Y-109878952D01*
X118376219Y-109878952D02*
X118423838Y-109783714D01*
X118423838Y-109783714D02*
X118471457Y-109736095D01*
X118471457Y-109736095D02*
X118566695Y-109688476D01*
X118566695Y-109688476D02*
X118661933Y-109688476D01*
X118661933Y-109688476D02*
X118804790Y-109736095D01*
X118804790Y-109736095D02*
X119376219Y-110307523D01*
X119376219Y-110307523D02*
X119376219Y-109688476D01*
X103907057Y-59736619D02*
X104097533Y-59736619D01*
X104097533Y-59736619D02*
X104192771Y-59784238D01*
X104192771Y-59784238D02*
X104288009Y-59879476D01*
X104288009Y-59879476D02*
X104335628Y-60069952D01*
X104335628Y-60069952D02*
X104335628Y-60403285D01*
X104335628Y-60403285D02*
X104288009Y-60593761D01*
X104288009Y-60593761D02*
X104192771Y-60689000D01*
X104192771Y-60689000D02*
X104097533Y-60736619D01*
X104097533Y-60736619D02*
X103907057Y-60736619D01*
X103907057Y-60736619D02*
X103811819Y-60689000D01*
X103811819Y-60689000D02*
X103716581Y-60593761D01*
X103716581Y-60593761D02*
X103668962Y-60403285D01*
X103668962Y-60403285D02*
X103668962Y-60069952D01*
X103668962Y-60069952D02*
X103716581Y-59879476D01*
X103716581Y-59879476D02*
X103811819Y-59784238D01*
X103811819Y-59784238D02*
X103907057Y-59736619D01*
X104764200Y-60736619D02*
X104764200Y-59736619D01*
X104764200Y-59736619D02*
X105145152Y-59736619D01*
X105145152Y-59736619D02*
X105240390Y-59784238D01*
X105240390Y-59784238D02*
X105288009Y-59831857D01*
X105288009Y-59831857D02*
X105335628Y-59927095D01*
X105335628Y-59927095D02*
X105335628Y-60069952D01*
X105335628Y-60069952D02*
X105288009Y-60165190D01*
X105288009Y-60165190D02*
X105240390Y-60212809D01*
X105240390Y-60212809D02*
X105145152Y-60260428D01*
X105145152Y-60260428D02*
X104764200Y-60260428D01*
X105526105Y-60831857D02*
X106288009Y-60831857D01*
X106526105Y-60736619D02*
X106526105Y-59736619D01*
X106526105Y-59736619D02*
X106859438Y-60450904D01*
X106859438Y-60450904D02*
X107192771Y-59736619D01*
X107192771Y-59736619D02*
X107192771Y-60736619D01*
X107811819Y-60736619D02*
X107716581Y-60689000D01*
X107716581Y-60689000D02*
X107668962Y-60641380D01*
X107668962Y-60641380D02*
X107621343Y-60546142D01*
X107621343Y-60546142D02*
X107621343Y-60260428D01*
X107621343Y-60260428D02*
X107668962Y-60165190D01*
X107668962Y-60165190D02*
X107716581Y-60117571D01*
X107716581Y-60117571D02*
X107811819Y-60069952D01*
X107811819Y-60069952D02*
X107954676Y-60069952D01*
X107954676Y-60069952D02*
X108049914Y-60117571D01*
X108049914Y-60117571D02*
X108097533Y-60165190D01*
X108097533Y-60165190D02*
X108145152Y-60260428D01*
X108145152Y-60260428D02*
X108145152Y-60546142D01*
X108145152Y-60546142D02*
X108097533Y-60641380D01*
X108097533Y-60641380D02*
X108049914Y-60689000D01*
X108049914Y-60689000D02*
X107954676Y-60736619D01*
X107954676Y-60736619D02*
X107811819Y-60736619D01*
X109002295Y-60736619D02*
X109002295Y-59736619D01*
X109002295Y-60689000D02*
X108907057Y-60736619D01*
X108907057Y-60736619D02*
X108716581Y-60736619D01*
X108716581Y-60736619D02*
X108621343Y-60689000D01*
X108621343Y-60689000D02*
X108573724Y-60641380D01*
X108573724Y-60641380D02*
X108526105Y-60546142D01*
X108526105Y-60546142D02*
X108526105Y-60260428D01*
X108526105Y-60260428D02*
X108573724Y-60165190D01*
X108573724Y-60165190D02*
X108621343Y-60117571D01*
X108621343Y-60117571D02*
X108716581Y-60069952D01*
X108716581Y-60069952D02*
X108907057Y-60069952D01*
X108907057Y-60069952D02*
X109002295Y-60117571D01*
X109859438Y-60689000D02*
X109764200Y-60736619D01*
X109764200Y-60736619D02*
X109573724Y-60736619D01*
X109573724Y-60736619D02*
X109478486Y-60689000D01*
X109478486Y-60689000D02*
X109430867Y-60593761D01*
X109430867Y-60593761D02*
X109430867Y-60212809D01*
X109430867Y-60212809D02*
X109478486Y-60117571D01*
X109478486Y-60117571D02*
X109573724Y-60069952D01*
X109573724Y-60069952D02*
X109764200Y-60069952D01*
X109764200Y-60069952D02*
X109859438Y-60117571D01*
X109859438Y-60117571D02*
X109907057Y-60212809D01*
X109907057Y-60212809D02*
X109907057Y-60308047D01*
X109907057Y-60308047D02*
X109430867Y-60403285D01*
X110859438Y-60736619D02*
X110288010Y-60736619D01*
X110573724Y-60736619D02*
X110573724Y-59736619D01*
X110573724Y-59736619D02*
X110478486Y-59879476D01*
X110478486Y-59879476D02*
X110383248Y-59974714D01*
X110383248Y-59974714D02*
X110288010Y-60022333D01*
X152235819Y-92125704D02*
X153045342Y-92125704D01*
X153045342Y-92125704D02*
X153140580Y-92078085D01*
X153140580Y-92078085D02*
X153188200Y-92030466D01*
X153188200Y-92030466D02*
X153235819Y-91935228D01*
X153235819Y-91935228D02*
X153235819Y-91744752D01*
X153235819Y-91744752D02*
X153188200Y-91649514D01*
X153188200Y-91649514D02*
X153140580Y-91601895D01*
X153140580Y-91601895D02*
X153045342Y-91554276D01*
X153045342Y-91554276D02*
X152235819Y-91554276D01*
X153235819Y-90554276D02*
X153235819Y-91125704D01*
X153235819Y-90839990D02*
X152235819Y-90839990D01*
X152235819Y-90839990D02*
X152378676Y-90935228D01*
X152378676Y-90935228D02*
X152473914Y-91030466D01*
X152473914Y-91030466D02*
X152521533Y-91125704D01*
X143075819Y-118612847D02*
X142075819Y-118612847D01*
X142075819Y-118612847D02*
X142790104Y-118279514D01*
X142790104Y-118279514D02*
X142075819Y-117946181D01*
X142075819Y-117946181D02*
X143075819Y-117946181D01*
X143075819Y-117469990D02*
X142409152Y-117469990D01*
X142075819Y-117469990D02*
X142123438Y-117517609D01*
X142123438Y-117517609D02*
X142171057Y-117469990D01*
X142171057Y-117469990D02*
X142123438Y-117422371D01*
X142123438Y-117422371D02*
X142075819Y-117469990D01*
X142075819Y-117469990D02*
X142171057Y-117469990D01*
X143028200Y-116565229D02*
X143075819Y-116660467D01*
X143075819Y-116660467D02*
X143075819Y-116850943D01*
X143075819Y-116850943D02*
X143028200Y-116946181D01*
X143028200Y-116946181D02*
X142980580Y-116993800D01*
X142980580Y-116993800D02*
X142885342Y-117041419D01*
X142885342Y-117041419D02*
X142599628Y-117041419D01*
X142599628Y-117041419D02*
X142504390Y-116993800D01*
X142504390Y-116993800D02*
X142456771Y-116946181D01*
X142456771Y-116946181D02*
X142409152Y-116850943D01*
X142409152Y-116850943D02*
X142409152Y-116660467D01*
X142409152Y-116660467D02*
X142456771Y-116565229D01*
X143075819Y-116136657D02*
X142409152Y-116136657D01*
X142599628Y-116136657D02*
X142504390Y-116089038D01*
X142504390Y-116089038D02*
X142456771Y-116041419D01*
X142456771Y-116041419D02*
X142409152Y-115946181D01*
X142409152Y-115946181D02*
X142409152Y-115850943D01*
X143075819Y-115374752D02*
X143028200Y-115469990D01*
X143028200Y-115469990D02*
X142980580Y-115517609D01*
X142980580Y-115517609D02*
X142885342Y-115565228D01*
X142885342Y-115565228D02*
X142599628Y-115565228D01*
X142599628Y-115565228D02*
X142504390Y-115517609D01*
X142504390Y-115517609D02*
X142456771Y-115469990D01*
X142456771Y-115469990D02*
X142409152Y-115374752D01*
X142409152Y-115374752D02*
X142409152Y-115231895D01*
X142409152Y-115231895D02*
X142456771Y-115136657D01*
X142456771Y-115136657D02*
X142504390Y-115089038D01*
X142504390Y-115089038D02*
X142599628Y-115041419D01*
X142599628Y-115041419D02*
X142885342Y-115041419D01*
X142885342Y-115041419D02*
X142980580Y-115089038D01*
X142980580Y-115089038D02*
X143028200Y-115136657D01*
X143028200Y-115136657D02*
X143075819Y-115231895D01*
X143075819Y-115231895D02*
X143075819Y-115374752D01*
X143028200Y-113898561D02*
X143075819Y-113755704D01*
X143075819Y-113755704D02*
X143075819Y-113517609D01*
X143075819Y-113517609D02*
X143028200Y-113422371D01*
X143028200Y-113422371D02*
X142980580Y-113374752D01*
X142980580Y-113374752D02*
X142885342Y-113327133D01*
X142885342Y-113327133D02*
X142790104Y-113327133D01*
X142790104Y-113327133D02*
X142694866Y-113374752D01*
X142694866Y-113374752D02*
X142647247Y-113422371D01*
X142647247Y-113422371D02*
X142599628Y-113517609D01*
X142599628Y-113517609D02*
X142552009Y-113708085D01*
X142552009Y-113708085D02*
X142504390Y-113803323D01*
X142504390Y-113803323D02*
X142456771Y-113850942D01*
X142456771Y-113850942D02*
X142361533Y-113898561D01*
X142361533Y-113898561D02*
X142266295Y-113898561D01*
X142266295Y-113898561D02*
X142171057Y-113850942D01*
X142171057Y-113850942D02*
X142123438Y-113803323D01*
X142123438Y-113803323D02*
X142075819Y-113708085D01*
X142075819Y-113708085D02*
X142075819Y-113469990D01*
X142075819Y-113469990D02*
X142123438Y-113327133D01*
X143075819Y-112898561D02*
X142075819Y-112898561D01*
X142075819Y-112898561D02*
X142075819Y-112660466D01*
X142075819Y-112660466D02*
X142123438Y-112517609D01*
X142123438Y-112517609D02*
X142218676Y-112422371D01*
X142218676Y-112422371D02*
X142313914Y-112374752D01*
X142313914Y-112374752D02*
X142504390Y-112327133D01*
X142504390Y-112327133D02*
X142647247Y-112327133D01*
X142647247Y-112327133D02*
X142837723Y-112374752D01*
X142837723Y-112374752D02*
X142932961Y-112422371D01*
X142932961Y-112422371D02*
X143028200Y-112517609D01*
X143028200Y-112517609D02*
X143075819Y-112660466D01*
X143075819Y-112660466D02*
X143075819Y-112898561D01*
X139586619Y-76207523D02*
X140396142Y-76207523D01*
X140396142Y-76207523D02*
X140491380Y-76159904D01*
X140491380Y-76159904D02*
X140539000Y-76112285D01*
X140539000Y-76112285D02*
X140586619Y-76017047D01*
X140586619Y-76017047D02*
X140586619Y-75826571D01*
X140586619Y-75826571D02*
X140539000Y-75731333D01*
X140539000Y-75731333D02*
X140491380Y-75683714D01*
X140491380Y-75683714D02*
X140396142Y-75636095D01*
X140396142Y-75636095D02*
X139586619Y-75636095D01*
X140539000Y-75207523D02*
X140586619Y-75064666D01*
X140586619Y-75064666D02*
X140586619Y-74826571D01*
X140586619Y-74826571D02*
X140539000Y-74731333D01*
X140539000Y-74731333D02*
X140491380Y-74683714D01*
X140491380Y-74683714D02*
X140396142Y-74636095D01*
X140396142Y-74636095D02*
X140300904Y-74636095D01*
X140300904Y-74636095D02*
X140205666Y-74683714D01*
X140205666Y-74683714D02*
X140158047Y-74731333D01*
X140158047Y-74731333D02*
X140110428Y-74826571D01*
X140110428Y-74826571D02*
X140062809Y-75017047D01*
X140062809Y-75017047D02*
X140015190Y-75112285D01*
X140015190Y-75112285D02*
X139967571Y-75159904D01*
X139967571Y-75159904D02*
X139872333Y-75207523D01*
X139872333Y-75207523D02*
X139777095Y-75207523D01*
X139777095Y-75207523D02*
X139681857Y-75159904D01*
X139681857Y-75159904D02*
X139634238Y-75112285D01*
X139634238Y-75112285D02*
X139586619Y-75017047D01*
X139586619Y-75017047D02*
X139586619Y-74778952D01*
X139586619Y-74778952D02*
X139634238Y-74636095D01*
X140062809Y-73874190D02*
X140110428Y-73731333D01*
X140110428Y-73731333D02*
X140158047Y-73683714D01*
X140158047Y-73683714D02*
X140253285Y-73636095D01*
X140253285Y-73636095D02*
X140396142Y-73636095D01*
X140396142Y-73636095D02*
X140491380Y-73683714D01*
X140491380Y-73683714D02*
X140539000Y-73731333D01*
X140539000Y-73731333D02*
X140586619Y-73826571D01*
X140586619Y-73826571D02*
X140586619Y-74207523D01*
X140586619Y-74207523D02*
X139586619Y-74207523D01*
X139586619Y-74207523D02*
X139586619Y-73874190D01*
X139586619Y-73874190D02*
X139634238Y-73778952D01*
X139634238Y-73778952D02*
X139681857Y-73731333D01*
X139681857Y-73731333D02*
X139777095Y-73683714D01*
X139777095Y-73683714D02*
X139872333Y-73683714D01*
X139872333Y-73683714D02*
X139967571Y-73731333D01*
X139967571Y-73731333D02*
X140015190Y-73778952D01*
X140015190Y-73778952D02*
X140062809Y-73874190D01*
X140062809Y-73874190D02*
X140062809Y-74207523D01*
X140586619Y-72445618D02*
X139586619Y-72445618D01*
X140062809Y-72445618D02*
X140062809Y-71874190D01*
X140586619Y-71874190D02*
X139586619Y-71874190D01*
X140586619Y-71255142D02*
X140539000Y-71350380D01*
X140539000Y-71350380D02*
X140491380Y-71397999D01*
X140491380Y-71397999D02*
X140396142Y-71445618D01*
X140396142Y-71445618D02*
X140110428Y-71445618D01*
X140110428Y-71445618D02*
X140015190Y-71397999D01*
X140015190Y-71397999D02*
X139967571Y-71350380D01*
X139967571Y-71350380D02*
X139919952Y-71255142D01*
X139919952Y-71255142D02*
X139919952Y-71112285D01*
X139919952Y-71112285D02*
X139967571Y-71017047D01*
X139967571Y-71017047D02*
X140015190Y-70969428D01*
X140015190Y-70969428D02*
X140110428Y-70921809D01*
X140110428Y-70921809D02*
X140396142Y-70921809D01*
X140396142Y-70921809D02*
X140491380Y-70969428D01*
X140491380Y-70969428D02*
X140539000Y-71017047D01*
X140539000Y-71017047D02*
X140586619Y-71112285D01*
X140586619Y-71112285D02*
X140586619Y-71255142D01*
X140539000Y-70540856D02*
X140586619Y-70445618D01*
X140586619Y-70445618D02*
X140586619Y-70255142D01*
X140586619Y-70255142D02*
X140539000Y-70159904D01*
X140539000Y-70159904D02*
X140443761Y-70112285D01*
X140443761Y-70112285D02*
X140396142Y-70112285D01*
X140396142Y-70112285D02*
X140300904Y-70159904D01*
X140300904Y-70159904D02*
X140253285Y-70255142D01*
X140253285Y-70255142D02*
X140253285Y-70397999D01*
X140253285Y-70397999D02*
X140205666Y-70493237D01*
X140205666Y-70493237D02*
X140110428Y-70540856D01*
X140110428Y-70540856D02*
X140062809Y-70540856D01*
X140062809Y-70540856D02*
X139967571Y-70493237D01*
X139967571Y-70493237D02*
X139919952Y-70397999D01*
X139919952Y-70397999D02*
X139919952Y-70255142D01*
X139919952Y-70255142D02*
X139967571Y-70159904D01*
X139919952Y-69826570D02*
X139919952Y-69445618D01*
X139586619Y-69683713D02*
X140443761Y-69683713D01*
X140443761Y-69683713D02*
X140539000Y-69636094D01*
X140539000Y-69636094D02*
X140586619Y-69540856D01*
X140586619Y-69540856D02*
X140586619Y-69445618D01*
X141359095Y-64148619D02*
X141359095Y-64958142D01*
X141359095Y-64958142D02*
X141406714Y-65053380D01*
X141406714Y-65053380D02*
X141454333Y-65101000D01*
X141454333Y-65101000D02*
X141549571Y-65148619D01*
X141549571Y-65148619D02*
X141740047Y-65148619D01*
X141740047Y-65148619D02*
X141835285Y-65101000D01*
X141835285Y-65101000D02*
X141882904Y-65053380D01*
X141882904Y-65053380D02*
X141930523Y-64958142D01*
X141930523Y-64958142D02*
X141930523Y-64148619D01*
X142359095Y-65101000D02*
X142501952Y-65148619D01*
X142501952Y-65148619D02*
X142740047Y-65148619D01*
X142740047Y-65148619D02*
X142835285Y-65101000D01*
X142835285Y-65101000D02*
X142882904Y-65053380D01*
X142882904Y-65053380D02*
X142930523Y-64958142D01*
X142930523Y-64958142D02*
X142930523Y-64862904D01*
X142930523Y-64862904D02*
X142882904Y-64767666D01*
X142882904Y-64767666D02*
X142835285Y-64720047D01*
X142835285Y-64720047D02*
X142740047Y-64672428D01*
X142740047Y-64672428D02*
X142549571Y-64624809D01*
X142549571Y-64624809D02*
X142454333Y-64577190D01*
X142454333Y-64577190D02*
X142406714Y-64529571D01*
X142406714Y-64529571D02*
X142359095Y-64434333D01*
X142359095Y-64434333D02*
X142359095Y-64339095D01*
X142359095Y-64339095D02*
X142406714Y-64243857D01*
X142406714Y-64243857D02*
X142454333Y-64196238D01*
X142454333Y-64196238D02*
X142549571Y-64148619D01*
X142549571Y-64148619D02*
X142787666Y-64148619D01*
X142787666Y-64148619D02*
X142930523Y-64196238D01*
X143692428Y-64624809D02*
X143835285Y-64672428D01*
X143835285Y-64672428D02*
X143882904Y-64720047D01*
X143882904Y-64720047D02*
X143930523Y-64815285D01*
X143930523Y-64815285D02*
X143930523Y-64958142D01*
X143930523Y-64958142D02*
X143882904Y-65053380D01*
X143882904Y-65053380D02*
X143835285Y-65101000D01*
X143835285Y-65101000D02*
X143740047Y-65148619D01*
X143740047Y-65148619D02*
X143359095Y-65148619D01*
X143359095Y-65148619D02*
X143359095Y-64148619D01*
X143359095Y-64148619D02*
X143692428Y-64148619D01*
X143692428Y-64148619D02*
X143787666Y-64196238D01*
X143787666Y-64196238D02*
X143835285Y-64243857D01*
X143835285Y-64243857D02*
X143882904Y-64339095D01*
X143882904Y-64339095D02*
X143882904Y-64434333D01*
X143882904Y-64434333D02*
X143835285Y-64529571D01*
X143835285Y-64529571D02*
X143787666Y-64577190D01*
X143787666Y-64577190D02*
X143692428Y-64624809D01*
X143692428Y-64624809D02*
X143359095Y-64624809D01*
X143040456Y-79229809D02*
X143373789Y-79229809D01*
X143516646Y-79753619D02*
X143040456Y-79753619D01*
X143040456Y-79753619D02*
X143040456Y-78753619D01*
X143040456Y-78753619D02*
X143516646Y-78753619D01*
X143802361Y-79086952D02*
X144183313Y-79086952D01*
X143945218Y-78753619D02*
X143945218Y-79610761D01*
X143945218Y-79610761D02*
X143992837Y-79706000D01*
X143992837Y-79706000D02*
X144088075Y-79753619D01*
X144088075Y-79753619D02*
X144183313Y-79753619D01*
X144516647Y-79753619D02*
X144516647Y-78753619D01*
X144945218Y-79753619D02*
X144945218Y-79229809D01*
X144945218Y-79229809D02*
X144897599Y-79134571D01*
X144897599Y-79134571D02*
X144802361Y-79086952D01*
X144802361Y-79086952D02*
X144659504Y-79086952D01*
X144659504Y-79086952D02*
X144564266Y-79134571D01*
X144564266Y-79134571D02*
X144516647Y-79182190D01*
X145802361Y-79706000D02*
X145707123Y-79753619D01*
X145707123Y-79753619D02*
X145516647Y-79753619D01*
X145516647Y-79753619D02*
X145421409Y-79706000D01*
X145421409Y-79706000D02*
X145373790Y-79610761D01*
X145373790Y-79610761D02*
X145373790Y-79229809D01*
X145373790Y-79229809D02*
X145421409Y-79134571D01*
X145421409Y-79134571D02*
X145516647Y-79086952D01*
X145516647Y-79086952D02*
X145707123Y-79086952D01*
X145707123Y-79086952D02*
X145802361Y-79134571D01*
X145802361Y-79134571D02*
X145849980Y-79229809D01*
X145849980Y-79229809D02*
X145849980Y-79325047D01*
X145849980Y-79325047D02*
X145373790Y-79420285D01*
X146278552Y-79753619D02*
X146278552Y-79086952D01*
X146278552Y-79277428D02*
X146326171Y-79182190D01*
X146326171Y-79182190D02*
X146373790Y-79134571D01*
X146373790Y-79134571D02*
X146469028Y-79086952D01*
X146469028Y-79086952D02*
X146564266Y-79086952D01*
X146897600Y-79086952D02*
X146897600Y-79753619D01*
X146897600Y-79182190D02*
X146945219Y-79134571D01*
X146945219Y-79134571D02*
X147040457Y-79086952D01*
X147040457Y-79086952D02*
X147183314Y-79086952D01*
X147183314Y-79086952D02*
X147278552Y-79134571D01*
X147278552Y-79134571D02*
X147326171Y-79229809D01*
X147326171Y-79229809D02*
X147326171Y-79753619D01*
X148183314Y-79706000D02*
X148088076Y-79753619D01*
X148088076Y-79753619D02*
X147897600Y-79753619D01*
X147897600Y-79753619D02*
X147802362Y-79706000D01*
X147802362Y-79706000D02*
X147754743Y-79610761D01*
X147754743Y-79610761D02*
X147754743Y-79229809D01*
X147754743Y-79229809D02*
X147802362Y-79134571D01*
X147802362Y-79134571D02*
X147897600Y-79086952D01*
X147897600Y-79086952D02*
X148088076Y-79086952D01*
X148088076Y-79086952D02*
X148183314Y-79134571D01*
X148183314Y-79134571D02*
X148230933Y-79229809D01*
X148230933Y-79229809D02*
X148230933Y-79325047D01*
X148230933Y-79325047D02*
X147754743Y-79420285D01*
X148516648Y-79086952D02*
X148897600Y-79086952D01*
X148659505Y-78753619D02*
X148659505Y-79610761D01*
X148659505Y-79610761D02*
X148707124Y-79706000D01*
X148707124Y-79706000D02*
X148802362Y-79753619D01*
X148802362Y-79753619D02*
X148897600Y-79753619D01*
D11*
X122038600Y-128380000D02*
X122038600Y-127000000D01*
X123418600Y-128380000D02*
X122038600Y-128380000D01*
X124688600Y-125620000D02*
X129878600Y-125620000D01*
X124688600Y-128380000D02*
X124688600Y-125620000D01*
X124688600Y-128380000D02*
X129878600Y-128380000D01*
X129878600Y-128380000D02*
X129878600Y-125620000D01*
X112766800Y-90476400D02*
X118006800Y-90476400D01*
X112766800Y-93216400D02*
X112766800Y-90476400D01*
X118006800Y-90476400D02*
X118006800Y-93216400D01*
X118006800Y-93216400D02*
X112766800Y-93216400D01*
X122089400Y-114977400D02*
X122089400Y-117737400D01*
X124739400Y-114977400D02*
X122089400Y-114977400D01*
X124739400Y-114977400D02*
X124739400Y-117737400D01*
X124739400Y-117737400D02*
X122089400Y-117737400D01*
X126009400Y-114977400D02*
X127389400Y-114977400D01*
X127389400Y-114977400D02*
X127389400Y-116357400D01*
X158386000Y-120904000D02*
X158386000Y-115714000D01*
X161146000Y-115714000D02*
X158386000Y-115714000D01*
X161146000Y-120904000D02*
X158386000Y-120904000D01*
X161146000Y-120904000D02*
X161146000Y-115714000D01*
X161146000Y-122174000D02*
X161146000Y-123554000D01*
X161146000Y-123554000D02*
X159766000Y-123554000D01*
X103667800Y-126105400D02*
X107507800Y-126105400D01*
X103667800Y-127945400D02*
X107507800Y-127945400D01*
X124553200Y-87647000D02*
X125933200Y-87647000D01*
X124553200Y-89027000D02*
X124553200Y-87647000D01*
X124553200Y-90297000D02*
X124553200Y-108187000D01*
X124553200Y-90297000D02*
X127313200Y-90297000D01*
X124553200Y-108187000D02*
X127313200Y-108187000D01*
X127313200Y-90297000D02*
X127313200Y-108187000D01*
X158411400Y-66497200D02*
X158411400Y-61307200D01*
X161171400Y-61307200D02*
X158411400Y-61307200D01*
X161171400Y-66497200D02*
X158411400Y-66497200D01*
X161171400Y-66497200D02*
X161171400Y-61307200D01*
X161171400Y-67767200D02*
X161171400Y-69147200D01*
X161171400Y-69147200D02*
X159791400Y-69147200D01*
X105935000Y-99432600D02*
X107315000Y-99432600D01*
X105935000Y-100812600D02*
X105935000Y-99432600D01*
X105935000Y-102082600D02*
X105935000Y-122512600D01*
X105935000Y-102082600D02*
X108695000Y-102082600D01*
X105935000Y-122512600D02*
X108695000Y-122512600D01*
X108695000Y-102082600D02*
X108695000Y-122512600D01*
X158411400Y-93751400D02*
X158411400Y-88561400D01*
X161171400Y-88561400D02*
X158411400Y-88561400D01*
X161171400Y-93751400D02*
X158411400Y-93751400D01*
X161171400Y-93751400D02*
X161171400Y-88561400D01*
X161171400Y-95021400D02*
X161171400Y-96401400D01*
X161171400Y-96401400D02*
X159791400Y-96401400D01*
X112766800Y-125579200D02*
X118006800Y-125579200D01*
X112766800Y-128319200D02*
X112766800Y-125579200D01*
X118006800Y-125579200D02*
X118006800Y-128319200D01*
X118006800Y-128319200D02*
X112766800Y-128319200D01*
X158411400Y-80137000D02*
X158411400Y-74947000D01*
X161171400Y-74947000D02*
X158411400Y-74947000D01*
X161171400Y-80137000D02*
X158411400Y-80137000D01*
X161171400Y-80137000D02*
X161171400Y-74947000D01*
X161171400Y-81407000D02*
X161171400Y-82787000D01*
X161171400Y-82787000D02*
X159791400Y-82787000D01*
X103617000Y-90951800D02*
X107457000Y-90951800D01*
X103617000Y-92791800D02*
X107457000Y-92791800D01*
X124578600Y-63339200D02*
X125958600Y-63339200D01*
X124578600Y-64719200D02*
X124578600Y-63339200D01*
X124578600Y-65989200D02*
X124578600Y-83879200D01*
X124578600Y-65989200D02*
X127338600Y-65989200D01*
X124578600Y-83879200D02*
X127338600Y-83879200D01*
X127338600Y-65989200D02*
X127338600Y-83879200D01*
X115453800Y-61311800D02*
X115453800Y-81791800D01*
X115453800Y-81791800D02*
X118073800Y-81791800D01*
X118073800Y-61311800D02*
X115453800Y-61311800D01*
X118073800Y-63931800D02*
X115453800Y-63931800D01*
X118073800Y-81791800D02*
X118073800Y-61311800D01*
X115301400Y-99488000D02*
X115301400Y-119968000D01*
X115301400Y-119968000D02*
X117921400Y-119968000D01*
X117921400Y-99488000D02*
X115301400Y-99488000D01*
X117921400Y-102108000D02*
X115301400Y-102108000D01*
X117921400Y-119968000D02*
X117921400Y-99488000D01*
X105884200Y-61281800D02*
X107264200Y-61281800D01*
X105884200Y-62661800D02*
X105884200Y-61281800D01*
X105884200Y-63931800D02*
X105884200Y-84361800D01*
X105884200Y-63931800D02*
X108644200Y-63931800D01*
X105884200Y-84361800D02*
X108644200Y-84361800D01*
X108644200Y-63931800D02*
X108644200Y-84361800D01*
D10*
X133731000Y-60883800D02*
X151511000Y-60883800D01*
X133731000Y-121843800D02*
X133731000Y-60883800D01*
X136271000Y-83743800D02*
X136271000Y-96443800D01*
X136271000Y-96443800D02*
X148971000Y-96443800D01*
X136271000Y-109143800D02*
X136271000Y-121843800D01*
X136781800Y-67183000D02*
X139321800Y-67183000D01*
X136781800Y-79883000D02*
X136781800Y-67183000D01*
X137541000Y-120573800D02*
X137541000Y-121843800D01*
X138811000Y-59613800D02*
X146431000Y-59613800D01*
X138811000Y-60883800D02*
X138811000Y-59613800D01*
X138811000Y-65963800D02*
X138811000Y-60883800D01*
X138811000Y-65963800D02*
X146431000Y-65963800D01*
X139321800Y-67183000D02*
X139321800Y-69723000D01*
X139321800Y-67183000D02*
X139321800Y-79883000D01*
X139321800Y-69723000D02*
X136781800Y-69723000D01*
X139321800Y-79883000D02*
X136781800Y-79883000D01*
X141351000Y-101523800D02*
X143891000Y-101523800D01*
X141351000Y-105333800D02*
X141351000Y-101523800D01*
X142722600Y-74113800D02*
X142722600Y-78113800D01*
X142722600Y-78113800D02*
X148972600Y-78113800D01*
X143891000Y-101523800D02*
X143891000Y-105333800D01*
X143891000Y-105333800D02*
X141351000Y-105333800D01*
X146431000Y-59613800D02*
X146431000Y-60883800D01*
X146431000Y-65963800D02*
X146431000Y-60883800D01*
X147701000Y-120573800D02*
X137541000Y-120573800D01*
X147701000Y-121843800D02*
X147701000Y-120573800D01*
X148722600Y-74113800D02*
X142722600Y-74113800D01*
X148971000Y-83743800D02*
X136271000Y-83743800D01*
X148971000Y-96443800D02*
X148971000Y-83743800D01*
X148971000Y-109143800D02*
X136271000Y-109143800D01*
X148971000Y-121843800D02*
X148971000Y-109143800D01*
X148972600Y-74113800D02*
X148722600Y-74113800D01*
X148972600Y-78113800D02*
X148972600Y-74113800D01*
X151511000Y-60883800D02*
X151511000Y-121843800D01*
X151511000Y-121843800D02*
X133731000Y-121843800D01*
X143519026Y-103428800D02*
G75*
G02*
X141722974Y-103428800I-898026J0D01*
G01*
X141722974Y-103428800D02*
G75*
G02*
X143519026Y-103428800I898026J0D01*
G01*
D12*
X142547000Y-93544800D02*
X142166000Y-93798800D01*
X141912000Y-93544800D01*
X142293000Y-93290800D01*
X142547000Y-93544800D01*
G36*
X142547000Y-93544800D02*
G01*
X142166000Y-93798800D01*
X141912000Y-93544800D01*
X142293000Y-93290800D01*
X142547000Y-93544800D01*
G37*
X142674000Y-92782800D02*
X142293000Y-93036800D01*
X142039000Y-92782800D01*
X142420000Y-92528800D01*
X142674000Y-92782800D01*
G36*
X142674000Y-92782800D02*
G01*
X142293000Y-93036800D01*
X142039000Y-92782800D01*
X142420000Y-92528800D01*
X142674000Y-92782800D01*
G37*
X142928000Y-93925800D02*
X142547000Y-94179800D01*
X142293000Y-93925800D01*
X142674000Y-93671800D01*
X142928000Y-93925800D01*
G36*
X142928000Y-93925800D02*
G01*
X142547000Y-94179800D01*
X142293000Y-93925800D01*
X142674000Y-93671800D01*
X142928000Y-93925800D01*
G37*
X143055000Y-93163800D02*
X142674000Y-93417800D01*
X142420000Y-93163800D01*
X142801000Y-92909800D01*
X143055000Y-93163800D01*
G36*
X143055000Y-93163800D02*
G01*
X142674000Y-93417800D01*
X142420000Y-93163800D01*
X142801000Y-92909800D01*
X143055000Y-93163800D01*
G37*
X143182000Y-92401800D02*
X142801000Y-92655800D01*
X142547000Y-92401800D01*
X142928000Y-92147800D01*
X143182000Y-92401800D01*
G36*
X143182000Y-92401800D02*
G01*
X142801000Y-92655800D01*
X142547000Y-92401800D01*
X142928000Y-92147800D01*
X143182000Y-92401800D01*
G37*
X143309000Y-94306800D02*
X142928000Y-94560800D01*
X142674000Y-94306800D01*
X143055000Y-94052800D01*
X143309000Y-94306800D01*
G36*
X143309000Y-94306800D02*
G01*
X142928000Y-94560800D01*
X142674000Y-94306800D01*
X143055000Y-94052800D01*
X143309000Y-94306800D01*
G37*
X143563000Y-92782800D02*
X143182000Y-93036800D01*
X142928000Y-92782800D01*
X143309000Y-92528800D01*
X143563000Y-92782800D01*
G36*
X143563000Y-92782800D02*
G01*
X143182000Y-93036800D01*
X142928000Y-92782800D01*
X143309000Y-92528800D01*
X143563000Y-92782800D01*
G37*
X143690000Y-92020800D02*
X143309000Y-92274800D01*
X143055000Y-92020800D01*
X143436000Y-91766800D01*
X143690000Y-92020800D01*
G36*
X143690000Y-92020800D02*
G01*
X143309000Y-92274800D01*
X143055000Y-92020800D01*
X143436000Y-91766800D01*
X143690000Y-92020800D01*
G37*
D11*
X158386000Y-107315000D02*
X158386000Y-102125000D01*
X161146000Y-102125000D02*
X158386000Y-102125000D01*
X161146000Y-107315000D02*
X158386000Y-107315000D01*
X161146000Y-107315000D02*
X161146000Y-102125000D01*
X161146000Y-108585000D02*
X161146000Y-109965000D01*
X161146000Y-109965000D02*
X159766000Y-109965000D01*
M02*
