M48
; DRILL file {KiCad 9.0.3} date 2025-07-31T09:13:29-0600
; FORMAT={-:-/ absolute / metric / decimal}
; #@! TF.CreationDate,2025-07-31T09:13:29-06:00
; #@! TF.GenerationSoftware,Kicad,Pcbnew,9.0.3
; #@! TF.FileFunction,Plated,1,2,PTH
FMAT,2
METRIC
; #@! TA.AperFunction,Plated,PTH,ViaDrill
T1C0.300
; #@! TA.AperFunction,Plated,PTH,ComponentDrill
T2C1.000
; #@! TA.AperFunction,Plated,PTH,ComponentDrill
T3C1.020
; #@! TA.AperFunction,Plated,PTH,ComponentDrill
T4C1.100
; #@! TA.AperFunction,Plated,PTH,ComponentDrill
T5C2.300
; #@! TA.AperFunction,Plated,PTH,ComponentDrill
T6C2.500
; #@! TA.AperFunction,Plated,PTH,ComponentDrill
T7C3.000
%
G90
G05
T1
X138.65Y-66.9
X152.43Y-82.81
X158.26Y-98.32
X160.33Y-85.97
X161.04Y-104.06
X172.61Y-99.02
X185.12Y-101.94
X195.07Y-70.62
X199.33Y-67.39
X202.68Y-64.75
X203.91Y-66.1
X209.09Y-68.63
X223.99Y-70.45
T2
X131.43Y-63.47
X131.43Y-66.01
X131.43Y-68.55
X131.43Y-71.09
X131.45Y-78.58
X131.45Y-81.12
X131.45Y-83.66
X131.45Y-86.2
X131.45Y-88.74
X131.45Y-91.28
X131.45Y-93.82
X131.45Y-96.36
X131.47Y-47.97
X131.47Y-50.51
X131.47Y-53.05
X131.47Y-55.59
X145.5Y-118.59
X148.04Y-118.59
X150.58Y-118.59
X153.12Y-118.59
X155.66Y-118.59
X158.2Y-118.59
X160.74Y-118.59
X163.28Y-118.59
X177.42Y-68.5
X177.42Y-71.04
X177.42Y-73.58
X177.42Y-76.12
X177.42Y-78.66
X177.42Y-81.2
X177.42Y-83.74
X177.42Y-86.28
X177.42Y-88.82
X177.42Y-91.36
X177.42Y-93.9
X177.42Y-96.44
X177.42Y-98.98
X177.42Y-101.52
X177.42Y-104.06
X177.47Y-48.0
X177.47Y-50.54
X177.47Y-53.08
X177.47Y-55.62
X177.47Y-58.16
X177.47Y-60.7
X220.31Y-48.29
X220.31Y-50.83
X220.31Y-53.37
X220.31Y-55.91
X220.31Y-58.45
X220.31Y-60.99
X220.31Y-63.53
X220.31Y-66.07
T3
X143.03Y-48.06
X143.03Y-50.6
X143.03Y-53.14
X143.03Y-55.68
X143.03Y-58.22
X143.03Y-60.76
X143.03Y-63.3
X143.03Y-65.84
X143.03Y-68.38
X143.03Y-70.92
X143.03Y-73.46
X143.03Y-76.0
X143.03Y-78.54
X143.03Y-81.08
X143.03Y-83.62
X143.03Y-86.16
X143.03Y-88.7
X143.03Y-91.24
X143.03Y-93.78
X143.03Y-96.32
X143.03Y-98.86
X143.03Y-101.4
X165.89Y-48.06
X165.89Y-50.6
X165.89Y-53.14
X165.89Y-55.68
X165.89Y-58.22
X165.89Y-60.76
X165.89Y-63.3
X165.89Y-65.84
X165.89Y-68.38
X165.89Y-70.92
X165.89Y-73.46
X165.89Y-76.0
X165.89Y-78.54
X165.89Y-81.08
X165.89Y-83.62
X165.89Y-86.16
X165.89Y-88.7
X165.89Y-91.24
X165.89Y-93.78
X165.89Y-96.32
X165.89Y-98.86
X165.89Y-101.4
X189.17Y-48.1
X189.17Y-50.64
X189.17Y-53.18
X189.17Y-55.72
X189.17Y-58.26
X189.17Y-60.8
X189.17Y-63.34
X189.17Y-65.88
X189.17Y-68.42
X189.17Y-70.96
X189.17Y-73.5
X189.17Y-76.04
X189.17Y-78.58
X189.17Y-81.12
X189.17Y-83.66
X189.17Y-86.2
X189.17Y-88.74
X189.17Y-91.28
X189.17Y-93.82
X189.17Y-96.36
X189.17Y-98.9
X189.17Y-101.44
X212.03Y-48.1
X212.03Y-50.64
X212.03Y-53.18
X212.03Y-55.72
X212.03Y-58.26
X212.03Y-60.8
X212.03Y-63.34
X212.03Y-65.88
X212.03Y-68.42
X212.03Y-70.96
X212.03Y-73.5
X212.03Y-76.04
X212.03Y-78.58
X212.03Y-81.12
X212.03Y-83.66
X212.03Y-86.2
X212.03Y-88.74
X212.03Y-91.28
X212.03Y-93.82
X212.03Y-96.36
X212.03Y-98.9
X212.03Y-101.44
T4
X219.48Y-76.05
X219.48Y-82.55
X223.98Y-76.05
X223.98Y-82.55
T5
X131.28Y-113.84
T6
X126.78Y-114.84
X135.78Y-114.84
T7
X131.28Y-107.84
M30
