%TF.GenerationSoftware,KiCad,Pcbnew,9.0.3*%
%TF.CreationDate,2025-07-31T09:13:31-06:00*%
%TF.ProjectId,ARC-210-ESP32S3-Board,4152432d-3231-4302-9d45-535033325333,rev?*%
%TF.SameCoordinates,Original*%
%TF.FileFunction,Legend,Top*%
%TF.FilePolarity,Positive*%
%FSLAX46Y46*%
G04 Gerber Fmt 4.6, Leading zero omitted, Abs format (unit mm)*
G04 Created by KiCad (PCBNEW 9.0.3) date 2025-07-31 09:13:31*
%MOMM*%
%LPD*%
G01*
G04 APERTURE LIST*
%ADD10C,0.150000*%
%ADD11C,0.127000*%
%ADD12C,0.200000*%
%ADD13C,0.120000*%
G04 APERTURE END LIST*
D10*
X190063095Y-37919819D02*
X190063095Y-38729342D01*
X190063095Y-38729342D02*
X190110714Y-38824580D01*
X190110714Y-38824580D02*
X190158333Y-38872200D01*
X190158333Y-38872200D02*
X190253571Y-38919819D01*
X190253571Y-38919819D02*
X190444047Y-38919819D01*
X190444047Y-38919819D02*
X190539285Y-38872200D01*
X190539285Y-38872200D02*
X190586904Y-38824580D01*
X190586904Y-38824580D02*
X190634523Y-38729342D01*
X190634523Y-38729342D02*
X190634523Y-37919819D01*
X191063095Y-38015057D02*
X191110714Y-37967438D01*
X191110714Y-37967438D02*
X191205952Y-37919819D01*
X191205952Y-37919819D02*
X191444047Y-37919819D01*
X191444047Y-37919819D02*
X191539285Y-37967438D01*
X191539285Y-37967438D02*
X191586904Y-38015057D01*
X191586904Y-38015057D02*
X191634523Y-38110295D01*
X191634523Y-38110295D02*
X191634523Y-38205533D01*
X191634523Y-38205533D02*
X191586904Y-38348390D01*
X191586904Y-38348390D02*
X191015476Y-38919819D01*
X191015476Y-38919819D02*
X191634523Y-38919819D01*
X143923095Y-37879819D02*
X143923095Y-38689342D01*
X143923095Y-38689342D02*
X143970714Y-38784580D01*
X143970714Y-38784580D02*
X144018333Y-38832200D01*
X144018333Y-38832200D02*
X144113571Y-38879819D01*
X144113571Y-38879819D02*
X144304047Y-38879819D01*
X144304047Y-38879819D02*
X144399285Y-38832200D01*
X144399285Y-38832200D02*
X144446904Y-38784580D01*
X144446904Y-38784580D02*
X144494523Y-38689342D01*
X144494523Y-38689342D02*
X144494523Y-37879819D01*
X145494523Y-38879819D02*
X144923095Y-38879819D01*
X145208809Y-38879819D02*
X145208809Y-37879819D01*
X145208809Y-37879819D02*
X145113571Y-38022676D01*
X145113571Y-38022676D02*
X145018333Y-38117914D01*
X145018333Y-38117914D02*
X144923095Y-38165533D01*
X217887200Y-80633332D02*
X217934819Y-80490475D01*
X217934819Y-80490475D02*
X217934819Y-80252380D01*
X217934819Y-80252380D02*
X217887200Y-80157142D01*
X217887200Y-80157142D02*
X217839580Y-80109523D01*
X217839580Y-80109523D02*
X217744342Y-80061904D01*
X217744342Y-80061904D02*
X217649104Y-80061904D01*
X217649104Y-80061904D02*
X217553866Y-80109523D01*
X217553866Y-80109523D02*
X217506247Y-80157142D01*
X217506247Y-80157142D02*
X217458628Y-80252380D01*
X217458628Y-80252380D02*
X217411009Y-80442856D01*
X217411009Y-80442856D02*
X217363390Y-80538094D01*
X217363390Y-80538094D02*
X217315771Y-80585713D01*
X217315771Y-80585713D02*
X217220533Y-80633332D01*
X217220533Y-80633332D02*
X217125295Y-80633332D01*
X217125295Y-80633332D02*
X217030057Y-80585713D01*
X217030057Y-80585713D02*
X216982438Y-80538094D01*
X216982438Y-80538094D02*
X216934819Y-80442856D01*
X216934819Y-80442856D02*
X216934819Y-80204761D01*
X216934819Y-80204761D02*
X216982438Y-80061904D01*
X216934819Y-79728570D02*
X217934819Y-79490475D01*
X217934819Y-79490475D02*
X217220533Y-79299999D01*
X217220533Y-79299999D02*
X217934819Y-79109523D01*
X217934819Y-79109523D02*
X216934819Y-78871428D01*
X217934819Y-77966666D02*
X217934819Y-78538094D01*
X217934819Y-78252380D02*
X216934819Y-78252380D01*
X216934819Y-78252380D02*
X217077676Y-78347618D01*
X217077676Y-78347618D02*
X217172914Y-78442856D01*
X217172914Y-78442856D02*
X217220533Y-78538094D01*
X131116666Y-75654819D02*
X131116666Y-76369104D01*
X131116666Y-76369104D02*
X131069047Y-76511961D01*
X131069047Y-76511961D02*
X130973809Y-76607200D01*
X130973809Y-76607200D02*
X130830952Y-76654819D01*
X130830952Y-76654819D02*
X130735714Y-76654819D01*
X131735714Y-76083390D02*
X131640476Y-76035771D01*
X131640476Y-76035771D02*
X131592857Y-75988152D01*
X131592857Y-75988152D02*
X131545238Y-75892914D01*
X131545238Y-75892914D02*
X131545238Y-75845295D01*
X131545238Y-75845295D02*
X131592857Y-75750057D01*
X131592857Y-75750057D02*
X131640476Y-75702438D01*
X131640476Y-75702438D02*
X131735714Y-75654819D01*
X131735714Y-75654819D02*
X131926190Y-75654819D01*
X131926190Y-75654819D02*
X132021428Y-75702438D01*
X132021428Y-75702438D02*
X132069047Y-75750057D01*
X132069047Y-75750057D02*
X132116666Y-75845295D01*
X132116666Y-75845295D02*
X132116666Y-75892914D01*
X132116666Y-75892914D02*
X132069047Y-75988152D01*
X132069047Y-75988152D02*
X132021428Y-76035771D01*
X132021428Y-76035771D02*
X131926190Y-76083390D01*
X131926190Y-76083390D02*
X131735714Y-76083390D01*
X131735714Y-76083390D02*
X131640476Y-76131009D01*
X131640476Y-76131009D02*
X131592857Y-76178628D01*
X131592857Y-76178628D02*
X131545238Y-76273866D01*
X131545238Y-76273866D02*
X131545238Y-76464342D01*
X131545238Y-76464342D02*
X131592857Y-76559580D01*
X131592857Y-76559580D02*
X131640476Y-76607200D01*
X131640476Y-76607200D02*
X131735714Y-76654819D01*
X131735714Y-76654819D02*
X131926190Y-76654819D01*
X131926190Y-76654819D02*
X132021428Y-76607200D01*
X132021428Y-76607200D02*
X132069047Y-76559580D01*
X132069047Y-76559580D02*
X132116666Y-76464342D01*
X132116666Y-76464342D02*
X132116666Y-76273866D01*
X132116666Y-76273866D02*
X132069047Y-76178628D01*
X132069047Y-76178628D02*
X132021428Y-76131009D01*
X132021428Y-76131009D02*
X131926190Y-76083390D01*
X219976666Y-45364819D02*
X219976666Y-46079104D01*
X219976666Y-46079104D02*
X219929047Y-46221961D01*
X219929047Y-46221961D02*
X219833809Y-46317200D01*
X219833809Y-46317200D02*
X219690952Y-46364819D01*
X219690952Y-46364819D02*
X219595714Y-46364819D01*
X220357619Y-45364819D02*
X221024285Y-45364819D01*
X221024285Y-45364819D02*
X220595714Y-46364819D01*
X177086666Y-65574819D02*
X177086666Y-66289104D01*
X177086666Y-66289104D02*
X177039047Y-66431961D01*
X177039047Y-66431961D02*
X176943809Y-66527200D01*
X176943809Y-66527200D02*
X176800952Y-66574819D01*
X176800952Y-66574819D02*
X176705714Y-66574819D01*
X177991428Y-65574819D02*
X177800952Y-65574819D01*
X177800952Y-65574819D02*
X177705714Y-65622438D01*
X177705714Y-65622438D02*
X177658095Y-65670057D01*
X177658095Y-65670057D02*
X177562857Y-65812914D01*
X177562857Y-65812914D02*
X177515238Y-66003390D01*
X177515238Y-66003390D02*
X177515238Y-66384342D01*
X177515238Y-66384342D02*
X177562857Y-66479580D01*
X177562857Y-66479580D02*
X177610476Y-66527200D01*
X177610476Y-66527200D02*
X177705714Y-66574819D01*
X177705714Y-66574819D02*
X177896190Y-66574819D01*
X177896190Y-66574819D02*
X177991428Y-66527200D01*
X177991428Y-66527200D02*
X178039047Y-66479580D01*
X178039047Y-66479580D02*
X178086666Y-66384342D01*
X178086666Y-66384342D02*
X178086666Y-66146247D01*
X178086666Y-66146247D02*
X178039047Y-66051009D01*
X178039047Y-66051009D02*
X177991428Y-66003390D01*
X177991428Y-66003390D02*
X177896190Y-65955771D01*
X177896190Y-65955771D02*
X177705714Y-65955771D01*
X177705714Y-65955771D02*
X177610476Y-66003390D01*
X177610476Y-66003390D02*
X177562857Y-66051009D01*
X177562857Y-66051009D02*
X177515238Y-66146247D01*
X177136666Y-45074819D02*
X177136666Y-45789104D01*
X177136666Y-45789104D02*
X177089047Y-45931961D01*
X177089047Y-45931961D02*
X176993809Y-46027200D01*
X176993809Y-46027200D02*
X176850952Y-46074819D01*
X176850952Y-46074819D02*
X176755714Y-46074819D01*
X178089047Y-45074819D02*
X177612857Y-45074819D01*
X177612857Y-45074819D02*
X177565238Y-45551009D01*
X177565238Y-45551009D02*
X177612857Y-45503390D01*
X177612857Y-45503390D02*
X177708095Y-45455771D01*
X177708095Y-45455771D02*
X177946190Y-45455771D01*
X177946190Y-45455771D02*
X178041428Y-45503390D01*
X178041428Y-45503390D02*
X178089047Y-45551009D01*
X178089047Y-45551009D02*
X178136666Y-45646247D01*
X178136666Y-45646247D02*
X178136666Y-45884342D01*
X178136666Y-45884342D02*
X178089047Y-45979580D01*
X178089047Y-45979580D02*
X178041428Y-46027200D01*
X178041428Y-46027200D02*
X177946190Y-46074819D01*
X177946190Y-46074819D02*
X177708095Y-46074819D01*
X177708095Y-46074819D02*
X177612857Y-46027200D01*
X177612857Y-46027200D02*
X177565238Y-45979580D01*
X131136666Y-45044819D02*
X131136666Y-45759104D01*
X131136666Y-45759104D02*
X131089047Y-45901961D01*
X131089047Y-45901961D02*
X130993809Y-45997200D01*
X130993809Y-45997200D02*
X130850952Y-46044819D01*
X130850952Y-46044819D02*
X130755714Y-46044819D01*
X132041428Y-45378152D02*
X132041428Y-46044819D01*
X131803333Y-44997200D02*
X131565238Y-45711485D01*
X131565238Y-45711485D02*
X132184285Y-45711485D01*
X131096666Y-60544819D02*
X131096666Y-61259104D01*
X131096666Y-61259104D02*
X131049047Y-61401961D01*
X131049047Y-61401961D02*
X130953809Y-61497200D01*
X130953809Y-61497200D02*
X130810952Y-61544819D01*
X130810952Y-61544819D02*
X130715714Y-61544819D01*
X131477619Y-60544819D02*
X132096666Y-60544819D01*
X132096666Y-60544819D02*
X131763333Y-60925771D01*
X131763333Y-60925771D02*
X131906190Y-60925771D01*
X131906190Y-60925771D02*
X132001428Y-60973390D01*
X132001428Y-60973390D02*
X132049047Y-61021009D01*
X132049047Y-61021009D02*
X132096666Y-61116247D01*
X132096666Y-61116247D02*
X132096666Y-61354342D01*
X132096666Y-61354342D02*
X132049047Y-61449580D01*
X132049047Y-61449580D02*
X132001428Y-61497200D01*
X132001428Y-61497200D02*
X131906190Y-61544819D01*
X131906190Y-61544819D02*
X131620476Y-61544819D01*
X131620476Y-61544819D02*
X131525238Y-61497200D01*
X131525238Y-61497200D02*
X131477619Y-61449580D01*
X130946666Y-103994819D02*
X130946666Y-104709104D01*
X130946666Y-104709104D02*
X130899047Y-104851961D01*
X130899047Y-104851961D02*
X130803809Y-104947200D01*
X130803809Y-104947200D02*
X130660952Y-104994819D01*
X130660952Y-104994819D02*
X130565714Y-104994819D01*
X131375238Y-104090057D02*
X131422857Y-104042438D01*
X131422857Y-104042438D02*
X131518095Y-103994819D01*
X131518095Y-103994819D02*
X131756190Y-103994819D01*
X131756190Y-103994819D02*
X131851428Y-104042438D01*
X131851428Y-104042438D02*
X131899047Y-104090057D01*
X131899047Y-104090057D02*
X131946666Y-104185295D01*
X131946666Y-104185295D02*
X131946666Y-104280533D01*
X131946666Y-104280533D02*
X131899047Y-104423390D01*
X131899047Y-104423390D02*
X131327619Y-104994819D01*
X131327619Y-104994819D02*
X131946666Y-104994819D01*
X165114819Y-118923333D02*
X165829104Y-118923333D01*
X165829104Y-118923333D02*
X165971961Y-118970952D01*
X165971961Y-118970952D02*
X166067200Y-119066190D01*
X166067200Y-119066190D02*
X166114819Y-119209047D01*
X166114819Y-119209047D02*
X166114819Y-119304285D01*
X166114819Y-117923333D02*
X166114819Y-118494761D01*
X166114819Y-118209047D02*
X165114819Y-118209047D01*
X165114819Y-118209047D02*
X165257676Y-118304285D01*
X165257676Y-118304285D02*
X165352914Y-118399523D01*
X165352914Y-118399523D02*
X165400533Y-118494761D01*
D11*
%TO.C,U2*%
X187900000Y-46700000D02*
X213300000Y-46700000D01*
X187900000Y-109440000D02*
X187900000Y-46700000D01*
X213300000Y-46700000D02*
X213300000Y-109440000D01*
X213300000Y-109440000D02*
X187900000Y-109440000D01*
D12*
X186984000Y-48098000D02*
G75*
G02*
X186784000Y-48098000I-100000J0D01*
G01*
X186784000Y-48098000D02*
G75*
G02*
X186984000Y-48098000I100000J0D01*
G01*
D11*
%TO.C,U1*%
X141760000Y-46660000D02*
X167160000Y-46660000D01*
X141760000Y-109400000D02*
X141760000Y-46660000D01*
X167160000Y-46660000D02*
X167160000Y-109400000D01*
X167160000Y-109400000D02*
X141760000Y-109400000D01*
D12*
X140844000Y-48058000D02*
G75*
G02*
X140644000Y-48058000I-100000J0D01*
G01*
X140644000Y-48058000D02*
G75*
G02*
X140844000Y-48058000I100000J0D01*
G01*
D13*
%TO.C,SW1*%
X220980000Y-82800000D02*
X222480000Y-82800000D01*
X224980000Y-81550000D02*
X224980000Y-77050000D01*
X218480000Y-77050000D02*
X218480000Y-81550000D01*
X222480000Y-75800000D02*
X220980000Y-75800000D01*
%TO.C,J8*%
X130070000Y-77200000D02*
X131450000Y-77200000D01*
X130070000Y-78580000D02*
X130070000Y-77200000D01*
X130070000Y-79850000D02*
X130070000Y-97740000D01*
X130070000Y-79850000D02*
X132830000Y-79850000D01*
X130070000Y-97740000D02*
X132830000Y-97740000D01*
X132830000Y-79850000D02*
X132830000Y-97740000D01*
%TO.C,J7*%
X218930000Y-46910000D02*
X220310000Y-46910000D01*
X218930000Y-48290000D02*
X218930000Y-46910000D01*
X218930000Y-49560000D02*
X218930000Y-67450000D01*
X218930000Y-49560000D02*
X221690000Y-49560000D01*
X218930000Y-67450000D02*
X221690000Y-67450000D01*
X221690000Y-49560000D02*
X221690000Y-67450000D01*
%TO.C,J6*%
X176040000Y-67120000D02*
X177420000Y-67120000D01*
X176040000Y-68500000D02*
X176040000Y-67120000D01*
X176040000Y-69770000D02*
X176040000Y-105440000D01*
X176040000Y-69770000D02*
X178800000Y-69770000D01*
X176040000Y-105440000D02*
X178800000Y-105440000D01*
X178800000Y-69770000D02*
X178800000Y-105440000D01*
%TO.C,J5*%
X176090000Y-46620000D02*
X177470000Y-46620000D01*
X176090000Y-48000000D02*
X176090000Y-46620000D01*
X176090000Y-49270000D02*
X176090000Y-62080000D01*
X176090000Y-49270000D02*
X178850000Y-49270000D01*
X176090000Y-62080000D02*
X178850000Y-62080000D01*
X178850000Y-49270000D02*
X178850000Y-62080000D01*
%TO.C,J4*%
X130090000Y-46590000D02*
X131470000Y-46590000D01*
X130090000Y-47970000D02*
X130090000Y-46590000D01*
X130090000Y-49240000D02*
X130090000Y-56970000D01*
X130090000Y-49240000D02*
X132850000Y-49240000D01*
X130090000Y-56970000D02*
X132850000Y-56970000D01*
X132850000Y-49240000D02*
X132850000Y-56970000D01*
%TO.C,J3*%
X132810000Y-64740000D02*
X132810000Y-72470000D01*
X130050000Y-72470000D02*
X132810000Y-72470000D01*
X130050000Y-64740000D02*
X132810000Y-64740000D01*
X130050000Y-64740000D02*
X130050000Y-72470000D01*
X130050000Y-63470000D02*
X130050000Y-62090000D01*
X130050000Y-62090000D02*
X131430000Y-62090000D01*
%TO.C,J2*%
X126170000Y-106730000D02*
X128980000Y-106730000D01*
X126170000Y-112790000D02*
X126170000Y-106730000D01*
X126170000Y-119950000D02*
X126170000Y-116890000D01*
X130280000Y-105540000D02*
X132280000Y-105540000D01*
X133580000Y-106730000D02*
X136390000Y-106730000D01*
X136390000Y-106730000D02*
X136390000Y-112790000D01*
X136390000Y-116890000D02*
X136390000Y-119950000D01*
X136390000Y-119950000D02*
X126170000Y-119950000D01*
%TO.C,J1*%
X164660000Y-117210000D02*
X164660000Y-118590000D01*
X163280000Y-117210000D02*
X164660000Y-117210000D01*
X162010000Y-117210000D02*
X144120000Y-117210000D01*
X162010000Y-117210000D02*
X162010000Y-119970000D01*
X144120000Y-117210000D02*
X144120000Y-119970000D01*
X162010000Y-119970000D02*
X144120000Y-119970000D01*
%TD*%
M02*
