%TF.GenerationSoftware,KiCad,Pcbnew,9.0.4*%
%TF.CreationDate,2025-08-28T03:03:01-06:00*%
%TF.ProjectId,ARC-210-Master-Board_V2.0,4152432d-3231-4302-9d4d-61737465722d,rev?*%
%TF.SameCoordinates,Original*%
%TF.FileFunction,Legend,Bot*%
%TF.FilePolarity,Positive*%
%FSLAX46Y46*%
G04 Gerber Fmt 4.6, Leading zero omitted, Abs format (unit mm)*
G04 Created by KiCad (PCBNEW 9.0.4) date 2025-08-28 03:03:01*
%MOMM*%
%LPD*%
G01*
G04 APERTURE LIST*
%ADD10C,0.150000*%
%ADD11C,0.300000*%
%ADD12C,0.120000*%
G04 APERTURE END LIST*
D10*
X214689819Y-65838207D02*
X214213628Y-65504874D01*
X214689819Y-65266779D02*
X213689819Y-65266779D01*
X213689819Y-65266779D02*
X213689819Y-65647731D01*
X213689819Y-65647731D02*
X213737438Y-65742969D01*
X213737438Y-65742969D02*
X213785057Y-65790588D01*
X213785057Y-65790588D02*
X213880295Y-65838207D01*
X213880295Y-65838207D02*
X214023152Y-65838207D01*
X214023152Y-65838207D02*
X214118390Y-65790588D01*
X214118390Y-65790588D02*
X214166009Y-65742969D01*
X214166009Y-65742969D02*
X214213628Y-65647731D01*
X214213628Y-65647731D02*
X214213628Y-65266779D01*
X213689819Y-66457255D02*
X213689819Y-66647731D01*
X213689819Y-66647731D02*
X213737438Y-66742969D01*
X213737438Y-66742969D02*
X213832676Y-66838207D01*
X213832676Y-66838207D02*
X214023152Y-66885826D01*
X214023152Y-66885826D02*
X214356485Y-66885826D01*
X214356485Y-66885826D02*
X214546961Y-66838207D01*
X214546961Y-66838207D02*
X214642200Y-66742969D01*
X214642200Y-66742969D02*
X214689819Y-66647731D01*
X214689819Y-66647731D02*
X214689819Y-66457255D01*
X214689819Y-66457255D02*
X214642200Y-66362017D01*
X214642200Y-66362017D02*
X214546961Y-66266779D01*
X214546961Y-66266779D02*
X214356485Y-66219160D01*
X214356485Y-66219160D02*
X214023152Y-66219160D01*
X214023152Y-66219160D02*
X213832676Y-66266779D01*
X213832676Y-66266779D02*
X213737438Y-66362017D01*
X213737438Y-66362017D02*
X213689819Y-66457255D01*
X213689819Y-67219160D02*
X214689819Y-67457255D01*
X214689819Y-67457255D02*
X213975533Y-67647731D01*
X213975533Y-67647731D02*
X214689819Y-67838207D01*
X214689819Y-67838207D02*
X213689819Y-68076303D01*
X214642200Y-68409636D02*
X214689819Y-68552493D01*
X214689819Y-68552493D02*
X214689819Y-68790588D01*
X214689819Y-68790588D02*
X214642200Y-68885826D01*
X214642200Y-68885826D02*
X214594580Y-68933445D01*
X214594580Y-68933445D02*
X214499342Y-68981064D01*
X214499342Y-68981064D02*
X214404104Y-68981064D01*
X214404104Y-68981064D02*
X214308866Y-68933445D01*
X214308866Y-68933445D02*
X214261247Y-68885826D01*
X214261247Y-68885826D02*
X214213628Y-68790588D01*
X214213628Y-68790588D02*
X214166009Y-68600112D01*
X214166009Y-68600112D02*
X214118390Y-68504874D01*
X214118390Y-68504874D02*
X214070771Y-68457255D01*
X214070771Y-68457255D02*
X213975533Y-68409636D01*
X213975533Y-68409636D02*
X213880295Y-68409636D01*
X213880295Y-68409636D02*
X213785057Y-68457255D01*
X213785057Y-68457255D02*
X213737438Y-68504874D01*
X213737438Y-68504874D02*
X213689819Y-68600112D01*
X213689819Y-68600112D02*
X213689819Y-68838207D01*
X213689819Y-68838207D02*
X213737438Y-68981064D01*
D11*
X91798346Y-42667971D02*
X91869774Y-42739400D01*
X91869774Y-42739400D02*
X92084060Y-42810828D01*
X92084060Y-42810828D02*
X92226917Y-42810828D01*
X92226917Y-42810828D02*
X92441203Y-42739400D01*
X92441203Y-42739400D02*
X92584060Y-42596542D01*
X92584060Y-42596542D02*
X92655489Y-42453685D01*
X92655489Y-42453685D02*
X92726917Y-42167971D01*
X92726917Y-42167971D02*
X92726917Y-41953685D01*
X92726917Y-41953685D02*
X92655489Y-41667971D01*
X92655489Y-41667971D02*
X92584060Y-41525114D01*
X92584060Y-41525114D02*
X92441203Y-41382257D01*
X92441203Y-41382257D02*
X92226917Y-41310828D01*
X92226917Y-41310828D02*
X92084060Y-41310828D01*
X92084060Y-41310828D02*
X91869774Y-41382257D01*
X91869774Y-41382257D02*
X91798346Y-41453685D01*
X90941203Y-42810828D02*
X91084060Y-42739400D01*
X91084060Y-42739400D02*
X91155489Y-42667971D01*
X91155489Y-42667971D02*
X91226917Y-42525114D01*
X91226917Y-42525114D02*
X91226917Y-42096542D01*
X91226917Y-42096542D02*
X91155489Y-41953685D01*
X91155489Y-41953685D02*
X91084060Y-41882257D01*
X91084060Y-41882257D02*
X90941203Y-41810828D01*
X90941203Y-41810828D02*
X90726917Y-41810828D01*
X90726917Y-41810828D02*
X90584060Y-41882257D01*
X90584060Y-41882257D02*
X90512632Y-41953685D01*
X90512632Y-41953685D02*
X90441203Y-42096542D01*
X90441203Y-42096542D02*
X90441203Y-42525114D01*
X90441203Y-42525114D02*
X90512632Y-42667971D01*
X90512632Y-42667971D02*
X90584060Y-42739400D01*
X90584060Y-42739400D02*
X90726917Y-42810828D01*
X90726917Y-42810828D02*
X90941203Y-42810828D01*
X89584060Y-42810828D02*
X89726917Y-42739400D01*
X89726917Y-42739400D02*
X89798346Y-42596542D01*
X89798346Y-42596542D02*
X89798346Y-41310828D01*
X215215012Y-156890949D02*
X214595965Y-156890949D01*
X215338822Y-157262377D02*
X214905489Y-155962377D01*
X214905489Y-155962377D02*
X214472155Y-157262377D01*
X214038822Y-156767139D02*
X213048346Y-156767139D01*
X211748345Y-157262377D02*
X212491202Y-157262377D01*
X212119774Y-157262377D02*
X212119774Y-155962377D01*
X212119774Y-155962377D02*
X212243583Y-156148092D01*
X212243583Y-156148092D02*
X212367393Y-156271901D01*
X212367393Y-156271901D02*
X212491202Y-156333806D01*
X210943584Y-155962377D02*
X210819774Y-155962377D01*
X210819774Y-155962377D02*
X210695965Y-156024282D01*
X210695965Y-156024282D02*
X210634060Y-156086187D01*
X210634060Y-156086187D02*
X210572155Y-156209996D01*
X210572155Y-156209996D02*
X210510250Y-156457615D01*
X210510250Y-156457615D02*
X210510250Y-156767139D01*
X210510250Y-156767139D02*
X210572155Y-157014758D01*
X210572155Y-157014758D02*
X210634060Y-157138568D01*
X210634060Y-157138568D02*
X210695965Y-157200473D01*
X210695965Y-157200473D02*
X210819774Y-157262377D01*
X210819774Y-157262377D02*
X210943584Y-157262377D01*
X210943584Y-157262377D02*
X211067393Y-157200473D01*
X211067393Y-157200473D02*
X211129298Y-157138568D01*
X211129298Y-157138568D02*
X211191203Y-157014758D01*
X211191203Y-157014758D02*
X211253107Y-156767139D01*
X211253107Y-156767139D02*
X211253107Y-156457615D01*
X211253107Y-156457615D02*
X211191203Y-156209996D01*
X211191203Y-156209996D02*
X211129298Y-156086187D01*
X211129298Y-156086187D02*
X211067393Y-156024282D01*
X211067393Y-156024282D02*
X210943584Y-155962377D01*
X209024536Y-156890949D02*
X208405489Y-156890949D01*
X209148346Y-157262377D02*
X208715013Y-155962377D01*
X208715013Y-155962377D02*
X208281679Y-157262377D01*
X207105489Y-157262377D02*
X207538822Y-156643330D01*
X207848346Y-157262377D02*
X207848346Y-155962377D01*
X207848346Y-155962377D02*
X207353108Y-155962377D01*
X207353108Y-155962377D02*
X207229298Y-156024282D01*
X207229298Y-156024282D02*
X207167393Y-156086187D01*
X207167393Y-156086187D02*
X207105489Y-156209996D01*
X207105489Y-156209996D02*
X207105489Y-156395711D01*
X207105489Y-156395711D02*
X207167393Y-156519520D01*
X207167393Y-156519520D02*
X207229298Y-156581425D01*
X207229298Y-156581425D02*
X207353108Y-156643330D01*
X207353108Y-156643330D02*
X207848346Y-156643330D01*
X205805489Y-157138568D02*
X205867393Y-157200473D01*
X205867393Y-157200473D02*
X206053108Y-157262377D01*
X206053108Y-157262377D02*
X206176917Y-157262377D01*
X206176917Y-157262377D02*
X206362631Y-157200473D01*
X206362631Y-157200473D02*
X206486441Y-157076663D01*
X206486441Y-157076663D02*
X206548346Y-156952853D01*
X206548346Y-156952853D02*
X206610250Y-156705234D01*
X206610250Y-156705234D02*
X206610250Y-156519520D01*
X206610250Y-156519520D02*
X206548346Y-156271901D01*
X206548346Y-156271901D02*
X206486441Y-156148092D01*
X206486441Y-156148092D02*
X206362631Y-156024282D01*
X206362631Y-156024282D02*
X206176917Y-155962377D01*
X206176917Y-155962377D02*
X206053108Y-155962377D01*
X206053108Y-155962377D02*
X205867393Y-156024282D01*
X205867393Y-156024282D02*
X205805489Y-156086187D01*
X205248346Y-156767139D02*
X204257870Y-156767139D01*
X203700726Y-156086187D02*
X203638822Y-156024282D01*
X203638822Y-156024282D02*
X203515012Y-155962377D01*
X203515012Y-155962377D02*
X203205488Y-155962377D01*
X203205488Y-155962377D02*
X203081679Y-156024282D01*
X203081679Y-156024282D02*
X203019774Y-156086187D01*
X203019774Y-156086187D02*
X202957869Y-156209996D01*
X202957869Y-156209996D02*
X202957869Y-156333806D01*
X202957869Y-156333806D02*
X203019774Y-156519520D01*
X203019774Y-156519520D02*
X203762631Y-157262377D01*
X203762631Y-157262377D02*
X202957869Y-157262377D01*
X201719774Y-157262377D02*
X202462631Y-157262377D01*
X202091203Y-157262377D02*
X202091203Y-155962377D01*
X202091203Y-155962377D02*
X202215012Y-156148092D01*
X202215012Y-156148092D02*
X202338822Y-156271901D01*
X202338822Y-156271901D02*
X202462631Y-156333806D01*
X200915013Y-155962377D02*
X200791203Y-155962377D01*
X200791203Y-155962377D02*
X200667394Y-156024282D01*
X200667394Y-156024282D02*
X200605489Y-156086187D01*
X200605489Y-156086187D02*
X200543584Y-156209996D01*
X200543584Y-156209996D02*
X200481679Y-156457615D01*
X200481679Y-156457615D02*
X200481679Y-156767139D01*
X200481679Y-156767139D02*
X200543584Y-157014758D01*
X200543584Y-157014758D02*
X200605489Y-157138568D01*
X200605489Y-157138568D02*
X200667394Y-157200473D01*
X200667394Y-157200473D02*
X200791203Y-157262377D01*
X200791203Y-157262377D02*
X200915013Y-157262377D01*
X200915013Y-157262377D02*
X201038822Y-157200473D01*
X201038822Y-157200473D02*
X201100727Y-157138568D01*
X201100727Y-157138568D02*
X201162632Y-157014758D01*
X201162632Y-157014758D02*
X201224536Y-156767139D01*
X201224536Y-156767139D02*
X201224536Y-156457615D01*
X201224536Y-156457615D02*
X201162632Y-156209996D01*
X201162632Y-156209996D02*
X201100727Y-156086187D01*
X201100727Y-156086187D02*
X201038822Y-156024282D01*
X201038822Y-156024282D02*
X200915013Y-155962377D01*
X199119775Y-155962377D02*
X198686442Y-157262377D01*
X198686442Y-157262377D02*
X198253108Y-155962377D01*
X197881679Y-156086187D02*
X197819775Y-156024282D01*
X197819775Y-156024282D02*
X197695965Y-155962377D01*
X197695965Y-155962377D02*
X197386441Y-155962377D01*
X197386441Y-155962377D02*
X197262632Y-156024282D01*
X197262632Y-156024282D02*
X197200727Y-156086187D01*
X197200727Y-156086187D02*
X197138822Y-156209996D01*
X197138822Y-156209996D02*
X197138822Y-156333806D01*
X197138822Y-156333806D02*
X197200727Y-156519520D01*
X197200727Y-156519520D02*
X197943584Y-157262377D01*
X197943584Y-157262377D02*
X197138822Y-157262377D01*
X196581680Y-157138568D02*
X196519775Y-157200473D01*
X196519775Y-157200473D02*
X196581680Y-157262377D01*
X196581680Y-157262377D02*
X196643584Y-157200473D01*
X196643584Y-157200473D02*
X196581680Y-157138568D01*
X196581680Y-157138568D02*
X196581680Y-157262377D01*
X195715013Y-155962377D02*
X195591203Y-155962377D01*
X195591203Y-155962377D02*
X195467394Y-156024282D01*
X195467394Y-156024282D02*
X195405489Y-156086187D01*
X195405489Y-156086187D02*
X195343584Y-156209996D01*
X195343584Y-156209996D02*
X195281679Y-156457615D01*
X195281679Y-156457615D02*
X195281679Y-156767139D01*
X195281679Y-156767139D02*
X195343584Y-157014758D01*
X195343584Y-157014758D02*
X195405489Y-157138568D01*
X195405489Y-157138568D02*
X195467394Y-157200473D01*
X195467394Y-157200473D02*
X195591203Y-157262377D01*
X195591203Y-157262377D02*
X195715013Y-157262377D01*
X195715013Y-157262377D02*
X195838822Y-157200473D01*
X195838822Y-157200473D02*
X195900727Y-157138568D01*
X195900727Y-157138568D02*
X195962632Y-157014758D01*
X195962632Y-157014758D02*
X196024536Y-156767139D01*
X196024536Y-156767139D02*
X196024536Y-156457615D01*
X196024536Y-156457615D02*
X195962632Y-156209996D01*
X195962632Y-156209996D02*
X195900727Y-156086187D01*
X195900727Y-156086187D02*
X195838822Y-156024282D01*
X195838822Y-156024282D02*
X195715013Y-155962377D01*
X214595965Y-159355304D02*
X214595965Y-158055304D01*
X214595965Y-159293400D02*
X214719774Y-159355304D01*
X214719774Y-159355304D02*
X214967393Y-159355304D01*
X214967393Y-159355304D02*
X215091203Y-159293400D01*
X215091203Y-159293400D02*
X215153108Y-159231495D01*
X215153108Y-159231495D02*
X215215012Y-159107685D01*
X215215012Y-159107685D02*
X215215012Y-158736257D01*
X215215012Y-158736257D02*
X215153108Y-158612447D01*
X215153108Y-158612447D02*
X215091203Y-158550542D01*
X215091203Y-158550542D02*
X214967393Y-158488638D01*
X214967393Y-158488638D02*
X214719774Y-158488638D01*
X214719774Y-158488638D02*
X214595965Y-158550542D01*
X213419775Y-158488638D02*
X213419775Y-159541019D01*
X213419775Y-159541019D02*
X213481680Y-159664828D01*
X213481680Y-159664828D02*
X213543584Y-159726733D01*
X213543584Y-159726733D02*
X213667394Y-159788638D01*
X213667394Y-159788638D02*
X213853108Y-159788638D01*
X213853108Y-159788638D02*
X213976918Y-159726733D01*
X213419775Y-159293400D02*
X213543584Y-159355304D01*
X213543584Y-159355304D02*
X213791203Y-159355304D01*
X213791203Y-159355304D02*
X213915013Y-159293400D01*
X213915013Y-159293400D02*
X213976918Y-159231495D01*
X213976918Y-159231495D02*
X214038822Y-159107685D01*
X214038822Y-159107685D02*
X214038822Y-158736257D01*
X214038822Y-158736257D02*
X213976918Y-158612447D01*
X213976918Y-158612447D02*
X213915013Y-158550542D01*
X213915013Y-158550542D02*
X213791203Y-158488638D01*
X213791203Y-158488638D02*
X213543584Y-158488638D01*
X213543584Y-158488638D02*
X213419775Y-158550542D01*
X212243585Y-159355304D02*
X212243585Y-158055304D01*
X212243585Y-159293400D02*
X212367394Y-159355304D01*
X212367394Y-159355304D02*
X212615013Y-159355304D01*
X212615013Y-159355304D02*
X212738823Y-159293400D01*
X212738823Y-159293400D02*
X212800728Y-159231495D01*
X212800728Y-159231495D02*
X212862632Y-159107685D01*
X212862632Y-159107685D02*
X212862632Y-158736257D01*
X212862632Y-158736257D02*
X212800728Y-158612447D01*
X212800728Y-158612447D02*
X212738823Y-158550542D01*
X212738823Y-158550542D02*
X212615013Y-158488638D01*
X212615013Y-158488638D02*
X212367394Y-158488638D01*
X212367394Y-158488638D02*
X212243585Y-158550542D01*
X211624538Y-159355304D02*
X211624538Y-158488638D01*
X211624538Y-158055304D02*
X211686442Y-158117209D01*
X211686442Y-158117209D02*
X211624538Y-158179114D01*
X211624538Y-158179114D02*
X211562633Y-158117209D01*
X211562633Y-158117209D02*
X211624538Y-158055304D01*
X211624538Y-158055304D02*
X211624538Y-158179114D01*
X211005490Y-159355304D02*
X211005490Y-158488638D01*
X211005490Y-158612447D02*
X210943585Y-158550542D01*
X210943585Y-158550542D02*
X210819775Y-158488638D01*
X210819775Y-158488638D02*
X210634061Y-158488638D01*
X210634061Y-158488638D02*
X210510252Y-158550542D01*
X210510252Y-158550542D02*
X210448347Y-158674352D01*
X210448347Y-158674352D02*
X210448347Y-159355304D01*
X210448347Y-158674352D02*
X210386442Y-158550542D01*
X210386442Y-158550542D02*
X210262633Y-158488638D01*
X210262633Y-158488638D02*
X210076918Y-158488638D01*
X210076918Y-158488638D02*
X209953109Y-158550542D01*
X209953109Y-158550542D02*
X209891204Y-158674352D01*
X209891204Y-158674352D02*
X209891204Y-159355304D01*
X209272157Y-159355304D02*
X209272157Y-158488638D01*
X209272157Y-158055304D02*
X209334061Y-158117209D01*
X209334061Y-158117209D02*
X209272157Y-158179114D01*
X209272157Y-158179114D02*
X209210252Y-158117209D01*
X209210252Y-158117209D02*
X209272157Y-158055304D01*
X209272157Y-158055304D02*
X209272157Y-158179114D01*
X208095966Y-159293400D02*
X208219775Y-159355304D01*
X208219775Y-159355304D02*
X208467394Y-159355304D01*
X208467394Y-159355304D02*
X208591204Y-159293400D01*
X208591204Y-159293400D02*
X208653109Y-159231495D01*
X208653109Y-159231495D02*
X208715013Y-159107685D01*
X208715013Y-159107685D02*
X208715013Y-158736257D01*
X208715013Y-158736257D02*
X208653109Y-158612447D01*
X208653109Y-158612447D02*
X208591204Y-158550542D01*
X208591204Y-158550542D02*
X208467394Y-158488638D01*
X208467394Y-158488638D02*
X208219775Y-158488638D01*
X208219775Y-158488638D02*
X208095966Y-158550542D01*
X207538823Y-159355304D02*
X207538823Y-158055304D01*
X207415013Y-158860066D02*
X207043585Y-159355304D01*
X207043585Y-158488638D02*
X207538823Y-158983876D01*
X205681680Y-158736257D02*
X205743585Y-158674352D01*
X205743585Y-158674352D02*
X205867394Y-158612447D01*
X205867394Y-158612447D02*
X205991204Y-158612447D01*
X205991204Y-158612447D02*
X206115013Y-158674352D01*
X206115013Y-158674352D02*
X206176918Y-158736257D01*
X206176918Y-158736257D02*
X206238823Y-158860066D01*
X206238823Y-158860066D02*
X206238823Y-158983876D01*
X206238823Y-158983876D02*
X206176918Y-159107685D01*
X206176918Y-159107685D02*
X206115013Y-159169590D01*
X206115013Y-159169590D02*
X205991204Y-159231495D01*
X205991204Y-159231495D02*
X205867394Y-159231495D01*
X205867394Y-159231495D02*
X205743585Y-159169590D01*
X205743585Y-159169590D02*
X205681680Y-159107685D01*
X205681680Y-158612447D02*
X205681680Y-159107685D01*
X205681680Y-159107685D02*
X205619775Y-159169590D01*
X205619775Y-159169590D02*
X205557870Y-159169590D01*
X205557870Y-159169590D02*
X205434061Y-159107685D01*
X205434061Y-159107685D02*
X205372156Y-158983876D01*
X205372156Y-158983876D02*
X205372156Y-158674352D01*
X205372156Y-158674352D02*
X205495966Y-158488638D01*
X205495966Y-158488638D02*
X205681680Y-158364828D01*
X205681680Y-158364828D02*
X205929299Y-158302923D01*
X205929299Y-158302923D02*
X206176918Y-158364828D01*
X206176918Y-158364828D02*
X206362632Y-158488638D01*
X206362632Y-158488638D02*
X206486442Y-158674352D01*
X206486442Y-158674352D02*
X206548346Y-158921971D01*
X206548346Y-158921971D02*
X206486442Y-159169590D01*
X206486442Y-159169590D02*
X206362632Y-159355304D01*
X206362632Y-159355304D02*
X206176918Y-159479114D01*
X206176918Y-159479114D02*
X205929299Y-159541019D01*
X205929299Y-159541019D02*
X205681680Y-159479114D01*
X205681680Y-159479114D02*
X205495966Y-159355304D01*
X204257870Y-158488638D02*
X204257870Y-159541019D01*
X204257870Y-159541019D02*
X204319775Y-159664828D01*
X204319775Y-159664828D02*
X204381679Y-159726733D01*
X204381679Y-159726733D02*
X204505489Y-159788638D01*
X204505489Y-159788638D02*
X204691203Y-159788638D01*
X204691203Y-159788638D02*
X204815013Y-159726733D01*
X204257870Y-159293400D02*
X204381679Y-159355304D01*
X204381679Y-159355304D02*
X204629298Y-159355304D01*
X204629298Y-159355304D02*
X204753108Y-159293400D01*
X204753108Y-159293400D02*
X204815013Y-159231495D01*
X204815013Y-159231495D02*
X204876917Y-159107685D01*
X204876917Y-159107685D02*
X204876917Y-158736257D01*
X204876917Y-158736257D02*
X204815013Y-158612447D01*
X204815013Y-158612447D02*
X204753108Y-158550542D01*
X204753108Y-158550542D02*
X204629298Y-158488638D01*
X204629298Y-158488638D02*
X204381679Y-158488638D01*
X204381679Y-158488638D02*
X204257870Y-158550542D01*
X203638823Y-159355304D02*
X203638823Y-158488638D01*
X203638823Y-158612447D02*
X203576918Y-158550542D01*
X203576918Y-158550542D02*
X203453108Y-158488638D01*
X203453108Y-158488638D02*
X203267394Y-158488638D01*
X203267394Y-158488638D02*
X203143585Y-158550542D01*
X203143585Y-158550542D02*
X203081680Y-158674352D01*
X203081680Y-158674352D02*
X203081680Y-159355304D01*
X203081680Y-158674352D02*
X203019775Y-158550542D01*
X203019775Y-158550542D02*
X202895966Y-158488638D01*
X202895966Y-158488638D02*
X202710251Y-158488638D01*
X202710251Y-158488638D02*
X202586442Y-158550542D01*
X202586442Y-158550542D02*
X202524537Y-158674352D01*
X202524537Y-158674352D02*
X202524537Y-159355304D01*
X201348347Y-159355304D02*
X201348347Y-158674352D01*
X201348347Y-158674352D02*
X201410252Y-158550542D01*
X201410252Y-158550542D02*
X201534061Y-158488638D01*
X201534061Y-158488638D02*
X201781680Y-158488638D01*
X201781680Y-158488638D02*
X201905490Y-158550542D01*
X201348347Y-159293400D02*
X201472156Y-159355304D01*
X201472156Y-159355304D02*
X201781680Y-159355304D01*
X201781680Y-159355304D02*
X201905490Y-159293400D01*
X201905490Y-159293400D02*
X201967394Y-159169590D01*
X201967394Y-159169590D02*
X201967394Y-159045780D01*
X201967394Y-159045780D02*
X201905490Y-158921971D01*
X201905490Y-158921971D02*
X201781680Y-158860066D01*
X201781680Y-158860066D02*
X201472156Y-158860066D01*
X201472156Y-158860066D02*
X201348347Y-158798161D01*
X200729300Y-159355304D02*
X200729300Y-158488638D01*
X200729300Y-158055304D02*
X200791204Y-158117209D01*
X200791204Y-158117209D02*
X200729300Y-158179114D01*
X200729300Y-158179114D02*
X200667395Y-158117209D01*
X200667395Y-158117209D02*
X200729300Y-158055304D01*
X200729300Y-158055304D02*
X200729300Y-158179114D01*
X199924537Y-159355304D02*
X200048347Y-159293400D01*
X200048347Y-159293400D02*
X200110252Y-159169590D01*
X200110252Y-159169590D02*
X200110252Y-158055304D01*
X199429300Y-159231495D02*
X199367395Y-159293400D01*
X199367395Y-159293400D02*
X199429300Y-159355304D01*
X199429300Y-159355304D02*
X199491204Y-159293400D01*
X199491204Y-159293400D02*
X199429300Y-159231495D01*
X199429300Y-159231495D02*
X199429300Y-159355304D01*
X198253109Y-159293400D02*
X198376918Y-159355304D01*
X198376918Y-159355304D02*
X198624537Y-159355304D01*
X198624537Y-159355304D02*
X198748347Y-159293400D01*
X198748347Y-159293400D02*
X198810252Y-159231495D01*
X198810252Y-159231495D02*
X198872156Y-159107685D01*
X198872156Y-159107685D02*
X198872156Y-158736257D01*
X198872156Y-158736257D02*
X198810252Y-158612447D01*
X198810252Y-158612447D02*
X198748347Y-158550542D01*
X198748347Y-158550542D02*
X198624537Y-158488638D01*
X198624537Y-158488638D02*
X198376918Y-158488638D01*
X198376918Y-158488638D02*
X198253109Y-158550542D01*
X197510251Y-159355304D02*
X197634061Y-159293400D01*
X197634061Y-159293400D02*
X197695966Y-159231495D01*
X197695966Y-159231495D02*
X197757870Y-159107685D01*
X197757870Y-159107685D02*
X197757870Y-158736257D01*
X197757870Y-158736257D02*
X197695966Y-158612447D01*
X197695966Y-158612447D02*
X197634061Y-158550542D01*
X197634061Y-158550542D02*
X197510251Y-158488638D01*
X197510251Y-158488638D02*
X197324537Y-158488638D01*
X197324537Y-158488638D02*
X197200728Y-158550542D01*
X197200728Y-158550542D02*
X197138823Y-158612447D01*
X197138823Y-158612447D02*
X197076918Y-158736257D01*
X197076918Y-158736257D02*
X197076918Y-159107685D01*
X197076918Y-159107685D02*
X197138823Y-159231495D01*
X197138823Y-159231495D02*
X197200728Y-159293400D01*
X197200728Y-159293400D02*
X197324537Y-159355304D01*
X197324537Y-159355304D02*
X197510251Y-159355304D01*
X196519776Y-159355304D02*
X196519776Y-158488638D01*
X196519776Y-158612447D02*
X196457871Y-158550542D01*
X196457871Y-158550542D02*
X196334061Y-158488638D01*
X196334061Y-158488638D02*
X196148347Y-158488638D01*
X196148347Y-158488638D02*
X196024538Y-158550542D01*
X196024538Y-158550542D02*
X195962633Y-158674352D01*
X195962633Y-158674352D02*
X195962633Y-159355304D01*
X195962633Y-158674352D02*
X195900728Y-158550542D01*
X195900728Y-158550542D02*
X195776919Y-158488638D01*
X195776919Y-158488638D02*
X195591204Y-158488638D01*
X195591204Y-158488638D02*
X195467395Y-158550542D01*
X195467395Y-158550542D02*
X195405490Y-158674352D01*
X195405490Y-158674352D02*
X195405490Y-159355304D01*
X89055012Y-155152377D02*
X89055012Y-155399996D01*
X88559774Y-155152377D02*
X88559774Y-155399996D01*
X87755013Y-155152377D02*
X87507394Y-155152377D01*
X87507394Y-155152377D02*
X87383584Y-155214282D01*
X87383584Y-155214282D02*
X87259775Y-155338092D01*
X87259775Y-155338092D02*
X87197870Y-155585711D01*
X87197870Y-155585711D02*
X87197870Y-156019044D01*
X87197870Y-156019044D02*
X87259775Y-156266663D01*
X87259775Y-156266663D02*
X87383584Y-156390473D01*
X87383584Y-156390473D02*
X87507394Y-156452377D01*
X87507394Y-156452377D02*
X87755013Y-156452377D01*
X87755013Y-156452377D02*
X87878822Y-156390473D01*
X87878822Y-156390473D02*
X88002632Y-156266663D01*
X88002632Y-156266663D02*
X88064536Y-156019044D01*
X88064536Y-156019044D02*
X88064536Y-155585711D01*
X88064536Y-155585711D02*
X88002632Y-155338092D01*
X88002632Y-155338092D02*
X87878822Y-155214282D01*
X87878822Y-155214282D02*
X87755013Y-155152377D01*
X86640727Y-156452377D02*
X86640727Y-155152377D01*
X86083584Y-156452377D02*
X86083584Y-155771425D01*
X86083584Y-155771425D02*
X86145489Y-155647615D01*
X86145489Y-155647615D02*
X86269298Y-155585711D01*
X86269298Y-155585711D02*
X86455012Y-155585711D01*
X86455012Y-155585711D02*
X86578822Y-155647615D01*
X86578822Y-155647615D02*
X86640727Y-155709520D01*
X85402632Y-156390473D02*
X85402632Y-156452377D01*
X85402632Y-156452377D02*
X85464537Y-156576187D01*
X85464537Y-156576187D02*
X85526441Y-156638092D01*
X83978822Y-155585711D02*
X83731203Y-156452377D01*
X83731203Y-156452377D02*
X83483584Y-155833330D01*
X83483584Y-155833330D02*
X83235965Y-156452377D01*
X83235965Y-156452377D02*
X82988346Y-155585711D01*
X82493108Y-156452377D02*
X82493108Y-155152377D01*
X81935965Y-156452377D02*
X81935965Y-155771425D01*
X81935965Y-155771425D02*
X81997870Y-155647615D01*
X81997870Y-155647615D02*
X82121679Y-155585711D01*
X82121679Y-155585711D02*
X82307393Y-155585711D01*
X82307393Y-155585711D02*
X82431203Y-155647615D01*
X82431203Y-155647615D02*
X82493108Y-155709520D01*
X80759775Y-156452377D02*
X80759775Y-155771425D01*
X80759775Y-155771425D02*
X80821680Y-155647615D01*
X80821680Y-155647615D02*
X80945489Y-155585711D01*
X80945489Y-155585711D02*
X81193108Y-155585711D01*
X81193108Y-155585711D02*
X81316918Y-155647615D01*
X80759775Y-156390473D02*
X80883584Y-156452377D01*
X80883584Y-156452377D02*
X81193108Y-156452377D01*
X81193108Y-156452377D02*
X81316918Y-156390473D01*
X81316918Y-156390473D02*
X81378822Y-156266663D01*
X81378822Y-156266663D02*
X81378822Y-156142853D01*
X81378822Y-156142853D02*
X81316918Y-156019044D01*
X81316918Y-156019044D02*
X81193108Y-155957139D01*
X81193108Y-155957139D02*
X80883584Y-155957139D01*
X80883584Y-155957139D02*
X80759775Y-155895234D01*
X80326442Y-155585711D02*
X79831204Y-155585711D01*
X80140728Y-155152377D02*
X80140728Y-156266663D01*
X80140728Y-156266663D02*
X80078823Y-156390473D01*
X80078823Y-156390473D02*
X79955013Y-156452377D01*
X79955013Y-156452377D02*
X79831204Y-156452377D01*
X88993108Y-158545304D02*
X88993108Y-157245304D01*
X88435965Y-158545304D02*
X88435965Y-157864352D01*
X88435965Y-157864352D02*
X88497870Y-157740542D01*
X88497870Y-157740542D02*
X88621679Y-157678638D01*
X88621679Y-157678638D02*
X88807393Y-157678638D01*
X88807393Y-157678638D02*
X88931203Y-157740542D01*
X88931203Y-157740542D02*
X88993108Y-157802447D01*
X87259775Y-158545304D02*
X87259775Y-157864352D01*
X87259775Y-157864352D02*
X87321680Y-157740542D01*
X87321680Y-157740542D02*
X87445489Y-157678638D01*
X87445489Y-157678638D02*
X87693108Y-157678638D01*
X87693108Y-157678638D02*
X87816918Y-157740542D01*
X87259775Y-158483400D02*
X87383584Y-158545304D01*
X87383584Y-158545304D02*
X87693108Y-158545304D01*
X87693108Y-158545304D02*
X87816918Y-158483400D01*
X87816918Y-158483400D02*
X87878822Y-158359590D01*
X87878822Y-158359590D02*
X87878822Y-158235780D01*
X87878822Y-158235780D02*
X87816918Y-158111971D01*
X87816918Y-158111971D02*
X87693108Y-158050066D01*
X87693108Y-158050066D02*
X87383584Y-158050066D01*
X87383584Y-158050066D02*
X87259775Y-157988161D01*
X86640728Y-157678638D02*
X86640728Y-158978638D01*
X86640728Y-157740542D02*
X86516918Y-157678638D01*
X86516918Y-157678638D02*
X86269299Y-157678638D01*
X86269299Y-157678638D02*
X86145490Y-157740542D01*
X86145490Y-157740542D02*
X86083585Y-157802447D01*
X86083585Y-157802447D02*
X86021680Y-157926257D01*
X86021680Y-157926257D02*
X86021680Y-158297685D01*
X86021680Y-158297685D02*
X86083585Y-158421495D01*
X86083585Y-158421495D02*
X86145490Y-158483400D01*
X86145490Y-158483400D02*
X86269299Y-158545304D01*
X86269299Y-158545304D02*
X86516918Y-158545304D01*
X86516918Y-158545304D02*
X86640728Y-158483400D01*
X85464538Y-157678638D02*
X85464538Y-158978638D01*
X85464538Y-157740542D02*
X85340728Y-157678638D01*
X85340728Y-157678638D02*
X85093109Y-157678638D01*
X85093109Y-157678638D02*
X84969300Y-157740542D01*
X84969300Y-157740542D02*
X84907395Y-157802447D01*
X84907395Y-157802447D02*
X84845490Y-157926257D01*
X84845490Y-157926257D02*
X84845490Y-158297685D01*
X84845490Y-158297685D02*
X84907395Y-158421495D01*
X84907395Y-158421495D02*
X84969300Y-158483400D01*
X84969300Y-158483400D02*
X85093109Y-158545304D01*
X85093109Y-158545304D02*
X85340728Y-158545304D01*
X85340728Y-158545304D02*
X85464538Y-158483400D01*
X83793110Y-158483400D02*
X83916919Y-158545304D01*
X83916919Y-158545304D02*
X84164538Y-158545304D01*
X84164538Y-158545304D02*
X84288348Y-158483400D01*
X84288348Y-158483400D02*
X84350252Y-158359590D01*
X84350252Y-158359590D02*
X84350252Y-157864352D01*
X84350252Y-157864352D02*
X84288348Y-157740542D01*
X84288348Y-157740542D02*
X84164538Y-157678638D01*
X84164538Y-157678638D02*
X83916919Y-157678638D01*
X83916919Y-157678638D02*
X83793110Y-157740542D01*
X83793110Y-157740542D02*
X83731205Y-157864352D01*
X83731205Y-157864352D02*
X83731205Y-157988161D01*
X83731205Y-157988161D02*
X84350252Y-158111971D01*
X83174062Y-157678638D02*
X83174062Y-158545304D01*
X83174062Y-157802447D02*
X83112157Y-157740542D01*
X83112157Y-157740542D02*
X82988347Y-157678638D01*
X82988347Y-157678638D02*
X82802633Y-157678638D01*
X82802633Y-157678638D02*
X82678824Y-157740542D01*
X82678824Y-157740542D02*
X82616919Y-157864352D01*
X82616919Y-157864352D02*
X82616919Y-158545304D01*
X81440729Y-158545304D02*
X81440729Y-157245304D01*
X81440729Y-158483400D02*
X81564538Y-158545304D01*
X81564538Y-158545304D02*
X81812157Y-158545304D01*
X81812157Y-158545304D02*
X81935967Y-158483400D01*
X81935967Y-158483400D02*
X81997872Y-158421495D01*
X81997872Y-158421495D02*
X82059776Y-158297685D01*
X82059776Y-158297685D02*
X82059776Y-157926257D01*
X82059776Y-157926257D02*
X81997872Y-157802447D01*
X81997872Y-157802447D02*
X81935967Y-157740542D01*
X81935967Y-157740542D02*
X81812157Y-157678638D01*
X81812157Y-157678638D02*
X81564538Y-157678638D01*
X81564538Y-157678638D02*
X81440729Y-157740542D01*
X80016920Y-157678638D02*
X79521682Y-157678638D01*
X79831206Y-157245304D02*
X79831206Y-158359590D01*
X79831206Y-158359590D02*
X79769301Y-158483400D01*
X79769301Y-158483400D02*
X79645491Y-158545304D01*
X79645491Y-158545304D02*
X79521682Y-158545304D01*
X79088349Y-158545304D02*
X79088349Y-157245304D01*
X78531206Y-158545304D02*
X78531206Y-157864352D01*
X78531206Y-157864352D02*
X78593111Y-157740542D01*
X78593111Y-157740542D02*
X78716920Y-157678638D01*
X78716920Y-157678638D02*
X78902634Y-157678638D01*
X78902634Y-157678638D02*
X79026444Y-157740542D01*
X79026444Y-157740542D02*
X79088349Y-157802447D01*
X77416921Y-158483400D02*
X77540730Y-158545304D01*
X77540730Y-158545304D02*
X77788349Y-158545304D01*
X77788349Y-158545304D02*
X77912159Y-158483400D01*
X77912159Y-158483400D02*
X77974063Y-158359590D01*
X77974063Y-158359590D02*
X77974063Y-157864352D01*
X77974063Y-157864352D02*
X77912159Y-157740542D01*
X77912159Y-157740542D02*
X77788349Y-157678638D01*
X77788349Y-157678638D02*
X77540730Y-157678638D01*
X77540730Y-157678638D02*
X77416921Y-157740542D01*
X77416921Y-157740542D02*
X77355016Y-157864352D01*
X77355016Y-157864352D02*
X77355016Y-157988161D01*
X77355016Y-157988161D02*
X77974063Y-158111971D01*
X76797873Y-158545304D02*
X76797873Y-157678638D01*
X76797873Y-157926257D02*
X76735968Y-157802447D01*
X76735968Y-157802447D02*
X76674063Y-157740542D01*
X76674063Y-157740542D02*
X76550254Y-157678638D01*
X76550254Y-157678638D02*
X76426444Y-157678638D01*
X75497873Y-158483400D02*
X75621682Y-158545304D01*
X75621682Y-158545304D02*
X75869301Y-158545304D01*
X75869301Y-158545304D02*
X75993111Y-158483400D01*
X75993111Y-158483400D02*
X76055015Y-158359590D01*
X76055015Y-158359590D02*
X76055015Y-157864352D01*
X76055015Y-157864352D02*
X75993111Y-157740542D01*
X75993111Y-157740542D02*
X75869301Y-157678638D01*
X75869301Y-157678638D02*
X75621682Y-157678638D01*
X75621682Y-157678638D02*
X75497873Y-157740542D01*
X75497873Y-157740542D02*
X75435968Y-157864352D01*
X75435968Y-157864352D02*
X75435968Y-157988161D01*
X75435968Y-157988161D02*
X76055015Y-158111971D01*
X74940729Y-157245304D02*
X74940729Y-157492923D01*
X74445491Y-157245304D02*
X74445491Y-157492923D01*
D10*
X191814285Y-74814819D02*
X191814285Y-73814819D01*
X191814285Y-73814819D02*
X191576190Y-73814819D01*
X191576190Y-73814819D02*
X191433333Y-73862438D01*
X191433333Y-73862438D02*
X191338095Y-73957676D01*
X191338095Y-73957676D02*
X191290476Y-74052914D01*
X191290476Y-74052914D02*
X191242857Y-74243390D01*
X191242857Y-74243390D02*
X191242857Y-74386247D01*
X191242857Y-74386247D02*
X191290476Y-74576723D01*
X191290476Y-74576723D02*
X191338095Y-74671961D01*
X191338095Y-74671961D02*
X191433333Y-74767200D01*
X191433333Y-74767200D02*
X191576190Y-74814819D01*
X191576190Y-74814819D02*
X191814285Y-74814819D01*
X190290476Y-74814819D02*
X190861904Y-74814819D01*
X190576190Y-74814819D02*
X190576190Y-73814819D01*
X190576190Y-73814819D02*
X190671428Y-73957676D01*
X190671428Y-73957676D02*
X190766666Y-74052914D01*
X190766666Y-74052914D02*
X190861904Y-74100533D01*
X189338095Y-74814819D02*
X189909523Y-74814819D01*
X189623809Y-74814819D02*
X189623809Y-73814819D01*
X189623809Y-73814819D02*
X189719047Y-73957676D01*
X189719047Y-73957676D02*
X189814285Y-74052914D01*
X189814285Y-74052914D02*
X189909523Y-74100533D01*
X187051904Y-74494819D02*
X187051904Y-73494819D01*
X186480476Y-74494819D02*
X186909047Y-73923390D01*
X186480476Y-73494819D02*
X187051904Y-74066247D01*
X207374285Y-141424819D02*
X207374285Y-140424819D01*
X207374285Y-140424819D02*
X207136190Y-140424819D01*
X207136190Y-140424819D02*
X206993333Y-140472438D01*
X206993333Y-140472438D02*
X206898095Y-140567676D01*
X206898095Y-140567676D02*
X206850476Y-140662914D01*
X206850476Y-140662914D02*
X206802857Y-140853390D01*
X206802857Y-140853390D02*
X206802857Y-140996247D01*
X206802857Y-140996247D02*
X206850476Y-141186723D01*
X206850476Y-141186723D02*
X206898095Y-141281961D01*
X206898095Y-141281961D02*
X206993333Y-141377200D01*
X206993333Y-141377200D02*
X207136190Y-141424819D01*
X207136190Y-141424819D02*
X207374285Y-141424819D01*
X205850476Y-141424819D02*
X206421904Y-141424819D01*
X206136190Y-141424819D02*
X206136190Y-140424819D01*
X206136190Y-140424819D02*
X206231428Y-140567676D01*
X206231428Y-140567676D02*
X206326666Y-140662914D01*
X206326666Y-140662914D02*
X206421904Y-140710533D01*
X204993333Y-140424819D02*
X205183809Y-140424819D01*
X205183809Y-140424819D02*
X205279047Y-140472438D01*
X205279047Y-140472438D02*
X205326666Y-140520057D01*
X205326666Y-140520057D02*
X205421904Y-140662914D01*
X205421904Y-140662914D02*
X205469523Y-140853390D01*
X205469523Y-140853390D02*
X205469523Y-141234342D01*
X205469523Y-141234342D02*
X205421904Y-141329580D01*
X205421904Y-141329580D02*
X205374285Y-141377200D01*
X205374285Y-141377200D02*
X205279047Y-141424819D01*
X205279047Y-141424819D02*
X205088571Y-141424819D01*
X205088571Y-141424819D02*
X204993333Y-141377200D01*
X204993333Y-141377200D02*
X204945714Y-141329580D01*
X204945714Y-141329580D02*
X204898095Y-141234342D01*
X204898095Y-141234342D02*
X204898095Y-140996247D01*
X204898095Y-140996247D02*
X204945714Y-140901009D01*
X204945714Y-140901009D02*
X204993333Y-140853390D01*
X204993333Y-140853390D02*
X205088571Y-140805771D01*
X205088571Y-140805771D02*
X205279047Y-140805771D01*
X205279047Y-140805771D02*
X205374285Y-140853390D01*
X205374285Y-140853390D02*
X205421904Y-140901009D01*
X205421904Y-140901009D02*
X205469523Y-140996247D01*
X202611904Y-141104819D02*
X202611904Y-140104819D01*
X202040476Y-141104819D02*
X202469047Y-140533390D01*
X202040476Y-140104819D02*
X202611904Y-140676247D01*
X172688094Y-34144819D02*
X172688094Y-33144819D01*
X172688094Y-33144819D02*
X172449999Y-33144819D01*
X172449999Y-33144819D02*
X172307142Y-33192438D01*
X172307142Y-33192438D02*
X172211904Y-33287676D01*
X172211904Y-33287676D02*
X172164285Y-33382914D01*
X172164285Y-33382914D02*
X172116666Y-33573390D01*
X172116666Y-33573390D02*
X172116666Y-33716247D01*
X172116666Y-33716247D02*
X172164285Y-33906723D01*
X172164285Y-33906723D02*
X172211904Y-34001961D01*
X172211904Y-34001961D02*
X172307142Y-34097200D01*
X172307142Y-34097200D02*
X172449999Y-34144819D01*
X172449999Y-34144819D02*
X172688094Y-34144819D01*
X171640475Y-34144819D02*
X171449999Y-34144819D01*
X171449999Y-34144819D02*
X171354761Y-34097200D01*
X171354761Y-34097200D02*
X171307142Y-34049580D01*
X171307142Y-34049580D02*
X171211904Y-33906723D01*
X171211904Y-33906723D02*
X171164285Y-33716247D01*
X171164285Y-33716247D02*
X171164285Y-33335295D01*
X171164285Y-33335295D02*
X171211904Y-33240057D01*
X171211904Y-33240057D02*
X171259523Y-33192438D01*
X171259523Y-33192438D02*
X171354761Y-33144819D01*
X171354761Y-33144819D02*
X171545237Y-33144819D01*
X171545237Y-33144819D02*
X171640475Y-33192438D01*
X171640475Y-33192438D02*
X171688094Y-33240057D01*
X171688094Y-33240057D02*
X171735713Y-33335295D01*
X171735713Y-33335295D02*
X171735713Y-33573390D01*
X171735713Y-33573390D02*
X171688094Y-33668628D01*
X171688094Y-33668628D02*
X171640475Y-33716247D01*
X171640475Y-33716247D02*
X171545237Y-33763866D01*
X171545237Y-33763866D02*
X171354761Y-33763866D01*
X171354761Y-33763866D02*
X171259523Y-33716247D01*
X171259523Y-33716247D02*
X171211904Y-33668628D01*
X171211904Y-33668628D02*
X171164285Y-33573390D01*
X168401904Y-33824819D02*
X168401904Y-32824819D01*
X167830476Y-33824819D02*
X168259047Y-33253390D01*
X167830476Y-32824819D02*
X168401904Y-33396247D01*
X83574819Y-46006666D02*
X84289104Y-46006666D01*
X84289104Y-46006666D02*
X84431961Y-45959047D01*
X84431961Y-45959047D02*
X84527200Y-45863809D01*
X84527200Y-45863809D02*
X84574819Y-45720952D01*
X84574819Y-45720952D02*
X84574819Y-45625714D01*
X83670057Y-46435238D02*
X83622438Y-46482857D01*
X83622438Y-46482857D02*
X83574819Y-46578095D01*
X83574819Y-46578095D02*
X83574819Y-46816190D01*
X83574819Y-46816190D02*
X83622438Y-46911428D01*
X83622438Y-46911428D02*
X83670057Y-46959047D01*
X83670057Y-46959047D02*
X83765295Y-47006666D01*
X83765295Y-47006666D02*
X83860533Y-47006666D01*
X83860533Y-47006666D02*
X84003390Y-46959047D01*
X84003390Y-46959047D02*
X84574819Y-46387619D01*
X84574819Y-46387619D02*
X84574819Y-47006666D01*
X207324285Y-115734819D02*
X207324285Y-114734819D01*
X207324285Y-114734819D02*
X207086190Y-114734819D01*
X207086190Y-114734819D02*
X206943333Y-114782438D01*
X206943333Y-114782438D02*
X206848095Y-114877676D01*
X206848095Y-114877676D02*
X206800476Y-114972914D01*
X206800476Y-114972914D02*
X206752857Y-115163390D01*
X206752857Y-115163390D02*
X206752857Y-115306247D01*
X206752857Y-115306247D02*
X206800476Y-115496723D01*
X206800476Y-115496723D02*
X206848095Y-115591961D01*
X206848095Y-115591961D02*
X206943333Y-115687200D01*
X206943333Y-115687200D02*
X207086190Y-115734819D01*
X207086190Y-115734819D02*
X207324285Y-115734819D01*
X205800476Y-115734819D02*
X206371904Y-115734819D01*
X206086190Y-115734819D02*
X206086190Y-114734819D01*
X206086190Y-114734819D02*
X206181428Y-114877676D01*
X206181428Y-114877676D02*
X206276666Y-114972914D01*
X206276666Y-114972914D02*
X206371904Y-115020533D01*
X204895714Y-114734819D02*
X205371904Y-114734819D01*
X205371904Y-114734819D02*
X205419523Y-115211009D01*
X205419523Y-115211009D02*
X205371904Y-115163390D01*
X205371904Y-115163390D02*
X205276666Y-115115771D01*
X205276666Y-115115771D02*
X205038571Y-115115771D01*
X205038571Y-115115771D02*
X204943333Y-115163390D01*
X204943333Y-115163390D02*
X204895714Y-115211009D01*
X204895714Y-115211009D02*
X204848095Y-115306247D01*
X204848095Y-115306247D02*
X204848095Y-115544342D01*
X204848095Y-115544342D02*
X204895714Y-115639580D01*
X204895714Y-115639580D02*
X204943333Y-115687200D01*
X204943333Y-115687200D02*
X205038571Y-115734819D01*
X205038571Y-115734819D02*
X205276666Y-115734819D01*
X205276666Y-115734819D02*
X205371904Y-115687200D01*
X205371904Y-115687200D02*
X205419523Y-115639580D01*
X202561904Y-115414819D02*
X202561904Y-114414819D01*
X201990476Y-115414819D02*
X202419047Y-114843390D01*
X201990476Y-114414819D02*
X202561904Y-114986247D01*
X91108094Y-101754819D02*
X91108094Y-100754819D01*
X91108094Y-100754819D02*
X90869999Y-100754819D01*
X90869999Y-100754819D02*
X90727142Y-100802438D01*
X90727142Y-100802438D02*
X90631904Y-100897676D01*
X90631904Y-100897676D02*
X90584285Y-100992914D01*
X90584285Y-100992914D02*
X90536666Y-101183390D01*
X90536666Y-101183390D02*
X90536666Y-101326247D01*
X90536666Y-101326247D02*
X90584285Y-101516723D01*
X90584285Y-101516723D02*
X90631904Y-101611961D01*
X90631904Y-101611961D02*
X90727142Y-101707200D01*
X90727142Y-101707200D02*
X90869999Y-101754819D01*
X90869999Y-101754819D02*
X91108094Y-101754819D01*
X90203332Y-100754819D02*
X89584285Y-100754819D01*
X89584285Y-100754819D02*
X89917618Y-101135771D01*
X89917618Y-101135771D02*
X89774761Y-101135771D01*
X89774761Y-101135771D02*
X89679523Y-101183390D01*
X89679523Y-101183390D02*
X89631904Y-101231009D01*
X89631904Y-101231009D02*
X89584285Y-101326247D01*
X89584285Y-101326247D02*
X89584285Y-101564342D01*
X89584285Y-101564342D02*
X89631904Y-101659580D01*
X89631904Y-101659580D02*
X89679523Y-101707200D01*
X89679523Y-101707200D02*
X89774761Y-101754819D01*
X89774761Y-101754819D02*
X90060475Y-101754819D01*
X90060475Y-101754819D02*
X90155713Y-101707200D01*
X90155713Y-101707200D02*
X90203332Y-101659580D01*
X94441904Y-102074819D02*
X94441904Y-101074819D01*
X93870476Y-102074819D02*
X94299047Y-101503390D01*
X93870476Y-101074819D02*
X94441904Y-101646247D01*
X214483333Y-51644819D02*
X214483333Y-52359104D01*
X214483333Y-52359104D02*
X214530952Y-52501961D01*
X214530952Y-52501961D02*
X214626190Y-52597200D01*
X214626190Y-52597200D02*
X214769047Y-52644819D01*
X214769047Y-52644819D02*
X214864285Y-52644819D01*
X213483333Y-52644819D02*
X214054761Y-52644819D01*
X213769047Y-52644819D02*
X213769047Y-51644819D01*
X213769047Y-51644819D02*
X213864285Y-51787676D01*
X213864285Y-51787676D02*
X213959523Y-51882914D01*
X213959523Y-51882914D02*
X214054761Y-51930533D01*
X184154285Y-29894819D02*
X184154285Y-28894819D01*
X184154285Y-28894819D02*
X183916190Y-28894819D01*
X183916190Y-28894819D02*
X183773333Y-28942438D01*
X183773333Y-28942438D02*
X183678095Y-29037676D01*
X183678095Y-29037676D02*
X183630476Y-29132914D01*
X183630476Y-29132914D02*
X183582857Y-29323390D01*
X183582857Y-29323390D02*
X183582857Y-29466247D01*
X183582857Y-29466247D02*
X183630476Y-29656723D01*
X183630476Y-29656723D02*
X183678095Y-29751961D01*
X183678095Y-29751961D02*
X183773333Y-29847200D01*
X183773333Y-29847200D02*
X183916190Y-29894819D01*
X183916190Y-29894819D02*
X184154285Y-29894819D01*
X182630476Y-29894819D02*
X183201904Y-29894819D01*
X182916190Y-29894819D02*
X182916190Y-28894819D01*
X182916190Y-28894819D02*
X183011428Y-29037676D01*
X183011428Y-29037676D02*
X183106666Y-29132914D01*
X183106666Y-29132914D02*
X183201904Y-29180533D01*
X182011428Y-28894819D02*
X181916190Y-28894819D01*
X181916190Y-28894819D02*
X181820952Y-28942438D01*
X181820952Y-28942438D02*
X181773333Y-28990057D01*
X181773333Y-28990057D02*
X181725714Y-29085295D01*
X181725714Y-29085295D02*
X181678095Y-29275771D01*
X181678095Y-29275771D02*
X181678095Y-29513866D01*
X181678095Y-29513866D02*
X181725714Y-29704342D01*
X181725714Y-29704342D02*
X181773333Y-29799580D01*
X181773333Y-29799580D02*
X181820952Y-29847200D01*
X181820952Y-29847200D02*
X181916190Y-29894819D01*
X181916190Y-29894819D02*
X182011428Y-29894819D01*
X182011428Y-29894819D02*
X182106666Y-29847200D01*
X182106666Y-29847200D02*
X182154285Y-29799580D01*
X182154285Y-29799580D02*
X182201904Y-29704342D01*
X182201904Y-29704342D02*
X182249523Y-29513866D01*
X182249523Y-29513866D02*
X182249523Y-29275771D01*
X182249523Y-29275771D02*
X182201904Y-29085295D01*
X182201904Y-29085295D02*
X182154285Y-28990057D01*
X182154285Y-28990057D02*
X182106666Y-28942438D01*
X182106666Y-28942438D02*
X182011428Y-28894819D01*
X187011904Y-30214819D02*
X187011904Y-29214819D01*
X186440476Y-30214819D02*
X186869047Y-29643390D01*
X186440476Y-29214819D02*
X187011904Y-29786247D01*
X92278094Y-87044819D02*
X92278094Y-86044819D01*
X92278094Y-86044819D02*
X92039999Y-86044819D01*
X92039999Y-86044819D02*
X91897142Y-86092438D01*
X91897142Y-86092438D02*
X91801904Y-86187676D01*
X91801904Y-86187676D02*
X91754285Y-86282914D01*
X91754285Y-86282914D02*
X91706666Y-86473390D01*
X91706666Y-86473390D02*
X91706666Y-86616247D01*
X91706666Y-86616247D02*
X91754285Y-86806723D01*
X91754285Y-86806723D02*
X91801904Y-86901961D01*
X91801904Y-86901961D02*
X91897142Y-86997200D01*
X91897142Y-86997200D02*
X92039999Y-87044819D01*
X92039999Y-87044819D02*
X92278094Y-87044819D01*
X90849523Y-86378152D02*
X90849523Y-87044819D01*
X91087618Y-85997200D02*
X91325713Y-86711485D01*
X91325713Y-86711485D02*
X90706666Y-86711485D01*
X87991904Y-86724819D02*
X87991904Y-85724819D01*
X87420476Y-86724819D02*
X87849047Y-86153390D01*
X87420476Y-85724819D02*
X87991904Y-86296247D01*
X85048094Y-136504819D02*
X85048094Y-135504819D01*
X85048094Y-135504819D02*
X84809999Y-135504819D01*
X84809999Y-135504819D02*
X84667142Y-135552438D01*
X84667142Y-135552438D02*
X84571904Y-135647676D01*
X84571904Y-135647676D02*
X84524285Y-135742914D01*
X84524285Y-135742914D02*
X84476666Y-135933390D01*
X84476666Y-135933390D02*
X84476666Y-136076247D01*
X84476666Y-136076247D02*
X84524285Y-136266723D01*
X84524285Y-136266723D02*
X84571904Y-136361961D01*
X84571904Y-136361961D02*
X84667142Y-136457200D01*
X84667142Y-136457200D02*
X84809999Y-136504819D01*
X84809999Y-136504819D02*
X85048094Y-136504819D01*
X83524285Y-136504819D02*
X84095713Y-136504819D01*
X83809999Y-136504819D02*
X83809999Y-135504819D01*
X83809999Y-135504819D02*
X83905237Y-135647676D01*
X83905237Y-135647676D02*
X84000475Y-135742914D01*
X84000475Y-135742914D02*
X84095713Y-135790533D01*
X88381904Y-136824819D02*
X88381904Y-135824819D01*
X87810476Y-136824819D02*
X88239047Y-136253390D01*
X87810476Y-135824819D02*
X88381904Y-136396247D01*
X106728094Y-34164819D02*
X106728094Y-33164819D01*
X106728094Y-33164819D02*
X106489999Y-33164819D01*
X106489999Y-33164819D02*
X106347142Y-33212438D01*
X106347142Y-33212438D02*
X106251904Y-33307676D01*
X106251904Y-33307676D02*
X106204285Y-33402914D01*
X106204285Y-33402914D02*
X106156666Y-33593390D01*
X106156666Y-33593390D02*
X106156666Y-33736247D01*
X106156666Y-33736247D02*
X106204285Y-33926723D01*
X106204285Y-33926723D02*
X106251904Y-34021961D01*
X106251904Y-34021961D02*
X106347142Y-34117200D01*
X106347142Y-34117200D02*
X106489999Y-34164819D01*
X106489999Y-34164819D02*
X106728094Y-34164819D01*
X105299523Y-33164819D02*
X105489999Y-33164819D01*
X105489999Y-33164819D02*
X105585237Y-33212438D01*
X105585237Y-33212438D02*
X105632856Y-33260057D01*
X105632856Y-33260057D02*
X105728094Y-33402914D01*
X105728094Y-33402914D02*
X105775713Y-33593390D01*
X105775713Y-33593390D02*
X105775713Y-33974342D01*
X105775713Y-33974342D02*
X105728094Y-34069580D01*
X105728094Y-34069580D02*
X105680475Y-34117200D01*
X105680475Y-34117200D02*
X105585237Y-34164819D01*
X105585237Y-34164819D02*
X105394761Y-34164819D01*
X105394761Y-34164819D02*
X105299523Y-34117200D01*
X105299523Y-34117200D02*
X105251904Y-34069580D01*
X105251904Y-34069580D02*
X105204285Y-33974342D01*
X105204285Y-33974342D02*
X105204285Y-33736247D01*
X105204285Y-33736247D02*
X105251904Y-33641009D01*
X105251904Y-33641009D02*
X105299523Y-33593390D01*
X105299523Y-33593390D02*
X105394761Y-33545771D01*
X105394761Y-33545771D02*
X105585237Y-33545771D01*
X105585237Y-33545771D02*
X105680475Y-33593390D01*
X105680475Y-33593390D02*
X105728094Y-33641009D01*
X105728094Y-33641009D02*
X105775713Y-33736247D01*
X102441904Y-33844819D02*
X102441904Y-32844819D01*
X101870476Y-33844819D02*
X102299047Y-33273390D01*
X101870476Y-32844819D02*
X102441904Y-33416247D01*
X92248094Y-70454819D02*
X92248094Y-69454819D01*
X92248094Y-69454819D02*
X92009999Y-69454819D01*
X92009999Y-69454819D02*
X91867142Y-69502438D01*
X91867142Y-69502438D02*
X91771904Y-69597676D01*
X91771904Y-69597676D02*
X91724285Y-69692914D01*
X91724285Y-69692914D02*
X91676666Y-69883390D01*
X91676666Y-69883390D02*
X91676666Y-70026247D01*
X91676666Y-70026247D02*
X91724285Y-70216723D01*
X91724285Y-70216723D02*
X91771904Y-70311961D01*
X91771904Y-70311961D02*
X91867142Y-70407200D01*
X91867142Y-70407200D02*
X92009999Y-70454819D01*
X92009999Y-70454819D02*
X92248094Y-70454819D01*
X90771904Y-69454819D02*
X91248094Y-69454819D01*
X91248094Y-69454819D02*
X91295713Y-69931009D01*
X91295713Y-69931009D02*
X91248094Y-69883390D01*
X91248094Y-69883390D02*
X91152856Y-69835771D01*
X91152856Y-69835771D02*
X90914761Y-69835771D01*
X90914761Y-69835771D02*
X90819523Y-69883390D01*
X90819523Y-69883390D02*
X90771904Y-69931009D01*
X90771904Y-69931009D02*
X90724285Y-70026247D01*
X90724285Y-70026247D02*
X90724285Y-70264342D01*
X90724285Y-70264342D02*
X90771904Y-70359580D01*
X90771904Y-70359580D02*
X90819523Y-70407200D01*
X90819523Y-70407200D02*
X90914761Y-70454819D01*
X90914761Y-70454819D02*
X91152856Y-70454819D01*
X91152856Y-70454819D02*
X91248094Y-70407200D01*
X91248094Y-70407200D02*
X91295713Y-70359580D01*
X87961904Y-70134819D02*
X87961904Y-69134819D01*
X87390476Y-70134819D02*
X87819047Y-69563390D01*
X87390476Y-69134819D02*
X87961904Y-69706247D01*
X126954819Y-35221905D02*
X125954819Y-35221905D01*
X125954819Y-35221905D02*
X125954819Y-35460000D01*
X125954819Y-35460000D02*
X126002438Y-35602857D01*
X126002438Y-35602857D02*
X126097676Y-35698095D01*
X126097676Y-35698095D02*
X126192914Y-35745714D01*
X126192914Y-35745714D02*
X126383390Y-35793333D01*
X126383390Y-35793333D02*
X126526247Y-35793333D01*
X126526247Y-35793333D02*
X126716723Y-35745714D01*
X126716723Y-35745714D02*
X126811961Y-35698095D01*
X126811961Y-35698095D02*
X126907200Y-35602857D01*
X126907200Y-35602857D02*
X126954819Y-35460000D01*
X126954819Y-35460000D02*
X126954819Y-35221905D01*
X125954819Y-36126667D02*
X125954819Y-36793333D01*
X125954819Y-36793333D02*
X126954819Y-36364762D01*
X126634819Y-39508095D02*
X125634819Y-39508095D01*
X126634819Y-40079523D02*
X126063390Y-39650952D01*
X125634819Y-40079523D02*
X126206247Y-39508095D01*
X191814285Y-109394819D02*
X191814285Y-108394819D01*
X191814285Y-108394819D02*
X191576190Y-108394819D01*
X191576190Y-108394819D02*
X191433333Y-108442438D01*
X191433333Y-108442438D02*
X191338095Y-108537676D01*
X191338095Y-108537676D02*
X191290476Y-108632914D01*
X191290476Y-108632914D02*
X191242857Y-108823390D01*
X191242857Y-108823390D02*
X191242857Y-108966247D01*
X191242857Y-108966247D02*
X191290476Y-109156723D01*
X191290476Y-109156723D02*
X191338095Y-109251961D01*
X191338095Y-109251961D02*
X191433333Y-109347200D01*
X191433333Y-109347200D02*
X191576190Y-109394819D01*
X191576190Y-109394819D02*
X191814285Y-109394819D01*
X190290476Y-109394819D02*
X190861904Y-109394819D01*
X190576190Y-109394819D02*
X190576190Y-108394819D01*
X190576190Y-108394819D02*
X190671428Y-108537676D01*
X190671428Y-108537676D02*
X190766666Y-108632914D01*
X190766666Y-108632914D02*
X190861904Y-108680533D01*
X189957142Y-108394819D02*
X189338095Y-108394819D01*
X189338095Y-108394819D02*
X189671428Y-108775771D01*
X189671428Y-108775771D02*
X189528571Y-108775771D01*
X189528571Y-108775771D02*
X189433333Y-108823390D01*
X189433333Y-108823390D02*
X189385714Y-108871009D01*
X189385714Y-108871009D02*
X189338095Y-108966247D01*
X189338095Y-108966247D02*
X189338095Y-109204342D01*
X189338095Y-109204342D02*
X189385714Y-109299580D01*
X189385714Y-109299580D02*
X189433333Y-109347200D01*
X189433333Y-109347200D02*
X189528571Y-109394819D01*
X189528571Y-109394819D02*
X189814285Y-109394819D01*
X189814285Y-109394819D02*
X189909523Y-109347200D01*
X189909523Y-109347200D02*
X189957142Y-109299580D01*
X187051904Y-109074819D02*
X187051904Y-108074819D01*
X186480476Y-109074819D02*
X186909047Y-108503390D01*
X186480476Y-108074819D02*
X187051904Y-108646247D01*
X206294285Y-70594819D02*
X206294285Y-69594819D01*
X206294285Y-69594819D02*
X206056190Y-69594819D01*
X206056190Y-69594819D02*
X205913333Y-69642438D01*
X205913333Y-69642438D02*
X205818095Y-69737676D01*
X205818095Y-69737676D02*
X205770476Y-69832914D01*
X205770476Y-69832914D02*
X205722857Y-70023390D01*
X205722857Y-70023390D02*
X205722857Y-70166247D01*
X205722857Y-70166247D02*
X205770476Y-70356723D01*
X205770476Y-70356723D02*
X205818095Y-70451961D01*
X205818095Y-70451961D02*
X205913333Y-70547200D01*
X205913333Y-70547200D02*
X206056190Y-70594819D01*
X206056190Y-70594819D02*
X206294285Y-70594819D01*
X204770476Y-70594819D02*
X205341904Y-70594819D01*
X205056190Y-70594819D02*
X205056190Y-69594819D01*
X205056190Y-69594819D02*
X205151428Y-69737676D01*
X205151428Y-69737676D02*
X205246666Y-69832914D01*
X205246666Y-69832914D02*
X205341904Y-69880533D01*
X204389523Y-69690057D02*
X204341904Y-69642438D01*
X204341904Y-69642438D02*
X204246666Y-69594819D01*
X204246666Y-69594819D02*
X204008571Y-69594819D01*
X204008571Y-69594819D02*
X203913333Y-69642438D01*
X203913333Y-69642438D02*
X203865714Y-69690057D01*
X203865714Y-69690057D02*
X203818095Y-69785295D01*
X203818095Y-69785295D02*
X203818095Y-69880533D01*
X203818095Y-69880533D02*
X203865714Y-70023390D01*
X203865714Y-70023390D02*
X204437142Y-70594819D01*
X204437142Y-70594819D02*
X203818095Y-70594819D01*
X209151904Y-70914819D02*
X209151904Y-69914819D01*
X208580476Y-70914819D02*
X209009047Y-70343390D01*
X208580476Y-69914819D02*
X209151904Y-70486247D01*
X85048094Y-119674819D02*
X85048094Y-118674819D01*
X85048094Y-118674819D02*
X84809999Y-118674819D01*
X84809999Y-118674819D02*
X84667142Y-118722438D01*
X84667142Y-118722438D02*
X84571904Y-118817676D01*
X84571904Y-118817676D02*
X84524285Y-118912914D01*
X84524285Y-118912914D02*
X84476666Y-119103390D01*
X84476666Y-119103390D02*
X84476666Y-119246247D01*
X84476666Y-119246247D02*
X84524285Y-119436723D01*
X84524285Y-119436723D02*
X84571904Y-119531961D01*
X84571904Y-119531961D02*
X84667142Y-119627200D01*
X84667142Y-119627200D02*
X84809999Y-119674819D01*
X84809999Y-119674819D02*
X85048094Y-119674819D01*
X84095713Y-118770057D02*
X84048094Y-118722438D01*
X84048094Y-118722438D02*
X83952856Y-118674819D01*
X83952856Y-118674819D02*
X83714761Y-118674819D01*
X83714761Y-118674819D02*
X83619523Y-118722438D01*
X83619523Y-118722438D02*
X83571904Y-118770057D01*
X83571904Y-118770057D02*
X83524285Y-118865295D01*
X83524285Y-118865295D02*
X83524285Y-118960533D01*
X83524285Y-118960533D02*
X83571904Y-119103390D01*
X83571904Y-119103390D02*
X84143332Y-119674819D01*
X84143332Y-119674819D02*
X83524285Y-119674819D01*
X88381904Y-119994819D02*
X88381904Y-118994819D01*
X87810476Y-119994819D02*
X88239047Y-119423390D01*
X87810476Y-118994819D02*
X88381904Y-119566247D01*
X207324285Y-94724819D02*
X207324285Y-93724819D01*
X207324285Y-93724819D02*
X207086190Y-93724819D01*
X207086190Y-93724819D02*
X206943333Y-93772438D01*
X206943333Y-93772438D02*
X206848095Y-93867676D01*
X206848095Y-93867676D02*
X206800476Y-93962914D01*
X206800476Y-93962914D02*
X206752857Y-94153390D01*
X206752857Y-94153390D02*
X206752857Y-94296247D01*
X206752857Y-94296247D02*
X206800476Y-94486723D01*
X206800476Y-94486723D02*
X206848095Y-94581961D01*
X206848095Y-94581961D02*
X206943333Y-94677200D01*
X206943333Y-94677200D02*
X207086190Y-94724819D01*
X207086190Y-94724819D02*
X207324285Y-94724819D01*
X205800476Y-94724819D02*
X206371904Y-94724819D01*
X206086190Y-94724819D02*
X206086190Y-93724819D01*
X206086190Y-93724819D02*
X206181428Y-93867676D01*
X206181428Y-93867676D02*
X206276666Y-93962914D01*
X206276666Y-93962914D02*
X206371904Y-94010533D01*
X204943333Y-94058152D02*
X204943333Y-94724819D01*
X205181428Y-93677200D02*
X205419523Y-94391485D01*
X205419523Y-94391485D02*
X204800476Y-94391485D01*
X202561904Y-94404819D02*
X202561904Y-93404819D01*
X201990476Y-94404819D02*
X202419047Y-93833390D01*
X201990476Y-93404819D02*
X202561904Y-93976247D01*
X151088094Y-29894819D02*
X151088094Y-28894819D01*
X151088094Y-28894819D02*
X150849999Y-28894819D01*
X150849999Y-28894819D02*
X150707142Y-28942438D01*
X150707142Y-28942438D02*
X150611904Y-29037676D01*
X150611904Y-29037676D02*
X150564285Y-29132914D01*
X150564285Y-29132914D02*
X150516666Y-29323390D01*
X150516666Y-29323390D02*
X150516666Y-29466247D01*
X150516666Y-29466247D02*
X150564285Y-29656723D01*
X150564285Y-29656723D02*
X150611904Y-29751961D01*
X150611904Y-29751961D02*
X150707142Y-29847200D01*
X150707142Y-29847200D02*
X150849999Y-29894819D01*
X150849999Y-29894819D02*
X151088094Y-29894819D01*
X149945237Y-29323390D02*
X150040475Y-29275771D01*
X150040475Y-29275771D02*
X150088094Y-29228152D01*
X150088094Y-29228152D02*
X150135713Y-29132914D01*
X150135713Y-29132914D02*
X150135713Y-29085295D01*
X150135713Y-29085295D02*
X150088094Y-28990057D01*
X150088094Y-28990057D02*
X150040475Y-28942438D01*
X150040475Y-28942438D02*
X149945237Y-28894819D01*
X149945237Y-28894819D02*
X149754761Y-28894819D01*
X149754761Y-28894819D02*
X149659523Y-28942438D01*
X149659523Y-28942438D02*
X149611904Y-28990057D01*
X149611904Y-28990057D02*
X149564285Y-29085295D01*
X149564285Y-29085295D02*
X149564285Y-29132914D01*
X149564285Y-29132914D02*
X149611904Y-29228152D01*
X149611904Y-29228152D02*
X149659523Y-29275771D01*
X149659523Y-29275771D02*
X149754761Y-29323390D01*
X149754761Y-29323390D02*
X149945237Y-29323390D01*
X149945237Y-29323390D02*
X150040475Y-29371009D01*
X150040475Y-29371009D02*
X150088094Y-29418628D01*
X150088094Y-29418628D02*
X150135713Y-29513866D01*
X150135713Y-29513866D02*
X150135713Y-29704342D01*
X150135713Y-29704342D02*
X150088094Y-29799580D01*
X150088094Y-29799580D02*
X150040475Y-29847200D01*
X150040475Y-29847200D02*
X149945237Y-29894819D01*
X149945237Y-29894819D02*
X149754761Y-29894819D01*
X149754761Y-29894819D02*
X149659523Y-29847200D01*
X149659523Y-29847200D02*
X149611904Y-29799580D01*
X149611904Y-29799580D02*
X149564285Y-29704342D01*
X149564285Y-29704342D02*
X149564285Y-29513866D01*
X149564285Y-29513866D02*
X149611904Y-29418628D01*
X149611904Y-29418628D02*
X149659523Y-29371009D01*
X149659523Y-29371009D02*
X149754761Y-29323390D01*
X154421904Y-30214819D02*
X154421904Y-29214819D01*
X153850476Y-30214819D02*
X154279047Y-29643390D01*
X153850476Y-29214819D02*
X154421904Y-29786247D01*
D12*
%TO.C,D11*%
X187830000Y-72240000D02*
X188480000Y-72240000D01*
X189080000Y-73360000D02*
X189080000Y-71120000D01*
X189200000Y-73360000D02*
X189200000Y-71120000D01*
X189320000Y-73360000D02*
X189320000Y-71120000D01*
X193370000Y-72240000D02*
X192720000Y-72240000D01*
X188480000Y-73360000D02*
X192720000Y-73360000D01*
X192720000Y-71120000D01*
X188480000Y-71120000D01*
X188480000Y-73360000D01*
%TO.C,D16*%
X203390000Y-138850000D02*
X204040000Y-138850000D01*
X204640000Y-139970000D02*
X204640000Y-137730000D01*
X204760000Y-139970000D02*
X204760000Y-137730000D01*
X204880000Y-139970000D02*
X204880000Y-137730000D01*
X208930000Y-138850000D02*
X208280000Y-138850000D01*
X204040000Y-139970000D02*
X208280000Y-139970000D01*
X208280000Y-137730000D01*
X204040000Y-137730000D01*
X204040000Y-139970000D01*
%TO.C,D9*%
X169180000Y-31570000D02*
X169830000Y-31570000D01*
X170430000Y-32690000D02*
X170430000Y-30450000D01*
X170550000Y-32690000D02*
X170550000Y-30450000D01*
X170670000Y-32690000D02*
X170670000Y-30450000D01*
X174720000Y-31570000D02*
X174070000Y-31570000D01*
X169830000Y-32690000D02*
X174070000Y-32690000D01*
X174070000Y-30450000D01*
X169830000Y-30450000D01*
X169830000Y-32690000D01*
%TO.C,J2*%
X85610000Y-44960000D02*
X85610000Y-46340000D01*
X86990000Y-44960000D02*
X85610000Y-44960000D01*
X88260000Y-44960000D02*
X88260000Y-47720000D01*
X88260000Y-44960000D02*
X95990000Y-44960000D01*
X88260000Y-47720000D02*
X95990000Y-47720000D01*
X95990000Y-44960000D02*
X95990000Y-47720000D01*
%TO.C,D15*%
X203340000Y-113160000D02*
X203990000Y-113160000D01*
X204590000Y-114280000D02*
X204590000Y-112040000D01*
X204710000Y-114280000D02*
X204710000Y-112040000D01*
X204830000Y-114280000D02*
X204830000Y-112040000D01*
X208880000Y-113160000D02*
X208230000Y-113160000D01*
X203990000Y-114280000D02*
X208230000Y-114280000D01*
X208230000Y-112040000D01*
X203990000Y-112040000D01*
X203990000Y-114280000D01*
%TO.C,D3*%
X87600000Y-103420000D02*
X88250000Y-103420000D01*
X91650000Y-102300000D02*
X91650000Y-104540000D01*
X91770000Y-102300000D02*
X91770000Y-104540000D01*
X91890000Y-102300000D02*
X91890000Y-104540000D01*
X93140000Y-103420000D02*
X92490000Y-103420000D01*
X92490000Y-102300000D02*
X88250000Y-102300000D01*
X88250000Y-104540000D01*
X92490000Y-104540000D01*
X92490000Y-102300000D01*
%TO.C,J1*%
X212770000Y-55840000D02*
X212770000Y-63570000D01*
X215530000Y-53190000D02*
X214150000Y-53190000D01*
X215530000Y-54570000D02*
X215530000Y-53190000D01*
X215530000Y-55840000D02*
X212770000Y-55840000D01*
X215530000Y-55840000D02*
X215530000Y-63570000D01*
X215530000Y-63570000D02*
X212770000Y-63570000D01*
%TO.C,D10*%
X180170000Y-31560000D02*
X180820000Y-31560000D01*
X184220000Y-30440000D02*
X184220000Y-32680000D01*
X184340000Y-30440000D02*
X184340000Y-32680000D01*
X184460000Y-30440000D02*
X184460000Y-32680000D01*
X185710000Y-31560000D02*
X185060000Y-31560000D01*
X185060000Y-30440000D02*
X180820000Y-30440000D01*
X180820000Y-32680000D01*
X185060000Y-32680000D01*
X185060000Y-30440000D01*
%TO.C,D4*%
X88770000Y-84470000D02*
X89420000Y-84470000D01*
X90020000Y-85590000D02*
X90020000Y-83350000D01*
X90140000Y-85590000D02*
X90140000Y-83350000D01*
X90260000Y-85590000D02*
X90260000Y-83350000D01*
X94310000Y-84470000D02*
X93660000Y-84470000D01*
X89420000Y-85590000D02*
X93660000Y-85590000D01*
X93660000Y-83350000D01*
X89420000Y-83350000D01*
X89420000Y-85590000D01*
%TO.C,D1*%
X81540000Y-138170000D02*
X82190000Y-138170000D01*
X85590000Y-137050000D02*
X85590000Y-139290000D01*
X85710000Y-137050000D02*
X85710000Y-139290000D01*
X85830000Y-137050000D02*
X85830000Y-139290000D01*
X87080000Y-138170000D02*
X86430000Y-138170000D01*
X86430000Y-137050000D02*
X82190000Y-137050000D01*
X82190000Y-139290000D01*
X86430000Y-139290000D01*
X86430000Y-137050000D01*
%TO.C,D6*%
X103220000Y-31590000D02*
X103870000Y-31590000D01*
X104470000Y-32710000D02*
X104470000Y-30470000D01*
X104590000Y-32710000D02*
X104590000Y-30470000D01*
X104710000Y-32710000D02*
X104710000Y-30470000D01*
X108760000Y-31590000D02*
X108110000Y-31590000D01*
X103870000Y-32710000D02*
X108110000Y-32710000D01*
X108110000Y-30470000D01*
X103870000Y-30470000D01*
X103870000Y-32710000D01*
%TO.C,D5*%
X88740000Y-67880000D02*
X89390000Y-67880000D01*
X89990000Y-69000000D02*
X89990000Y-66760000D01*
X90110000Y-69000000D02*
X90110000Y-66760000D01*
X90230000Y-69000000D02*
X90230000Y-66760000D01*
X94280000Y-67880000D02*
X93630000Y-67880000D01*
X89390000Y-69000000D02*
X93630000Y-69000000D01*
X93630000Y-66760000D01*
X89390000Y-66760000D01*
X89390000Y-69000000D01*
%TO.C,D7*%
X124380000Y-33190000D02*
X124380000Y-33840000D01*
X124380000Y-38730000D02*
X124380000Y-38080000D01*
X125500000Y-37240000D02*
X123260000Y-37240000D01*
X125500000Y-37360000D02*
X123260000Y-37360000D01*
X125500000Y-37480000D02*
X123260000Y-37480000D01*
X125500000Y-38080000D02*
X123260000Y-38080000D01*
X123260000Y-33840000D01*
X125500000Y-33840000D01*
X125500000Y-38080000D01*
%TO.C,D13*%
X187830000Y-106820000D02*
X188480000Y-106820000D01*
X189080000Y-107940000D02*
X189080000Y-105700000D01*
X189200000Y-107940000D02*
X189200000Y-105700000D01*
X189320000Y-107940000D02*
X189320000Y-105700000D01*
X193370000Y-106820000D02*
X192720000Y-106820000D01*
X188480000Y-107940000D02*
X192720000Y-107940000D01*
X192720000Y-105700000D01*
X188480000Y-105700000D01*
X188480000Y-107940000D01*
%TO.C,D12*%
X202310000Y-72260000D02*
X202960000Y-72260000D01*
X206360000Y-71140000D02*
X206360000Y-73380000D01*
X206480000Y-71140000D02*
X206480000Y-73380000D01*
X206600000Y-71140000D02*
X206600000Y-73380000D01*
X207850000Y-72260000D02*
X207200000Y-72260000D01*
X207200000Y-71140000D02*
X202960000Y-71140000D01*
X202960000Y-73380000D01*
X207200000Y-73380000D01*
X207200000Y-71140000D01*
%TO.C,D2*%
X81540000Y-121340000D02*
X82190000Y-121340000D01*
X85590000Y-120220000D02*
X85590000Y-122460000D01*
X85710000Y-120220000D02*
X85710000Y-122460000D01*
X85830000Y-120220000D02*
X85830000Y-122460000D01*
X87080000Y-121340000D02*
X86430000Y-121340000D01*
X86430000Y-120220000D02*
X82190000Y-120220000D01*
X82190000Y-122460000D01*
X86430000Y-122460000D01*
X86430000Y-120220000D01*
%TO.C,D14*%
X203340000Y-92150000D02*
X203990000Y-92150000D01*
X204590000Y-93270000D02*
X204590000Y-91030000D01*
X204710000Y-93270000D02*
X204710000Y-91030000D01*
X204830000Y-93270000D02*
X204830000Y-91030000D01*
X208880000Y-92150000D02*
X208230000Y-92150000D01*
X203990000Y-93270000D02*
X208230000Y-93270000D01*
X208230000Y-91030000D01*
X203990000Y-91030000D01*
X203990000Y-93270000D01*
%TO.C,D8*%
X147580000Y-31560000D02*
X148230000Y-31560000D01*
X151630000Y-30440000D02*
X151630000Y-32680000D01*
X151750000Y-30440000D02*
X151750000Y-32680000D01*
X151870000Y-30440000D02*
X151870000Y-32680000D01*
X153120000Y-31560000D02*
X152470000Y-31560000D01*
X152470000Y-30440000D02*
X148230000Y-30440000D01*
X148230000Y-32680000D01*
X152470000Y-32680000D01*
X152470000Y-30440000D01*
%TD*%
M02*
