%TF.GenerationSoftware,KiCad,Pcbnew,9.0.3*%
%TF.CreationDate,2025-07-31T04:13:42-06:00*%
%TF.ProjectId,ARC-210-Master-Board,4152432d-3231-4302-9d4d-61737465722d,rev?*%
%TF.SameCoordinates,Original*%
%TF.FileFunction,Drillmap*%
%TF.FilePolarity,Positive*%
%FSLAX45Y45*%
G04 Gerber Fmt 4.5, Leading zero omitted, Abs format (unit mm)*
G04 Created by KiCad (PCBNEW 9.0.3) date 2025-07-31 04:13:42*
%MOMM*%
%LPD*%
G01*
G04 APERTURE LIST*
%ADD10C,0.050000*%
%ADD11C,0.100000*%
%ADD12C,0.200000*%
G04 APERTURE END LIST*
D10*
X19289999Y-16054000D02*
X19290002Y-14799994D01*
X19678004Y-14557000D02*
X19290002Y-14799994D01*
X21756000Y-16054000D02*
X19289999Y-16054000D01*
X9628000Y-14694000D02*
X9628192Y-16044500D01*
X7295000Y-16044500D02*
X9628192Y-16044500D01*
X9166500Y-14064500D02*
X9628000Y-14694000D01*
X20145000Y-3634500D02*
G75*
G02*
X19745000Y-3634500I-200000J0D01*
G01*
X19745000Y-3634500D02*
G75*
G02*
X20145000Y-3634500I200000J0D01*
G01*
X8024000Y-4153000D02*
G75*
G02*
X7524000Y-4153000I-250000J0D01*
G01*
X7524000Y-4153000D02*
G75*
G02*
X8024000Y-4153000I250000J0D01*
G01*
X19678004Y-11057000D02*
X19678004Y-14557000D01*
X9166500Y-13187000D02*
X9166500Y-11057000D01*
X7295000Y-2787000D02*
X7295000Y-16044500D01*
D11*
X20571000Y-5787000D02*
G75*
G02*
X18771000Y-5787000I-900000J0D01*
G01*
X18771000Y-5787000D02*
G75*
G02*
X20571000Y-5787000I900000J0D01*
G01*
D10*
X21576000Y-14681000D02*
G75*
G02*
X21076000Y-14681000I-250000J0D01*
G01*
X21076000Y-14681000D02*
G75*
G02*
X21576000Y-14681000I250000J0D01*
G01*
X9906500Y-4479500D02*
X18186500Y-4487000D01*
X20146000Y-15243000D02*
G75*
G02*
X19746000Y-15243000I-200000J0D01*
G01*
X19746000Y-15243000D02*
G75*
G02*
X20146000Y-15243000I200000J0D01*
G01*
X21581000Y-4154000D02*
G75*
G02*
X21081000Y-4154000I-250000J0D01*
G01*
X21081000Y-4154000D02*
G75*
G02*
X21581000Y-4154000I250000J0D01*
G01*
X8008000Y-14678000D02*
G75*
G02*
X7508000Y-14678000I-250000J0D01*
G01*
X7508000Y-14678000D02*
G75*
G02*
X8008000Y-14678000I250000J0D01*
G01*
X9166500Y-13187000D02*
X9166500Y-14064500D01*
X9419000Y-15228000D02*
G75*
G02*
X9019000Y-15228000I-200000J0D01*
G01*
X9019000Y-15228000D02*
G75*
G02*
X9419000Y-15228000I200000J0D01*
G01*
X9901500Y-10667000D02*
X9906500Y-4479500D01*
X18181500Y-11062000D02*
X18181500Y-10667000D01*
X9907755Y-11057000D02*
X9901500Y-10667000D01*
X7295000Y-2787000D02*
X21756000Y-2786499D01*
X9907755Y-11057000D02*
X9166500Y-11057000D01*
X9416500Y-3627000D02*
G75*
G02*
X9016500Y-3627000I-200000J0D01*
G01*
X9016500Y-3627000D02*
G75*
G02*
X9416500Y-3627000I200000J0D01*
G01*
X21756000Y-2786499D02*
X21756000Y-16054000D01*
X19194000Y-11057000D02*
X19678004Y-11057000D01*
X18186500Y-4487000D02*
X18181500Y-10667000D01*
X19194000Y-11057000D02*
X18181500Y-11062000D01*
D12*
X7553277Y-16367984D02*
X7553277Y-16167984D01*
X7553277Y-16167984D02*
X7600896Y-16167984D01*
X7600896Y-16167984D02*
X7629467Y-16177508D01*
X7629467Y-16177508D02*
X7648515Y-16196555D01*
X7648515Y-16196555D02*
X7658039Y-16215603D01*
X7658039Y-16215603D02*
X7667562Y-16253698D01*
X7667562Y-16253698D02*
X7667562Y-16282269D01*
X7667562Y-16282269D02*
X7658039Y-16320365D01*
X7658039Y-16320365D02*
X7648515Y-16339412D01*
X7648515Y-16339412D02*
X7629467Y-16358460D01*
X7629467Y-16358460D02*
X7600896Y-16367984D01*
X7600896Y-16367984D02*
X7553277Y-16367984D01*
X7753277Y-16367984D02*
X7753277Y-16234650D01*
X7753277Y-16272746D02*
X7762801Y-16253698D01*
X7762801Y-16253698D02*
X7772324Y-16244174D01*
X7772324Y-16244174D02*
X7791372Y-16234650D01*
X7791372Y-16234650D02*
X7810420Y-16234650D01*
X7877086Y-16367984D02*
X7877086Y-16234650D01*
X7877086Y-16167984D02*
X7867562Y-16177508D01*
X7867562Y-16177508D02*
X7877086Y-16187031D01*
X7877086Y-16187031D02*
X7886610Y-16177508D01*
X7886610Y-16177508D02*
X7877086Y-16167984D01*
X7877086Y-16167984D02*
X7877086Y-16187031D01*
X8000896Y-16367984D02*
X7981848Y-16358460D01*
X7981848Y-16358460D02*
X7972324Y-16339412D01*
X7972324Y-16339412D02*
X7972324Y-16167984D01*
X8105658Y-16367984D02*
X8086610Y-16358460D01*
X8086610Y-16358460D02*
X8077086Y-16339412D01*
X8077086Y-16339412D02*
X8077086Y-16167984D01*
X8334229Y-16367984D02*
X8334229Y-16167984D01*
X8334229Y-16167984D02*
X8400896Y-16310841D01*
X8400896Y-16310841D02*
X8467563Y-16167984D01*
X8467563Y-16167984D02*
X8467563Y-16367984D01*
X8648515Y-16367984D02*
X8648515Y-16263222D01*
X8648515Y-16263222D02*
X8638991Y-16244174D01*
X8638991Y-16244174D02*
X8619944Y-16234650D01*
X8619944Y-16234650D02*
X8581848Y-16234650D01*
X8581848Y-16234650D02*
X8562801Y-16244174D01*
X8648515Y-16358460D02*
X8629467Y-16367984D01*
X8629467Y-16367984D02*
X8581848Y-16367984D01*
X8581848Y-16367984D02*
X8562801Y-16358460D01*
X8562801Y-16358460D02*
X8553277Y-16339412D01*
X8553277Y-16339412D02*
X8553277Y-16320365D01*
X8553277Y-16320365D02*
X8562801Y-16301317D01*
X8562801Y-16301317D02*
X8581848Y-16291793D01*
X8581848Y-16291793D02*
X8629467Y-16291793D01*
X8629467Y-16291793D02*
X8648515Y-16282269D01*
X8743753Y-16234650D02*
X8743753Y-16434650D01*
X8743753Y-16244174D02*
X8762801Y-16234650D01*
X8762801Y-16234650D02*
X8800896Y-16234650D01*
X8800896Y-16234650D02*
X8819944Y-16244174D01*
X8819944Y-16244174D02*
X8829467Y-16253698D01*
X8829467Y-16253698D02*
X8838991Y-16272746D01*
X8838991Y-16272746D02*
X8838991Y-16329888D01*
X8838991Y-16329888D02*
X8829467Y-16348936D01*
X8829467Y-16348936D02*
X8819944Y-16358460D01*
X8819944Y-16358460D02*
X8800896Y-16367984D01*
X8800896Y-16367984D02*
X8762801Y-16367984D01*
X8762801Y-16367984D02*
X8743753Y-16358460D01*
X8924705Y-16348936D02*
X8934229Y-16358460D01*
X8934229Y-16358460D02*
X8924705Y-16367984D01*
X8924705Y-16367984D02*
X8915182Y-16358460D01*
X8915182Y-16358460D02*
X8924705Y-16348936D01*
X8924705Y-16348936D02*
X8924705Y-16367984D01*
X8924705Y-16244174D02*
X8934229Y-16253698D01*
X8934229Y-16253698D02*
X8924705Y-16263222D01*
X8924705Y-16263222D02*
X8915182Y-16253698D01*
X8915182Y-16253698D02*
X8924705Y-16244174D01*
X8924705Y-16244174D02*
X8924705Y-16263222D01*
M02*
