%TF.GenerationSoftware,KiCad,Pcbnew,9.0.3*%
%TF.CreationDate,2025-07-25T01:46:46-06:00*%
%TF.ProjectId,ARC-210-Master-Board,4152432d-3231-4302-9d4d-61737465722d,rev?*%
%TF.SameCoordinates,Original*%
%TF.FileFunction,Profile,NP*%
%FSLAX46Y46*%
G04 Gerber Fmt 4.6, Leading zero omitted, Abs format (unit mm)*
G04 Created by KiCad (PCBNEW 9.0.3) date 2025-07-25 01:46:46*
%MOMM*%
%LPD*%
G01*
G04 APERTURE LIST*
%TA.AperFunction,Profile*%
%ADD10C,0.050000*%
%TD*%
%TA.AperFunction,Profile*%
%ADD11C,0.100000*%
%TD*%
G04 APERTURE END LIST*
D10*
X99015000Y-160671134D02*
X72950000Y-160445000D01*
X217560000Y-160540000D02*
X181815000Y-160570005D01*
X72950000Y-27870000D02*
X217560000Y-27864986D01*
X196780041Y-140471130D02*
X181815000Y-150482503D01*
X196780041Y-110570000D02*
X196780041Y-140471130D01*
X191940000Y-110570000D02*
X196780041Y-110570000D01*
X201450000Y-36345000D02*
G75*
G02*
X197450000Y-36345000I-2000000J0D01*
G01*
X197450000Y-36345000D02*
G75*
G02*
X201450000Y-36345000I2000000J0D01*
G01*
X80240000Y-41530000D02*
G75*
G02*
X75240000Y-41530000I-2500000J0D01*
G01*
X75240000Y-41530000D02*
G75*
G02*
X80240000Y-41530000I2500000J0D01*
G01*
X91665000Y-131870000D02*
X91665000Y-110570000D01*
X91665000Y-140645000D02*
X99027500Y-150658067D01*
X72950000Y-27870000D02*
X72950000Y-160445000D01*
X181815000Y-160570005D02*
X181815000Y-150482503D01*
D11*
X205710000Y-57870000D02*
G75*
G02*
X187710000Y-57870000I-9000000J0D01*
G01*
X187710000Y-57870000D02*
G75*
G02*
X205710000Y-57870000I9000000J0D01*
G01*
D10*
X215760000Y-146810000D02*
G75*
G02*
X210760000Y-146810000I-2500000J0D01*
G01*
X210760000Y-146810000D02*
G75*
G02*
X215760000Y-146810000I2500000J0D01*
G01*
X99065000Y-44795000D02*
X181865000Y-44870000D01*
X201460000Y-152430000D02*
G75*
G02*
X197460000Y-152430000I-2000000J0D01*
G01*
X197460000Y-152430000D02*
G75*
G02*
X201460000Y-152430000I2000000J0D01*
G01*
X215810000Y-41540000D02*
G75*
G02*
X210810000Y-41540000I-2500000J0D01*
G01*
X210810000Y-41540000D02*
G75*
G02*
X215810000Y-41540000I2500000J0D01*
G01*
X80080000Y-146780000D02*
G75*
G02*
X75080000Y-146780000I-2500000J0D01*
G01*
X75080000Y-146780000D02*
G75*
G02*
X80080000Y-146780000I2500000J0D01*
G01*
X91665000Y-131870000D02*
X91665000Y-140645000D01*
X94190000Y-152280000D02*
G75*
G02*
X90190000Y-152280000I-2000000J0D01*
G01*
X90190000Y-152280000D02*
G75*
G02*
X94190000Y-152280000I2000000J0D01*
G01*
X99015000Y-106670000D02*
X99065000Y-44795000D01*
X181815000Y-110620000D02*
X181815000Y-106670000D01*
X99077545Y-110570000D02*
X99015000Y-106670000D01*
X99077545Y-110570000D02*
X91665000Y-110570000D01*
X94165000Y-36270000D02*
G75*
G02*
X90165000Y-36270000I-2000000J0D01*
G01*
X90165000Y-36270000D02*
G75*
G02*
X94165000Y-36270000I2000000J0D01*
G01*
X217560000Y-27864986D02*
X217560000Y-160540000D01*
X99015000Y-160671134D02*
X99027500Y-150658067D01*
X181865000Y-44870000D02*
X181815000Y-106670000D01*
X191940000Y-110570000D02*
X181815000Y-110620000D01*
M02*
